<svg width="100" height="33" viewBox="0 0 100 33" fill="none" xmlns="http://www.w3.org/2000/svg">
<path d="M35.48 11.7733C34.5667 11.7733 33.85 11.4667 33.33 10.8533C32.81 10.2333 32.55 9.33665 32.55 8.16332C32.55 7.57665 32.6167 7.05999 32.75 6.61332C32.8833 6.16665 33.0767 5.78999 33.33 5.48332C33.5833 5.17665 33.89 4.94665 34.25 4.79332C34.6167 4.63332 35.0267 4.55332 35.48 4.55332C36.0867 4.55332 36.5933 4.68665 37 4.95332C37.4133 5.21999 37.7367 5.61332 37.97 6.13332L37.02 6.65332C36.9 6.31999 36.7133 6.05665 36.46 5.86332C36.2133 5.66332 35.8867 5.56332 35.48 5.56332C34.94 5.56332 34.5167 5.74665 34.21 6.11332C33.9033 6.47999 33.75 6.98665 33.75 7.63332V8.69332C33.75 9.33999 33.9033 9.84665 34.21 10.2133C34.5167 10.58 34.94 10.7633 35.48 10.7633C35.9 10.7633 36.24 10.6567 36.5 10.4433C36.7667 10.2233 36.9633 9.94332 37.09 9.60332L38 10.1533C37.7667 10.66 37.44 11.0567 37.02 11.3433C36.6 11.63 36.0867 11.7733 35.48 11.7733ZM39.1179 6.45332H40.2079V8.55332H41.1279L41.9879 7.10332C42.1346 6.85665 42.2812 6.68665 42.4279 6.59332C42.5746 6.49999 42.7612 6.45332 42.9879 6.45332H43.5179V7.34332H42.9379L42.2779 8.44332C42.1779 8.61665 42.0879 8.73665 42.0079 8.80332C41.9346 8.86999 41.8346 8.91999 41.7079 8.95332V8.99332C41.8412 9.01999 41.9579 9.06999 42.0579 9.14332C42.1579 9.20999 42.2546 9.32999 42.3479 9.50332L43.0479 10.7633H43.6179V11.6533H42.9979C42.7779 11.6533 42.5879 11.6033 42.4279 11.5033C42.2746 11.4033 42.1279 11.2267 41.9879 10.9733L41.1279 9.43332H40.2079V11.6533H39.1179V6.45332ZM48.5138 11.6533C48.2272 11.6533 48.0072 11.5733 47.8538 11.4133C47.7005 11.2467 47.6072 11.0367 47.5738 10.7833H47.5238C47.4238 11.11 47.2405 11.3567 46.9738 11.5233C46.7072 11.69 46.3838 11.7733 46.0038 11.7733C45.4638 11.7733 45.0472 11.6333 44.7538 11.3533C44.4672 11.0733 44.3238 10.6967 44.3238 10.2233C44.3238 9.70332 44.5105 9.31332 44.8838 9.05332C45.2638 8.79332 45.8172 8.66332 46.5438 8.66332H47.4838V8.22332C47.4838 7.90332 47.3972 7.65665 47.2238 7.48332C47.0505 7.30999 46.7805 7.22332 46.4138 7.22332C46.1072 7.22332 45.8572 7.28999 45.6638 7.42332C45.4705 7.55665 45.3072 7.72665 45.1738 7.93332L44.5238 7.34332C44.6972 7.04999 44.9405 6.80999 45.2538 6.62332C45.5672 6.42999 45.9772 6.33332 46.4838 6.33332C47.1572 6.33332 47.6738 6.48999 48.0338 6.80332C48.3938 7.11665 48.5738 7.56665 48.5738 8.15332V10.7633H49.1238V11.6533H48.5138ZM46.3138 10.9433C46.6538 10.9433 46.9338 10.87 47.1538 10.7233C47.3738 10.57 47.4838 10.3667 47.4838 10.1133V9.36332H46.5638C45.8105 9.36332 45.4338 9.59665 45.4338 10.0633V10.2433C45.4338 10.4767 45.5105 10.6533 45.6638 10.7733C45.8238 10.8867 46.0405 10.9433 46.3138 10.9433ZM52.9554 9.34332H52.9054C52.7587 9.53665 52.5721 9.69332 52.3454 9.81332C52.1187 9.93332 51.8221 9.99332 51.4554 9.99332C50.9021 9.99332 50.4821 9.85332 50.1954 9.57332C49.9154 9.29332 49.7754 8.86332 49.7754 8.28332V6.45332H50.8654V8.21332C50.8654 8.50665 50.9421 8.72332 51.0954 8.86332C51.2487 8.99665 51.4954 9.06332 51.8354 9.06332C52.1754 9.06332 52.4454 9.01332 52.6454 8.91332C52.8521 8.81332 52.9554 8.66999 52.9554 8.48332V6.45332H54.0454V11.6533H52.9554V9.34332ZM55.6023 6.45332H56.6723V8.99332L56.5723 10.2233H56.6123L57.2323 9.11332L59.0323 6.45332H60.0223V11.6533H58.9523V9.11332L59.0523 7.88332H59.0123L58.3923 8.99332L56.5923 11.6533H55.6023V6.45332ZM61.5788 6.45332H64.3488C64.7955 6.45332 65.1388 6.57332 65.3788 6.81332C65.6255 7.05332 65.7488 7.37332 65.7488 7.77332C65.7488 8.42665 65.3988 8.79665 64.6988 8.88332V8.93332C65.1188 8.96665 65.4288 9.08999 65.6288 9.30332C65.8355 9.50999 65.9388 9.78332 65.9388 10.1233C65.9388 10.3433 65.9022 10.5467 65.8288 10.7333C65.7622 10.92 65.6622 11.0833 65.5288 11.2233C65.4022 11.3567 65.2455 11.4633 65.0588 11.5433C64.8722 11.6167 64.6622 11.6533 64.4288 11.6533H61.5788V6.45332ZM64.1788 10.8233C64.3722 10.8233 64.5255 10.7733 64.6388 10.6733C64.7522 10.5733 64.8088 10.4267 64.8088 10.2333V9.96332C64.8088 9.76999 64.7522 9.62332 64.6388 9.52332C64.5255 9.41665 64.3722 9.36332 64.1788 9.36332H62.6488V10.8233H64.1788ZM64.0388 8.61332C64.2255 8.61332 64.3688 8.56665 64.4688 8.47332C64.5688 8.37999 64.6188 8.24665 64.6188 8.07332V7.82332C64.6188 7.64999 64.5688 7.51665 64.4688 7.42332C64.3688 7.32999 64.2255 7.28332 64.0388 7.28332H62.6488V8.61332H64.0388ZM71.0236 11.6533C70.7369 11.6533 70.5169 11.5733 70.3636 11.4133C70.2103 11.2467 70.1169 11.0367 70.0836 10.7833H70.0336C69.9336 11.11 69.7503 11.3567 69.4836 11.5233C69.2169 11.69 68.8936 11.7733 68.5136 11.7733C67.9736 11.7733 67.5569 11.6333 67.2636 11.3533C66.9769 11.0733 66.8336 10.6967 66.8336 10.2233C66.8336 9.70332 67.0203 9.31332 67.3936 9.05332C67.7736 8.79332 68.3269 8.66332 69.0536 8.66332H69.9936V8.22332C69.9936 7.90332 69.9069 7.65665 69.7336 7.48332C69.5603 7.30999 69.2903 7.22332 68.9236 7.22332C68.6169 7.22332 68.3669 7.28999 68.1736 7.42332C67.9803 7.55665 67.8169 7.72665 67.6836 7.93332L67.0336 7.34332C67.2069 7.04999 67.4503 6.80999 67.7636 6.62332C68.0769 6.42999 68.4869 6.33332 68.9936 6.33332C69.6669 6.33332 70.1836 6.48999 70.5436 6.80332C70.9036 7.11665 71.0836 7.56665 71.0836 8.15332V10.7633H71.6336V11.6533H71.0236ZM68.8236 10.9433C69.1636 10.9433 69.4436 10.87 69.6636 10.7233C69.8836 10.57 69.9936 10.3667 69.9936 10.1133V9.36332H69.0736C68.3203 9.36332 67.9436 9.59665 67.9436 10.0633V10.2433C67.9436 10.4767 68.0203 10.6533 68.1736 10.7733C68.3336 10.8867 68.5503 10.9433 68.8236 10.9433ZM72.7019 6.45332H73.7719V8.99332L73.6719 10.2233H73.7119L74.3319 9.11332L76.1319 6.45332H77.1219V11.6533H76.0519V9.11332L76.1519 7.88332H76.1119L75.4919 8.99332L73.6919 11.6533H72.7019V6.45332ZM74.9219 5.76332C74.5219 5.76332 74.2019 5.68332 73.9619 5.52332C73.7285 5.35665 73.5419 5.12999 73.4019 4.84332L73.2019 4.40332L74.0919 4.04332L74.4319 4.94332C74.4985 4.96332 74.5752 4.97999 74.6619 4.99332C74.7552 5.00665 74.8419 5.01332 74.9219 5.01332C75.0019 5.01332 75.0852 5.00665 75.1719 4.99332C75.2652 4.97999 75.3452 4.96332 75.4119 4.94332L75.7519 4.04332L76.6419 4.40332L76.4419 4.84332C76.3019 5.12999 76.1119 5.35665 75.8719 5.52332C75.6385 5.68332 75.3219 5.76332 74.9219 5.76332ZM79.7584 7.34332H78.0984V6.45332H82.5084V7.34332H80.8484V11.6533H79.7584V7.34332ZM85.4352 11.7733C85.0619 11.7733 84.7286 11.71 84.4352 11.5833C84.1419 11.4567 83.8919 11.2767 83.6852 11.0433C83.4786 10.8033 83.3186 10.5167 83.2052 10.1833C83.0986 9.84332 83.0452 9.46665 83.0452 9.05332C83.0452 8.63999 83.0986 8.26665 83.2052 7.93332C83.3186 7.59332 83.4786 7.30665 83.6852 7.07332C83.8919 6.83332 84.1419 6.64999 84.4352 6.52332C84.7286 6.39665 85.0619 6.33332 85.4352 6.33332C85.8152 6.33332 86.1486 6.39999 86.4352 6.53332C86.7286 6.66665 86.9719 6.85332 87.1652 7.09332C87.3586 7.32665 87.5019 7.59999 87.5952 7.91332C87.6952 8.22665 87.7452 8.56332 87.7452 8.92332V9.33332H84.1752V9.50332C84.1752 9.90332 84.2919 10.2333 84.5252 10.4933C84.7652 10.7467 85.1052 10.8733 85.5452 10.8733C85.8652 10.8733 86.1352 10.8033 86.3552 10.6633C86.5752 10.5233 86.7619 10.3333 86.9152 10.0933L87.5552 10.7233C87.3619 11.0433 87.0819 11.3 86.7152 11.4933C86.3486 11.68 85.9219 11.7733 85.4352 11.7733ZM85.4352 7.18332C85.2486 7.18332 85.0752 7.21665 84.9152 7.28332C84.7619 7.34999 84.6286 7.44332 84.5152 7.56332C84.4086 7.68332 84.3252 7.82665 84.2652 7.99332C84.2052 8.15999 84.1752 8.34332 84.1752 8.54332V8.61332H86.5952V8.51332C86.5952 8.11332 86.4919 7.79332 86.2852 7.55332C86.0786 7.30665 85.7952 7.18332 85.4352 7.18332ZM91.3152 6.45332H94.0852C94.5318 6.45332 94.8752 6.57332 95.1152 6.81332C95.3618 7.05332 95.4852 7.37332 95.4852 7.77332C95.4852 8.42665 95.1352 8.79665 94.4352 8.88332V8.93332C94.8552 8.96665 95.1652 9.08999 95.3652 9.30332C95.5718 9.50999 95.6752 9.78332 95.6752 10.1233C95.6752 10.3433 95.6385 10.5467 95.5652 10.7333C95.4985 10.92 95.3985 11.0833 95.2652 11.2233C95.1385 11.3567 94.9818 11.4633 94.7952 11.5433C94.6085 11.6167 94.3985 11.6533 94.1652 11.6533H91.3152V6.45332ZM93.9152 10.8233C94.1085 10.8233 94.2618 10.7733 94.3752 10.6733C94.4885 10.5733 94.5452 10.4267 94.5452 10.2333V9.96332C94.5452 9.76999 94.4885 9.62332 94.3752 9.52332C94.2618 9.41665 94.1085 9.36332 93.9152 9.36332H92.3852V10.8233H93.9152ZM93.7752 8.61332C93.9618 8.61332 94.1052 8.56665 94.2052 8.47332C94.3052 8.37999 94.3552 8.24665 94.3552 8.07332V7.82332C94.3552 7.64999 94.3052 7.51665 94.2052 7.42332C94.1052 7.32999 93.9618 7.28332 93.7752 7.28332H92.3852V8.61332H93.7752Z" fill="#7D6858"/>
<path d="M37.605 28.6533L36.855 26.1633H33.36L32.61 28.6533H30.3L33.75 18.1833H36.57L39.975 28.6533H37.605ZM35.13 20.2533H35.055L33.9 24.2283H36.3L35.13 20.2533ZM41.3036 20.7783H43.5236V22.0983H43.5986C43.7086 21.6583 43.9586 21.2983 44.3486 21.0183C44.7486 20.7383 45.2036 20.5983 45.7136 20.5983C46.7136 20.5983 47.4686 20.9483 47.9786 21.6483C48.4886 22.3483 48.7436 23.3683 48.7436 24.7083C48.7436 26.0483 48.4886 27.0733 47.9786 27.7833C47.4686 28.4833 46.7136 28.8333 45.7136 28.8333C45.4536 28.8333 45.2086 28.7933 44.9786 28.7133C44.7486 28.6433 44.5386 28.5433 44.3486 28.4133C44.1686 28.2733 44.0136 28.1133 43.8836 27.9333C43.7536 27.7433 43.6586 27.5433 43.5986 27.3333H43.5236V31.6533H41.3036V20.7783ZM44.9786 27.0333C45.3986 27.0333 45.7436 26.8883 46.0136 26.5983C46.2936 26.2983 46.4336 25.8983 46.4336 25.3983V24.0333C46.4336 23.5333 46.2936 23.1383 46.0136 22.8483C45.7436 22.5483 45.3986 22.3983 44.9786 22.3983C44.5586 22.3983 44.2086 22.5033 43.9286 22.7133C43.6586 22.9133 43.5236 23.1933 43.5236 23.5533V25.8783C43.5236 26.2383 43.6586 26.5233 43.9286 26.7333C44.2086 26.9333 44.5586 27.0333 44.9786 27.0333ZM50.4295 20.7783H52.6495V22.0983H52.7245C52.8345 21.6583 53.0845 21.2983 53.4745 21.0183C53.8745 20.7383 54.3295 20.5983 54.8395 20.5983C55.8395 20.5983 56.5945 20.9483 57.1045 21.6483C57.6145 22.3483 57.8695 23.3683 57.8695 24.7083C57.8695 26.0483 57.6145 27.0733 57.1045 27.7833C56.5945 28.4833 55.8395 28.8333 54.8395 28.8333C54.5795 28.8333 54.3345 28.7933 54.1045 28.7133C53.8745 28.6433 53.6645 28.5433 53.4745 28.4133C53.2945 28.2733 53.1395 28.1133 53.0095 27.9333C52.8795 27.7433 52.7845 27.5433 52.7245 27.3333H52.6495V31.6533H50.4295V20.7783ZM54.1045 27.0333C54.5245 27.0333 54.8695 26.8883 55.1395 26.5983C55.4195 26.2983 55.5595 25.8983 55.5595 25.3983V24.0333C55.5595 23.5333 55.4195 23.1383 55.1395 22.8483C54.8695 22.5483 54.5245 22.3983 54.1045 22.3983C53.6845 22.3983 53.3345 22.5033 53.0545 22.7133C52.7845 22.9133 52.6495 23.1933 52.6495 23.5533V25.8783C52.6495 26.2383 52.7845 26.5233 53.0545 26.7333C53.3345 26.9333 53.6845 27.0333 54.1045 27.0333ZM66.6104 28.8333C65.6904 28.8333 64.9104 28.6783 64.2704 28.3683C63.6304 28.0483 63.0854 27.6383 62.6354 27.1383L64.1354 25.6233C64.8454 26.4233 65.7204 26.8233 66.7604 26.8233C67.3204 26.8233 67.7354 26.7083 68.0054 26.4783C68.2754 26.2483 68.4104 25.9433 68.4104 25.5633C68.4104 25.2733 68.3304 25.0333 68.1704 24.8433C68.0104 24.6433 67.6854 24.5083 67.1954 24.4383L66.1604 24.3033C65.0504 24.1633 64.2354 23.8283 63.7154 23.2983C63.2054 22.7683 62.9504 22.0633 62.9504 21.1833C62.9504 20.7133 63.0404 20.2833 63.2204 19.8933C63.4004 19.5033 63.6554 19.1683 63.9854 18.8883C64.3254 18.6083 64.7354 18.3933 65.2154 18.2433C65.7054 18.0833 66.2604 18.0033 66.8804 18.0033C67.6704 18.0033 68.3654 18.1283 68.9654 18.3783C69.5654 18.6283 70.0804 18.9933 70.5104 19.4733L68.9954 21.0033C68.7454 20.7133 68.4404 20.4783 68.0804 20.2983C67.7304 20.1083 67.2854 20.0133 66.7454 20.0133C66.2354 20.0133 65.8554 20.1033 65.6054 20.2833C65.3554 20.4633 65.2304 20.7133 65.2304 21.0333C65.2304 21.3933 65.3254 21.6533 65.5154 21.8133C65.7154 21.9733 66.0354 22.0883 66.4754 22.1583L67.5104 22.3233C68.5904 22.4933 69.3904 22.8283 69.9104 23.3283C70.4304 23.8183 70.6904 24.5183 70.6904 25.4283C70.6904 25.9283 70.6004 26.3883 70.4204 26.8083C70.2404 27.2283 69.9754 27.5883 69.6254 27.8883C69.2854 28.1883 68.8604 28.4233 68.3504 28.5933C67.8404 28.7533 67.2604 28.8333 66.6104 28.8333ZM75.1475 28.6533C74.3775 28.6533 73.7925 28.4583 73.3925 28.0683C73.0025 27.6783 72.8075 27.1083 72.8075 26.3583V22.5033H71.6975V20.7783H72.2525C72.5525 20.7783 72.7575 20.7083 72.8675 20.5683C72.9775 20.4183 73.0325 20.2083 73.0325 19.9383V18.6483H75.0275V20.7783H76.5875V22.5033H75.0275V26.9283H76.4675V28.6533H75.1475ZM81.2661 28.8333C80.6861 28.8333 80.1661 28.7383 79.7061 28.5483C79.2561 28.3583 78.8711 28.0833 78.5511 27.7233C78.2411 27.3633 78.0011 26.9283 77.8311 26.4183C77.6611 25.9083 77.5761 25.3383 77.5761 24.7083C77.5761 24.0783 77.6611 23.5083 77.8311 22.9983C78.0011 22.4883 78.2411 22.0583 78.5511 21.7083C78.8711 21.3483 79.2561 21.0733 79.7061 20.8833C80.1661 20.6933 80.6861 20.5983 81.2661 20.5983C81.8461 20.5983 82.3611 20.6933 82.8111 20.8833C83.2711 21.0733 83.6561 21.3483 83.9661 21.7083C84.2861 22.0583 84.5311 22.4883 84.7011 22.9983C84.8711 23.5083 84.9561 24.0783 84.9561 24.7083C84.9561 25.3383 84.8711 25.9083 84.7011 26.4183C84.5311 26.9283 84.2861 27.3633 83.9661 27.7233C83.6561 28.0833 83.2711 28.3583 82.8111 28.5483C82.3611 28.7383 81.8461 28.8333 81.2661 28.8333ZM81.2661 27.0783C81.7061 27.0783 82.0461 26.9433 82.2861 26.6733C82.5261 26.4033 82.6461 26.0183 82.6461 25.5183V23.9133C82.6461 23.4133 82.5261 23.0283 82.2861 22.7583C82.0461 22.4883 81.7061 22.3533 81.2661 22.3533C80.8261 22.3533 80.4861 22.4883 80.2461 22.7583C80.0061 23.0283 79.8861 23.4133 79.8861 23.9133V25.5183C79.8861 26.0183 80.0061 26.4033 80.2461 26.6733C80.4861 26.9433 80.8261 27.0783 81.2661 27.0783ZM86.5379 28.6533V20.7783H88.7579V22.4883H88.8329C88.8729 22.2683 88.9429 22.0583 89.0429 21.8583C89.1429 21.6483 89.2729 21.4633 89.4329 21.3033C89.6029 21.1433 89.8029 21.0183 90.0329 20.9283C90.2629 20.8283 90.5329 20.7783 90.8429 20.7783H91.2329V22.8483H90.6779C90.0279 22.8483 89.5429 22.9333 89.2229 23.1033C88.9129 23.2733 88.7579 23.5883 88.7579 24.0483V28.6533H86.5379ZM95.8141 28.8333C95.2141 28.8333 94.6791 28.7383 94.2091 28.5483C93.7391 28.3483 93.3391 28.0733 93.0091 27.7233C92.6891 27.3633 92.4441 26.9283 92.2741 26.4183C92.1141 25.9083 92.0341 25.3383 92.0341 24.7083C92.0341 24.0883 92.1141 23.5283 92.2741 23.0283C92.4341 22.5183 92.6691 22.0833 92.9791 21.7233C93.2991 21.3633 93.6891 21.0883 94.1491 20.8983C94.6091 20.6983 95.1341 20.5983 95.7241 20.5983C96.3741 20.5983 96.9291 20.7083 97.3891 20.9283C97.8591 21.1483 98.2391 21.4433 98.5291 21.8133C98.8291 22.1833 99.0441 22.6133 99.1741 23.1033C99.3141 23.5833 99.3841 24.0883 99.3841 24.6183V25.2783H94.3291V25.3983C94.3291 25.9183 94.4691 26.3333 94.7491 26.6433C95.0291 26.9433 95.4691 27.0933 96.0691 27.0933C96.5291 27.0933 96.9041 27.0033 97.1941 26.8233C97.4841 26.6333 97.7541 26.4083 98.0041 26.1483L99.1141 27.5283C98.7641 27.9383 98.3041 28.2583 97.7341 28.4883C97.1741 28.7183 96.5341 28.8333 95.8141 28.8333ZM95.7691 22.2333C95.3191 22.2333 94.9641 22.3833 94.7041 22.6833C94.4541 22.9733 94.3291 23.3633 94.3291 23.8533V23.9733H97.0891V23.8383C97.0891 23.3583 96.9791 22.9733 96.7591 22.6833C96.5491 22.3833 96.2191 22.2333 95.7691 22.2333Z" fill="#7D6858"/>
<path fill-rule="evenodd" clip-rule="evenodd" d="M0 14.8503C0 16.2162 0.26876 18.0261 0.679804 19.247C1.41155 21.4284 1.28282 21.0025 2.19073 22.8102L3.16414 24.3731C3.50291 24.8262 3.8462 25.3834 4.26853 25.8025C4.37694 25.9089 4.46502 25.9882 4.56665 26.0992C5.46553 27.0778 6.33731 27.6531 7.80984 27.6531C9.0633 27.6531 10.2784 26.5183 11.9564 26.5183C13.0676 26.5183 13.7248 26.5318 14.775 27.0392C15.5768 27.4266 16.2633 27.635 16.9002 27.6509H17.0628C18.0317 27.6259 18.8945 27.1412 19.886 26.1536C20.7058 25.3381 22.1919 23.1726 22.7452 22.0536C22.9033 21.7319 23.5334 20.4951 23.5876 20.2528C22.2257 19.9334 20.7058 18.3273 20.157 16.9433C19.8498 16.1732 19.5833 14.9953 19.6962 14.1345C19.8634 12.8479 20.0418 11.935 20.9384 10.8432C21.1394 10.5963 21.2546 10.474 21.4759 10.2474C21.9005 9.81705 22.2912 9.61772 22.7813 9.28926C22.298 8.56667 20.9836 7.49524 20.1976 7.12828C18.4789 6.33093 17.1103 6.28563 15.2967 6.80436C15.116 6.85646 14.9828 6.91762 14.7795 6.98784C14.4272 7.10789 14.1449 7.23701 13.7971 7.35253C11.5951 8.08872 10.5291 7.18264 8.63193 6.6843C6.63091 6.16104 4.97318 6.60955 3.31997 7.75347L2.08006 8.88606C1.61256 9.49313 1.62837 9.29379 1.0773 10.2565C0.871775 10.6144 0.616566 11.1399 0.499125 11.5658C0.17842 12.7255 0.00451697 13.5569 0.00451697 14.8503H0Z" fill="#7D6858"/>
<path fill-rule="evenodd" clip-rule="evenodd" d="M11.3628 6.6414C12.3881 6.6414 13.0137 6.49869 13.8923 5.99129C14.6873 5.53146 15.1593 5.10107 15.7036 4.40566C15.821 4.25616 15.9046 4.1429 15.9927 3.9934L16.4625 3.11451C16.9345 2.12689 17.018 1.49263 17.018 0.378164C17.018 0.192419 16.9774 0.169767 16.9638 -0.00012207C15.5094 -0.00012207 13.8584 1.10529 12.9099 2.09064C12.2233 2.80418 11.5435 4.17688 11.3831 5.20527C11.2883 5.81914 11.3628 6.05472 11.3628 6.64366V6.6414Z" fill="#7D6858"/>
</svg>
