<svg width="50" height="50" viewBox="0 0 50 50" fill="none" xmlns="http://www.w3.org/2000/svg">
<rect width="50" height="50" rx="25" fill="#D3E3E3"/>
<path fill-rule="evenodd" clip-rule="evenodd" d="M21.2972 22.3043H28.16V24.8578H21.2972V22.3043ZM20.0332 16.5434V28.6583C20.0332 29.4563 21.2972 29.4626 21.2972 28.6583V26.0451H28.16V28.7176C28.16 29.352 29.1457 29.4651 29.3763 28.8488C29.5446 28.399 29.2944 16.6665 29.464 16.1667C29.9171 14.8298 31.9174 15.1173 32.0125 16.3655C32.0508 16.87 31.7981 17.9685 32.6751 17.9685C33.4772 17.9685 33.2773 16.9789 33.2773 16.3651C33.2773 15.1619 32.0836 14.0373 30.7434 14.0007C30.0624 13.9822 29.3503 14.3396 28.9868 14.686C28.5994 15.0551 28.1604 15.6475 28.1604 16.3651V21.0569H21.2976V16.6026C21.2976 15.8442 21.9305 15.296 22.3813 15.296C23.0836 15.296 23.7199 15.423 23.9057 16.3458C24.0361 16.994 23.6419 17.9681 24.6088 17.9681C25.5455 17.9681 25.315 15.6836 24.565 14.9231C22.5906 12.9207 20.0336 14.5535 20.0336 16.5429L20.0332 16.5434Z" fill="#7D6858"/>
<path fill-rule="evenodd" clip-rule="evenodd" d="M16 34.2409C16 35.0884 16.805 34.7189 17.3859 35.1309C17.8065 35.4289 18.1875 35.8023 18.8024 35.9309C19.46 36.0684 20.1188 35.9704 20.617 35.7077C21.0892 35.4579 21.9487 34.3968 22.9847 35.1313C23.644 35.5984 23.9495 35.9755 24.9774 35.999C26.5951 36.0356 26.5712 34.895 27.9196 34.895C28.8584 34.895 29.1695 36.2887 31.1469 35.941C31.7473 35.8355 32.1765 35.4613 32.5719 35.1494C33.1375 34.7033 34 35.1195 34 34.2417C34 33.284 32.4999 33.6628 31.8841 34.1143C31.5104 34.388 31.1533 34.776 30.5686 34.776C30.0261 34.776 29.6242 34.3493 29.3055 34.1215C28.4097 33.4807 27.1994 33.4892 26.2938 34.1223C25.101 34.956 25.0188 35.0649 23.7411 34.1475C22.8381 33.4992 21.6504 33.4711 20.7299 34.0971C20.4759 34.2699 19.962 34.776 19.4919 34.776C18.3294 34.776 18.2382 33.6476 16.6022 33.6476C16.2642 33.6476 16.0004 33.9079 16.0004 34.2417L16 34.2409Z" fill="#7D6858"/>
<path fill-rule="evenodd" clip-rule="evenodd" d="M16 30.7964C16 31.657 16.8685 31.2875 17.3948 31.6776C17.8274 31.9984 18.167 32.3528 18.802 32.4869C20.7316 32.8934 21.1676 31.4502 22.0804 31.4502C23.4697 31.4502 23.237 32.5167 24.9787 32.5378C26.6748 32.5584 26.5533 31.4502 27.9196 31.4502C28.8597 31.4502 29.164 32.8413 31.1477 32.497C31.7422 32.3936 32.1803 32.0135 32.5719 31.7045C33.1375 31.2585 34 31.6747 34 30.7968C34 29.8391 32.4999 30.2179 31.8841 30.6695C31.5176 30.9381 31.2104 31.3051 30.624 31.3219C29.5693 31.3522 29.4674 30.2028 27.7393 30.2028C26.3066 30.2028 25.9895 31.2942 25.0256 31.3219C23.9708 31.3522 23.869 30.2028 22.1409 30.2028C21.5307 30.2028 21.0517 30.4286 20.6954 30.6774C20.3251 30.9364 20.0221 31.3047 19.4267 31.3219C18.3916 31.3518 18.2646 30.2028 16.6022 30.2028C16.2642 30.2028 16.0004 30.463 16.0004 30.7968L16 30.7964Z" fill="#7D6858"/>
</svg>
