<svg width="24" height="21" viewBox="0 0 24 21" fill="none" xmlns="http://www.w3.org/2000/svg">
<g clip-path="url(#clip0_160_635)">
<path fill-rule="evenodd" clip-rule="evenodd" d="M3.09372 16.7555V17.0293C3.09372 17.6006 3.65034 18.1113 4.15261 18.2348C4.49709 18.3194 16.4331 18.2636 18.0937 18.2616C18.5324 18.2611 18.8256 18.2426 19.087 18.4355C19.8888 19.0272 19.4289 20.0872 18.4687 20.0872H3.46876C1.94146 20.0872 0.937449 19.1096 0.937449 17.6227V17.0749C0.937449 15.5879 1.94146 14.6104 3.46876 14.6104H20.5312C22.0585 14.6104 23.0625 15.5879 23.0625 17.0749C23.0625 17.97 23.0381 18.8793 22.2993 19.481C21.7183 19.9542 21.2494 20.0872 20.2031 20.0872C20.6752 19.2185 20.445 18.1755 19.5861 17.6301C18.9926 17.2533 18.4579 17.3488 17.5313 17.3488L4.73268 17.3505C3.78331 17.354 3.9048 16.5484 4.46505 16.4476C4.74808 16.3967 4.96879 16.3871 4.96879 15.9339C4.96879 15.0999 3.09378 15.5998 3.09378 16.7555H3.09372ZM24 10.2745V11.5385C23.9714 12.0867 23.8627 12.5902 23.504 13.1233C23.2972 13.4309 22.7978 14.0187 22.4531 14.1084V14.1996C22.6151 14.2417 22.6765 14.3179 22.7962 14.4133C22.9173 14.5099 22.9637 14.5291 23.076 14.643C23.8206 15.3999 23.974 16.1165 24.0001 16.9448V18.0334C24.0001 18.9555 23.3644 19.9149 22.6134 20.4259C22.1764 20.7234 21.5386 21.0001 20.9532 21.0001H3.04698C2.19467 21.0001 1.26671 20.4795 0.756093 19.8532C0.350727 19.3559 5.67979e-05 18.7249 5.67979e-05 18.0334V16.7695C0.0286261 16.2213 0.137394 15.7178 0.496016 15.1846L0.947445 14.62C1.04315 14.5269 1.12477 14.4774 1.22928 14.3924C1.33679 14.3048 1.39893 14.2381 1.54695 14.1997V14.1084C1.38496 14.0664 1.32356 13.9902 1.20389 13.8947C0.496413 13.3304 0 12.5202 0 11.5525V10.3525C0.0298189 9.69177 0.17329 9.16961 0.756036 8.45477C1.02077 8.13015 1.35258 7.86553 1.73353 7.67224C2.04211 7.51557 2.42845 7.37101 2.82365 7.31881C3.28774 7.25742 7.74359 7.30797 8.62504 7.30797C8.57744 7.26771 8.63208 7.30454 8.54422 7.24968C8.53609 7.24465 8.52394 7.23724 8.51525 7.2322L7.4892 6.58826C6.83477 6.06466 6.19006 5.36326 5.8278 4.60026C5.66928 4.26623 5.4376 3.65547 5.4376 3.20028C5.4376 2.50911 7.22236 2.47001 7.78125 2.47001V1.51157C7.78125 1.17533 7.92626 0.489194 8.09125 0.215946C8.39671 -0.289849 9.51921 0.23403 9.82933 0.384562C10.3132 0.619653 10.5026 0.842908 10.8281 1.0551L11.3075 0.426537C11.7128 -0.00415735 12.0064 -0.153363 12.412 0.19753C12.7613 0.499978 12.9089 0.672853 13.1718 1.0551C13.4974 0.842853 13.6867 0.619653 14.1706 0.384562C14.4985 0.225458 15.632 -0.308265 15.9248 0.245754C16.274 0.906506 16.2187 1.75418 16.2187 2.46996C16.8081 2.46996 17.2298 2.46985 17.7936 2.62525C18.113 2.71323 18.5625 2.83573 18.5625 3.20022C18.5625 4.45442 17.4712 5.81984 16.5108 6.58821C16.3239 6.7378 16.173 6.83491 15.9659 6.97046C15.8042 7.07614 15.5094 7.1915 15.4218 7.30791C16.2822 7.30791 20.7696 7.25449 21.2165 7.32522C22.7482 7.56728 23.9999 8.91063 23.9999 10.2745H24ZM13.6406 11.3699C13.6406 11.6595 13.7312 11.8588 14.1067 11.8745C15.1296 11.9173 17.9018 11.8044 18.6044 11.8767C19.8369 12.0037 19.7697 13.6976 18.4687 13.6976H3.46876C1.94146 13.6976 0.937449 12.72 0.937449 11.2329V10.6853C0.937449 9.19831 1.94146 8.22073 3.46876 8.22073H20.5312C22.0585 8.22073 23.0625 9.19831 23.0625 10.6853C23.0625 11.3086 23.0986 11.7445 22.8559 12.3097C22.3976 13.3768 21.5023 13.6976 20.2031 13.6976C20.9334 12.354 19.874 10.9591 18.7031 10.9591H14.0625C13.8307 10.9591 13.6406 11.1443 13.6406 11.3699ZM11.6249 4.15867L11.3437 3.88487C11.4893 3.91783 11.4795 3.94315 11.6249 3.97611V4.15872V4.15867ZM11.3437 3.88487L11.243 3.85976L11.3437 3.88487ZM12.7031 6.98843H12.4687C12.4687 5.17794 12.2888 5.59763 13.1362 4.76312C13.3689 4.534 13.6914 4.30599 13.9878 4.13163C14.9986 3.53701 15.7124 3.42851 16.8749 3.42851C17.1743 3.42851 17.2859 3.49991 17.5312 3.51987C17.4585 4.37108 16.4949 5.39965 15.8297 5.92502C15.1532 6.4593 13.9175 6.98849 12.7031 6.98849L12.7031 6.98843ZM6.46877 3.51982C7.07673 3.47043 6.76394 3.42846 7.73434 3.42846C8.76596 3.42846 10.1683 4.08202 10.8406 4.73995C11.7153 5.59625 11.5312 5.1832 11.5312 6.98843C9.6917 6.98843 8.1104 6.21956 7.14466 4.91548C6.89822 4.58256 6.5313 3.99425 6.46877 3.51982ZM8.71876 1.83105C8.71876 1.48137 8.78794 1.29705 8.81259 1.00959C9.42254 1.14796 9.97126 1.55299 10.3784 1.94951C10.7268 2.28868 10.7851 2.38612 11.0626 2.78949C10.7084 2.8182 10.6407 3.01363 10.6407 3.38289C10.4822 3.34689 9.42112 2.70189 8.81264 2.65262C8.78799 2.36505 8.71881 2.18084 8.71881 1.83105H8.71876ZM15.1875 2.65262C14.2054 2.73226 12.6892 3.89764 12.5625 3.93049C12.5548 3.59547 12.43 3.626 12.8453 2.92786L13.6097 1.93784L14.2029 1.46556C14.4588 1.29036 14.8365 1.08917 15.1876 1.00953C15.2104 1.27548 15.2814 1.46948 15.2814 1.78537C15.2814 2.13294 15.2127 2.35891 15.1876 2.65257L15.1875 2.65262ZM11.5313 1.78543C11.6166 1.42917 11.8949 1.31325 11.9532 1.10078C12.1724 1.24374 12.3413 1.50521 12.4688 1.7398C12.3968 2.00221 12.1154 2.18338 12.0469 2.47007H11.9532C11.9093 2.28707 11.6406 1.94447 11.5313 1.78543Z" fill="#7D6858"/>
<path fill-rule="evenodd" clip-rule="evenodd" d="M3.09375 10.3658V10.6396C3.09375 11.2278 3.75522 11.8718 4.35932 11.8718H9.93744C10.457 11.8718 10.5737 10.9849 9.89331 10.9564C8.85266 10.9129 6.56154 10.959 5.3906 10.959C5.13472 10.959 4.74344 10.9818 4.50359 10.9556C4.10827 10.9126 3.87858 10.5295 4.15638 10.2137C4.25487 10.1017 4.32269 10.0834 4.46502 10.0578C4.74804 10.0068 4.96876 9.99728 4.96876 9.54414C4.96876 8.71001 3.09375 9.20994 3.09375 10.3657V10.3658Z" fill="#7D6858"/>
<path fill-rule="evenodd" clip-rule="evenodd" d="M11.5312 11.3698C11.5312 12.0524 12.4688 12.0524 12.4688 11.3698C12.4688 10.8185 11.5312 10.8185 11.5312 11.3698Z" fill="#7D6858"/>
</g>
<defs>
<clipPath id="clip0_160_635">
<rect width="24" height="21" fill="white"/>
</clipPath>
</defs>
</svg>
