<svg width="50" height="50" viewBox="0 0 50 50" fill="none" xmlns="http://www.w3.org/2000/svg">
<rect x="0.5" y="0.5" width="49" height="49" rx="24.5" fill="#B8ADA0" stroke="#B8ADA0"/>
<g clip-path="url(#clip0_227_452)">
<path fill-rule="evenodd" clip-rule="evenodd" d="M16.094 31.7555V32.0293C16.094 32.6007 16.6506 33.1114 17.1529 33.2348C17.4973 33.3195 29.4333 33.2636 31.0939 33.2616C31.5326 33.2611 31.8258 33.2426 32.0872 33.4355C32.889 34.0273 32.4291 35.0873 31.469 35.0873H16.469C14.9417 35.0873 13.9377 34.1097 13.9377 32.6227V32.075C13.9377 30.588 14.9417 29.6104 16.469 29.6104H33.5314C35.0587 29.6104 36.0627 30.588 36.0627 32.075C36.0627 32.9701 36.0383 33.8794 35.2995 34.4811C34.7186 34.9543 34.2496 35.0873 33.2034 35.0873C33.6755 34.2185 33.4452 33.1755 32.5864 32.6301C31.9928 32.2533 31.4581 32.3488 30.5315 32.3488L17.7329 32.3505C16.7836 32.3541 16.905 31.5485 17.4653 31.4476C17.7483 31.3967 17.969 31.3871 17.969 30.934C17.969 30.1 16.094 30.5998 16.094 31.7555H16.094ZM37.0002 25.2746V26.5386C36.9717 27.0868 36.8629 27.5903 36.5043 28.1234C36.2974 28.4309 35.7981 29.0188 35.4534 29.1084V29.1997C35.6153 29.2418 35.6767 29.3179 35.7964 29.4133C35.9176 29.5099 35.964 29.5291 36.0762 29.6431C36.8209 30.3999 36.9742 31.1166 37.0003 31.9448V33.0335C37.0003 33.9556 36.3647 34.915 35.6137 35.426C35.1766 35.7234 34.5388 36.0002 33.9534 36.0002H16.0472C15.1949 36.0002 14.267 35.4796 13.7563 34.8532C13.351 34.356 13.0003 33.725 13.0003 33.0335V31.7695C13.0289 31.2214 13.1376 30.7178 13.4963 30.1846L13.9477 29.6201C14.0434 29.5269 14.125 29.4775 14.2295 29.3924C14.337 29.3048 14.3992 29.2382 14.5472 29.1997V29.1085C14.3852 29.0664 14.3238 28.9903 14.2041 28.8948C13.4967 28.3305 13.0002 27.5203 13.0002 26.5526V25.3526C13.0301 24.6918 13.1735 24.1697 13.7563 23.4548C14.021 23.1302 14.3528 22.8656 14.7338 22.6723C15.0424 22.5156 15.4287 22.3711 15.8239 22.3189C16.288 22.2575 20.7438 22.308 21.6253 22.308C21.5777 22.2678 21.6323 22.3046 21.5445 22.2497C21.5363 22.2447 21.5242 22.2373 21.5155 22.2323L20.4894 21.5883C19.835 21.0647 19.1903 20.3633 18.828 19.6003C18.6695 19.2663 18.4378 18.6555 18.4378 18.2003C18.4378 17.5092 20.2226 17.4701 20.7815 17.4701V16.5116C20.7815 16.1754 20.9265 15.4893 21.0915 15.216C21.397 14.7102 22.5195 15.2341 22.8296 15.3846C23.3135 15.6197 23.5028 15.843 23.8284 16.0552L24.3078 15.4266C24.713 14.9959 25.0067 14.8467 25.4122 15.1976C25.7616 15.5 25.9092 15.6729 26.1721 16.0552C26.4976 15.8429 26.6869 15.6197 27.1709 15.3846C27.4988 15.2255 28.6323 14.6918 28.9251 15.2458C29.2743 15.9066 29.219 16.7542 29.219 17.47C29.8084 17.47 30.23 17.4699 30.7939 17.6253C31.1133 17.7133 31.5627 17.8358 31.5627 18.2003C31.5627 19.4545 30.4714 20.8199 29.511 21.5883C29.3241 21.7379 29.1733 21.835 28.9661 21.9705C28.8045 22.0762 28.5096 22.1916 28.4221 22.308C29.2825 22.308 33.7699 22.2546 34.2167 22.3253C35.7484 22.5673 37.0002 23.9107 37.0002 25.2746H37.0002ZM26.6409 26.37C26.6409 26.6596 26.7315 26.8589 27.1069 26.8746C28.1299 26.9174 30.902 26.8044 31.6047 26.8768C32.8371 27.0037 32.77 28.6977 31.469 28.6977H16.469C14.9417 28.6977 13.9377 27.7201 13.9377 26.233V25.6853C13.9377 24.1984 14.9417 23.2208 16.469 23.2208H33.5314C35.0587 23.2208 36.0627 24.1984 36.0627 25.6853C36.0627 26.3087 36.0988 26.7445 35.8561 27.3098C35.3979 28.3769 34.5025 28.6977 33.2034 28.6977C33.9336 27.354 32.8742 25.9592 31.7034 25.9592H27.0628C26.831 25.9592 26.6409 26.1444 26.6409 26.37ZM24.6252 19.1587L24.344 18.8849C24.4895 18.9179 24.4798 18.9432 24.6252 18.9762V19.1588V19.1587ZM24.344 18.8849L24.2432 18.8598L24.344 18.8849ZM25.7034 21.9885H25.469C25.469 20.178 25.289 20.5977 26.1365 19.7632C26.3692 19.5341 26.6917 19.3061 26.988 19.1317C27.9988 18.5371 28.7126 18.4286 29.8752 18.4286C30.1745 18.4286 30.2862 18.5 30.5315 18.5199C30.4588 19.3711 29.4951 20.3997 28.8299 20.9251C28.1534 21.4594 26.9177 21.9885 25.7033 21.9885L25.7034 21.9885ZM19.469 18.5199C20.077 18.4705 19.7642 18.4285 20.7346 18.4285C21.7662 18.4285 23.1685 19.0821 23.8408 19.74C24.7155 20.5963 24.5315 20.1833 24.5315 21.9885C22.6919 21.9885 21.1106 21.2196 20.1449 19.9155C19.8985 19.5826 19.5315 18.9943 19.469 18.5199ZM21.719 16.8311C21.719 16.4814 21.7882 16.2971 21.8128 16.0097C22.4228 16.148 22.9715 16.5531 23.3787 16.9496C23.727 17.2887 23.7853 17.3862 24.0628 17.7896C23.7086 17.8183 23.6409 18.0137 23.6409 18.3829C23.4824 18.3469 22.4214 17.702 21.8129 17.6527C21.7882 17.3651 21.7191 17.1809 21.7191 16.8311H21.719ZM28.1878 17.6527C27.2057 17.7323 25.6894 18.8977 25.5627 18.9306C25.5551 18.5955 25.4303 18.6261 25.8455 17.9279L26.61 16.9379L27.2031 16.4656C27.459 16.2904 27.8368 16.0892 28.1878 16.0096C28.2106 16.2755 28.2817 16.4695 28.2817 16.7854C28.2817 17.133 28.213 17.359 28.1878 17.6526L28.1878 17.6527ZM24.5315 16.7855C24.6168 16.4292 24.8951 16.3133 24.9534 16.1008C25.1726 16.2438 25.3416 16.5053 25.469 16.7399C25.397 17.0023 25.1157 17.1834 25.0471 17.4701H24.9534C24.9096 17.2871 24.6408 16.9445 24.5315 16.7855Z" fill="white"/>
<path fill-rule="evenodd" clip-rule="evenodd" d="M16.0938 25.3657V25.6395C16.0938 26.2277 16.7552 26.8718 17.3593 26.8718H22.9374C23.457 26.8718 23.5737 25.9848 22.8933 25.9564C21.8527 25.9129 19.5615 25.959 18.3906 25.959C18.1347 25.959 17.7434 25.9817 17.5036 25.9555C17.1083 25.9126 16.8786 25.5295 17.1564 25.2136C17.2549 25.1017 17.3227 25.0834 17.465 25.0578C17.748 25.0068 17.9688 24.9973 17.9688 24.5441C17.9688 23.71 16.0938 24.2099 16.0938 25.3657V25.3657Z" fill="white"/>
<path fill-rule="evenodd" clip-rule="evenodd" d="M24.5312 26.3698C24.5312 27.0524 25.4688 27.0524 25.4688 26.3698C25.4688 25.8185 24.5312 25.8185 24.5312 26.3698Z" fill="white"/>
</g>
<defs>
<clipPath id="clip0_227_452">
<rect width="24" height="21" fill="white" transform="translate(13 15)"/>
</clipPath>
</defs>
</svg>
