<svg width="50" height="50" viewBox="0 0 50 50" fill="none" xmlns="http://www.w3.org/2000/svg">
<rect width="50" height="50" rx="25" fill="#F4C28F"/>
<g clip-path="url(#clip0_160_572)">
<path fill-rule="evenodd" clip-rule="evenodd" d="M23.2335 25.2756C23.0135 25.271 22.4968 25.1295 22.272 25.0672L19.4555 24.3772C19.517 24.2556 19.8146 22.7971 19.8332 22.5802C20.1065 22.641 23.5634 23.5187 23.7995 23.5233C23.7704 23.8564 23.2626 24.9395 23.2327 25.2749L23.2335 25.2756ZM21.8653 14H22.2292C22.8462 14.0238 23.4979 14.1638 24.1473 14.3431C25.0125 14.5823 25.75 14.8485 26.3387 15.4477C27.1505 16.2723 26.7357 17.277 26.6799 17.9078C27.3996 18.3662 27.4829 18.947 27.4829 19.6593C27.4829 20.6363 26.1786 22.234 25.4411 22.9279C25.3109 23.0502 25.2171 23.1425 25.0861 23.2641C24.9292 23.411 24.8872 23.4064 24.8071 23.6271L24.1246 25.5833C23.9977 25.9464 24.0009 26.211 23.5642 26.308C23.578 26.9018 23.9208 27.3688 23.7405 28.7665C23.713 28.9765 23.6168 29.3319 23.6111 29.5419C25.0157 28.835 27.0163 28.7134 28.5875 29.2104C28.8592 29.2957 29.0541 29.368 29.2942 29.4819L29.9387 29.8119C30.0705 29.7281 30.1368 29.6404 30.2565 29.5304C30.3641 29.4319 30.4474 29.3796 30.567 29.2865C31.1937 28.8011 32.1123 28.3742 33.0075 28.3742C33.3633 28.3742 33.9989 28.4357 33.9989 28.868C33.9989 30.0173 32.8199 28.4003 30.7053 30.4065C29.988 31.0873 30.1231 31.0319 29.1923 30.4758C28.9724 30.3442 28.7193 30.2411 28.4541 30.1442C26.8497 29.5604 24.8023 29.825 23.4955 30.6458C23.3548 30.7342 23.2286 30.805 23.1049 30.9027C22.4928 31.3866 22.1928 30.9104 22.1928 30.7089C22.1928 30.4481 22.4871 29.865 22.6084 29.4419C23.1033 27.7203 22.5405 26.7972 22.5235 26.0818C22.2979 26.0318 22.0529 25.9587 21.8151 25.9018L19.7847 25.408L18.2353 31.3466C17.3676 34.6674 18.7512 33.8782 19.8987 34.1043C20.6078 34.2443 21.1213 34.5505 21.6583 34.8559C23.5149 35.9121 24.837 36.3251 26.9743 35.9313C28.7436 35.6051 29.65 35.2005 31.5422 35.2005C32.5296 35.2005 33.9981 35.8767 33.9981 36.4136C33.9981 36.7613 33.6423 37.1744 33.0657 36.6721C32.4237 36.1128 31.7226 36.1444 30.9285 36.1444C29.6428 36.1444 27.3018 36.9982 25.7815 36.9982C23.4939 36.9982 22.5842 36.4205 20.7736 35.4282C19.9148 34.9574 19.724 34.999 18.9323 34.979C18.3154 34.9628 17.7202 34.7359 17.3612 34.2728C16.9868 33.7897 16.9981 33.3581 16.9981 32.7766C16.9981 31.9535 17.6466 29.8881 17.8601 28.9242L18.8402 25.1849C18.1973 25.0426 18.4601 24.4556 18.545 24.0502L18.9639 21.9909C18.9687 21.8148 18.9024 21.4671 18.8863 21.2332L18.7464 18.8955C18.7464 17.6585 18.9461 16.3823 19.3908 15.5554C19.9884 14.4431 20.869 14.0407 21.8645 13.9992L21.8653 14ZM25.7831 17.4139C25.5947 17.3993 25.1855 17.2339 24.8386 17.2339C23.9839 17.2339 23.2804 17.9093 23.2804 18.7162C23.2804 19.1493 23.32 19.494 23.5634 19.8394C22.6966 19.8394 21.7658 19.2486 21.7682 18.4478C21.7707 17.4878 21.0267 17.7285 20.865 17.9908C20.5747 18.4601 20.9434 19.5517 21.6203 20.0717C23.1688 21.2602 25.0279 20.7255 25.0279 20.1547C25.0279 19.384 24.2726 20.0094 24.2726 18.717C24.2726 17.7755 25.5761 18.3047 25.9715 18.5385C27.3899 19.3786 25.7144 21.3163 24.9915 22.0071L24.3195 22.7156L20.3337 21.7456C19.8259 21.6286 19.927 21.7379 19.8663 21.2471C19.6439 19.434 19.2857 14.8992 22.006 14.8992C22.6197 14.8992 23.8788 15.2131 24.3801 15.3808C25.6707 15.8116 26.0653 16.2646 25.7831 17.4147V17.4139Z" fill="#7D6858"/>
<path fill-rule="evenodd" clip-rule="evenodd" d="M23.5635 32.4629C23.5635 32.9129 24.1902 33.1175 24.6317 33.2429C25.6538 33.5337 26.9242 33.4652 27.9204 33.2829C28.522 33.1729 29.0881 33.0936 29.0881 32.5967C29.0881 31.8821 27.998 32.3329 27.5646 32.4052C25.0975 32.8144 24.212 32.0128 24.0826 32.0128C23.8117 32.0128 23.5635 32.2059 23.5635 32.4621V32.4629Z" fill="#7D6858"/>
</g>
<defs>
<clipPath id="clip0_160_572">
<rect width="17" height="23" fill="white" transform="translate(17 14)"/>
</clipPath>
</defs>
</svg>
