<svg width="23" height="23" viewBox="0 0 23 23" fill="none" xmlns="http://www.w3.org/2000/svg">
<g clip-path="url(#clip0_160_565)">
<path fill-rule="evenodd" clip-rule="evenodd" d="M18.2728 5.50337C18.2719 5.54718 18.2662 5.59877 18.2568 5.65329L17.6472 11.2373C18.3142 8.64096 19.1496 5.45761 19.2813 4.9621C19.4027 4.50553 19.4365 4.48022 20.1007 4.02073L19.3895 6.76113C19.1675 7.68985 18.8918 8.60007 18.6783 9.50056L17.4336 14.2951C17.3734 14.5297 17.3292 14.812 17.2361 15.0116C17.0837 14.9064 16.9576 14.7954 16.7911 14.7049C16.7939 14.592 17.1796 13.0597 17.6472 11.2383L18.2568 5.65426C18.2173 5.88303 18.1185 6.18385 18.0752 6.37368H13.8766C13.4015 6.37368 12.8182 6.25783 12.7072 6.65113C12.6376 6.89937 12.7382 7.07752 12.8784 7.15151C13.075 7.2547 17.4986 7.19142 17.8288 7.19142C17.8231 7.46789 17.6924 7.81738 17.6312 8.05978L16.269 13.3459C16.1984 13.635 16.0742 13.9592 16.0507 14.2454C15.8663 14.2298 15.6998 14.1481 15.5512 14.0974C15.3536 14.0312 15.2275 14.005 14.9867 13.966C14.1033 13.8249 13.3902 13.9037 12.5332 14.1315C12.2076 14.2181 11.7749 14.3671 11.5068 14.5005C11.4475 14.2707 11.0232 13.9134 10.963 13.6827C11.2518 13.6827 11.6357 13.7343 11.8182 13.5961C12.0345 13.4306 11.9979 13.0616 11.7946 12.9244C11.5773 12.7774 9.6177 12.8669 9.03442 12.8621C8.6854 12.8591 8.47184 12.9049 8.44362 13.2281C8.38999 13.8463 9.19718 13.6827 9.92533 13.6827C9.97143 13.8609 10.6375 14.6611 10.7654 14.8587C10.2 15.1683 9.8115 15.4068 9.30443 15.8001C9.14261 15.9257 8.99021 16.0834 8.83968 16.1875L5.77747 8.67406C6.58183 8.67406 7.39936 8.89407 7.24131 7.92739C7.18487 7.58082 7.09361 7.30824 6.93462 7.06779C5.94305 5.57249 4.4237 6.74458 1.47344 5.76621C1.06702 5.63187 0.986118 5.62214 0.699183 5.92392C0.310644 6.33279 0.0876807 6.86724 0.00865589 7.56427C-0.0186265 7.80083 0.033116 8.30121 0.242908 8.41998C0.608869 8.62636 2.86954 8.67406 3.40578 8.67406C3.48857 8.85319 3.54972 9.05373 3.63627 9.25329C3.72753 9.46552 3.78397 9.6096 3.87147 9.82766L6.96378 17.3626C7.04469 17.5524 7.12372 17.7919 7.20933 17.9778C7.11525 18.1229 7.00518 18.2591 6.89135 18.4159L5.99009 19.8859C5.72291 20.3999 5.21113 21.5574 5.08506 22.1181C4.50272 22.1181 2.03226 22.0344 1.72086 22.1639C1.43769 22.2817 1.16581 22.9933 2.11975 22.9894L19.2126 22.9874C19.7752 22.9874 20.4902 23.1257 20.5184 22.5708C20.5457 22.0217 19.827 22.1191 19.2625 22.1191C18.6858 22.1191 18.1101 22.1191 17.5334 22.1191C17.9464 21.4805 18.2483 21.2186 18.5212 20.2792C18.9502 18.8043 18.842 17.274 17.9934 15.9646C17.8419 15.73 17.8984 15.7689 18.0555 15.1965C18.1148 14.9804 18.1364 14.8431 18.1957 14.626L20.8524 4.3926C21.3049 2.56924 20.9549 3.45026 22.6559 1.96567C23.6004 1.14014 22.416 -0.542071 21.3247 0.179293L19.3462 1.76123C19.2023 1.87318 19.0903 1.95399 18.9539 2.07081L16.6152 3.94479C16.3367 4.16967 16.0949 4.32641 16.0178 4.76059C15.919 5.32327 16.3311 5.91029 16.7826 6.07968C17.4779 6.34058 17.9511 5.68444 18.2737 5.50824L18.2728 5.50337ZM4.29387 8.67309H4.88656C5.0352 8.99434 5.14998 9.3341 5.29862 9.67774C6.1359 11.6189 6.94779 13.8054 7.78414 15.7446L8.1962 16.8008L7.81236 17.2214C7.64867 16.9118 7.48779 16.4922 7.36361 16.1798L6.03995 12.9497C5.53851 11.7824 4.75203 9.66119 4.29387 8.67309ZM12.0496 15.1644C12.5134 15.0524 12.7514 14.8938 13.4513 14.775C13.6461 14.7419 13.8559 14.7584 14.0619 14.7409C14.7242 14.6845 15.5201 14.9045 16.0234 15.1936C16.555 15.4983 16.967 15.8536 17.3076 16.3696C18.334 17.9243 18.0705 20.3755 16.8052 21.6693C16.6566 21.8212 16.5145 22.0724 16.2953 22.1123L5.92517 22.1162C6.00984 21.9507 6.05406 21.7832 6.12179 21.6041C7.13877 18.9338 8.8792 16.8524 11.3092 15.5217C11.4823 15.8595 11.7702 16.0873 11.9518 16.4416C11.6639 16.8865 11.1615 17.3207 11.1615 18.3331C11.1615 19.0078 11.1568 19.2463 11.4569 19.8674C11.6385 20.2422 11.7598 20.4086 12.0374 20.6978C14.045 22.7888 17.7262 20.8487 16.8814 17.6273C16.8231 17.4064 16.7346 17.2302 16.6274 17.0209C16.5183 16.8086 16.4148 16.6986 16.2774 16.5146C16.0422 16.2002 15.6499 15.95 15.3113 15.7767C13.9885 15.1001 13.0882 15.7611 12.5934 15.8799L12.0496 15.1644ZM13.1362 16.5448C13.5191 16.4523 13.6141 16.3404 14.124 16.3404C14.6988 16.3404 15.2633 16.648 15.57 16.9401C16.2247 17.5641 16.3696 18.6894 16.0018 19.5101C15.3348 21.0015 13.0289 21.2731 12.1964 19.5111C11.9179 18.9211 11.8821 18.263 12.1644 17.6351C12.2076 17.5388 12.2528 17.4443 12.2998 17.3664C12.3911 17.2165 12.3977 17.2925 12.4447 17.1075C12.6112 17.2224 13.3883 18.301 13.5746 18.5454C14.1597 19.3144 14.4702 18.7917 14.4702 18.4363C14.4702 18.3117 13.6404 17.2633 13.4608 17.0277C13.2378 16.7346 13.2989 16.8661 13.1362 16.5458V16.5448ZM17.0874 5.29991L16.951 5.18601C16.6312 4.84918 17.0649 4.64279 17.7018 4.14728L19.3171 2.85447C19.4751 2.72305 21.7264 0.85393 21.8788 0.85393C21.9973 0.85393 22.1751 1.03792 22.1751 1.16058C22.1751 1.34847 21.1544 2.10682 20.9615 2.25674C20.5137 2.60526 20.1186 2.92067 19.6764 3.27795C19.254 3.61867 17.5719 5.03512 17.0865 5.30088L17.0874 5.29991ZM1.23072 6.57811C2.38316 6.85556 2.53839 6.97044 3.90063 7.08628C4.97875 7.17876 6.14343 6.80883 6.36828 7.80473C5.2036 7.80473 4.19885 7.85632 3.05864 7.85632C2.62777 7.85632 2.34647 7.81835 1.92125 7.80667C1.5534 7.79694 1.24483 7.70251 0.835595 7.70251C0.835595 7.45134 0.869462 7.23912 0.949428 7.05318C1.04727 6.82344 1.11877 6.75237 1.23166 6.57811H1.23072Z" fill="#7D6858"/>
<path fill-rule="evenodd" clip-rule="evenodd" d="M17.2349 15.0104L18.2725 5.50323L17.2349 15.0104Z" fill="#7D6858"/>
</g>
<defs>
<clipPath id="clip0_160_565">
<rect width="23" height="23" fill="white"/>
</clipPath>
</defs>
</svg>
