<svg width="50" height="50" viewBox="0 0 50 50" fill="none" xmlns="http://www.w3.org/2000/svg">
<rect x="0.5" y="0.5" width="49" height="49" rx="24.5" fill="#F8F4CF" stroke="#F8F4CF"/>
<g clip-path="url(#clip0_160_599)">
<path fill-rule="evenodd" clip-rule="evenodd" d="M20.3125 25.2304C20.3125 26.1 20.3456 26.6468 20.7653 27.4468C21.513 28.8724 23.0525 29.992 24.8126 29.992C25.3528 29.992 25.5594 30.004 26.0981 29.8763C27.0139 29.6593 26.6546 28.8251 26.0201 28.9436C25.1098 29.1136 24.426 29.1942 23.4684 28.7648C22.3925 28.2822 21.634 27.409 21.3554 26.2978C20.882 24.4099 22.1463 22.4725 24.168 22.0068C24.9511 21.8263 25.8093 21.9123 26.5321 22.2355C27.8382 22.8199 28.7505 24.0978 28.7505 25.5C28.7505 26.1231 28.2376 27.0722 29.0785 27.0722C29.7121 27.0722 29.6877 25.789 29.6877 25.3203C29.6877 23.0616 27.4716 21.0077 25.2814 21.0077C24.3833 21.0077 23.7953 21.0422 22.9686 21.4416C21.967 21.9253 21.2695 22.5921 20.7656 23.5529C20.5566 23.9515 20.3128 24.656 20.3128 25.2302L20.3125 25.2304Z" fill="#7D6858"/>
<path fill-rule="evenodd" clip-rule="evenodd" d="M24.5312 14.4042V18.8066C24.5312 19.3493 25.4688 19.3493 25.4688 18.8066V14.4042C25.4688 14.1547 25.2702 14.0197 25.056 14H24.944C24.7298 14.02 24.5312 14.1547 24.5312 14.4042Z" fill="#7D6858"/>
<path fill-rule="evenodd" clip-rule="evenodd" d="M24.5312 32.1934V36.5958C24.5312 36.8454 24.7298 36.9803 24.944 37H25.056C25.2702 36.98 25.4688 36.8454 25.4688 36.5958V32.1934C25.4688 31.6507 24.5312 31.6507 24.5312 32.1934Z" fill="#7D6858"/>
<path fill-rule="evenodd" clip-rule="evenodd" d="M13 25.455C13 25.7298 13.1219 25.949 13.4217 25.949H18.0156C18.5819 25.949 18.5819 25.0505 18.0156 25.0505H13.4217C13.1901 25.0505 13 25.2327 13 25.4547V25.455Z" fill="#7D6858"/>
<path fill-rule="evenodd" clip-rule="evenodd" d="M31.5625 25.455C31.5625 25.7298 31.6844 25.949 31.9842 25.949H36.5781C36.8385 25.949 36.9792 25.7587 36.9998 25.5534V25.4461C36.9789 25.2408 36.8385 25.0505 36.5781 25.0505H31.9842C31.7526 25.0505 31.5625 25.2327 31.5625 25.4547V25.455Z" fill="#7D6858"/>
<path fill-rule="evenodd" clip-rule="evenodd" d="M16.5625 17.8183C16.5625 18.1858 16.9091 18.3975 17.3009 18.773L19.4572 20.8394C19.6958 21.0686 19.7237 21.1877 20.0784 21.1877C20.3782 21.1877 20.5001 20.9682 20.5001 20.6937C20.5001 20.4458 20.0014 20.0586 19.7385 19.8063L17.5822 17.7399C17.4292 17.5927 17.3172 17.4142 17.0313 17.4142C16.8182 17.4142 16.5625 17.6275 16.5625 17.8183Z" fill="#7D6858"/>
<path fill-rule="evenodd" clip-rule="evenodd" d="M29.5 30.2168C29.5 30.5923 29.8425 30.792 30.2616 31.1939L32.4179 33.2604C32.5709 33.4075 32.6829 33.5861 32.9688 33.5861C33.1296 33.5861 33.8341 33.3038 33.1447 32.654L30.5429 30.1608C30.3043 29.9316 30.2764 29.8126 29.9217 29.8126C29.6901 29.8126 29.5 29.9948 29.5 30.2168Z" fill="#7D6858"/>
<path fill-rule="evenodd" clip-rule="evenodd" d="M16.5625 33.1366C16.5625 33.2907 16.8571 33.9658 17.5351 33.3052C17.6936 33.1511 17.8205 33.0315 17.9804 32.8782L20.1367 30.8117C20.3759 30.5831 20.5001 30.5564 20.5001 30.2165C20.5001 29.9291 20.2711 29.8123 19.9846 29.8123C19.726 29.8123 19.322 30.2902 19.0587 30.5422L16.9024 32.6087C16.7488 32.7553 16.5625 32.8626 16.5625 33.1366Z" fill="#7D6858"/>
<path fill-rule="evenodd" clip-rule="evenodd" d="M29.5001 20.6934C29.5001 21.0433 29.6504 21.1874 30.0156 21.1874C30.2539 21.1874 30.3857 20.9908 30.5195 20.8617C30.6713 20.7157 30.7894 20.603 30.9412 20.4575L32.6755 18.7955C32.9919 18.492 33.4371 18.1705 33.4371 17.8634C33.4371 17.7093 33.1425 17.0342 32.4645 17.6948C32.306 17.8489 32.1791 17.9685 32.0192 18.1218L29.8629 20.1883C29.7253 20.3198 29.4995 20.462 29.4995 20.6937L29.5001 20.6934Z" fill="#7D6858"/>
<path fill-rule="evenodd" clip-rule="evenodd" d="M27.2029 19.3009C27.2029 19.522 27.5196 19.7501 27.6247 19.7501C28.1393 19.7501 28.2981 19.1079 28.5825 18.4219C28.6765 18.1952 29.2652 16.8948 29.2652 16.7852C29.2652 16.3897 28.6072 16.1062 28.3401 16.5727C28.2685 16.6979 28.231 16.813 28.1735 16.9521C28.0612 17.2244 27.9602 17.4392 27.8456 17.7159C27.7353 17.9819 27.2026 19.0987 27.2026 19.3009H27.2029Z" fill="#7D6858"/>
<path fill-rule="evenodd" clip-rule="evenodd" d="M20.7344 34.2148C20.7344 34.6103 21.3924 34.8938 21.6594 34.4273L22.1566 33.2865C22.2533 33.0801 22.7969 31.8459 22.7969 31.6991C22.7969 31.4779 22.4803 31.2498 22.3752 31.2498C21.86 31.2498 21.7032 31.8907 21.4173 32.5781C21.3233 32.8042 20.7347 34.1116 20.7347 34.2148H20.7344Z" fill="#7D6858"/>
<path fill-rule="evenodd" clip-rule="evenodd" d="M15.4375 29.004C15.4375 29.3353 15.5977 29.5878 15.9063 29.5878L18.4065 28.6148C18.5917 28.5361 18.9998 28.4535 18.9998 28.0605C18.9998 27.8633 18.7368 27.6112 18.531 27.6112C18.3763 27.6112 17.1175 28.1197 16.9065 28.2107C16.4148 28.4221 15.4375 28.6696 15.4375 29.004Z" fill="#7D6858"/>
<path fill-rule="evenodd" clip-rule="evenodd" d="M31 22.9395C31 23.1367 31.263 23.3888 31.4688 23.3888C31.674 23.3888 33.5325 22.6054 33.886 22.4708C34.0349 22.4141 34.1638 22.3721 34.2845 22.3137C34.3652 22.2747 34.3867 22.2719 34.4508 22.2035C34.7306 21.9067 34.4645 21.4121 34.0938 21.4121L31.5936 22.3851C31.4084 22.4639 31.0003 22.5465 31.0003 22.9395H31Z" fill="#7D6858"/>
<path fill-rule="evenodd" clip-rule="evenodd" d="M15.4378 21.8614C15.4378 22.2589 15.6508 22.2956 16.0807 22.458C16.3547 22.5618 16.6046 22.6589 16.8748 22.7751C17.0902 22.8678 18.3781 23.3888 18.5313 23.3888C18.7966 23.3888 19.4926 22.7924 18.4448 22.3935L15.9063 21.4121C15.6839 21.4121 15.4375 21.6313 15.4375 21.8614H15.4378Z" fill="#7D6858"/>
<path fill-rule="evenodd" clip-rule="evenodd" d="M30.9998 28.0157C30.9998 28.4212 31.2657 28.4774 31.5609 28.6009L34.0933 29.5878C34.5061 29.5878 34.8018 28.9573 34.3151 28.7013C34.0478 28.5609 31.5919 27.6112 31.4683 27.6112C31.2375 27.6112 30.9995 27.9147 30.9995 28.0154L30.9998 28.0157Z" fill="#7D6858"/>
<path fill-rule="evenodd" clip-rule="evenodd" d="M20.7344 16.7852L21.923 19.5543C22.2045 19.9301 22.7969 19.6787 22.7969 19.3006C22.7969 19.104 21.9796 17.3229 21.8391 16.9841C21.6646 16.5635 21.6345 16.3357 21.2031 16.3357C20.9631 16.3357 20.7344 16.5719 20.7344 16.785V16.7852Z" fill="#7D6858"/>
<path fill-rule="evenodd" clip-rule="evenodd" d="M27.2031 31.6991L28.325 34.3972C28.3656 34.4746 28.3685 34.4952 28.4399 34.5566C28.7496 34.8248 29.2657 34.5697 29.2657 34.2145L28.0771 31.4454C27.7955 31.0696 27.2031 31.3211 27.2031 31.6991Z" fill="#7D6858"/>
<path fill-rule="evenodd" clip-rule="evenodd" d="M27.5312 28.33C27.5312 29.0018 28.4688 29.0018 28.4688 28.33C28.4688 27.7873 27.5312 27.7873 27.5312 28.33Z" fill="#7D6858"/>
</g>
<defs>
<clipPath id="clip0_160_599">
<rect width="24" height="23" fill="white" transform="translate(13 14)"/>
</clipPath>
</defs>
</svg>
