<svg width="58" height="148" viewBox="0 0 58 148" fill="none" xmlns="http://www.w3.org/2000/svg">
<path d="M57.96 126.424C57.96 131.331 57.1333 135.491 55.48 138.904C53.7733 142.317 51.5867 145.224 48.92 147.624L40.84 139.624C45.1067 135.837 47.24 131.171 47.24 125.624C47.24 122.637 46.6267 120.424 45.4 118.984C44.1733 117.544 42.5467 116.824 40.52 116.824C38.9733 116.824 37.6933 117.251 36.68 118.104C35.6133 118.957 34.8933 120.691 34.52 123.304L33.8 128.824C33.0533 134.744 31.2667 139.091 28.44 141.864C25.6133 144.584 21.8533 145.944 17.16 145.944C14.6533 145.944 12.36 145.464 10.28 144.504C8.2 143.544 6.41333 142.184 4.92 140.424C3.42666 138.611 2.28 136.424 1.48 133.864C0.626664 131.251 0.199996 128.291 0.199996 124.984C0.199996 120.771 0.866661 117.064 2.19999 113.864C3.53333 110.664 5.48 107.917 8.03999 105.624L16.2 113.704C14.6533 115.037 13.4 116.664 12.44 118.584C11.4267 120.451 10.92 122.824 10.92 125.704C10.92 128.424 11.4 130.451 12.36 131.784C13.32 133.117 14.6533 133.784 16.36 133.784C18.28 133.784 19.6667 133.277 20.52 132.264C21.3733 131.197 21.9867 129.491 22.36 127.144L23.24 121.624C24.1467 115.864 25.9333 111.597 28.6 108.824C31.2133 106.051 34.9467 104.664 39.8 104.664C42.4667 104.664 44.92 105.144 47.16 106.104C49.4 107.064 51.32 108.477 52.92 110.344C54.52 112.157 55.7733 114.424 56.68 117.144C57.5333 119.864 57.96 122.957 57.96 126.424ZM57 94.5822L1.16 94.5822L1.16 68.1822C1.16 65.5689 1.61333 63.2222 2.51999 61.1422C3.37333 59.0622 4.57333 57.3022 6.11999 55.8622C7.66666 54.3688 9.55999 53.2222 11.8 52.4222C13.9867 51.6222 16.3867 51.2222 19 51.2222C21.6667 51.2222 24.0933 51.6222 26.28 52.4222C28.4667 53.2222 30.3333 54.3688 31.88 55.8622C33.4267 57.3022 34.6533 59.0622 35.56 61.1422C36.4133 63.2222 36.84 65.5688 36.84 68.1822L36.84 82.4222L57 82.4222L57 94.5822ZM26.28 82.4222L26.28 69.6222C26.28 67.8089 25.8267 66.3955 24.92 65.3822C23.96 64.3155 22.5733 63.7822 20.76 63.7822L17.24 63.7822C15.4267 63.7822 14.0667 64.3155 13.16 65.3822C12.2 66.3955 11.72 67.8089 11.72 69.6222L11.72 82.4222L26.28 82.4222ZM57 13.5416L43.72 17.5416L43.72 36.1816L57 40.1816L57 52.5016L1.15999 34.1016L1.15999 19.0616L57 0.901557L57 13.5416ZM12.2 26.7416L12.2 27.1416L33.4 33.3016L33.4 20.5016L12.2 26.7416Z" fill="#CFC8BE" fill-opacity="0.01"/>
<path d="M55.48 138.904L56.3745 139.351L56.38 139.34L55.48 138.904ZM48.92 147.624L48.2164 148.335L48.8873 148.999L49.589 148.367L48.92 147.624ZM40.84 139.624L40.1762 138.876L39.3784 139.584L40.1364 140.335L40.84 139.624ZM45.4 118.984L46.1612 118.336L45.4 118.984ZM36.68 118.104L37.3047 118.885L37.3145 118.877L37.3241 118.869L36.68 118.104ZM34.52 123.304L33.53 123.163L33.5284 123.175L34.52 123.304ZM33.8 128.824L32.8084 128.695L32.8079 128.699L33.8 128.824ZM28.44 141.864L29.1334 142.585L29.1403 142.578L28.44 141.864ZM10.28 144.504L9.86094 145.412L9.86094 145.412L10.28 144.504ZM4.92 140.424L4.14807 141.06L4.15274 141.065L4.15749 141.071L4.92 140.424ZM1.48 133.864L2.43456 133.566L2.4306 133.554L1.48 133.864ZM2.19999 113.864L1.27692 113.479L2.19999 113.864ZM8.04 105.624L8.74361 104.913L8.07431 104.251L7.37275 104.879L8.04 105.624ZM16.2 113.704L16.8529 114.461L17.6726 113.755L16.9036 112.993L16.2 113.704ZM12.44 118.584L13.3189 119.061L13.3269 119.046L13.3344 119.031L12.44 118.584ZM12.36 131.784L13.1715 131.2L12.36 131.784ZM20.52 132.264L21.2849 132.908L21.293 132.899L21.3009 132.889L20.52 132.264ZM22.36 127.144L21.3725 126.987L21.3724 126.987L22.36 127.144ZM23.24 121.624L24.2275 121.781L24.2278 121.78L23.24 121.624ZM28.6 108.824L29.3209 109.517L29.3278 109.51L28.6 108.824ZM52.92 110.344L52.1607 110.995L52.1654 111L52.1702 111.006L52.92 110.344ZM56.68 117.144L57.6341 116.845L57.6315 116.836L57.6287 116.828L56.68 117.144ZM56.96 126.424C56.96 131.222 56.1511 135.225 54.58 138.468L56.38 139.34C58.1155 135.757 58.96 131.439 58.96 126.424L56.96 126.424ZM54.5856 138.457C52.9313 141.765 50.8189 144.57 48.251 146.881L49.589 148.367C52.3545 145.878 54.6154 142.869 56.3744 139.351L54.5856 138.457ZM49.6236 146.913L41.5436 138.913L40.1364 140.335L48.2164 148.335L49.6236 146.913ZM41.5038 140.372C45.9773 136.402 48.24 131.466 48.24 125.624L46.24 125.624C46.24 130.876 44.236 135.273 40.1762 138.876L41.5038 140.372ZM48.24 125.624C48.24 122.53 47.6094 120.036 46.1612 118.336L44.6388 119.633C45.6439 120.813 46.24 122.745 46.24 125.624L48.24 125.624ZM46.1612 118.336C44.7297 116.655 42.8159 115.824 40.52 115.824L40.52 117.824C42.2774 117.824 43.617 118.433 44.6388 119.633L46.1612 118.336ZM40.52 115.824C38.7792 115.824 37.2589 116.309 36.0359 117.339L37.3241 118.869C38.1277 118.192 39.1675 117.824 40.52 117.824L40.52 115.824ZM36.0553 117.323C34.6722 118.43 33.91 120.503 33.53 123.163L35.5099 123.445C35.8767 120.879 36.5544 119.485 37.3047 118.885L36.0553 117.323ZM33.5284 123.175L32.8084 128.695L34.7916 128.953L35.5116 123.433L33.5284 123.175ZM32.8079 128.699C32.0757 134.504 30.342 138.597 27.7397 141.15L29.1403 142.578C32.1913 139.584 34.0309 134.985 34.7921 128.949L32.8079 128.699ZM27.7466 141.143C25.1419 143.65 21.6489 144.944 17.16 144.944L17.16 146.944C22.0578 146.944 26.0848 145.518 29.1334 142.585L27.7466 141.143ZM17.16 144.944C14.7842 144.944 12.6357 144.49 10.6991 143.596L9.86094 145.412C12.0843 146.438 14.5224 146.944 17.16 146.944L17.16 144.944ZM10.6991 143.596C8.75219 142.698 7.08244 141.427 5.68251 139.777L4.15749 141.071C5.74422 142.941 7.6478 144.391 9.86094 145.412L10.6991 143.596ZM5.69193 139.788C4.29145 138.088 3.20139 136.02 2.43448 133.566L0.52552 134.162C1.3586 136.828 2.56187 139.134 4.14807 141.06L5.69193 139.788ZM2.4306 133.554C1.61585 131.058 1.2 128.206 1.2 124.984L-0.800004 124.984C-0.800004 128.375 -0.362523 131.443 0.529393 134.174L2.4306 133.554ZM1.2 124.984C1.2 120.875 1.85019 117.304 3.12307 114.249L1.27692 113.479C-0.116867 116.825 -0.800004 120.666 -0.800004 124.984L1.2 124.984ZM3.12307 114.249C4.39957 111.185 6.2593 108.562 8.70724 106.369L7.37275 104.879C4.70069 107.273 2.66709 110.143 1.27692 113.479L3.12307 114.249ZM7.33638 106.335L15.4964 114.415L16.9036 112.993L8.74361 104.913L7.33638 106.335ZM15.5471 112.947C13.8951 114.371 12.5617 116.105 11.5456 118.137L13.3344 119.031C14.2383 117.223 15.4116 115.704 16.8529 114.461L15.5471 112.947ZM11.5611 118.107C10.445 120.163 9.92 122.714 9.92 125.704L11.92 125.704C11.92 122.934 12.4083 120.739 13.3189 119.061L11.5611 118.107ZM9.92 125.704C9.92 128.509 10.409 130.786 11.5485 132.368L13.1715 131.2C12.391 130.116 11.92 128.339 11.92 125.704L9.92 125.704ZM11.5485 132.368C12.7048 133.974 14.3464 134.784 16.36 134.784L16.36 132.784C14.9602 132.784 13.9352 132.26 13.1715 131.2L11.5485 132.368ZM16.36 134.784C18.4385 134.784 20.1684 134.234 21.2849 132.908L19.7551 131.62C19.1649 132.321 18.1215 132.784 16.36 132.784L16.36 134.784ZM21.3009 132.889C22.3155 131.62 22.9645 129.709 23.3476 127.301L21.3724 126.987C21.0088 129.273 20.4311 130.774 19.7391 131.639L21.3009 132.889ZM23.3475 127.301L24.2275 121.781L22.2525 121.467L21.3725 126.987L23.3475 127.301ZM24.2278 121.78C25.1181 116.124 26.8521 112.085 29.3208 109.517L27.8792 108.131C25.0146 111.11 23.1753 115.604 22.2522 121.469L24.2278 121.78ZM29.3278 109.51C31.7036 106.989 35.1423 105.664 39.8 105.664L39.8 103.664C34.751 103.664 30.7231 105.113 27.8722 108.138L29.3278 109.51ZM39.8 105.664C42.3441 105.664 44.6618 106.121 46.7661 107.023L47.5539 105.185C45.1781 104.167 42.5892 103.664 39.8 103.664L39.8 105.664ZM46.7661 107.023C48.8641 107.922 50.6595 109.243 52.1607 110.995L53.6793 109.693C51.9805 107.711 49.9359 106.206 47.5539 105.185L46.7661 107.023ZM52.1702 111.006C53.6665 112.702 54.8593 114.844 55.7313 117.46L57.6287 116.828C56.6873 114.004 55.3735 111.613 53.6698 109.682L52.1702 111.006ZM55.7259 117.443C56.5431 120.048 56.96 123.038 56.96 126.424L58.96 126.424C58.96 122.877 58.5236 119.68 57.6341 116.845L55.7259 117.443ZM57 94.5822L57 95.5822L58 95.5822L58 94.5822L57 94.5822ZM1.16 94.5822L0.159997 94.5822L0.159997 95.5822L1.16 95.5822L1.16 94.5822ZM2.51999 61.1422L3.43669 61.5418L3.44103 61.5318L3.44516 61.5217L2.51999 61.1422ZM6.11999 55.8622L6.80141 56.5941L6.80806 56.5879L6.81459 56.5816L6.11999 55.8622ZM11.8 52.4222L12.1363 53.364L12.1436 53.3613L11.8 52.4222ZM26.28 52.4222L26.6236 51.4831L26.28 52.4222ZM31.88 55.8622L31.1854 56.5816L31.1919 56.5879L31.1986 56.5941L31.88 55.8622ZM35.56 61.1422L36.4852 60.7626L36.481 60.7526L36.4767 60.7426L35.56 61.1422ZM36.84 82.4222L35.84 82.4222L35.84 83.4222L36.84 83.4222L36.84 82.4222ZM57 82.4222L58 82.4222L58 81.4222L57 81.4222L57 82.4222ZM26.28 82.4222L26.28 83.4222L27.28 83.4222L27.28 82.4222L26.28 82.4222ZM24.92 65.3822L25.6652 64.7154L25.6633 64.7132L24.92 65.3822ZM13.16 65.3822L13.8859 66.0699L13.9045 66.0504L13.9219 66.0298L13.16 65.3822ZM11.72 82.4222L10.72 82.4222L10.72 83.4222L11.72 83.4222L11.72 82.4222ZM57 93.5822L1.16 93.5822L1.16 95.5822L57 95.5822L57 93.5822ZM2.16 94.5822L2.16 68.1822L0.159996 68.1822L0.159997 94.5822L2.16 94.5822ZM2.16 68.1822C2.16 65.6856 2.59269 63.478 3.43669 61.5418L1.6033 60.7426C0.633966 62.9664 0.159996 65.4521 0.159996 68.1822L2.16 68.1822ZM3.44516 61.5217C4.24722 59.5667 5.36717 57.9294 6.80141 56.5941L5.43857 55.1303C3.77948 56.675 2.49943 58.5577 1.59482 60.7626L3.44516 61.5217ZM6.81459 56.5816C8.24858 55.197 10.0159 54.1212 12.1363 53.3639L11.4637 51.4804C9.10413 52.3231 7.08474 53.5407 5.4254 55.1428L6.81459 56.5816ZM12.1436 53.3613C14.2075 52.6062 16.4896 52.2222 19 52.2222L19 50.2222C16.2837 50.2222 13.7658 50.6382 11.4564 51.4831L12.1436 53.3613ZM19 52.2222C21.5662 52.2222 23.8746 52.607 25.9364 53.3613L26.6236 51.4831C24.3121 50.6374 21.7671 50.2222 19 50.2222L19 52.2222ZM25.9364 53.3613C28.003 54.1174 29.7472 55.193 31.1854 56.5816L32.5746 55.1428C30.9194 53.5447 28.9303 52.327 26.6236 51.4831L25.9364 53.3613ZM31.1986 56.5941C32.6376 57.9339 33.7873 59.5781 34.6433 61.5418L36.4767 60.7426C35.5193 58.5463 34.2157 56.6705 32.5614 55.1303L31.1986 56.5941ZM34.6348 61.5217C35.4314 63.4634 35.84 65.6782 35.84 68.1822L37.84 68.1822C37.84 65.4595 37.3953 62.981 36.4852 60.7626L34.6348 61.5217ZM35.84 68.1822L35.84 82.4222L37.84 82.4222L37.84 68.1822L35.84 68.1822ZM36.84 83.4222L57 83.4222L57 81.4222L36.84 81.4222L36.84 83.4222ZM56 82.4222L56 94.5822L58 94.5822L58 82.4222L56 82.4222ZM27.28 82.4222L27.28 69.6222L25.28 69.6222L25.28 82.4222L27.28 82.4222ZM27.28 69.6222C27.28 67.6462 26.7842 65.9659 25.6652 64.7154L24.1748 66.049C24.8692 66.8251 25.28 67.9715 25.28 69.6222L27.28 69.6222ZM25.6633 64.7132C24.466 63.3829 22.7768 62.7822 20.76 62.7822L20.76 64.7822C22.3698 64.7822 23.454 65.2481 24.1767 66.0511L25.6633 64.7132ZM20.76 62.7822L17.24 62.7822L17.24 64.7822L20.76 64.7822L20.76 62.7822ZM17.24 62.7822C15.2261 62.7822 13.5476 63.3821 12.3981 64.7345L13.9219 66.0298C14.5857 65.2489 15.6272 64.7822 17.24 64.7822L17.24 62.7822ZM12.434 64.6944C11.2503 65.944 10.72 67.6321 10.72 69.6222L12.72 69.6222C12.72 67.9856 13.1497 66.8471 13.8859 66.0699L12.434 64.6944ZM10.72 69.6222L10.72 82.4222L12.72 82.4222L12.72 69.6222L10.72 69.6222ZM11.72 83.4222L26.28 83.4222L26.28 81.4222L11.72 81.4222L11.72 83.4222ZM57 13.5416L57.2884 14.4991L58 14.2847L58 13.5416L57 13.5416ZM43.72 17.5416L43.4316 16.584L42.72 16.7984L42.72 17.5416L43.72 17.5416ZM43.72 36.1816L42.72 36.1816L42.72 36.9247L43.4316 37.1391L43.72 36.1816ZM57 40.1816L58 40.1816L58 39.4384L57.2884 39.224L57 40.1816ZM57 52.5016L56.687 53.4513L58 53.884L58 52.5016L57 52.5016ZM1.15999 34.1016L0.159995 34.1016L0.159995 34.8249L0.847033 35.0513L1.15999 34.1016ZM1.15999 19.0616L0.850721 18.1106L0.159994 18.3352L0.159994 19.0616L1.15999 19.0616ZM57 0.901562L58 0.901562L58 -0.475208L56.6907 -0.0494115L57 0.901562ZM12.2 26.7416L11.9176 25.7823L11.2 25.9935L11.2 26.7416L12.2 26.7416ZM12.2 27.1416L11.2 27.1416L11.2 27.8924L11.921 28.1018L12.2 27.1416ZM33.4 33.3016L33.121 34.2618L34.4 34.6335L34.4 33.3016L33.4 33.3016ZM33.4 20.5016L34.4 20.5016L34.4 19.1648L33.1176 19.5422L33.4 20.5016ZM56.7116 12.584L43.4316 16.584L44.0084 18.4991L57.2884 14.4991L56.7116 12.584ZM42.72 17.5416L42.72 36.1816L44.72 36.1816L44.72 17.5416L42.72 17.5416ZM43.4316 37.1391L56.7116 41.1391L57.2884 39.224L44.0084 35.224L43.4316 37.1391ZM56 40.1816L56 52.5016L58 52.5016L58 40.1816L56 40.1816ZM57.313 51.5518L1.47295 33.1518L0.847033 35.0513L56.687 53.4513L57.313 51.5518ZM2.15999 34.1016L2.15999 19.0616L0.159994 19.0616L0.159995 34.1016L2.15999 34.1016ZM1.46926 20.0125L57.3093 1.85254L56.6907 -0.0494115L0.850721 18.1106L1.46926 20.0125ZM56 0.901562L56 13.5416L58 13.5416L58 0.901562L56 0.901562ZM11.2 26.7416L11.2 27.1416L13.2 27.1416L13.2 26.7416L11.2 26.7416ZM11.921 28.1018L33.121 34.2618L33.679 32.3413L12.479 26.1813L11.921 28.1018ZM34.4 33.3016L34.4 20.5016L32.4 20.5016L32.4 33.3016L34.4 33.3016ZM33.1176 19.5422L11.9176 25.7823L12.4824 27.7009L33.6824 21.4609L33.1176 19.5422Z" fill="#CFC8BE"/>
</svg>
