<svg width="25" height="25" viewBox="0 0 25 25" fill="none" xmlns="http://www.w3.org/2000/svg">
<path fill-rule="evenodd" clip-rule="evenodd" d="M2.0166 2.91672C2.0166 2.41967 2.41955 2.01672 2.9166 2.01672H5.4166C5.91366 2.01672 6.3166 2.41967 6.3166 2.91672V3.71672H18.6833V2.91672C18.6833 2.41967 19.0862 2.01672 19.5833 2.01672H22.0833C22.5803 2.01672 22.9833 2.41967 22.9833 2.91672V5.41672C22.9833 5.91378 22.5803 6.31672 22.0833 6.31672H21.2833V18.6834H22.0833C22.5803 18.6834 22.9833 19.0863 22.9833 19.5834V22.0834C22.9833 22.5804 22.5803 22.9834 22.0833 22.9834H19.5833C19.0862 22.9834 18.6833 22.5804 18.6833 22.0834V21.2834H6.3166V22.0834C6.3166 22.5804 5.91366 22.9834 5.4166 22.9834H2.9166C2.41955 22.9834 2.0166 22.5804 2.0166 22.0834V19.5834C2.0166 19.0863 2.41955 18.6834 2.9166 18.6834H3.7166V6.31672H2.9166C2.41955 6.31672 2.0166 5.91378 2.0166 5.41672V2.91672ZM4.6166 6.31672V18.6834H5.4166C5.91366 18.6834 6.3166 19.0863 6.3166 19.5834V20.3834H18.6833V19.5834C18.6833 19.0863 19.0862 18.6834 19.5833 18.6834H20.3833V6.31672H19.5833C19.0862 6.31672 18.6833 5.91378 18.6833 5.41672V4.61672H6.3166V5.41672C6.3166 5.91378 5.91366 6.31672 5.4166 6.31672H4.6166ZM3.8166 2.91672H2.9166V3.81672V4.51672V5.41672H3.8166H4.5166H5.4166V4.51672V3.81672V2.91672H4.5166H3.8166ZM9.09994 10.0001C9.09994 9.503 9.50288 9.10006 9.99993 9.10006H11.6666C12.1637 9.10006 12.5666 9.503 12.5666 10.0001V11.6667C12.5666 12.1638 12.1637 12.5667 11.6666 12.5667H9.99993C9.50288 12.5667 9.09994 12.1638 9.09994 11.6667V10.0001ZM10.7666 10.0001H9.99993V10.7667V10.9001V11.6667H10.7666H10.8999H11.6666V10.9001V10.7667V10.0001H10.8999H10.7666ZM13.3333 12.4334C12.8362 12.4334 12.4333 12.8363 12.4333 13.3334V15.0001C12.4333 15.4971 12.8362 15.9001 13.3333 15.9001H14.9999C15.497 15.9001 15.8999 15.4971 15.8999 15.0001V13.3334C15.8999 12.8363 15.497 12.4334 14.9999 12.4334H13.3333ZM13.3333 13.3334H14.0999H14.2333H14.9999V14.1001V14.2334V15.0001H14.2333H14.0999H13.3333V14.2334V14.1001V13.3334ZM3.8166 19.5834H2.9166V20.4834V21.1834V22.0834H3.8166H4.5166H5.4166V21.1834V20.4834V19.5834H4.5166H3.8166ZM19.5833 2.91672H20.4833H21.1833H22.0833V3.81672V4.51672V5.41672H21.1833H20.4833H19.5833V4.51672V3.81672V2.91672ZM20.4833 19.5834H19.5833V20.4834V21.1834V22.0834H20.4833H21.1833H22.0833V21.1834V20.4834V19.5834H21.1833H20.4833Z" fill="white"/>
</svg>
