<svg width="50" height="50" viewBox="0 0 50 50" fill="none" xmlns="http://www.w3.org/2000/svg">
<rect width="50" height="50" fill="#1E1E1E"/>
<g id="&#208;&#157;&#208;&#190;&#208;&#188;&#208;&#181; 3" clip-path="url(#clip0_0_1)">
<rect width="1920" height="1080" transform="translate(-555 -18)" fill="#F6F3EE"/>
<g id="sidebar">
<g id="Rectangle 49" filter="url(#filter0_i_0_1)">
<rect x="-555" y="-18" width="785" height="1080" fill="#B8ADA0"/>
</g>
</g>
<g id="header">
<g id="time">
<g id="time_2">
<circle id="Ellipse 21" cx="25" cy="25" r="24.5" stroke="white"/>
<path id="Vector" d="M25.253 34.253C24.0711 34.253 22.9008 34.0202 21.8088 33.5679C20.7169 33.1156 19.7248 32.4527 18.889 31.617C18.0533 30.7812 17.3904 29.7891 16.9381 28.6972C16.4858 27.6052 16.253 26.4349 16.253 25.253C16.253 24.0711 16.4858 22.9008 16.9381 21.8088C17.3904 20.7169 18.0533 19.7248 18.889 18.889C19.7248 18.0533 20.7169 17.3904 21.8088 16.9381C22.9008 16.4858 24.0711 16.253 25.253 16.253C27.6399 16.253 29.9291 17.2012 31.617 18.889C33.3048 20.5769 34.253 22.8661 34.253 25.253C34.253 27.6399 33.3048 29.9291 31.617 31.617C29.9291 33.3048 27.6399 34.253 25.253 34.253ZM26.253 25.253V20.253H24.253V27.253H29.253V25.253H26.253ZM15 18.535L18.535 15L19.95 16.414L16.413 19.95L15 18.535ZM31.97 15L35.506 18.535L34.092 19.95L30.556 16.414L31.971 15H31.97Z" fill="white"/>
</g>
</g>
</g>
</g>
<defs>
<filter id="filter0_i_0_1" x="-555" y="-18" width="785" height="1084" filterUnits="userSpaceOnUse" color-interpolation-filters="sRGB">
<feFlood flood-opacity="0" result="BackgroundImageFix"/>
<feBlend mode="normal" in="SourceGraphic" in2="BackgroundImageFix" result="shape"/>
<feColorMatrix in="SourceAlpha" type="matrix" values="0 0 0 0 0 0 0 0 0 0 0 0 0 0 0 0 0 0 127 0" result="hardAlpha"/>
<feOffset dy="4"/>
<feGaussianBlur stdDeviation="10"/>
<feComposite in2="hardAlpha" operator="arithmetic" k2="-1" k3="1"/>
<feColorMatrix type="matrix" values="0 0 0 0 0 0 0 0 0 0 0 0 0 0 0 0 0 0 0.25 0"/>
<feBlend mode="normal" in2="shape" result="effect1_innerShadow_0_1"/>
</filter>
<clipPath id="clip0_0_1">
<rect width="1920" height="1080" fill="white" transform="translate(-555 -18)"/>
</clipPath>
</defs>
</svg>
