<svg width="50" height="50" viewBox="0 0 50 50" fill="none" xmlns="http://www.w3.org/2000/svg">
<path fill-rule="evenodd" clip-rule="evenodd" d="M21.6477 19.9502C21.9285 19.9752 22.1523 20.085 22.3453 20.2247C22.5691 20.3894 22.6305 20.5392 22.7183 20.8686C22.9991 21.9416 22.885 23.2093 22.7797 24.3073C22.7534 24.5669 22.7183 24.7715 22.6349 24.9861C22.5516 25.2007 22.5077 25.2806 22.3892 25.3305C21.9636 25.5052 21.5423 24.9412 21.3186 24.6317C21.007 24.1925 20.6516 23.4738 20.419 22.9448C20.3181 22.7102 20.2304 22.5605 20.1338 22.3359L19.366 20.4992C19.2694 20.2497 19.2343 20.08 19.0763 19.8953C18.7209 19.4761 18.4445 19.5959 17.8126 19.5959C17.5055 19.5959 15.6626 19.5659 15.4432 19.6108C15.3247 19.6358 15.2369 19.6757 15.158 19.7306C15.0614 19.8005 15.0132 19.8953 15 20.0001V20.1948C15.0395 20.5192 15.2545 20.8985 15.3335 21.1231C15.8513 22.5455 16.7552 24.3922 17.4923 25.7797C17.9399 26.6231 19.0544 28.4049 19.5985 29.0687C20.0373 29.6077 20.3225 29.9621 20.9193 30.4063C21.4239 30.7856 21.9285 31.1849 22.5033 31.4494C23.7626 32.0333 24.4691 31.9435 25.8205 31.9435C26.8166 31.9435 26.6762 31.2398 26.7201 30.566C26.742 30.2266 26.8166 29.8623 26.9263 29.5977C26.9833 29.458 27.0535 29.3232 27.1369 29.2184C27.5406 28.6994 27.9443 29.0487 28.3172 29.458L29.0456 30.3614C29.3308 30.7806 30.0154 31.5342 30.4673 31.7638C31.2484 32.1581 32.1259 31.9385 32.8894 31.9435C33.6617 31.9485 35 32.1032 35 31.2797C35 30.7606 34.7674 30.4861 34.5875 30.1517C34.2804 29.5728 33.0298 28.1304 32.5691 27.6463C32.2312 27.2869 31.7573 26.8877 31.7573 26.3037C31.7573 25.7797 32.8324 24.3223 33.2141 23.7384C33.7056 22.9897 36.1496 19.5909 34.3374 19.5909C33.925 19.5909 30.8842 19.5609 30.6033 19.6508C30.3444 19.7356 30.2216 20.1748 30.1207 20.4344C29.8749 21.0632 29.6731 21.6921 29.3616 22.281C28.8789 23.1943 28.5761 23.8731 27.9487 24.7166C27.0184 25.9693 26.6806 25.0859 26.6806 23.6735L26.7552 20.3046C26.6762 19.4262 26.4217 19.2216 25.7854 19.0968C24.9912 18.9421 23.2273 18.982 22.4726 19.1517C22.1479 19.2265 21.652 19.501 21.6433 19.9402L21.6477 19.9502Z" fill="#7D6858"/>
<circle cx="25" cy="25" r="24.5" stroke="#B8ADA0"/>
</svg>
