<svg width="984" height="650" viewBox="0 0 984 650" fill="none" xmlns="http://www.w3.org/2000/svg">
<path d="M168.598 513.998V446.998H15.0977L15.0977 382.998L151.098 164.998H240.098L240.098 388.998H284.098V446.998H240.098V513.998H168.598ZM75.0977 388.998H168.598L168.598 242.498H163.598L75.0977 388.998Z" fill="#7D6858"/>
<path d="M168.598 513.998H166.598V515.998H168.598V513.998ZM168.598 446.998H170.598V444.998H168.598V446.998ZM15.0977 446.998H13.0977L13.0977 448.998H15.0977L15.0977 446.998ZM15.0977 382.998L13.4008 381.94L13.0977 382.426V382.998H15.0977ZM151.098 164.998V162.998H149.988L149.401 163.94L151.098 164.998ZM240.098 164.998H242.098V162.998H240.098V164.998ZM240.098 388.998H238.098V390.998H240.098V388.998ZM284.098 388.998H286.098V386.998H284.098V388.998ZM284.098 446.998V448.998H286.098V446.998H284.098ZM240.098 446.998V444.998H238.098V446.998H240.098ZM240.098 513.998V515.998H242.098V513.998H240.098ZM75.0977 388.998L73.3858 387.964L71.5529 390.998H75.0977V388.998ZM168.598 388.998V390.998H170.598V388.998H168.598ZM168.598 242.498H170.598V240.498H168.598V242.498ZM163.598 242.498V240.498H162.469L161.886 241.464L163.598 242.498ZM170.598 513.998V446.998H166.598V513.998H170.598ZM168.598 444.998H15.0977L15.0977 448.998H168.598V444.998ZM17.0977 446.998L17.0977 382.998H13.0977L13.0977 446.998H17.0977ZM16.7945 384.057L152.795 166.057L149.401 163.94L13.4008 381.94L16.7945 384.057ZM151.098 166.998H240.098V162.998H151.098V166.998ZM238.098 164.998L238.098 388.998H242.098L242.098 164.998H238.098ZM240.098 390.998H284.098V386.998H240.098V390.998ZM282.098 388.998V446.998H286.098V388.998H282.098ZM284.098 444.998H240.098V448.998H284.098V444.998ZM238.098 446.998V513.998H242.098V446.998H238.098ZM240.098 511.998L168.598 511.998V515.998H240.098V511.998ZM75.0977 390.998H168.598V386.998H75.0977V390.998ZM170.598 388.998L170.598 242.498H166.598L166.598 388.998H170.598ZM168.598 240.498H163.598V244.498H168.598V240.498ZM161.886 241.464L73.3858 387.964L76.8095 390.033L165.31 243.533L161.886 241.464Z" fill="white"/>
<path d="M492.098 519C446.431 519 412.598 503.167 390.598 471.5C368.598 439.833 357.598 395.5 357.598 338.5C357.598 281.5 368.598 237.167 390.598 205.5C412.598 173.833 446.431 158 492.098 158C537.764 158 571.598 173.833 593.598 205.5C615.598 237.167 626.598 281.5 626.598 338.5C626.598 395.5 615.598 439.833 593.598 471.5C571.598 503.167 537.764 519 492.098 519ZM492.098 455.5C512.098 455.5 525.931 448.167 533.598 433.5C541.264 418.833 545.098 398.167 545.098 371.5V305.5C545.098 278.833 541.264 258.167 533.598 243.5C525.931 228.833 512.098 221.5 492.098 221.5C472.098 221.5 458.264 228.833 450.598 243.5C442.931 258.167 439.098 278.833 439.098 305.5V371.5C439.098 398.167 442.931 418.833 450.598 433.5C458.264 448.167 472.098 455.5 492.098 455.5Z" fill="#7D6858"/>
<path d="M390.598 471.5L392.24 470.359L392.24 470.359L390.598 471.5ZM390.598 205.5L392.24 206.641L392.24 206.641L390.598 205.5ZM593.598 205.5L591.955 206.641L591.955 206.641L593.598 205.5ZM593.598 471.5L595.24 472.641L595.24 472.641L593.598 471.5ZM533.598 433.5L531.825 432.573L531.825 432.573L533.598 433.5ZM533.598 243.5L535.37 242.573L535.37 242.573L533.598 243.5ZM450.598 243.5L448.825 242.573L448.825 242.573L450.598 243.5ZM450.598 433.5L452.37 432.573L452.37 432.573L450.598 433.5ZM492.098 517C446.948 517 413.794 501.383 392.24 470.359L388.955 472.641C411.401 504.95 445.914 521 492.098 521V517ZM392.24 470.359C370.56 439.152 359.598 395.277 359.598 338.5H355.598C355.598 395.723 366.635 440.514 388.955 472.641L392.24 470.359ZM359.598 338.5C359.598 281.723 370.56 237.848 392.24 206.641L388.955 204.359C366.635 236.486 355.598 281.277 355.598 338.5H359.598ZM392.24 206.641C413.794 175.617 446.948 160 492.098 160V156C445.914 156 411.401 172.05 388.955 204.359L392.24 206.641ZM492.098 160C537.247 160 570.401 175.617 591.955 206.641L595.24 204.359C572.794 172.05 538.281 156 492.098 156V160ZM591.955 206.641C613.635 237.848 624.598 281.723 624.598 338.5H628.598C628.598 281.277 617.56 236.486 595.24 204.359L591.955 206.641ZM624.598 338.5C624.598 395.277 613.635 439.152 591.955 470.359L595.24 472.641C617.56 440.514 628.598 395.723 628.598 338.5H624.598ZM591.955 470.359C570.401 501.383 537.247 517 492.098 517V521C538.281 521 572.794 504.95 595.24 472.641L591.955 470.359ZM492.098 457.5C512.656 457.5 527.28 449.903 535.37 434.427L531.825 432.573C524.582 446.43 511.539 453.5 492.098 453.5V457.5ZM535.37 434.427C543.251 419.351 547.098 398.313 547.098 371.5H543.098C543.098 398.02 539.278 418.316 531.825 432.573L535.37 434.427ZM547.098 371.5V305.5H543.098V371.5H547.098ZM547.098 305.5C547.098 278.687 543.251 257.649 535.37 242.573L531.825 244.426C539.278 258.684 543.098 278.98 543.098 305.5H547.098ZM535.37 242.573C527.28 227.097 512.656 219.5 492.098 219.5V223.5C511.539 223.5 524.582 230.57 531.825 244.426L535.37 242.573ZM492.098 219.5C471.539 219.5 456.915 227.097 448.825 242.573L452.37 244.426C459.613 230.57 472.656 223.5 492.098 223.5V219.5ZM448.825 242.573C440.945 257.649 437.098 278.687 437.098 305.5H441.098C441.098 278.98 444.917 258.684 452.37 244.426L448.825 242.573ZM437.098 305.5V371.5H441.098V305.5H437.098ZM437.098 371.5C437.098 398.313 440.945 419.351 448.825 434.427L452.37 432.573C444.917 418.316 441.098 398.02 441.098 371.5H437.098ZM448.825 434.427C456.915 449.903 471.539 457.5 492.098 457.5V453.5C472.656 453.5 459.613 446.43 452.37 432.573L448.825 434.427Z" fill="white"/>
<path d="M852.598 513.998V446.998H699.098V382.998L835.098 164.998H924.098V388.998H968.098V446.998H924.098V513.998H852.598ZM759.098 388.998H852.598V242.498H847.598L759.098 388.998Z" fill="#7D6858"/>
<path d="M852.598 513.998H850.598V515.998H852.598V513.998ZM852.598 446.998H854.598V444.998H852.598V446.998ZM699.098 446.998H697.098V448.998H699.098V446.998ZM699.098 382.998L697.401 381.94L697.098 382.426V382.998H699.098ZM835.098 164.998V162.998H833.988L833.401 163.94L835.098 164.998ZM924.098 164.998H926.098V162.998H924.098V164.998ZM924.098 388.998H922.098V390.998H924.098V388.998ZM968.098 388.998H970.098V386.998H968.098V388.998ZM968.098 446.998V448.998H970.098V446.998H968.098ZM924.098 446.998V444.998H922.098V446.998H924.098ZM924.098 513.998V515.998H926.098V513.998H924.098ZM759.098 388.998L757.386 387.964L755.553 390.998H759.098V388.998ZM852.598 388.998V390.998H854.598V388.998H852.598ZM852.598 242.498H854.598V240.498H852.598V242.498ZM847.598 242.498V240.498H846.469L845.886 241.464L847.598 242.498ZM854.598 513.998V446.998H850.598V513.998H854.598ZM852.598 444.998H699.098V448.998H852.598V444.998ZM701.098 446.998V382.998H697.098V446.998H701.098ZM700.795 384.057L836.795 166.057L833.401 163.94L697.401 381.94L700.795 384.057ZM835.098 166.998H924.098V162.998H835.098V166.998ZM922.098 164.998V388.998H926.098V164.998H922.098ZM924.098 390.998H968.098V386.998H924.098V390.998ZM966.098 388.998V446.998H970.098V388.998H966.098ZM968.098 444.998H924.098V448.998H968.098V444.998ZM922.098 446.998V513.998H926.098V446.998H922.098ZM924.098 511.998L852.598 511.998V515.998H924.098V511.998ZM759.098 390.998H852.598V386.998H759.098V390.998ZM854.598 388.998V242.498H850.598V388.998H854.598ZM852.598 240.498H847.598V244.498H852.598V240.498ZM845.886 241.464L757.386 387.964L760.81 390.033L849.31 243.533L845.886 241.464Z" fill="white"/>
</svg>
