<svg width="984" height="650" viewBox="0 0 984 650" fill="none" xmlns="http://www.w3.org/2000/svg">
<path d="M165.026 513V446H11.5259L11.5259 382L147.526 164H236.526L236.526 388H280.526V446H236.526V513H165.026ZM71.5259 388H165.026L165.026 241.5H160.026L71.5259 388Z" fill="#F6F3EE" fill-opacity="0.1"/>
<path d="M165.026 513H163.026V515H165.026V513ZM165.026 446H167.026V444H165.026V446ZM11.5259 446H9.52586L9.52586 448H11.5259L11.5259 446ZM11.5259 382L9.82899 380.941L9.52586 381.427V382H11.5259ZM147.526 164V162H146.416L145.829 162.941L147.526 164ZM236.526 164H238.526V162H236.526V164ZM236.526 388H234.526V390H236.526V388ZM280.526 388H282.526V386H280.526V388ZM280.526 446V448H282.526V446H280.526ZM236.526 446V444H234.526V446H236.526ZM236.526 513V515H238.526V513H236.526ZM71.5259 388L69.814 386.966L67.9811 390H71.5259V388ZM165.026 388V390H167.026V388H165.026ZM165.026 241.5H167.026V239.5H165.026V241.5ZM160.026 241.5V239.5H158.897L158.314 240.466L160.026 241.5ZM167.026 513V446H163.026V513H167.026ZM165.026 444H11.5259L11.5259 448H165.026V444ZM13.5259 446L13.5259 382H9.52586L9.52586 446H13.5259ZM13.2227 383.059L149.223 165.059L145.829 162.941L9.82899 380.941L13.2227 383.059ZM147.526 166H236.526V162H147.526V166ZM234.526 164L234.526 388H238.526L238.526 164H234.526ZM236.526 390H280.526V386H236.526V390ZM278.526 388V446H282.526V388H278.526ZM280.526 444H236.526V448H280.526V444ZM234.526 446V513H238.526V446H234.526ZM236.526 511L165.026 511V515H236.526V511ZM71.5259 390H165.026V386H71.5259V390ZM167.026 388L167.026 241.5H163.026L163.026 388H167.026ZM165.026 239.5H160.026V243.5H165.026V239.5ZM158.314 240.466L69.814 386.966L73.2378 389.034L161.738 242.534L158.314 240.466Z" fill="white"/>
<path d="M480.382 519C434.715 519 400.882 503.167 378.882 471.5C356.882 439.833 345.882 395.5 345.882 338.5C345.882 281.5 356.882 237.167 378.882 205.5C400.882 173.833 434.715 158 480.382 158C526.048 158 559.882 173.833 581.882 205.5C603.882 237.167 614.882 281.5 614.882 338.5C614.882 395.5 603.882 439.833 581.882 471.5C559.882 503.167 526.048 519 480.382 519ZM480.382 455.5C500.382 455.5 514.215 448.167 521.882 433.5C529.548 418.833 533.382 398.167 533.382 371.5V305.5C533.382 278.833 529.548 258.167 521.882 243.5C514.215 228.833 500.382 221.5 480.382 221.5C460.382 221.5 446.548 228.833 438.882 243.5C431.215 258.167 427.382 278.833 427.382 305.5V371.5C427.382 398.167 431.215 418.833 438.882 433.5C446.548 448.167 460.382 455.5 480.382 455.5Z" fill="#F6F3EE" fill-opacity="0.1"/>
<path d="M378.882 471.5L380.524 470.359L380.524 470.359L378.882 471.5ZM378.882 205.5L380.524 206.641L380.524 206.641L378.882 205.5ZM581.882 205.5L580.239 206.641L580.239 206.641L581.882 205.5ZM581.882 471.5L583.524 472.641L583.524 472.641L581.882 471.5ZM521.882 433.5L520.109 432.573L520.109 432.573L521.882 433.5ZM521.882 243.5L523.654 242.573L523.654 242.573L521.882 243.5ZM438.882 243.5L437.109 242.573L437.109 242.573L438.882 243.5ZM438.882 433.5L440.654 432.573L440.654 432.573L438.882 433.5ZM480.382 517C435.232 517 402.078 501.383 380.524 470.359L377.239 472.641C399.686 504.95 434.198 521 480.382 521V517ZM380.524 470.359C358.844 439.152 347.882 395.277 347.882 338.5H343.882C343.882 395.723 354.92 440.514 377.239 472.641L380.524 470.359ZM347.882 338.5C347.882 281.723 358.844 237.848 380.524 206.641L377.239 204.359C354.92 236.486 343.882 281.277 343.882 338.5H347.882ZM380.524 206.641C402.078 175.617 435.232 160 480.382 160V156C434.198 156 399.686 172.05 377.239 204.359L380.524 206.641ZM480.382 160C525.532 160 558.686 175.617 580.239 206.641L583.524 204.359C561.078 172.05 526.565 156 480.382 156V160ZM580.239 206.641C601.92 237.848 612.882 281.723 612.882 338.5H616.882C616.882 281.277 605.844 236.486 583.524 204.359L580.239 206.641ZM612.882 338.5C612.882 395.277 601.92 439.152 580.239 470.359L583.524 472.641C605.844 440.514 616.882 395.723 616.882 338.5H612.882ZM580.239 470.359C558.686 501.383 525.532 517 480.382 517V521C526.565 521 561.078 504.95 583.524 472.641L580.239 470.359ZM480.382 457.5C500.94 457.5 515.564 449.903 523.654 434.427L520.109 432.573C512.866 446.43 499.824 453.5 480.382 453.5V457.5ZM523.654 434.427C531.535 419.351 535.382 398.313 535.382 371.5H531.382C531.382 398.02 527.562 418.316 520.109 432.573L523.654 434.427ZM535.382 371.5V305.5H531.382V371.5H535.382ZM535.382 305.5C535.382 278.687 531.535 257.649 523.654 242.573L520.109 244.426C527.562 258.684 531.382 278.98 531.382 305.5H535.382ZM523.654 242.573C515.564 227.097 500.94 219.5 480.382 219.5V223.5C499.824 223.5 512.866 230.57 520.109 244.426L523.654 242.573ZM480.382 219.5C459.824 219.5 445.2 227.097 437.109 242.573L440.654 244.426C447.897 230.57 460.94 223.5 480.382 223.5V219.5ZM437.109 242.573C429.229 257.649 425.382 278.687 425.382 305.5H429.382C429.382 278.98 433.202 258.684 440.654 244.426L437.109 242.573ZM425.382 305.5V371.5H429.382V305.5H425.382ZM425.382 371.5C425.382 398.313 429.229 419.351 437.109 434.427L440.654 432.573C433.202 418.316 429.382 398.02 429.382 371.5H425.382ZM437.109 434.427C445.2 449.903 459.824 457.5 480.382 457.5V453.5C460.94 453.5 447.897 446.43 440.654 432.573L437.109 434.427Z" fill="white"/>
<path d="M856.169 513L856.169 446H702.669V382L838.669 164H927.669V388H971.669V446H927.669L927.669 513H856.169ZM762.669 388H856.169V241.5H851.169L762.669 388Z" fill="#F6F3EE" fill-opacity="0.1"/>
<path d="M856.169 513H854.169V515H856.169V513ZM856.169 446H858.169V444H856.169V446ZM702.669 446H700.669V448H702.669V446ZM702.669 382L700.973 380.941L700.669 381.427V382H702.669ZM838.669 164V162H837.56L836.973 162.941L838.669 164ZM927.669 164H929.669V162H927.669V164ZM927.669 388H925.669V390H927.669V388ZM971.669 388H973.669V386H971.669V388ZM971.669 446V448H973.669V446H971.669ZM927.669 446V444H925.669V446H927.669ZM927.669 513V515H929.669V513H927.669ZM762.669 388L760.958 386.966L759.125 390H762.669V388ZM856.169 388V390H858.169V388H856.169ZM856.169 241.5H858.169V239.5H856.169V241.5ZM851.169 241.5V239.5H850.041L849.458 240.466L851.169 241.5ZM858.169 513L858.169 446H854.169L854.169 513H858.169ZM856.169 444H702.669V448H856.169V444ZM704.669 446V382H700.669V446H704.669ZM704.366 383.059L840.366 165.059L836.973 162.941L700.973 380.941L704.366 383.059ZM838.669 166H927.669V162H838.669V166ZM925.669 164V388H929.669V164H925.669ZM927.669 390H971.669V386H927.669V390ZM969.669 388V446H973.669V388H969.669ZM971.669 444H927.669V448H971.669V444ZM925.669 446L925.669 513H929.669L929.669 446H925.669ZM927.669 511L856.169 511V515H927.669V511ZM762.669 390H856.169V386H762.669V390ZM858.169 388V241.5H854.169V388H858.169ZM856.169 239.5H851.169V243.5H856.169V239.5ZM849.458 240.466L760.958 386.966L764.381 389.034L852.881 242.534L849.458 240.466Z" fill="white"/>
</svg>
