<svg width="24" height="24" viewBox="0 0 24 24" fill="none" xmlns="http://www.w3.org/2000/svg">
<g clip-path="url(#clip0_738_659)">
<path fill-rule="evenodd" clip-rule="evenodd" d="M6.00664 0.0599235C5.65007 0.197557 5.36019 0.478825 5.26487 0.779735C5.2367 0.868615 5.21485 0.8756 5.08303 0.837723C4.43256 0.650867 3.72308 1.10694 3.60792 1.78602L3.57334 1.99008L3.17672 2.01413C2.87495 2.03241 2.73892 2.06368 2.6079 2.14482C2.26898 2.35479 2.00801 2.74383 2.00801 3.03921C2.00801 3.16512 1.99061 3.18012 1.80914 3.21031C1.4326 3.27299 1.10649 3.51211 0.915952 3.8652L0.814785 4.05271L0.802619 12.8499L0.790406 21.647L0.587651 21.7661C-0.0849558 22.161 -0.202267 23.0902 0.350549 23.644C0.738325 24.0325 -0.347794 23.9993 11.975 23.9993C24.3008 23.9993 23.2115 24.0327 23.6006 23.6428C23.7138 23.5294 23.8317 23.3575 23.8625 23.2609C23.8934 23.1642 23.9371 23.0651 23.9597 23.0406C24.0139 22.982 24.0132 22.486 23.9591 22.5195C23.936 22.5338 23.9031 22.4876 23.8859 22.4168C23.8347 22.207 23.6177 21.9294 23.3925 21.7862L23.182 21.6522L23.1586 12.8525L23.1352 4.05271L23.0333 3.86201C22.8855 3.58538 22.5955 3.34321 22.3106 3.25841C22.1757 3.21828 22.0376 3.18547 22.0036 3.18547C21.9669 3.18547 21.9419 3.13095 21.9419 3.05055C21.9419 2.75133 21.6781 2.35301 21.3421 2.14482C21.211 2.06368 21.075 2.03241 20.7732 2.01413L20.3766 1.99008L20.342 1.78602C20.2279 1.11299 19.5139 0.651852 18.8717 0.836363C18.7337 0.876022 18.7227 0.869037 18.6449 0.692448C18.5437 0.462746 18.3176 0.231591 18.077 0.112005C17.93 0.0389222 17.7716 0.0181552 17.2661 0.00568569C16.8662 -0.00415868 16.5635 0.0110767 16.4333 0.0475946C16.147 0.127897 15.8879 0.329894 15.7333 0.593489C15.6127 0.798955 15.5994 0.868147 15.5781 1.4041L15.5547 1.99008H11.975H8.3953L8.3719 1.4041C8.35061 0.870631 8.3369 0.798298 8.21879 0.597051C8.06732 0.338941 7.86106 0.16868 7.57903 0.0690178C7.33257 -0.0181283 6.22535 -0.0245037 6.00664 0.0599235ZM6.12105 0.932885L5.9831 1.07108L5.99597 3.63254L6.00884 6.194L6.11932 6.28358C6.21426 6.3606 6.30818 6.37317 6.78823 6.37317C7.31877 6.37317 7.35246 6.3674 7.46154 6.25808L7.57641 6.14304V3.60591V1.06874L7.43964 0.931713C7.30483 0.796658 7.29542 0.794689 6.78093 0.794689C6.26545 0.794689 6.25731 0.796376 6.12105 0.932885ZM16.5103 0.931713L16.3735 1.06874V3.60591V6.14304L16.4884 6.25808C16.5975 6.3674 16.6312 6.37317 17.1617 6.37317C17.6418 6.37317 17.7357 6.3606 17.8306 6.28358L17.9411 6.194L17.954 3.63254L17.9669 1.07108L17.8289 0.932885C17.6927 0.796376 17.6845 0.794689 17.169 0.794689C16.6545 0.794689 16.6451 0.796658 16.5103 0.931713ZM4.53672 1.72315L4.39447 1.86566V3.60591V5.34612L4.50935 5.46116C4.62235 5.57441 4.81449 5.60971 4.97728 5.54713C5.1755 5.47091 5.18996 5.33613 5.18996 3.56541C5.18996 1.8824 5.18968 1.8778 5.08467 1.75827C5.02679 1.69231 4.91182 1.62541 4.82918 1.60952C4.70359 1.58538 4.65567 1.60399 4.53672 1.72315ZM19.0107 1.63812C18.7631 1.7382 18.76 1.76197 18.76 3.57324C18.76 5.33562 18.7746 5.47095 18.9727 5.54713C19.1355 5.60971 19.3276 5.57441 19.4406 5.46116L19.5555 5.34612V3.60591V1.86566L19.4187 1.72864C19.2782 1.58791 19.1856 1.56738 19.0107 1.63812ZM2.91838 2.92553C2.80921 3.03485 2.8035 3.06846 2.8035 3.60109V4.16156L2.94748 4.28293C3.06362 4.38085 3.14046 4.40429 3.34523 4.40429H3.59899V3.60737V2.81044H3.31612C3.07813 2.81044 3.01496 2.82872 2.91838 2.92553ZM8.3719 3.60737V4.40429H11.975H15.5781V3.60737V2.81044H11.975H8.3719V3.60737ZM20.351 3.60737V4.40429H20.6047C20.8095 4.40429 20.8863 4.38085 21.0025 4.28293L21.1465 4.16156V3.60109C21.1465 3.06846 21.1408 3.03485 21.0316 2.92553C20.935 2.82872 20.8718 2.81044 20.6338 2.81044H20.351V3.60737ZM1.72075 4.1189L1.61027 4.20848L1.5982 12.9085L1.58613 21.6085H1.98424H2.38236V15.3476C2.38236 11.0977 2.39827 9.0236 2.43191 8.89019C2.50837 8.58679 2.7575 8.27965 3.04261 8.13733L3.28982 8.0139H11.975H20.6601L20.9074 8.13733C21.1925 8.27965 21.4416 8.58679 21.518 8.89019C21.5517 9.0236 21.5676 11.0977 21.5676 15.3476V21.6085H21.9657H22.3638L22.3518 12.9085L22.3397 4.20848L22.2292 4.1189C22.0625 3.98366 21.9419 4.00124 21.9419 4.16071C21.9419 4.35615 21.7229 4.76024 21.5309 4.91873C21.3049 5.10535 21.0049 5.20122 20.6468 5.20122C20.376 5.20122 20.351 5.20966 20.351 5.30126C20.351 5.67089 19.9914 6.1654 19.619 6.30787C19.394 6.39398 19.0551 6.41742 18.8486 6.36112C18.7395 6.3314 18.7178 6.34767 18.6419 6.51624C18.5425 6.73713 18.2589 7.00794 18.0179 7.11225C17.9067 7.16034 17.651 7.1932 17.2815 7.20689C16.5155 7.23521 16.2535 7.16151 15.928 6.8262C15.6349 6.52411 15.5781 6.34134 15.5781 5.69972V5.20122H11.975H8.3719V5.69972C8.3719 6.34134 8.31509 6.52411 8.02193 6.8262C7.69649 7.16151 7.43449 7.23521 6.66844 7.20689C6.299 7.1932 6.04328 7.16034 5.9321 7.11225C5.69102 7.00794 5.40745 6.73713 5.30806 6.51624C5.23263 6.3487 5.2098 6.33135 5.10133 6.35906C4.88346 6.41475 4.55352 6.39304 4.33252 6.30848C3.9585 6.1654 3.59899 5.67173 3.59899 5.30126C3.59899 5.20966 3.574 5.20122 3.30316 5.20122C2.9451 5.20122 2.64506 5.10535 2.41905 4.91873C2.2271 4.76024 2.00801 4.35615 2.00801 4.16071C2.00801 4.00124 1.88743 3.98366 1.72075 4.1189ZM3.33254 8.92394L3.20124 9.0371V15.3111V21.5851L3.5864 21.5987L3.9716 21.6123L3.98414 16.8874C3.99832 11.5717 3.96828 11.9867 4.35722 11.7288L4.55132 11.6001L7.07086 11.5868C8.70493 11.5782 9.65371 11.5906 9.7705 11.6221C10.0158 11.6883 10.1918 11.8368 10.2953 12.0651C10.3778 12.2471 10.382 12.4818 10.383 16.9324L10.384 21.6085H10.7818H11.1795L11.1805 21.2686C11.1822 20.7269 11.4163 20.3308 11.8561 20.1256L12.092 20.0156L15.6132 20.0151L19.1344 20.0147V17.738C19.1344 16.3426 19.1166 15.4282 19.0885 15.3756C18.9966 15.2035 18.8114 15.1884 18.2407 15.3064C17.5425 15.4508 17.4449 15.4498 17.2924 15.297C17.1299 15.1342 17.127 14.913 17.2854 14.7543C17.3804 14.6591 17.5199 14.6148 18.0458 14.5129C18.7978 14.3671 18.8073 14.3667 19.1316 14.4631C19.3102 14.5163 19.4428 14.6001 19.6045 14.7621C19.9875 15.1458 19.9766 15.0349 19.9766 18.5484V21.6123L20.3627 21.5987L20.7487 21.5851V15.3111V9.0371L20.6174 8.92394L20.4861 8.81082H11.975H3.46385L3.33254 8.92394ZM4.81561 13.0064V13.5924H7.20207H9.58852V13.0064V12.4204H7.20207H4.81561V13.0064ZM4.81561 14.9987V15.6081H7.20207H9.58852V14.9987V14.3893H7.20207H4.81561V14.9987ZM4.81561 16.991V17.577H7.20207H9.58852V16.991V16.4051H7.20207H4.81561V16.991ZM4.81561 19.0068V19.5928H7.20207H9.58852V19.0068V18.4208H7.20207H4.81561V19.0068ZM4.81561 20.9991V21.6085H7.20207H9.58852V20.9991V20.3897H7.20207H4.81561V20.9991ZM12.1581 20.8717C12.0318 20.9688 11.975 21.1237 11.975 21.371V21.6085H15.5547H19.1344V21.21V20.8116L15.6833 20.8131C13.0443 20.8142 12.2149 20.828 12.1581 20.8717ZM0.928165 22.5425C0.750678 22.7203 0.750678 22.8875 0.928165 23.0653L1.06494 23.2024H11.975H22.885L23.0218 23.0653C23.1993 22.8875 23.1993 22.7203 23.0218 22.5425L22.885 22.4054H11.975H1.06494L0.928165 22.5425ZM0.0104089 22.8039C0.0106428 22.9586 0.0193932 23.0162 0.0298281 22.932C0.0402162 22.8477 0.040029 22.7212 0.0293601 22.6507C0.0186445 22.5802 0.0101281 22.6492 0.0104089 22.8039Z" fill="white"/>
</g>
<defs>
<clipPath id="clip0_738_659">
<rect width="24" height="24" fill="white"/>
</clipPath>
</defs>
</svg>
