<svg width="26" height="20" viewBox="0 0 26 20" fill="none" xmlns="http://www.w3.org/2000/svg">
<path d="M9.15591 0.0711735C9.2491 0.0237245 9.43548 0 9.71505 0C9.99462 0 10.5538 0.142348 11.3925 0.427045C12.2312 0.711742 12.767 0.948989 13 1.13879C11.2294 3.17912 9.319 5.62277 7.26882 8.46975C8.57348 8.8019 9.66846 9.48992 10.5538 10.5338C11.4391 11.5777 11.8817 12.8588 11.8817 14.3772C11.8817 15.8482 11.3226 17.153 10.2043 18.2918C9.13262 19.4306 7.87455 20 6.43011 20C6.33692 20 6.26702 20 6.22043 20C4.44982 20 2.95878 19.4781 1.74731 18.4342C0.582437 17.3903 0 15.8244 0 13.7367C0.046595 11.6489 1.09498 9.25267 3.14516 6.54804C5.24194 3.84341 7.24552 1.68446 9.15591 0.0711735ZM22.2957 0.0711735C22.3889 0.0237245 22.552 0 22.7849 0C23.0645 0 23.647 0.166073 24.5323 0.498218C25.4176 0.782915 25.9068 0.996438 26 1.13879C23.6703 3.89086 21.8065 6.33452 20.4086 8.46975C21.7133 8.8019 22.7849 9.48992 23.6237 10.5338C24.509 11.5302 24.9516 12.8114 24.9516 14.3772C24.9516 15.8956 24.4158 17.2242 23.3441 18.363C22.2724 19.4543 20.991 20 19.5 20C19.4068 20 19.3369 20 19.2903 20C17.5663 20 16.0986 19.4781 14.8871 18.4342C13.7222 17.3903 13.1398 16.0142 13.1398 14.306C13.1398 12.5504 13.7921 10.605 15.0968 8.46975C17.1004 5.24318 19.5 2.44365 22.2957 0.0711735Z" fill="white"/>
</svg>
