<svg width="17" height="24" viewBox="0 0 17 24" fill="none" xmlns="http://www.w3.org/2000/svg">
<path fill-rule="evenodd" clip-rule="evenodd" d="M10.6992 0H15.0806C16.1638 0.0252358 16.8637 0.897356 16.5494 1.8719C16.453 2.17102 16.3088 2.34841 16.0856 2.54288C15.5892 2.9756 15.0039 2.90583 14.1082 2.90583C13.3256 2.90583 12.5422 2.90583 11.7596 2.90583C11.8674 3.10549 11.9987 3.21534 12.0959 3.42094C12.1733 3.58497 12.2492 3.84995 12.2758 4.04218C12.4071 4.98556 11.8629 5.72333 11.0901 6.09519C10.5307 6.36462 10.2255 6.23399 9.69794 6.23399C9.70553 6.57467 9.81712 6.8389 9.69491 7.21522C9.50058 7.81123 9.12635 7.85947 9.11952 8.29293L9.12331 9.89021C9.60458 10.1389 10.0562 10.4157 10.3978 10.8469C10.7781 11.3257 10.9702 11.6374 11.1653 12.2995C11.2776 12.681 11.226 12.9979 11.2905 13.3022C11.3824 13.7364 12.7738 15.0005 12.001 15.3775C11.6275 15.5594 11.3846 15.3085 11.2465 15.0799C10.9747 14.6293 10.6233 14.184 10.3773 13.7261C10.3014 13.585 10.2726 13.4789 10.2847 13.28C10.3447 12.3114 9.76171 11.3183 8.93202 10.8737C8.51681 10.6517 8.64585 10.6822 8.12056 10.7853C7.48976 10.9093 6.88098 11.0073 6.22665 11.1364C5.90783 11.1995 5.60951 11.2121 5.39469 11.4474L3.84995 13.2184C3.69738 13.4128 3.50836 13.5969 3.33681 13.7951L2.56786 14.6835C2.45703 14.8038 2.4168 14.8683 2.33026 15.0138C1.77461 15.9438 1.94161 16.7521 2.36366 17.5782C2.85555 18.5394 3.33757 19.537 3.84995 20.4841C4.17105 20.3334 4.73732 20.0395 5.04855 19.9682L3.68675 16.3313C3.53949 15.9342 3.6321 15.7026 3.9456 15.4681L6.00727 13.8277C6.17048 13.703 6.31622 13.5761 6.48018 13.4462C6.60239 13.349 6.81266 13.1649 6.95992 13.1137C7.18993 13.0343 7.39412 13.1679 7.52848 13.3253L12.3077 19.292C12.4458 19.4635 12.546 19.6001 12.6849 19.7663C13.0561 20.2109 13.4471 20.6644 13.7727 21.1402C14.0179 20.9799 14.4635 20.6006 14.7314 20.5308C14.6965 20.4032 14.4278 20.0135 14.3382 19.8843C14.194 19.6758 14.0657 19.4724 13.9321 19.2505C13.7628 18.9699 13.3582 18.4704 13.7135 18.1765C14.1173 17.8417 14.4111 18.2091 14.6259 18.5246L15.8131 20.3631C16.0864 20.7995 16.3354 21.1743 16.6094 21.5996C16.8713 22.0056 17.178 22.5126 16.8728 23.1412C16.6436 23.6126 16.2648 23.954 15.6871 23.9993L15.6788 24H15.4032C14.8658 23.9569 14.5417 23.6608 14.298 23.3446C13.7014 22.5727 13.0668 21.8357 12.4709 21.0533L8.38169 15.9579C8.15017 15.6573 7.24306 14.4482 7.0123 14.2968C6.50979 14.5566 5.25502 15.7375 4.66369 16.1249C4.90356 16.6148 6.18793 20.2896 6.55305 21.2144C6.78761 21.8082 7.09504 22.3886 6.87566 23.0225C6.67451 23.6014 6.19704 23.9354 5.67859 24H5.30815C4.82841 23.9406 4.36158 23.6511 4.0883 23.1101L1.7397 18.5164C1.1051 17.2754 0.642819 16.3394 1.26071 14.9544C1.60534 14.181 2.23234 13.6036 2.77964 12.9712L4.38814 11.1223C4.69254 10.7883 4.73656 10.7594 4.65686 10.32C4.37903 8.788 4.71303 8.88004 3.96306 8.70116C3.05291 8.48369 2.2202 8.10589 1.34877 7.78896C0.880413 7.61899 0.552488 7.50246 0.265554 7.11353C0.165355 6.97844 0.138028 6.9109 0.077301 6.73499C-0.173956 6.00835 0.233672 5.39156 0.635228 5.10803C1.2387 4.68347 1.77689 4.8475 2.45248 5.06869L3.79682 5.49398C3.98811 5.56153 4.04959 5.64688 4.08982 5.39675C4.1885 4.78219 4.46861 4.299 4.95139 3.93827C5.28159 3.69185 5.53208 3.343 5.82585 3.05873C7.26963 1.66334 8.09324 0.410453 10.3538 0.0334003C10.435 0.0200402 10.5534 0.00890676 10.6992 0.00074223V0ZM5.47895 8.95278C6.30559 8.95278 6.8491 8.92012 7.61957 8.7019C7.71597 8.67444 7.8101 8.65366 7.88145 8.6299C8.01809 8.58537 8.0234 8.56236 8.16307 8.53045C8.16307 8.7494 8.16231 8.96836 8.16383 9.18732C8.16535 9.46714 8.11981 9.58738 8.11525 9.79595L5.62242 10.265C5.62242 9.78407 5.47895 9.433 5.47895 8.95278ZM1.49983 5.8124C1.8695 5.8124 3.77708 6.64073 5.34383 6.79214C5.55941 6.81293 6.19628 6.71792 6.40959 6.67636C6.78685 6.60213 7.01382 6.53162 7.32808 6.40322C7.53227 6.32009 8.20482 5.85842 8.6041 6.31934C8.89711 6.6578 8.79691 7.12392 8.43255 7.34214C7.66208 7.80455 6.68513 7.96932 5.71806 7.96932C4.29933 7.96932 3.21612 7.42304 2.04485 7.01407C1.8065 6.93094 1.54993 6.84484 1.34801 6.758C1.12787 6.66374 0.966948 6.49822 0.995035 6.24735C1.02312 5.99573 1.22428 5.81314 1.50059 5.81314L1.49983 5.8124ZM5.52677 5.8124H5.04703C5.04703 5.38933 5.12749 5.08056 5.44099 4.79109C5.64671 4.60108 5.95565 4.45338 6.34203 4.45338H8.21165C8.21165 4.72949 8.30578 4.97665 8.4037 5.15627C7.51178 5.15627 7.58845 5.2394 6.97966 5.49844C6.60998 5.65579 6.03384 5.8124 5.52753 5.8124H5.52677ZM9.16962 4.26559C9.16962 2.92958 11.2791 2.94294 11.2791 4.17207V4.45338C11.2791 4.80223 10.7728 5.29729 10.416 5.29729H10.1283C9.59926 5.29729 9.16962 4.78516 9.16962 4.26634V4.26559ZM8.35436 3.51594C8.00291 3.51594 7.64993 3.51297 7.29847 3.51668C6.62896 3.52411 6.6783 3.60946 7.59831 2.6364C7.77973 2.44416 7.95964 2.28607 8.15017 2.09754C8.83486 1.41989 9.91049 0.937436 11.2784 0.937436H15.0176C15.8124 0.937436 15.8913 1.92312 15.0206 1.9246L11.4704 1.92163C10.0388 1.92163 10.0145 1.96171 9.19771 2.55847C9.03678 2.67648 8.99047 2.68316 8.84473 2.8227C8.67773 2.98376 8.41205 3.27398 8.35436 3.5152V3.51594ZM4.27959 21.3272C4.49821 21.3094 4.62953 21.1921 4.82689 21.1127C5.04855 21.0229 5.19277 20.9561 5.38179 20.8589L5.68314 21.6887C5.84407 22.0865 6.26764 23.0113 5.47136 23.0477C5.15178 23.0626 5.05082 22.8436 4.93393 22.6091C4.71379 22.1697 4.50504 21.7451 4.27884 21.328L4.27959 21.3272ZM14.3944 21.8898L15.2575 21.3272C15.4343 21.5855 15.618 21.8609 15.7828 22.1259C15.845 22.2268 15.9885 22.425 16.0029 22.5586C16.0196 22.7174 15.9164 22.8948 15.7858 22.9698C15.3099 23.2429 15.0503 22.6981 14.6897 22.2572C14.5887 22.134 14.4825 22.016 14.3952 21.8891L14.3944 21.8898Z" fill="white"/>
<path fill-rule="evenodd" clip-rule="evenodd" d="M12.7639 16.3305C13.0213 16.3305 13.23 16.5347 13.23 16.7863C13.23 17.0379 13.0213 17.242 12.7639 17.242C12.5066 17.242 12.2979 17.0379 12.2979 16.7863C12.2979 16.5347 12.5066 16.3305 12.7639 16.3305Z" fill="white"/>
</svg>
