<svg width="736" height="189" viewBox="0 0 736 189" fill="none" xmlns="http://www.w3.org/2000/svg">
<path d="M80.1993 188.12C68.2393 188.12 57.3193 186.127 47.4393 182.14C37.5593 178.153 29.1526 172.26 22.2193 164.46C15.286 156.487 9.91264 146.693 6.0993 135.08C2.28597 123.293 0.379303 109.687 0.379303 94.26C0.379303 78.8333 2.28597 65.3133 6.0993 53.7C9.91264 41.9133 15.286 32.12 22.2193 24.32C29.1526 16.3467 37.5593 10.3667 47.4393 6.37999C57.3193 2.39332 68.2393 0.39999 80.1993 0.39999C92.1593 0.39999 103.079 2.39332 112.959 6.37999C122.839 10.3667 131.246 16.3467 138.179 24.32C145.113 32.12 150.486 41.9133 154.299 53.7C158.113 65.3133 160.019 78.8333 160.019 94.26C160.019 109.687 158.113 123.293 154.299 135.08C150.486 146.693 145.113 156.487 138.179 164.46C131.246 172.26 122.839 178.153 112.959 182.14C103.079 186.127 92.1593 188.12 80.1993 188.12ZM80.1993 153.02C92.1593 153.02 101.433 149.12 108.019 141.32C114.779 133.52 118.159 122.34 118.159 107.78V80.74C118.159 66.18 114.779 55 108.019 47.2C101.433 39.4 92.1593 35.5 80.1993 35.5C68.2393 35.5 58.8793 39.4 52.1193 47.2C45.5326 55 42.2393 66.18 42.2393 80.74V107.78C42.2393 122.34 45.5326 133.52 52.1193 141.32C58.8793 149.12 68.2393 153.02 80.1993 153.02ZM289.134 185L276.134 141.84L215.554 141.84L202.554 185L162.514 185L222.314 3.52H271.194L330.214 185H289.134ZM246.234 39.4H244.934L224.914 108.3L266.514 108.3L246.234 39.4ZM406.282 188.12C390.335 188.12 376.815 185.433 365.722 180.06C354.629 174.513 345.182 167.407 337.382 158.74L363.382 132.48C375.689 146.347 390.855 153.28 408.882 153.28C418.589 153.28 425.782 151.287 430.462 147.3C435.142 143.313 437.482 138.027 437.482 131.44C437.482 126.413 436.095 122.253 433.322 118.96C430.549 115.493 424.915 113.153 416.422 111.94L398.482 109.6C379.242 107.173 365.115 101.367 356.102 92.18C347.262 82.9933 342.842 70.7733 342.842 55.52C342.842 47.3733 344.402 39.92 347.522 33.16C350.642 26.4 355.062 20.5933 360.782 15.74C366.675 10.8867 373.782 7.16 382.102 4.56C390.595 1.78666 400.215 0.39999 410.962 0.39999C424.655 0.39999 436.702 2.56665 447.102 6.89998C457.502 11.2333 466.429 17.56 473.882 25.88L447.622 52.4C443.289 47.3733 438.002 43.3 431.762 40.18C425.695 36.8867 417.982 35.24 408.622 35.24C399.782 35.24 393.195 36.8 388.862 39.92C384.529 43.04 382.362 47.3733 382.362 52.92C382.362 59.16 384.009 63.6667 387.302 66.44C390.769 69.2133 396.315 71.2067 403.942 72.42L421.882 75.28C440.602 78.2267 454.469 84.0333 463.482 92.7C472.495 101.193 477.002 113.327 477.002 129.1C477.002 137.767 475.442 145.74 472.322 153.02C469.202 160.3 464.609 166.54 458.542 171.74C452.649 176.94 445.282 181.013 436.442 183.96C427.602 186.733 417.549 188.12 406.282 188.12ZM494.948 185V153.54H518.348V34.98H494.948V3.52L581.268 3.52V34.98L557.868 34.98V153.54H581.268V185L494.948 185ZM665.155 188.12C649.208 188.12 635.688 185.433 624.595 180.06C613.501 174.513 604.055 167.407 596.255 158.74L622.255 132.48C634.561 146.347 649.728 153.28 667.755 153.28C677.461 153.28 684.655 151.287 689.335 147.3C694.015 143.313 696.355 138.027 696.355 131.44C696.355 126.413 694.968 122.253 692.195 118.96C689.421 115.493 683.788 113.153 675.295 111.94L657.355 109.6C638.115 107.173 623.988 101.367 614.975 92.18C606.135 82.9933 601.715 70.7733 601.715 55.52C601.715 47.3733 603.275 39.92 606.395 33.16C609.515 26.4 613.935 20.5933 619.655 15.74C625.548 10.8867 632.655 7.16 640.975 4.56C649.468 1.78666 659.088 0.39999 669.835 0.39999C683.528 0.39999 695.575 2.56665 705.975 6.89998C716.375 11.2333 725.301 17.56 732.755 25.88L706.495 52.4C702.161 47.3733 696.875 43.3 690.635 40.18C684.568 36.8867 676.855 35.24 667.495 35.24C658.655 35.24 652.068 36.8 647.735 39.92C643.401 43.04 641.235 47.3733 641.235 52.92C641.235 59.16 642.881 63.6667 646.175 66.44C649.641 69.2133 655.188 71.2067 662.815 72.42L680.755 75.28C699.475 78.2267 713.341 84.0333 722.355 92.7C731.368 101.193 735.875 113.327 735.875 129.1C735.875 137.767 734.315 145.74 731.195 153.02C728.075 160.3 723.481 166.54 717.415 171.74C711.521 176.94 704.155 181.013 695.315 183.96C686.475 186.733 676.421 188.12 665.155 188.12Z" fill="#F6F3EE" fill-opacity="0.1"/>
<path d="M47.4393 182.14L46.6909 183.995L47.4393 182.14ZM22.2193 164.46L20.7101 165.772L20.7172 165.781L20.7245 165.789L22.2193 164.46ZM6.0993 135.08L4.1964 135.696L4.19912 135.704L6.0993 135.08ZM6.0993 53.7L7.99951 54.3239L8.00219 54.3156L6.0993 53.7ZM22.2193 24.32L23.7141 25.6487L23.7214 25.6406L23.7285 25.6323L22.2193 24.32ZM47.4393 6.37999L46.6909 4.52529L47.4393 6.37999ZM112.959 6.37999L112.211 8.23469L112.959 6.37999ZM138.179 24.32L136.67 25.6323L136.677 25.6406L136.684 25.6487L138.179 24.32ZM154.299 53.7L152.396 54.3156L152.399 54.3239L154.299 53.7ZM154.299 135.08L156.2 135.704L156.202 135.696L154.299 135.08ZM138.179 164.46L139.674 165.789L139.681 165.781L139.689 165.772L138.179 164.46ZM112.959 182.14L112.211 180.285L112.959 182.14ZM108.019 141.32L106.508 140.01L106.5 140.02L106.491 140.03L108.019 141.32ZM108.019 47.2L106.491 48.4904L106.5 48.5002L106.508 48.5099L108.019 47.2ZM52.1193 47.2L50.6079 45.8901L50.5995 45.8998L50.5912 45.9096L52.1193 47.2ZM52.1193 141.32L50.5912 142.61L50.5995 142.62L50.6079 142.63L52.1193 141.32ZM80.1993 186.12C68.4644 186.12 57.8024 184.165 48.1877 180.285L46.6909 183.995C56.8362 188.088 68.0142 190.12 80.1993 190.12V186.12ZM48.1877 180.285C38.5875 176.412 30.4381 170.696 23.7141 163.131L20.7245 165.789C27.8671 173.824 36.5311 179.895 46.6909 183.995L48.1877 180.285ZM23.7285 163.148C16.9953 155.404 11.7426 145.855 7.99949 134.456L4.19912 135.704C8.08269 147.531 13.5766 157.569 20.7101 165.772L23.7285 163.148ZM8.00219 134.464C4.26674 122.918 2.3793 109.527 2.3793 94.26H-1.6207C-1.6207 109.847 0.305203 123.668 4.19641 135.696L8.00219 134.464ZM2.3793 94.26C2.3793 78.9923 4.26698 65.6911 7.99949 54.3239L4.19912 53.0761C0.304955 64.9356 -1.6207 78.6743 -1.6207 94.26H2.3793ZM8.00219 54.3156C11.746 42.7438 16.9958 33.2068 23.7141 25.6487L20.7245 22.9913C13.5761 31.0331 8.07926 41.0828 4.19641 53.0844L8.00219 54.3156ZM23.7285 25.6323C30.4528 17.8994 38.598 12.1042 48.1877 8.23469L46.6909 4.52529C36.5206 8.62911 27.8524 14.7939 20.7101 23.0076L23.7285 25.6323ZM48.1877 8.23469C57.8024 4.35506 68.4644 2.39999 80.1993 2.39999V-1.60001C68.0142 -1.60001 56.8362 0.431587 46.6909 4.52529L48.1877 8.23469ZM80.1993 2.39999C91.9342 2.39999 102.596 4.35506 112.211 8.23469L113.708 4.52529C103.562 0.431587 92.3844 -1.60001 80.1993 -1.60001V2.39999ZM112.211 8.23469C121.801 12.1042 129.946 17.8994 136.67 25.6323L139.689 23.0076C132.546 14.7939 123.878 8.62911 113.708 4.52529L112.211 8.23469ZM136.684 25.6487C143.403 33.2068 148.653 42.7438 152.396 54.3156L156.202 53.0844C152.319 41.0828 146.822 31.0331 139.674 22.9913L136.684 25.6487ZM152.399 54.3239C156.132 65.6911 158.019 78.9923 158.019 94.26H162.019C162.019 78.6743 160.094 64.9356 156.199 53.0761L152.399 54.3239ZM158.019 94.26C158.019 109.527 156.132 122.918 152.396 134.464L156.202 135.696C160.093 123.668 162.019 109.847 162.019 94.26H158.019ZM152.399 134.456C148.656 145.855 143.403 155.404 136.67 163.148L139.689 165.772C146.822 157.569 152.316 147.531 156.199 135.704L152.399 134.456ZM136.684 163.131C129.96 170.696 121.811 176.412 112.211 180.285L113.708 183.995C123.868 179.895 132.531 173.824 139.674 165.789L136.684 163.131ZM112.211 180.285C102.596 184.165 91.9342 186.12 80.1993 186.12V190.12C92.3844 190.12 103.562 188.088 113.708 183.995L112.211 180.285ZM80.1993 155.02C92.6363 155.02 102.514 150.939 109.547 142.61L106.491 140.03C100.351 147.301 91.6823 151.02 80.1993 151.02V155.02ZM109.531 142.63C116.714 134.341 120.159 122.625 120.159 107.78H116.159C116.159 122.055 112.845 132.699 106.508 140.01L109.531 142.63ZM120.159 107.78V80.74H116.159V107.78H120.159ZM120.159 80.74C120.159 65.8947 116.714 54.1785 109.531 45.8901L106.508 48.5099C112.845 55.8214 116.159 66.4653 116.159 80.74H120.159ZM109.547 45.9096C102.514 37.5805 92.6363 33.5 80.1993 33.5V37.5C91.6823 37.5 100.351 41.2195 106.491 48.4904L109.547 45.9096ZM80.1993 33.5C67.7613 33.5 57.8099 37.5802 50.6079 45.8901L53.6307 48.5099C59.9487 41.2198 68.7174 37.5 80.1993 37.5V33.5ZM50.5912 45.9096C43.5927 54.1974 40.2393 65.9057 40.2393 80.74H44.2393C44.2393 66.4543 47.4726 55.8026 53.6474 48.4904L50.5912 45.9096ZM40.2393 80.74V107.78H44.2393V80.74H40.2393ZM40.2393 107.78C40.2393 122.614 43.5927 134.323 50.5912 142.61L53.6474 140.03C47.4726 132.717 44.2393 122.066 44.2393 107.78H40.2393ZM50.6079 142.63C57.8099 150.94 67.7613 155.02 80.1993 155.02V151.02C68.7174 151.02 59.9487 147.3 53.6307 140.01L50.6079 142.63ZM289.134 185L287.219 185.577L287.647 187H289.134V185ZM276.134 141.84L278.049 141.263L277.62 139.84H276.134V141.84ZM215.554 141.84V139.84H214.067L213.639 141.263L215.554 141.84ZM202.554 185V187H204.04L204.469 185.577L202.554 185ZM162.514 185L160.614 184.374L159.749 187H162.514V185ZM222.314 3.52V1.52H220.867L220.414 2.89407L222.314 3.52ZM271.194 3.52L273.096 2.90145L272.646 1.52H271.194V3.52ZM330.214 185V187H332.967L332.116 184.381L330.214 185ZM246.234 39.4L248.152 38.8353L247.73 37.4H246.234V39.4ZM244.934 39.4V37.4H243.432L243.013 38.8419L244.934 39.4ZM224.914 108.3L222.993 107.742L222.25 110.3H224.914V108.3ZM266.514 108.3V110.3H269.187L268.432 107.735L266.514 108.3ZM291.049 184.423L278.049 141.263L274.219 142.417L287.219 185.577L291.049 184.423ZM276.134 139.84L215.554 139.84V143.84L276.134 143.84V139.84ZM213.639 141.263L200.639 184.423L204.469 185.577L217.469 142.417L213.639 141.263ZM202.554 183L162.514 183L162.514 187L202.554 187L202.554 183ZM164.413 185.626L224.213 4.14592L220.414 2.89407L160.614 184.374L164.413 185.626ZM222.314 5.52H271.194V1.52H222.314V5.52ZM269.292 4.13853L328.312 185.619L332.116 184.381L273.096 2.90145L269.292 4.13853ZM330.214 183H289.134V187H330.214V183ZM246.234 37.4H244.934V41.4H246.234V37.4ZM243.013 38.8419L222.993 107.742L226.834 108.858L246.854 39.9581L243.013 38.8419ZM224.914 110.3L266.514 110.3V106.3L224.914 106.3V110.3ZM268.432 107.735L248.152 38.8353L244.315 39.9647L264.595 108.865L268.432 107.735ZM365.722 180.06L364.828 181.849L364.839 181.854L364.85 181.86L365.722 180.06ZM337.382 158.74L335.961 157.333L334.632 158.675L335.895 160.078L337.382 158.74ZM363.382 132.48L364.878 131.152L363.462 129.557L361.961 131.073L363.382 132.48ZM430.462 147.3L431.759 148.822L430.462 147.3ZM433.322 118.96L431.76 120.209L431.776 120.229L431.792 120.248L433.322 118.96ZM416.422 111.94L416.705 109.96L416.693 109.958L416.681 109.957L416.422 111.94ZM398.482 109.6L398.741 107.617L398.732 107.616L398.482 109.6ZM356.102 92.18L354.661 93.5668L354.668 93.5737L354.674 93.5807L356.102 92.18ZM347.522 33.16L345.706 32.3219L347.522 33.16ZM360.782 15.74L359.511 14.1961L359.499 14.2055L359.488 14.215L360.782 15.74ZM382.102 4.56L382.699 6.46896L382.711 6.46516L382.723 6.46121L382.102 4.56ZM447.102 6.89999L447.871 5.05383L447.102 6.89999ZM473.882 25.88L475.303 27.2872L476.629 25.9486L475.372 24.5455L473.882 25.88ZM447.622 52.4L446.107 53.7059L447.52 55.3451L449.043 53.8072L447.622 52.4ZM431.762 40.18L430.808 41.9377L430.837 41.9538L430.868 41.9688L431.762 40.18ZM388.862 39.92L390.031 41.5431L388.862 39.92ZM387.302 66.44L386.014 67.9698L386.033 67.986L386.053 68.0017L387.302 66.44ZM403.942 72.42L404.257 70.4449L404.256 70.4448L403.942 72.42ZM421.882 75.28L421.567 77.2551L421.571 77.2557L421.882 75.28ZM463.482 92.7L462.096 94.1417L462.103 94.1487L462.11 94.1556L463.482 92.7ZM458.542 171.74L457.24 170.221L457.229 170.231L457.219 170.24L458.542 171.74ZM436.442 183.96L437.041 185.868L437.058 185.863L437.074 185.857L436.442 183.96ZM406.282 186.12C390.552 186.12 377.348 183.469 366.594 178.26L364.85 181.86C376.283 187.398 390.119 190.12 406.282 190.12V186.12ZM366.616 178.271C355.733 172.829 346.491 165.871 338.869 157.402L335.895 160.078C343.873 168.942 353.525 176.197 364.828 181.849L366.616 178.271ZM338.803 160.147L364.803 133.887L361.961 131.073L335.961 157.333L338.803 160.147ZM361.886 133.808C374.56 148.088 390.265 155.28 408.882 155.28V151.28C391.445 151.28 376.817 144.605 364.878 131.152L361.886 133.808ZM408.882 155.28C418.804 155.28 426.559 153.252 431.759 148.822L429.165 145.778C425.005 149.321 418.374 151.28 408.882 151.28V155.28ZM431.759 148.822C436.92 144.426 439.482 138.565 439.482 131.44H435.482C435.482 137.488 433.364 142.201 429.165 145.778L431.759 148.822ZM439.482 131.44C439.482 126.025 437.978 121.385 434.852 117.672L431.792 120.248C434.212 123.122 435.482 126.802 435.482 131.44H439.482ZM434.884 117.711C431.604 113.611 425.291 111.187 416.705 109.96L416.139 113.92C424.54 115.12 429.493 117.376 431.76 120.209L434.884 117.711ZM416.681 109.957L398.741 107.617L398.223 111.583L416.163 113.923L416.681 109.957ZM398.732 107.616C379.723 105.218 366.103 99.5173 357.53 90.7793L354.674 93.5807C364.128 103.216 378.761 109.129 398.232 111.584L398.732 107.616ZM357.543 90.7932C349.13 82.0505 344.842 70.3644 344.842 55.52H340.842C340.842 71.1823 345.394 83.9362 354.661 93.5668L357.543 90.7932ZM344.842 55.52C344.842 47.6351 346.35 40.4714 349.338 33.9981L345.706 32.3219C342.454 39.3686 340.842 47.1115 340.842 55.52H344.842ZM349.338 33.9981C352.335 27.5044 356.576 21.9315 362.076 17.265L359.488 14.215C353.548 19.2551 348.949 25.2956 345.706 32.3219L349.338 33.9981ZM362.053 17.2839C367.721 12.6162 374.59 9.00278 382.699 6.46896L381.505 2.65104C372.974 5.31721 365.629 9.15708 359.511 14.1961L362.053 17.2839ZM382.723 6.46121C390.98 3.76503 400.385 2.39999 410.962 2.39999V-1.60001C400.046 -1.60001 390.211 -0.191711 381.481 2.65879L382.723 6.46121ZM410.962 2.39999C424.447 2.39999 436.223 4.53371 446.333 8.74614L447.871 5.05383C437.181 0.599594 424.864 -1.60001 410.962 -1.60001V2.39999ZM446.333 8.74614C456.46 12.9658 465.14 19.1186 472.392 27.2145L475.372 24.5455C467.718 16.0014 458.544 9.50085 447.871 5.05383L446.333 8.74614ZM472.461 24.4728L446.201 50.9928L449.043 53.8072L475.303 27.2872L472.461 24.4728ZM449.137 51.0941C444.622 45.8568 439.121 41.6233 432.656 38.3911L430.868 41.9688C436.883 44.9766 441.955 48.8898 446.107 53.7059L449.137 51.0941ZM432.716 38.4223C426.271 34.9234 418.202 33.24 408.622 33.24V37.24C417.762 37.24 425.12 38.8499 430.808 41.9377L432.716 38.4223ZM408.622 33.24C399.612 33.24 392.525 34.8179 387.693 38.2969L390.031 41.5431C393.865 38.7821 399.952 37.24 408.622 37.24V33.24ZM387.693 38.2969C382.815 41.8097 380.362 46.7596 380.362 52.92H384.362C384.362 47.9871 386.243 44.2703 390.031 41.5431L387.693 38.2969ZM380.362 52.92C380.362 59.4769 382.095 64.6701 386.014 67.9698L388.59 64.9102C385.922 62.6632 384.362 58.843 384.362 52.92H380.362ZM386.053 68.0017C389.923 71.0977 395.879 73.1624 403.628 74.3952L404.256 70.4448C396.752 69.2509 391.615 67.3289 388.551 64.8783L386.053 68.0017ZM403.627 74.3951L421.567 77.2551L422.197 73.3049L404.257 70.4449L403.627 74.3951ZM421.571 77.2557C440.082 80.1695 453.494 85.8708 462.096 94.1417L464.868 91.2583C455.443 82.1958 441.122 76.2838 422.193 73.3043L421.571 77.2557ZM462.11 94.1556C470.62 102.174 475.002 113.718 475.002 129.1H479.002C479.002 112.935 474.371 100.213 464.854 91.2444L462.11 94.1556ZM475.002 129.1C475.002 137.522 473.487 145.224 470.484 152.232L474.16 153.808C477.397 146.256 479.002 138.012 479.002 129.1H475.002ZM470.484 152.232C467.485 159.228 463.077 165.219 457.24 170.221L459.844 173.259C466.141 167.861 470.919 161.372 474.16 153.808L470.484 152.232ZM457.219 170.24C451.56 175.233 444.441 179.185 435.81 182.063L437.074 185.857C446.123 182.841 453.737 178.647 459.865 173.24L457.219 170.24ZM435.843 182.052C427.234 184.753 417.388 186.12 406.282 186.12V190.12C417.709 190.12 427.97 188.714 437.041 185.868L435.843 182.052ZM494.948 185H492.948V187H494.948V185ZM494.948 153.54V151.54H492.948V153.54H494.948ZM518.348 153.54V155.54H520.348V153.54H518.348ZM518.348 34.98H520.348V32.98H518.348V34.98ZM494.948 34.98H492.948V36.98H494.948V34.98ZM494.948 3.52V1.52H492.948V3.52H494.948ZM581.268 3.52H583.268V1.52H581.268V3.52ZM581.268 34.98V36.98H583.268V34.98H581.268ZM557.868 34.98V32.98H555.868V34.98H557.868ZM557.868 153.54H555.868V155.54H557.868V153.54ZM581.268 153.54H583.268V151.54H581.268V153.54ZM581.268 185V187H583.268V185H581.268ZM496.948 185V153.54H492.948V185H496.948ZM494.948 155.54H518.348V151.54H494.948V155.54ZM520.348 153.54V34.98H516.348V153.54H520.348ZM518.348 32.98H494.948V36.98H518.348V32.98ZM496.948 34.98V3.52H492.948V34.98H496.948ZM494.948 5.52L581.268 5.52V1.52L494.948 1.52V5.52ZM579.268 3.52V34.98H583.268V3.52H579.268ZM581.268 32.98L557.868 32.98V36.98L581.268 36.98V32.98ZM555.868 34.98V153.54H559.868V34.98H555.868ZM557.868 155.54H581.268V151.54H557.868V155.54ZM579.268 153.54V185H583.268V153.54H579.268ZM581.268 183L494.948 183V187L581.268 187V183ZM624.595 180.06L623.7 181.849L623.711 181.854L623.723 181.86L624.595 180.06ZM596.255 158.74L594.833 157.333L593.505 158.675L594.768 160.078L596.255 158.74ZM622.255 132.48L623.75 131.152L622.334 129.557L620.833 131.073L622.255 132.48ZM689.335 147.3L690.632 148.822L689.335 147.3ZM692.195 118.96L690.633 120.209L690.649 120.229L690.665 120.248L692.195 118.96ZM675.295 111.94L675.577 109.96L675.565 109.958L675.553 109.957L675.295 111.94ZM657.355 109.6L657.613 107.617L657.605 107.616L657.355 109.6ZM614.975 92.18L613.534 93.5668L613.54 93.5737L613.547 93.5807L614.975 92.18ZM606.395 33.16L604.579 32.3219L606.395 33.16ZM619.655 15.74L618.383 14.1961L618.372 14.2055L618.361 14.215L619.655 15.74ZM640.975 4.56L641.571 6.46896L641.583 6.46516L641.595 6.46121L640.975 4.56ZM705.975 6.89999L706.744 5.05383L705.975 6.89999ZM732.755 25.88L734.176 27.2872L735.501 25.9486L734.244 24.5455L732.755 25.88ZM706.495 52.4L704.98 53.7059L706.393 55.3451L707.916 53.8072L706.495 52.4ZM690.635 40.18L689.68 41.9377L689.71 41.9538L689.74 41.9688L690.635 40.18ZM647.735 39.92L648.903 41.5431L647.735 39.92ZM646.175 66.44L644.886 67.9698L644.906 67.986L644.925 68.0017L646.175 66.44ZM662.815 72.42L663.13 70.4449L663.129 70.4448L662.815 72.42ZM680.755 75.28L680.44 77.2551L680.444 77.2557L680.755 75.28ZM722.355 92.7L720.968 94.1417L720.976 94.1487L720.983 94.1556L722.355 92.7ZM717.415 171.74L716.113 170.221L716.102 170.231L716.091 170.24L717.415 171.74ZM695.315 183.96L695.913 185.868L695.93 185.863L695.947 185.857L695.315 183.96ZM665.155 186.12C649.424 186.12 636.22 183.469 625.466 178.26L623.723 181.86C635.156 187.398 648.991 190.12 665.155 190.12V186.12ZM625.489 178.271C614.605 172.829 605.363 165.871 597.741 157.402L594.768 160.078C602.746 168.942 612.397 176.197 623.7 181.849L625.489 178.271ZM597.676 160.147L623.676 133.887L620.833 131.073L594.833 157.333L597.676 160.147ZM620.759 133.808C633.433 148.088 649.138 155.28 667.755 155.28V151.28C650.318 151.28 635.69 144.605 623.75 131.152L620.759 133.808ZM667.755 155.28C677.676 155.28 685.432 153.252 690.632 148.822L688.038 145.778C683.878 149.321 677.246 151.28 667.755 151.28V155.28ZM690.632 148.822C695.793 144.426 698.355 138.565 698.355 131.44H694.355C694.355 137.488 692.237 142.201 688.038 145.778L690.632 148.822ZM698.355 131.44C698.355 126.025 696.851 121.385 693.724 117.672L690.665 120.248C693.085 123.122 694.355 126.802 694.355 131.44H698.355ZM693.756 117.711C690.477 113.611 684.164 111.187 675.577 109.96L675.012 113.92C683.412 115.12 688.366 117.376 690.633 120.209L693.756 117.711ZM675.553 109.957L657.613 107.617L657.096 111.583L675.036 113.923L675.553 109.957ZM657.605 107.616C638.596 105.218 624.975 99.5173 616.402 90.7793L613.547 93.5807C623.001 103.216 637.634 109.129 657.104 111.584L657.605 107.616ZM616.416 90.7932C608.003 82.0505 603.715 70.3644 603.715 55.52H599.715C599.715 71.1823 604.266 83.9362 613.534 93.5668L616.416 90.7932ZM603.715 55.52C603.715 47.6351 605.223 40.4714 608.211 33.9981L604.579 32.3219C601.326 39.3686 599.715 47.1115 599.715 55.52H603.715ZM608.211 33.9981C611.208 27.5044 615.449 21.9315 620.949 17.265L618.361 14.215C612.421 19.2551 607.822 25.2956 604.579 32.3219L608.211 33.9981ZM620.926 17.2839C626.594 12.6162 633.463 9.00278 641.571 6.46896L640.378 2.65104C631.846 5.31721 624.502 9.15708 618.383 14.1961L620.926 17.2839ZM641.595 6.46121C649.852 3.76503 659.257 2.39999 669.835 2.39999V-1.60001C658.919 -1.60001 649.083 -0.191711 640.354 2.65879L641.595 6.46121ZM669.835 2.39999C683.319 2.39999 695.096 4.53371 705.205 8.74614L706.744 5.05383C696.054 0.599594 683.737 -1.60001 669.835 -1.60001V2.39999ZM705.205 8.74614C715.333 12.9658 724.012 19.1186 731.265 27.2145L734.244 24.5455C726.59 16.0014 717.417 9.50085 706.744 5.05383L705.205 8.74614ZM731.333 24.4728L705.073 50.9928L707.916 53.8072L734.176 27.2872L731.333 24.4728ZM708.009 51.0941C703.495 45.8568 697.993 41.6233 691.529 38.3911L689.74 41.9688C695.756 44.9766 700.828 48.8898 704.98 53.7059L708.009 51.0941ZM691.589 38.4223C685.144 34.9234 677.074 33.24 667.495 33.24V37.24C676.635 37.24 683.992 38.8499 689.68 41.9377L691.589 38.4223ZM667.495 33.24C658.485 33.24 651.398 34.8179 646.566 38.2969L648.903 41.5431C652.738 38.7821 658.824 37.24 667.495 37.24V33.24ZM646.566 38.2969C641.687 41.8097 639.235 46.7596 639.235 52.92H643.235C643.235 47.9871 645.115 44.2703 648.903 41.5431L646.566 38.2969ZM639.235 52.92C639.235 59.4769 640.968 64.6701 644.886 67.9698L647.463 64.9102C644.795 62.6632 643.235 58.843 643.235 52.92H639.235ZM644.925 68.0017C648.795 71.0977 654.752 73.1624 662.5 74.3952L663.129 70.4448C655.624 69.2509 650.487 67.3289 647.424 64.8783L644.925 68.0017ZM662.5 74.3951L680.44 77.2551L681.07 73.3049L663.13 70.4449L662.5 74.3951ZM680.444 77.2557C698.955 80.1695 712.367 85.8708 720.968 94.1417L723.741 91.2583C714.316 82.1958 699.994 76.2838 681.066 73.3043L680.444 77.2557ZM720.983 94.1556C729.492 102.174 733.875 113.718 733.875 129.1H737.875C737.875 112.935 733.244 100.213 723.726 91.2444L720.983 94.1556ZM733.875 129.1C733.875 137.522 732.36 145.224 729.356 152.232L733.033 153.808C736.269 146.256 737.875 138.012 737.875 129.1H733.875ZM729.356 152.232C726.358 159.228 721.949 165.219 716.113 170.221L718.716 173.259C725.013 167.861 729.791 161.372 733.033 153.808L729.356 152.232ZM716.091 170.24C710.433 175.233 703.314 179.185 694.682 182.063L695.947 185.857C704.995 182.841 712.61 178.647 718.738 173.24L716.091 170.24ZM694.716 182.052C686.106 184.753 676.26 186.12 665.155 186.12V190.12C676.582 190.12 686.843 188.714 695.913 185.868L694.716 182.052Z" fill="#F6F3EE"/>
</svg>
