<svg width="50" height="50" viewBox="0 0 50 50" fill="none" xmlns="http://www.w3.org/2000/svg">
<circle cx="25" cy="25" r="25" fill="#7D6858"/>
<path d="M23.6057 3.31421C24.2354 2.25832 25.7646 2.25832 26.3943 3.31421C27.2334 4.72117 29.1424 5.02353 30.3752 3.94472C31.3004 3.13509 32.7548 3.60766 33.0274 4.80646C33.3906 6.40384 35.1127 7.28132 36.6186 6.63626C37.7486 6.15215 38.9858 7.05103 38.8746 8.27539C38.7265 9.90683 40.0932 11.2735 41.7246 11.1254C42.949 11.0142 43.8478 12.2514 43.3637 13.3814C42.7187 14.8873 43.5962 16.6094 45.1935 16.9726C46.3923 17.2452 46.8649 18.6996 46.0553 19.6248C44.9765 20.8576 45.2788 22.7666 46.6858 23.6057C47.7417 24.2354 47.7417 25.7646 46.6858 26.3943C45.2788 27.2334 44.9765 29.1424 46.0553 30.3752C46.8649 31.3004 46.3923 32.7548 45.1935 33.0274C43.5962 33.3906 42.7187 35.1127 43.3637 36.6186C43.8478 37.7486 42.949 38.9858 41.7246 38.8746C40.0932 38.7265 38.7265 40.0932 38.8746 41.7246C38.9858 42.949 37.7486 43.8478 36.6186 43.3637C35.1127 42.7187 33.3906 43.5962 33.0274 45.1935C32.7548 46.3923 31.3004 46.8649 30.3752 46.0553C29.1424 44.9765 27.2334 45.2788 26.3943 46.6858C25.7646 47.7417 24.2354 47.7417 23.6057 46.6858C22.7666 45.2788 20.8576 44.9765 19.6248 46.0553C18.6996 46.8649 17.2452 46.3923 16.9726 45.1935C16.6094 43.5962 14.8873 42.7187 13.3814 43.3637C12.2514 43.8478 11.0142 42.949 11.1254 41.7246C11.2735 40.0932 9.90683 38.7265 8.27539 38.8746C7.05103 38.9858 6.15215 37.7486 6.63626 36.6186C7.28132 35.1127 6.40384 33.3906 4.80646 33.0274C3.60766 32.7548 3.13509 31.3004 3.94472 30.3752C5.02353 29.1424 4.72117 27.2334 3.31421 26.3943C2.25832 25.7646 2.25832 24.2354 3.31421 23.6057C4.72117 22.7666 5.02353 20.8576 3.94472 19.6248C3.13509 18.6996 3.60766 17.2452 4.80646 16.9726C6.40384 16.6094 7.28132 14.8873 6.63626 13.3814C6.15215 12.2514 7.05103 11.0142 8.27539 11.1254C9.90684 11.2735 11.2735 9.90683 11.1254 8.27539C11.0142 7.05103 12.2514 6.15215 13.3814 6.63626C14.8873 7.28132 16.6094 6.40384 16.9726 4.80646C17.2452 3.60766 18.6996 3.13509 19.6248 3.94472C20.8576 5.02353 22.7666 4.72117 23.6057 3.31421Z" stroke="white"/>
<path d="M23.864 27.672V25.048C24.7387 25.0053 25.4213 24.792 25.912 24.408C26.4133 24.024 26.664 23.496 26.664 22.824V22.6C26.664 22.056 26.4933 21.624 26.152 21.304C25.8107 20.9733 25.352 20.808 24.776 20.808C24.1573 20.808 23.6613 20.984 23.288 21.336C22.9253 21.688 22.68 22.136 22.552 22.68L21.368 22.232C21.464 21.8907 21.6027 21.5653 21.784 21.256C21.976 20.936 22.2107 20.6587 22.488 20.424C22.776 20.1787 23.112 19.9867 23.496 19.848C23.88 19.7093 24.3227 19.64 24.824 19.64C25.816 19.64 26.6 19.912 27.176 20.456C27.752 21 28.04 21.736 28.04 22.664C28.04 23.176 27.9493 23.624 27.768 24.008C27.5973 24.3813 27.3733 24.7013 27.096 24.968C26.8187 25.2347 26.504 25.448 26.152 25.608C25.8 25.768 25.448 25.88 25.096 25.944V27.672H23.864ZM24.488 31.192C24.1467 31.192 23.896 31.1067 23.736 30.936C23.5867 30.7653 23.512 30.5413 23.512 30.264V30.056C23.512 29.7787 23.5867 29.5547 23.736 29.384C23.896 29.2133 24.1467 29.128 24.488 29.128C24.8293 29.128 25.0747 29.2133 25.224 29.384C25.384 29.5547 25.464 29.7787 25.464 30.056V30.264C25.464 30.5413 25.384 30.7653 25.224 30.936C25.0747 31.1067 24.8293 31.192 24.488 31.192Z" fill="white"/>
</svg>
