<?xml version="1.0" encoding="UTF-8"?>
<svg xmlns="http://www.w3.org/2000/svg" xmlns:xlink="http://www.w3.org/1999/xlink" width="100px" height="100px" viewBox="0 0 100 100" version="1.1">
<g id="surface1">
<path style=" stroke:none;fill-rule:nonzero;fill:rgb(0%,0%,0%);fill-opacity:1;" d="M 24.804688 0.132812 C 21.132812 0.757812 18.125 3.320312 16.742188 6.992188 C 16.328125 8.085938 16.304688 8.320312 16.25 21.382812 C 16.195312 34.609375 16.195312 34.6875 16.601562 35.117188 C 17.148438 35.679688 18.203125 35.703125 18.726562 35.117188 C 19.117188 34.710938 19.117188 34.414062 19.179688 21.601562 L 19.242188 8.492188 L 19.789062 7.304688 C 20.492188 5.804688 21.992188 4.296875 23.539062 3.570312 L 24.710938 3.023438 L 66.507812 3.023438 L 67.679688 3.570312 C 69.21875 4.296875 70.726562 5.804688 71.429688 7.304688 L 71.976562 8.492188 L 72.03125 15.492188 C 72.085938 22.070312 72.070312 22.460938 71.742188 22.578125 C 71.539062 22.632812 71.132812 22.789062 70.804688 22.929688 C 70.335938 23.148438 70.117188 23.125 69.492188 22.867188 L 68.75 22.554688 L 68.75 16.328125 C 68.75 11.992188 68.671875 9.867188 68.515625 9.296875 C 68.203125 8.242188 66.695312 6.742188 65.703125 6.460938 C 65.273438 6.351562 63.539062 6.25 61.796875 6.25 C 58.929688 6.25 58.632812 6.289062 58.242188 6.640625 C 57.65625 7.1875 57.65625 8.242188 58.242188 8.789062 C 58.632812 9.140625 58.929688 9.179688 61.757812 9.179688 C 64.789062 9.179688 64.867188 9.195312 65.335938 9.664062 L 65.820312 10.132812 L 65.820312 22.835938 L 65.257812 23.125 C 64.476562 23.539062 63.570312 24.632812 63.179688 25.664062 C 62.476562 27.5 63.085938 29.453125 64.921875 31.25 L 65.820312 32.109375 L 65.820312 35.960938 C 65.820312 39.609375 65.804688 39.820312 65.429688 39.945312 C 64.820312 40.132812 63.382812 41.875 63.125 42.734375 C 62.554688 44.585938 63.023438 46.132812 64.664062 47.914062 L 65.820312 49.179688 L 65.820312 51.25 C 65.820312 52.382812 65.757812 53.320312 65.703125 53.320312 C 65.648438 53.320312 63.882812 52.695312 61.796875 51.914062 L 58.023438 50.523438 L 57.890625 49.632812 C 57.710938 48.398438 57.085938 46.773438 56.351562 45.601562 L 55.726562 44.632812 L 56.195312 43.648438 C 56.445312 43.101562 56.695312 42.34375 56.757812 41.929688 C 56.851562 41.351562 56.992188 41.195312 57.398438 41.09375 C 58.671875 40.820312 59.726562 40.289062 60.570312 39.507812 C 62.835938 37.382812 63.007812 34.007812 60.960938 31.445312 C 60.414062 30.757812 60.390625 30.703125 60.3125 27.539062 C 60.234375 24.945312 60.132812 24.0625 59.789062 22.945312 C 58.257812 18.203125 54.570312 14.53125 49.804688 13.046875 C 48.570312 12.679688 47.914062 12.601562 45.601562 12.601562 C 43.304688 12.601562 42.632812 12.679688 41.40625 13.046875 C 36.367188 14.609375 32.539062 18.632812 31.25 23.710938 C 30.960938 24.882812 30.859375 25.898438 30.859375 27.96875 C 30.859375 30.679688 30.859375 30.679688 30.273438 31.40625 C 28.203125 34.007812 28.359375 37.382812 30.648438 39.507812 C 31.484375 40.289062 32.539062 40.820312 33.804688 41.09375 C 34.21875 41.195312 34.351562 41.351562 34.453125 41.929688 C 34.507812 42.34375 34.765625 43.101562 35.023438 43.648438 L 35.492188 44.632812 L 34.804688 45.664062 C 34.085938 46.820312 33.492188 48.359375 33.304688 49.664062 L 33.164062 50.546875 L 29.398438 51.929688 C 27.320312 52.695312 25.585938 53.320312 25.507812 53.320312 C 25.445312 53.320312 25.390625 43.617188 25.390625 31.742188 L 25.390625 10.132812 L 25.882812 9.664062 L 26.351562 9.179688 L 39.609375 9.179688 C 52.679688 9.179688 52.867188 9.179688 53.28125 8.789062 C 53.867188 8.242188 53.867188 7.1875 53.28125 6.640625 C 52.867188 6.25 52.679688 6.25 39.570312 6.25 C 30.445312 6.25 26.015625 6.328125 25.492188 6.460938 C 24.453125 6.757812 22.96875 8.242188 22.679688 9.273438 C 22.382812 10.367188 22.367188 89.609375 22.679688 90.703125 C 22.945312 91.695312 24.453125 93.203125 25.507812 93.515625 C 26.679688 93.851562 64.53125 93.851562 65.703125 93.515625 C 66.757812 93.203125 68.203125 91.757812 68.515625 90.703125 C 68.671875 90.179688 68.75 88.492188 68.75 85.960938 L 68.75 82.03125 L 72.109375 82.03125 L 72.03125 86.757812 C 71.976562 91.484375 71.976562 91.507812 71.429688 92.679688 C 70.703125 94.21875 69.195312 95.726562 67.695312 96.429688 L 66.507812 96.976562 L 24.710938 96.976562 L 23.515625 96.429688 C 22.007812 95.726562 20.507812 94.21875 19.789062 92.679688 L 19.242188 91.507812 L 19.179688 65.992188 C 19.140625 40.726562 19.117188 40.492188 18.726562 40.078125 C 18.203125 39.492188 17.148438 39.507812 16.601562 40.078125 L 16.210938 40.507812 L 16.25 66.210938 L 16.304688 91.898438 L 16.742188 93.007812 C 17.96875 96.226562 20.257812 98.460938 23.4375 99.53125 C 24.453125 99.882812 25.507812 99.898438 45.601562 99.898438 C 65.703125 99.898438 66.757812 99.882812 67.773438 99.53125 C 70.914062 98.476562 73.304688 96.148438 74.453125 93.070312 C 74.84375 91.992188 74.882812 91.460938 74.960938 86.585938 L 75.039062 81.273438 L 76.148438 80.703125 C 78.804688 79.375 80.898438 77.242188 82.226562 74.507812 C 85.390625 67.96875 82.734375 60.15625 76.195312 56.835938 L 75 56.226562 L 75 48.789062 L 75.976562 47.710938 C 78.046875 45.367188 78.085938 42.914062 76.039062 40.859375 L 75 39.820312 L 75 31.71875 L 75.703125 31.039062 C 78.046875 28.789062 78.125 25.648438 75.859375 23.648438 L 75.023438 22.929688 L 74.960938 15.507812 C 74.882812 8.515625 74.867188 8.046875 74.476562 6.992188 C 73.28125 3.851562 71.195312 1.742188 68.046875 0.546875 L 66.898438 0.101562 L 46.09375 0.078125 C 34.648438 0.0546875 25.078125 0.078125 24.804688 0.132812 Z M 48.085938 15.648438 C 48.648438 15.757812 49.867188 16.210938 50.78125 16.640625 C 52.085938 17.265625 52.757812 17.757812 53.929688 18.929688 C 55.101562 20.101562 55.585938 20.757812 56.210938 22.070312 C 57.164062 24.101562 57.421875 25.257812 57.421875 27.632812 C 57.421875 29.375 57.398438 29.492188 57.03125 29.492188 C 56.796875 29.492188 56.5625 29.296875 56.445312 29.023438 C 56.132812 28.203125 55.023438 27.109375 54.007812 26.640625 C 53.148438 26.226562 52.734375 26.171875 50.445312 26.171875 L 47.890625 26.171875 L 44.820312 27.8125 L 40.820312 27.929688 C 36.585938 28.023438 36.132812 28.125 35.273438 29.085938 C 35.054688 29.320312 34.664062 29.492188 34.335938 29.492188 L 33.789062 29.492188 L 33.789062 27.632812 C 33.789062 25.289062 34.039062 24.117188 34.976562 22.085938 C 36.367188 19.101562 39.570312 16.507812 42.8125 15.703125 C 44.117188 15.390625 46.742188 15.367188 48.085938 15.648438 Z M 68.539062 25.664062 C 68.828125 25.820312 69.179688 26.09375 69.320312 26.25 C 69.476562 26.429688 69.867188 26.5625 70.210938 26.5625 C 70.570312 26.5625 70.960938 26.429688 71.117188 26.25 C 71.484375 25.804688 72.367188 25.390625 72.945312 25.390625 C 73.632812 25.390625 74.609375 26.367188 74.609375 27.054688 C 74.609375 27.320312 74.507812 27.757812 74.398438 27.992188 C 74.101562 28.554688 70.492188 32.226562 70.210938 32.226562 C 69.945312 32.226562 66.328125 28.554688 66.039062 27.992188 C 65.664062 27.265625 65.78125 26.5625 66.382812 25.960938 C 67.03125 25.335938 67.695312 25.234375 68.539062 25.664062 Z M 52.929688 29.351562 C 53.984375 29.882812 54.101562 30.507812 54.101562 35.742188 C 54.101562 42.210938 53.804688 43.179688 51.523438 44.453125 L 50.492188 45.023438 L 46.25 45.078125 C 43.617188 45.117188 41.617188 45.054688 40.976562 44.921875 C 39.585938 44.632812 38.257812 43.648438 37.679688 42.445312 C 37.226562 41.539062 37.210938 41.304688 37.148438 36.585938 C 37.109375 33.398438 37.148438 31.539062 37.289062 31.289062 C 37.476562 30.914062 37.757812 30.898438 41.351562 30.820312 C 45.46875 30.726562 46.070312 30.601562 47.578125 29.609375 C 48.257812 29.179688 48.539062 29.117188 50.390625 29.117188 C 51.664062 29.101562 52.632812 29.195312 52.929688 29.351562 Z M 34.179688 35.257812 C 34.179688 37.382812 34.117188 38.085938 33.945312 38.085938 C 33.515625 38.085938 32.460938 37.34375 32.109375 36.796875 C 31.617188 36.070312 31.640625 34.53125 32.148438 33.828125 C 32.554688 33.304688 33.710938 32.421875 34.007812 32.421875 C 34.101562 32.421875 34.179688 33.695312 34.179688 35.257812 Z M 57.789062 32.710938 C 58.59375 33.125 59.296875 34.039062 59.453125 34.84375 C 59.632812 35.820312 59.023438 37.164062 58.164062 37.695312 C 57.03125 38.382812 57.03125 38.359375 57.03125 35.257812 C 57.03125 33.695312 57.070312 32.421875 57.132812 32.421875 C 57.210938 32.421875 57.5 32.554688 57.789062 32.710938 Z M 72.070312 37.070312 L 72.070312 39.375 L 71.148438 39.765625 C 70.273438 40.132812 70.15625 40.132812 69.492188 39.84375 L 68.75 39.554688 L 68.75 37.34375 C 68.75 35.234375 68.773438 35.15625 69.117188 35.351562 C 69.742188 35.679688 70.992188 35.585938 71.507812 35.15625 C 71.757812 34.960938 71.992188 34.789062 72.03125 34.765625 C 72.054688 34.765625 72.070312 35.804688 72.070312 37.070312 Z M 69.039062 42.96875 C 69.453125 43.28125 69.976562 43.554688 70.210938 43.554688 C 70.445312 43.554688 70.976562 43.28125 71.382812 42.96875 C 72.382812 42.1875 73.257812 42.1875 74.039062 42.945312 C 74.429688 43.359375 74.609375 43.710938 74.609375 44.164062 C 74.609375 44.710938 74.296875 45.101562 72.398438 47.007812 L 70.210938 49.242188 L 68.007812 47.007812 C 66.132812 45.101562 65.820312 44.6875 65.820312 44.164062 C 65.820312 43.710938 65.992188 43.335938 66.382812 42.945312 C 67.164062 42.1875 68.046875 42.1875 69.039062 42.96875 Z M 39.765625 47.65625 C 39.898438 47.65625 40.023438 48.304688 40.078125 49.320312 C 40.257812 51.953125 41.132812 53.4375 43.242188 54.554688 C 43.867188 54.882812 44.375 54.976562 45.601562 54.976562 C 46.976562 54.976562 47.304688 54.898438 48.203125 54.414062 C 50.101562 53.359375 50.960938 51.835938 51.132812 49.257812 C 51.195312 48.28125 51.304688 47.65625 51.445312 47.65625 C 51.5625 47.65625 52.109375 47.445312 52.679688 47.1875 L 53.695312 46.695312 L 54.335938 48.007812 C 54.898438 49.164062 54.976562 49.492188 54.976562 50.882812 C 54.960938 52.148438 54.882812 52.65625 54.453125 53.570312 C 53.671875 55.210938 52.109375 56.695312 50.117188 57.632812 C 49.21875 58.046875 48.414062 58.539062 48.359375 58.710938 C 47.914062 59.882812 48.75 61.070312 49.882812 60.859375 C 51.039062 60.625 53.335938 59.320312 54.570312 58.164062 C 55.835938 57.007812 57.070312 55.257812 57.320312 54.242188 C 57.398438 53.945312 57.523438 53.671875 57.601562 53.632812 C 57.789062 53.515625 64.765625 56.117188 64.820312 56.328125 C 64.84375 56.40625 64.429688 56.695312 63.929688 56.976562 C 59.765625 59.164062 56.835938 63.960938 56.835938 68.648438 L 56.835938 69.726562 L 47.367188 69.726562 C 38.148438 69.726562 37.867188 69.742188 37.5 70.117188 C 36.914062 70.703125 36.976562 71.742188 37.617188 72.242188 C 38.125 72.65625 38.320312 72.65625 47.757812 72.65625 L 57.367188 72.65625 L 57.914062 73.929688 C 59.257812 77.132812 62.164062 80 65.101562 81.070312 L 65.820312 81.328125 L 65.820312 89.867188 L 65.335938 90.335938 L 64.867188 90.820312 L 26.351562 90.820312 L 25.882812 90.335938 L 25.390625 89.867188 L 25.390625 72.65625 L 28.695312 72.65625 C 31.71875 72.65625 32.007812 72.617188 32.5 72.242188 C 33.148438 71.742188 33.203125 70.703125 32.617188 70.117188 C 32.265625 69.765625 31.976562 69.726562 28.804688 69.726562 L 25.390625 69.726562 L 25.390625 56.523438 L 29.351562 55.078125 C 31.523438 54.273438 33.382812 53.617188 33.476562 53.617188 C 33.570312 53.617188 33.773438 53.945312 33.90625 54.335938 C 34.632812 56.429688 36.953125 58.867188 39.335938 60.039062 C 41.25 60.976562 41.773438 61.070312 42.445312 60.546875 C 42.96875 60.132812 43.125 59.414062 42.851562 58.710938 C 42.789062 58.539062 41.992188 58.046875 41.09375 57.632812 C 39.101562 56.695312 37.539062 55.210938 36.757812 53.570312 C 36.351562 52.65625 36.25 52.148438 36.226562 50.882812 C 36.226562 49.492188 36.304688 49.164062 36.875 48.007812 L 37.523438 46.695312 L 38.539062 47.1875 C 39.101562 47.445312 39.648438 47.65625 39.765625 47.65625 Z M 48.242188 48.929688 C 48.242188 50.648438 47.320312 51.914062 45.9375 52.085938 C 44.257812 52.320312 42.96875 50.960938 42.96875 48.960938 L 42.96875 48.046875 L 48.242188 48.046875 Z M 72.070312 53.617188 L 72.070312 55.46875 L 68.75 55.46875 L 68.75 53.789062 C 68.75 52.265625 68.789062 52.132812 69.101562 52.265625 C 69.84375 52.601562 70.804688 52.554688 71.382812 52.164062 C 71.71875 51.953125 71.992188 51.773438 72.03125 51.773438 C 72.054688 51.757812 72.070312 52.601562 72.070312 53.617188 Z M 73.070312 58.710938 C 76.617188 59.742188 79.507812 62.8125 80.367188 66.429688 C 81.601562 71.695312 78.335938 77.242188 73.070312 78.789062 C 71.679688 79.195312 68.75 79.195312 67.367188 78.789062 C 65.234375 78.164062 63.242188 76.773438 61.898438 74.976562 C 57.539062 69.21875 60.234375 61.015625 67.1875 58.773438 C 68.59375 58.320312 71.601562 58.28125 73.070312 58.710938 Z M 73.070312 58.710938 "/>
<path style=" stroke:none;fill-rule:nonzero;fill:rgb(0%,0%,0%);fill-opacity:1;" d="M 40.820312 32.1875 C 40.15625 32.710938 40.054688 34.296875 40.625 35 C 41.148438 35.679688 42.1875 35.742188 42.773438 35.15625 C 43.359375 34.570312 43.320312 32.835938 42.710938 32.265625 C 42.164062 31.742188 41.40625 31.71875 40.820312 32.1875 Z M 40.820312 32.1875 "/>
<path style=" stroke:none;fill-rule:nonzero;fill:rgb(0%,0%,0%);fill-opacity:1;" d="M 48.476562 32.289062 C 47.890625 32.914062 47.867188 34.585938 48.4375 35.15625 C 49.023438 35.742188 50.054688 35.679688 50.585938 35 C 51.148438 34.296875 51.054688 32.710938 50.390625 32.1875 C 49.789062 31.695312 48.984375 31.742188 48.476562 32.289062 Z M 48.476562 32.289062 "/>
<path style=" stroke:none;fill-rule:nonzero;fill:rgb(0%,0%,0%);fill-opacity:1;" d="M 41.523438 37.523438 C 41.117188 37.851562 41.015625 38.085938 41.015625 38.789062 C 41.015625 41.210938 43.101562 43.226562 45.601562 43.226562 C 48.101562 43.226562 50.195312 41.210938 50.195312 38.789062 C 50.195312 38.085938 50.101562 37.851562 49.6875 37.523438 C 49.398438 37.289062 49.007812 37.109375 48.789062 37.109375 C 48.242188 37.109375 47.265625 38.164062 47.265625 38.75 C 47.265625 39.023438 47.054688 39.476562 46.796875 39.765625 C 45.835938 40.898438 44.117188 40.257812 43.867188 38.671875 C 43.75 37.867188 43.007812 37.109375 42.382812 37.109375 C 42.1875 37.109375 41.820312 37.289062 41.523438 37.523438 Z M 41.523438 37.523438 "/>
<path style=" stroke:none;fill-rule:nonzero;fill:rgb(0%,0%,0%);fill-opacity:1;" d="M 34.585938 75.976562 C 31.914062 76.539062 30 78.929688 30 81.742188 C 29.976562 84.164062 31.210938 85.992188 33.554688 87.070312 C 34.476562 87.476562 34.820312 87.539062 36.117188 87.460938 C 37.945312 87.34375 38.882812 86.898438 40.101562 85.546875 C 43.828125 81.40625 40.054688 74.867188 34.585938 75.976562 Z M 37.34375 79.257812 C 37.617188 79.414062 38.046875 79.882812 38.257812 80.273438 C 39.375 82.242188 38.007812 84.570312 35.742188 84.570312 C 34.53125 84.570312 33.671875 84.007812 33.164062 82.890625 C 32.007812 80.273438 34.867188 77.773438 37.34375 79.257812 Z M 37.34375 79.257812 "/>
<path style=" stroke:none;fill-rule:nonzero;fill:rgb(0%,0%,0%);fill-opacity:1;" d="M 45.585938 76.953125 C 45.078125 77.148438 44.53125 77.890625 44.53125 78.335938 C 44.53125 78.515625 44.710938 78.882812 44.945312 79.179688 L 45.335938 79.6875 L 54.476562 79.6875 L 54.867188 79.179688 C 55.523438 78.335938 55.367188 77.5 54.476562 77.054688 C 54.039062 76.820312 53.085938 76.757812 49.960938 76.773438 C 47.773438 76.773438 45.804688 76.851562 45.585938 76.953125 Z M 45.585938 76.953125 "/>
<path style=" stroke:none;fill-rule:nonzero;fill:rgb(0%,0%,0%);fill-opacity:1;" d="M 45.585938 83.789062 C 45.078125 83.984375 44.53125 84.726562 44.53125 85.179688 C 44.53125 85.351562 44.710938 85.726562 44.945312 86.015625 L 45.335938 86.523438 L 60.523438 86.523438 L 60.914062 86.015625 C 61.445312 85.335938 61.429688 84.898438 60.859375 84.242188 L 60.390625 83.695312 L 53.179688 83.648438 C 49.242188 83.632812 45.804688 83.695312 45.585938 83.789062 Z M 45.585938 83.789062 "/>
<path style=" stroke:none;fill-rule:nonzero;fill:rgb(0%,0%,0%);fill-opacity:1;" d="M 65.726562 63.257812 C 64.164062 63.960938 62.890625 65.914062 62.890625 67.617188 C 62.890625 69.21875 63.414062 70.054688 66.09375 72.8125 C 68.726562 75.507812 69.335938 75.976562 70.210938 75.976562 C 71.09375 75.976562 71.695312 75.507812 74.335938 72.8125 C 77.007812 70.054688 77.539062 69.21875 77.539062 67.617188 C 77.539062 65.914062 76.273438 63.960938 74.710938 63.257812 C 73.695312 62.789062 72.007812 62.789062 70.992188 63.257812 C 70.234375 63.59375 70.195312 63.59375 69.429688 63.257812 C 68.414062 62.789062 66.742188 62.789062 65.726562 63.257812 Z M 69.039062 66.40625 C 69.453125 66.71875 69.976562 66.992188 70.210938 66.992188 C 70.445312 66.992188 70.976562 66.71875 71.382812 66.40625 C 72.382812 65.625 73.257812 65.625 74.039062 66.382812 C 74.429688 66.796875 74.609375 67.148438 74.609375 67.601562 C 74.609375 68.148438 74.296875 68.539062 72.398438 70.445312 L 70.210938 72.679688 L 68.007812 70.445312 C 66.132812 68.539062 65.820312 68.125 65.820312 67.601562 C 65.820312 67.148438 65.992188 66.773438 66.382812 66.382812 C 67.164062 65.625 68.046875 65.625 69.039062 66.40625 Z M 69.039062 66.40625 "/>
<path style=" stroke:none;fill-rule:nonzero;fill:rgb(0%,0%,0%);fill-opacity:1;" d="M 28.851562 12.460938 C 28.398438 12.945312 28.414062 14.117188 28.867188 14.507812 C 29.351562 14.960938 30.523438 14.945312 30.914062 14.492188 C 31.367188 14.007812 31.351562 12.835938 30.898438 12.445312 C 30.414062 11.992188 29.242188 12.007812 28.851562 12.460938 Z M 28.851562 12.460938 "/>
<path style=" stroke:none;fill-rule:nonzero;fill:rgb(0%,0%,0%);fill-opacity:1;" d="M 77.929688 34.414062 C 77.304688 35.101562 77.445312 35.726562 78.671875 37.523438 L 79.789062 39.164062 L 81.539062 39.164062 L 82.679688 37.523438 C 83.882812 35.726562 84.023438 35.101562 83.398438 34.414062 C 82.679688 33.648438 81.484375 33.882812 80.859375 34.921875 C 80.679688 35.234375 80.648438 35.234375 80.46875 34.921875 C 79.84375 33.882812 78.648438 33.648438 77.929688 34.414062 Z M 77.929688 34.414062 "/>
<path style=" stroke:none;fill-rule:nonzero;fill:rgb(0%,0%,0%);fill-opacity:1;" d="M 77.929688 50.234375 C 77.304688 50.914062 77.445312 51.539062 78.671875 53.335938 L 79.789062 54.976562 L 81.539062 54.976562 L 82.679688 53.335938 C 83.882812 51.539062 84.023438 50.914062 83.398438 50.234375 C 82.679688 49.476562 81.484375 49.710938 80.859375 50.742188 C 80.679688 51.054688 80.648438 51.054688 80.46875 50.742188 C 79.84375 49.710938 78.648438 49.476562 77.929688 50.234375 Z M 77.929688 50.234375 "/>
</g>
</svg>
