<svg width="18" height="22" viewBox="0 0 18 22" fill="none" xmlns="http://www.w3.org/2000/svg">
<path fill-rule="evenodd" clip-rule="evenodd" d="M5.29718 8.30425H12.16V10.8578H5.29718V8.30425ZM4.0332 2.54335V14.6583C4.0332 15.4563 5.29718 15.4626 5.29718 14.6583V12.0451H12.16V14.7176C12.16 15.352 13.1457 15.4651 13.3763 14.8488C13.5446 14.399 13.2944 2.66653 13.464 2.16666C13.9171 0.829755 15.9174 1.11732 16.0125 2.36552C16.0508 2.87001 15.7981 3.96855 16.6751 3.96855C17.4772 3.96855 17.2773 2.9789 17.2773 2.3651C17.2773 1.16188 16.0836 0.0372797 14.7434 0.000703951C14.0624 -0.0177942 13.3503 0.339556 12.9868 0.685975C12.5994 1.0551 12.1604 1.64746 12.1604 2.3651V7.05689H5.29761V2.60263C5.29761 1.84421 5.93045 1.29599 6.38133 1.29599C7.08363 1.29599 7.71988 1.42296 7.90569 2.34576C8.03609 2.99403 7.6419 3.96813 8.60885 3.96813C9.54554 3.96813 9.31499 1.68361 8.56495 0.923087C6.59057 -1.07933 4.03363 0.553545 4.03363 2.54293L4.0332 2.54335Z" fill="white"/>
<path fill-rule="evenodd" clip-rule="evenodd" d="M0 20.2409C0 21.0884 0.80501 20.7189 1.38586 21.1309C1.80648 21.4289 2.18746 21.8023 2.80241 21.9309C3.45996 22.0684 4.1188 21.9704 4.61698 21.7077C5.08916 21.4579 5.94872 20.3968 6.9847 21.1313C7.64397 21.5984 7.94952 21.9755 8.97741 21.999C10.5951 22.0356 10.5712 20.895 11.9196 20.895C12.8584 20.895 13.1695 22.2887 15.1469 21.941C15.7473 21.8355 16.1765 21.4613 16.5719 21.1494C17.1375 20.7033 18 21.1195 18 20.2417C18 19.284 16.4999 19.6628 15.8841 20.1143C15.5104 20.388 15.1533 20.776 14.5686 20.776C14.0261 20.776 13.6242 20.3493 13.3055 20.1215C12.4097 19.4807 11.1994 19.4892 10.2938 20.1223C9.101 20.956 9.01875 21.0649 7.74113 20.1475C6.83811 19.4992 5.65041 19.4711 4.72991 20.0971C4.47592 20.2699 3.96198 20.776 3.49193 20.776C2.32937 20.776 2.23817 19.6476 0.602159 19.6476C0.264217 19.6476 0.000426157 19.9079 0.000426157 20.2417L0 20.2409Z" fill="white"/>
<path fill-rule="evenodd" clip-rule="evenodd" d="M0 16.7964C0 17.657 0.868507 17.2875 1.39481 17.6776C1.82736 17.9984 2.16701 18.3528 2.80198 18.4869C4.73162 18.8934 5.16757 17.4502 6.0804 17.4502C7.46967 17.4502 7.23699 18.5167 8.97869 18.5378C10.6748 18.5584 10.5533 17.4502 11.9196 17.4502C12.8597 17.4502 13.164 18.8413 15.1477 18.497C15.7422 18.3936 16.1803 18.0135 16.5719 17.7045C17.1375 17.2585 18 17.6747 18 16.7968C18 15.8391 16.4999 16.2179 15.8841 16.6695C15.5176 16.9381 15.2104 17.3051 14.624 17.3219C13.5693 17.3522 13.4674 16.2028 11.7393 16.2028C10.3066 16.2028 9.98953 17.2942 9.02557 17.3219C7.97083 17.3522 7.86898 16.2028 6.14092 16.2028C5.53066 16.2028 5.05166 16.4286 4.69539 16.6774C4.32506 16.9364 4.02207 17.3047 3.42672 17.3219C2.39159 17.3518 2.2646 16.2028 0.602159 16.2028C0.264217 16.2028 0.000426157 16.463 0.000426157 16.7968L0 16.7964Z" fill="white"/>
</svg>
