<svg width="255" height="79" viewBox="0 0 255 79" fill="none" xmlns="http://www.w3.org/2000/svg">
<path fill-rule="evenodd" clip-rule="evenodd" d="M255 0H0V29.3027V68.5L26.6509 44.5078C28.8569 42.3861 30.7072 40.4767 32.2016 38.7793C33.7198 37.082 34.8703 35.4201 35.6531 33.7935C36.4359 32.1433 36.8273 30.3635 36.8273 28.454C36.8273 26.3324 36.341 24.5054 35.3684 22.9731C34.3958 21.4172 33.0675 20.2268 31.3832 19.4017C29.699 18.553 27.7895 18.1287 25.6546 18.1287C23.4248 18.1287 21.4796 18.5766 19.8191 19.4724C18.1586 20.3682 16.8777 21.653 15.9763 23.3267C15.0749 25.0005 14.6242 26.9924 14.6242 29.3027H0C0 24.5643 1.07932 20.4507 3.23795 16.9618C5.39659 13.4729 8.42105 10.7737 12.3113 8.86421C16.2016 6.95473 20.685 5.99999 25.7613 5.99999C30.98 5.99999 35.5226 6.91937 39.3892 8.75813C43.2795 10.5733 46.3039 13.0957 48.4626 16.3253C50.6212 19.5549 51.7005 23.256 51.7005 27.4286C51.7005 30.1631 51.1549 32.8623 50.0638 35.5262C48.9963 38.19 47.0867 41.1485 44.3351 44.4017C41.5834 47.6313 37.705 51.5092 32.6998 56.0354L22.0608 66.396V66.8911H52.6612V79H87.1837C83.2324 78.3691 79.7042 77.0084 76.599 74.9179C72.2105 71.9476 68.8302 67.6454 66.4581 62.0113C64.1097 56.3772 62.9474 49.5997 62.9711 41.6789C62.9711 33.7817 64.1453 27.0514 66.4937 21.488C68.8658 15.9246 72.2461 11.6931 76.6345 8.79349C81.0467 5.87034 86.301 4.40876 92.3973 4.40876C98.4937 4.40876 103.736 5.87034 108.125 8.79349C112.537 11.7166 115.929 15.9599 118.301 21.5233C120.673 27.0632 121.847 33.7817 121.824 41.6789C121.824 49.6233 120.638 56.4125 118.265 62.0467C115.917 67.6808 112.549 71.983 108.16 74.9533C105.101 77.0239 101.621 78.3728 97.7202 79H132V68L158.749 44.5078C160.955 42.3861 162.805 40.4767 164.299 38.7793C165.818 37.082 166.968 35.4201 167.751 33.7935C168.534 32.1433 168.925 30.3635 168.925 28.454C168.925 26.3324 168.439 24.5054 167.466 22.9731C166.494 21.4172 165.165 20.2268 163.481 19.4017C161.797 18.553 159.887 18.1287 157.752 18.1287C155.523 18.1287 153.577 18.5766 151.917 19.4724C150.256 20.3682 148.976 21.653 148.074 23.3267C147.173 25.0005 146.722 26.9924 146.722 29.3027H132.098C132.098 24.5643 133.177 20.4507 135.336 16.9618C137.494 13.4729 140.519 10.7737 144.409 8.86421C148.299 6.95473 152.783 5.99999 157.859 5.99999C163.078 5.99999 167.62 6.91937 171.487 8.75813C175.377 10.5733 178.402 13.0957 180.56 16.3253C182.719 19.5549 183.798 23.256 183.798 27.4286C183.798 30.1631 183.253 32.8623 182.162 35.5262C181.094 38.19 179.185 41.1485 176.433 44.4017C173.681 47.6313 169.803 51.5092 164.798 56.0354L154.159 66.396V66.8911H184.759V79H228.231V66.6789H193.254V54.6209L223.677 6.99009H228.516H234.138H242.962V54.4088H252V66.6789H242.962V79H255V0ZM102.396 60.4554C99.9051 64.628 96.5723 66.7143 92.3973 66.7143C89.6219 66.7143 87.2024 65.7949 85.1386 63.9561C83.0749 62.0938 81.4737 59.3121 80.3351 55.611C79.2202 51.8864 78.6627 47.2423 78.6627 41.6789C78.6864 33.4517 79.9437 27.2753 82.4344 23.1499C84.9251 19.0245 88.2461 16.9618 92.3973 16.9618C95.1727 16.9618 97.5804 17.8812 99.6205 19.7199C101.684 21.5587 103.274 24.305 104.388 27.959C105.527 31.6129 106.096 36.1862 106.096 41.6789C106.12 50.024 104.887 56.2829 102.396 60.4554ZM228.516 23.6803H227.947L208.768 53.843V54.4088H228.516V23.6803Z" fill="#F6F3EE"/>
</svg>
