<svg width="15" height="12" viewBox="0 0 15 12" fill="none" xmlns="http://www.w3.org/2000/svg">
<g clip-path="url(#clip0_216_77)">
<path fill-rule="evenodd" clip-rule="evenodd" d="M6.2485 10.9391C6.56378 10.8682 7.0998 10.3905 7.29972 10.2611L7.78485 10.6262C7.88681 10.6961 8.23087 10.9121 8.35075 10.9391C8.27759 11.2044 7.45563 11.7095 6.65215 11.3048L6.3242 11.0744C6.27168 11.0185 6.25647 10.9542 6.24832 10.9391H6.2485ZM10.7228 10.9391C10.3203 10.9391 10.149 10.9353 9.75455 10.8589C9.16656 10.745 8.75549 10.5738 8.25115 10.2793L8.00053 10.1046C8.92335 10.1046 10.1414 9.61173 10.93 9.15758C11.035 9.09713 11.1267 9.04229 11.2232 8.97168C11.3709 8.86358 11.3574 8.87164 11.5689 8.92034C12.1134 9.04615 12.5004 9.1914 12.9652 9.47349C13.1108 9.56179 13.4431 9.77608 13.5259 9.89592C13.2307 10.0871 13.0351 10.277 12.6547 10.4613C12.1091 10.7255 11.4314 10.9391 10.7226 10.9391H10.7228ZM6.59891 10.1046C5.90154 10.691 4.7998 10.9391 3.87661 10.9391C3.01771 10.9391 2.30495 10.6714 1.638 10.2887C1.4254 10.1666 1.26876 10.0226 1.07355 9.8961C1.2282 9.6727 1.95997 9.28023 2.25171 9.15828C2.48803 9.05946 2.7229 8.99411 2.9871 8.93086C3.33606 8.84728 3.23175 8.89003 3.49071 9.04404C4.19134 9.4607 4.91225 9.81217 5.73439 9.97652C5.99281 10.0282 6.28617 10.1048 6.59909 10.1048L6.59891 10.1046ZM7.29972 9.47874L6.96778 9.12184C6.15832 8.15152 5.60165 6.81956 5.60165 5.54087C5.60165 4.54006 5.73005 3.70728 6.1317 2.89816C6.17353 2.81388 6.19599 2.74187 6.23963 2.66355C6.47396 2.24199 6.77674 1.77208 7.1045 1.41412C7.17042 1.34228 7.24503 1.31232 7.27274 1.21175C7.39171 1.24241 7.54871 1.46055 7.6465 1.58022C7.89332 1.88123 8.2153 2.33906 8.38715 2.68913C9.18159 4.30633 9.24316 6.0877 8.50504 7.75028C8.42772 7.92462 8.36089 8.07215 8.26872 8.22581L7.98477 8.68118C7.929 8.76055 7.88681 8.81382 7.82723 8.89389L7.49475 9.3023C7.43227 9.37099 7.37378 9.43038 7.29954 9.47857L7.29972 9.47874ZM7.97355 9.58299L8.29317 9.18824C8.82901 8.50159 9.22631 7.59662 9.41772 6.75561L9.56223 5.82629C9.58958 5.50197 9.47078 5.46781 9.72123 5.27613C10.3556 4.79079 10.5314 4.64992 11.2882 4.28864C11.8152 4.03721 12.8767 3.74145 13.6604 3.74145C13.6063 3.96625 13.6096 4.40042 13.4667 4.96215C12.9964 6.81185 11.5535 8.44517 9.733 9.14707C9.41338 9.27024 8.96591 9.41514 8.62293 9.48137C8.425 9.51957 8.16948 9.53866 7.97318 9.58299H7.97355ZM5.06274 4.70634L4.21615 4.14339C4.06078 4.05298 3.39328 3.70255 3.22994 3.68924C3.22994 2.90342 3.26381 2.36149 3.48184 1.63804C3.50809 1.55113 3.5463 1.45056 3.55337 1.36821C3.83134 1.43076 4.43617 1.78049 4.66923 1.93152L5.39268 2.45733C5.50006 2.54914 5.49173 2.57612 5.62882 2.64621C5.6118 2.71664 5.57177 2.80127 5.53864 2.87188C5.49789 2.95913 5.47417 3.03272 5.44012 3.1156C5.31191 3.42747 5.2259 3.80523 5.15473 4.14339C5.11525 4.33086 5.10421 4.53393 5.06274 4.70634ZM8.944 2.56789C9.08977 2.35746 9.55662 1.99985 9.77954 1.83761C10.0905 1.61158 10.4204 1.42025 10.7768 1.23786C10.8166 1.40308 11.0097 1.85811 11.1328 2.37971C11.225 2.77025 11.2494 3.25787 11.2889 3.71517C10.6616 3.85656 9.59628 4.69092 9.53688 4.70616C9.53688 4.22153 9.23265 3.16623 8.9976 2.69842C8.97261 2.64848 8.96573 2.61449 8.944 2.56771V2.56789ZM5.87129 2.15071L5.37022 1.74877C4.98813 1.49261 3.96697 0.820679 3.55319 0.820679C3.04378 0.820679 2.93948 1.45985 2.84567 1.88334C2.743 2.34712 2.66368 2.90657 2.66368 3.48056C2.24627 3.38647 1.10125 3.08318 0.722054 3.24508C0.494245 3.34232 0.399536 3.5121 0.399536 3.76756C0.399536 4.23502 0.500945 4.75715 0.61992 5.19728C0.739982 5.64092 1.18111 5.44047 1.18111 5.22812C1.18111 5.09478 1.14236 4.99929 1.11085 4.87875C1.07572 4.74366 1.05996 4.65588 1.03479 4.50905C0.992419 4.26253 0.960185 3.99305 0.938635 3.74163C2.08402 3.74163 3.30636 4.20226 4.22158 4.78991C4.37587 4.88891 4.49339 4.97792 4.64316 5.0862C4.73279 5.15085 4.76593 5.19448 4.84688 5.25422C5.11091 5.44923 5.01276 5.44591 5.05513 5.75691C5.10493 6.12397 5.08193 6.2701 5.18153 6.70375C5.27497 7.11076 5.38308 7.44892 5.52831 7.8025C5.9861 8.91719 6.48265 9.32158 6.62571 9.58317L5.86876 9.45491C5.6098 9.40305 5.40119 9.33121 5.15998 9.25412C4.18917 8.944 3.08779 8.20355 2.45181 7.44104C2.28032 7.23534 2.15627 7.02754 1.96287 7.02754C1.84462 7.02754 1.69341 7.17384 1.69341 7.28825C1.69341 7.41195 1.82126 7.54231 1.88826 7.62133L2.14432 7.92111C2.29064 8.06812 2.58998 8.31622 2.69066 8.46164C2.39404 8.46795 1.68363 8.81995 1.41526 8.97501C0.946241 9.24606 0.12392 9.73788 0.701953 10.2814C1.66969 11.1913 3.43711 11.6852 4.88962 11.3978C5.04427 11.3672 5.17954 11.3444 5.30847 11.3076C5.95659 11.1215 5.59514 11.1907 5.98665 11.5056C7.40294 12.6448 8.77142 11.5054 8.86305 11.1741C8.94128 11.1918 8.95595 11.2076 9.04106 11.2365C10.2225 11.6382 11.6265 11.5207 12.7085 11.0351C12.9803 10.9132 13.28 10.7473 13.5069 10.5819C13.9323 10.2716 14.479 9.9187 13.7381 9.35189C13.3423 9.04912 12.3667 8.4718 11.9088 8.46182L12.3466 8.02501C13.4312 6.98601 14.1997 5.19921 14.1997 3.68959C14.1997 3.47478 14.0315 3.31131 13.8772 3.24543C13.7039 3.17149 13.3772 3.21021 13.1672 3.23824C12.4345 3.33619 12.46 3.36457 11.8278 3.50702C11.8278 2.69684 11.6337 1.95482 11.3664 1.24119C11.3338 1.15393 11.2866 1.00202 11.2281 0.931763C10.8838 0.518615 10.5383 0.758479 10.2824 0.890413C9.90232 1.08665 9.23247 1.53011 8.90941 1.83077C8.82575 1.90874 8.76599 2.0158 8.64719 2.04646C8.43931 1.66607 8.03222 1.15148 7.71061 0.840303C7.5661 0.700309 7.48895 0.566623 7.24195 0.607973C6.80915 0.68016 5.94699 2.09709 5.87111 2.15088L5.87129 2.15071Z" fill="#7D6858"/>
<path fill-rule="evenodd" clip-rule="evenodd" d="M1.07379 6.29714C1.07379 6.66351 1.63987 6.62566 1.63987 6.29714C1.63987 6.07024 1.29925 5.93375 1.13844 6.12491C1.10548 6.16398 1.07379 6.23477 1.07379 6.29714Z" fill="#7D6858"/>
</g>
<defs>
<clipPath id="clip0_216_77">
<rect width="13.8" height="11.4" fill="white" transform="translate(0.399963 0.600098)"/>
</clipPath>
</defs>
</svg>
