<svg width="38" height="46" viewBox="0 0 38 46" fill="none" xmlns="http://www.w3.org/2000/svg">
<path d="M32.2583 32.1752L19 45.4335L5.74166 32.1752C3.11945 29.5529 1.33371 26.212 0.610252 22.5749C-0.113202 18.9377 0.258124 15.1677 1.67727 11.7416C3.09642 8.31552 5.49966 5.38719 8.58307 3.32692C11.6665 1.26665 15.2916 0.166992 19 0.166992C22.7084 0.166992 26.3335 1.26665 29.4169 3.32692C32.5003 5.38719 34.9036 8.31552 36.3227 11.7416C37.7419 15.1677 38.1132 18.9377 37.3897 22.5749C36.6663 26.212 34.8805 29.5529 32.2583 32.1752V32.1752ZM19 23.0835C20.1051 23.0835 21.1649 22.6445 21.9463 21.8631C22.7277 21.0817 23.1667 20.0219 23.1667 18.9168C23.1667 17.8118 22.7277 16.752 21.9463 15.9706C21.1649 15.1892 20.1051 14.7502 19 14.7502C17.8949 14.7502 16.8351 15.1892 16.0537 15.9706C15.2723 16.752 14.8333 17.8118 14.8333 18.9168C14.8333 20.0219 15.2723 21.0817 16.0537 21.8631C16.8351 22.6445 17.8949 23.0835 19 23.0835Z" fill="#2DE000"/>
</svg>
