<svg width="100" height="33" viewBox="0 0 100 33" fill="none" xmlns="http://www.w3.org/2000/svg">
<path d="M35.48 11.7734C34.5667 11.7734 33.85 11.4667 33.33 10.8534C32.81 10.2334 32.55 9.33671 32.55 8.16338C32.55 7.57671 32.6167 7.06005 32.75 6.61338C32.8833 6.16671 33.0767 5.79005 33.33 5.48338C33.5833 5.17671 33.89 4.94671 34.25 4.79338C34.6167 4.63338 35.0267 4.55338 35.48 4.55338C36.0867 4.55338 36.5933 4.68671 37 4.95338C37.4133 5.22005 37.7367 5.61338 37.97 6.13338L37.02 6.65338C36.9 6.32005 36.7133 6.05671 36.46 5.86338C36.2133 5.66338 35.8867 5.56338 35.48 5.56338C34.94 5.56338 34.5167 5.74671 34.21 6.11338C33.9033 6.48005 33.75 6.98671 33.75 7.63338V8.69338C33.75 9.34005 33.9033 9.84671 34.21 10.2134C34.5167 10.58 34.94 10.7634 35.48 10.7634C35.9 10.7634 36.24 10.6567 36.5 10.4434C36.7667 10.2234 36.9633 9.94338 37.09 9.60338L38 10.1534C37.7667 10.66 37.44 11.0567 37.02 11.3434C36.6 11.63 36.0867 11.7734 35.48 11.7734ZM39.1179 6.45338H40.2079V8.55338H41.1279L41.9879 7.10338C42.1346 6.85671 42.2812 6.68671 42.4279 6.59338C42.5746 6.50005 42.7612 6.45338 42.9879 6.45338H43.5179V7.34338H42.9379L42.2779 8.44338C42.1779 8.61671 42.0879 8.73671 42.0079 8.80338C41.9346 8.87005 41.8346 8.92005 41.7079 8.95338V8.99338C41.8412 9.02005 41.9579 9.07005 42.0579 9.14338C42.1579 9.21005 42.2546 9.33005 42.3479 9.50338L43.0479 10.7634H43.6179V11.6534H42.9979C42.7779 11.6534 42.5879 11.6034 42.4279 11.5034C42.2746 11.4034 42.1279 11.2267 41.9879 10.9734L41.1279 9.43338H40.2079V11.6534H39.1179V6.45338ZM48.5138 11.6534C48.2272 11.6534 48.0072 11.5734 47.8538 11.4134C47.7005 11.2467 47.6072 11.0367 47.5738 10.7834H47.5238C47.4238 11.11 47.2405 11.3567 46.9738 11.5234C46.7072 11.69 46.3838 11.7734 46.0038 11.7734C45.4638 11.7734 45.0472 11.6334 44.7538 11.3534C44.4672 11.0734 44.3238 10.6967 44.3238 10.2234C44.3238 9.70338 44.5105 9.31338 44.8838 9.05338C45.2638 8.79338 45.8172 8.66338 46.5438 8.66338H47.4838V8.22338C47.4838 7.90338 47.3972 7.65671 47.2238 7.48338C47.0505 7.31005 46.7805 7.22338 46.4138 7.22338C46.1072 7.22338 45.8572 7.29005 45.6638 7.42338C45.4705 7.55671 45.3072 7.72671 45.1738 7.93338L44.5238 7.34338C44.6972 7.05005 44.9405 6.81005 45.2538 6.62338C45.5672 6.43005 45.9772 6.33338 46.4838 6.33338C47.1572 6.33338 47.6738 6.49005 48.0338 6.80338C48.3938 7.11671 48.5738 7.56671 48.5738 8.15338V10.7634H49.1238V11.6534H48.5138ZM46.3138 10.9434C46.6538 10.9434 46.9338 10.87 47.1538 10.7234C47.3738 10.57 47.4838 10.3667 47.4838 10.1134V9.36338H46.5638C45.8105 9.36338 45.4338 9.59671 45.4338 10.0634V10.2434C45.4338 10.4767 45.5105 10.6534 45.6638 10.7734C45.8238 10.8867 46.0405 10.9434 46.3138 10.9434ZM52.9554 9.34338H52.9054C52.7587 9.53671 52.5721 9.69338 52.3454 9.81338C52.1187 9.93338 51.8221 9.99338 51.4554 9.99338C50.9021 9.99338 50.4821 9.85338 50.1954 9.57338C49.9154 9.29338 49.7754 8.86338 49.7754 8.28338V6.45338H50.8654V8.21338C50.8654 8.50671 50.9421 8.72338 51.0954 8.86338C51.2487 8.99671 51.4954 9.06338 51.8354 9.06338C52.1754 9.06338 52.4454 9.01338 52.6454 8.91338C52.8521 8.81338 52.9554 8.67005 52.9554 8.48338V6.45338H54.0454V11.6534H52.9554V9.34338ZM55.6023 6.45338H56.6723V8.99338L56.5723 10.2234H56.6123L57.2323 9.11338L59.0323 6.45338H60.0223V11.6534H58.9523V9.11338L59.0523 7.88338H59.0123L58.3923 8.99338L56.5923 11.6534H55.6023V6.45338ZM61.5788 6.45338H64.3488C64.7955 6.45338 65.1388 6.57338 65.3788 6.81338C65.6255 7.05338 65.7488 7.37338 65.7488 7.77338C65.7488 8.42671 65.3988 8.79671 64.6988 8.88338V8.93338C65.1188 8.96671 65.4288 9.09005 65.6288 9.30338C65.8355 9.51005 65.9388 9.78338 65.9388 10.1234C65.9388 10.3434 65.9022 10.5467 65.8288 10.7334C65.7622 10.92 65.6622 11.0834 65.5288 11.2234C65.4022 11.3567 65.2455 11.4634 65.0588 11.5434C64.8722 11.6167 64.6622 11.6534 64.4288 11.6534H61.5788V6.45338ZM64.1788 10.8234C64.3722 10.8234 64.5255 10.7734 64.6388 10.6734C64.7522 10.5734 64.8088 10.4267 64.8088 10.2334V9.96338C64.8088 9.77005 64.7522 9.62338 64.6388 9.52338C64.5255 9.41671 64.3722 9.36338 64.1788 9.36338H62.6488V10.8234H64.1788ZM64.0388 8.61338C64.2255 8.61338 64.3688 8.56671 64.4688 8.47338C64.5688 8.38005 64.6188 8.24671 64.6188 8.07338V7.82338C64.6188 7.65005 64.5688 7.51671 64.4688 7.42338C64.3688 7.33005 64.2255 7.28338 64.0388 7.28338H62.6488V8.61338H64.0388ZM71.0236 11.6534C70.7369 11.6534 70.5169 11.5734 70.3636 11.4134C70.2103 11.2467 70.1169 11.0367 70.0836 10.7834H70.0336C69.9336 11.11 69.7503 11.3567 69.4836 11.5234C69.2169 11.69 68.8936 11.7734 68.5136 11.7734C67.9736 11.7734 67.5569 11.6334 67.2636 11.3534C66.9769 11.0734 66.8336 10.6967 66.8336 10.2234C66.8336 9.70338 67.0203 9.31338 67.3936 9.05338C67.7736 8.79338 68.3269 8.66338 69.0536 8.66338H69.9936V8.22338C69.9936 7.90338 69.9069 7.65671 69.7336 7.48338C69.5603 7.31005 69.2903 7.22338 68.9236 7.22338C68.6169 7.22338 68.3669 7.29005 68.1736 7.42338C67.9803 7.55671 67.8169 7.72671 67.6836 7.93338L67.0336 7.34338C67.2069 7.05005 67.4503 6.81005 67.7636 6.62338C68.0769 6.43005 68.4869 6.33338 68.9936 6.33338C69.6669 6.33338 70.1836 6.49005 70.5436 6.80338C70.9036 7.11671 71.0836 7.56671 71.0836 8.15338V10.7634H71.6336V11.6534H71.0236ZM68.8236 10.9434C69.1636 10.9434 69.4436 10.87 69.6636 10.7234C69.8836 10.57 69.9936 10.3667 69.9936 10.1134V9.36338H69.0736C68.3203 9.36338 67.9436 9.59671 67.9436 10.0634V10.2434C67.9436 10.4767 68.0203 10.6534 68.1736 10.7734C68.3336 10.8867 68.5503 10.9434 68.8236 10.9434ZM72.7019 6.45338H73.7719V8.99338L73.6719 10.2234H73.7119L74.3319 9.11338L76.1319 6.45338H77.1219V11.6534H76.0519V9.11338L76.1519 7.88338H76.1119L75.4919 8.99338L73.6919 11.6534H72.7019V6.45338ZM74.9219 5.76338C74.5219 5.76338 74.2019 5.68338 73.9619 5.52338C73.7285 5.35671 73.5419 5.13005 73.4019 4.84338L73.2019 4.40338L74.0919 4.04338L74.4319 4.94338C74.4985 4.96338 74.5752 4.98005 74.6619 4.99338C74.7552 5.00671 74.8419 5.01338 74.9219 5.01338C75.0019 5.01338 75.0852 5.00671 75.1719 4.99338C75.2652 4.98005 75.3452 4.96338 75.4119 4.94338L75.7519 4.04338L76.6419 4.40338L76.4419 4.84338C76.3019 5.13005 76.1119 5.35671 75.8719 5.52338C75.6385 5.68338 75.3219 5.76338 74.9219 5.76338ZM79.7584 7.34338H78.0984V6.45338H82.5084V7.34338H80.8484V11.6534H79.7584V7.34338ZM85.4352 11.7734C85.0619 11.7734 84.7286 11.71 84.4352 11.5834C84.1419 11.4567 83.8919 11.2767 83.6852 11.0434C83.4786 10.8034 83.3186 10.5167 83.2052 10.1834C83.0986 9.84338 83.0452 9.46671 83.0452 9.05338C83.0452 8.64005 83.0986 8.26671 83.2052 7.93338C83.3186 7.59338 83.4786 7.30671 83.6852 7.07338C83.8919 6.83338 84.1419 6.65005 84.4352 6.52338C84.7286 6.39671 85.0619 6.33338 85.4352 6.33338C85.8152 6.33338 86.1486 6.40005 86.4352 6.53338C86.7286 6.66671 86.9719 6.85338 87.1652 7.09338C87.3586 7.32671 87.5019 7.60005 87.5952 7.91338C87.6952 8.22671 87.7452 8.56338 87.7452 8.92338V9.33338H84.1752V9.50338C84.1752 9.90338 84.2919 10.2334 84.5252 10.4934C84.7652 10.7467 85.1052 10.8734 85.5452 10.8734C85.8652 10.8734 86.1352 10.8034 86.3552 10.6634C86.5752 10.5234 86.7619 10.3334 86.9152 10.0934L87.5552 10.7234C87.3619 11.0434 87.0819 11.3 86.7152 11.4934C86.3486 11.68 85.9219 11.7734 85.4352 11.7734ZM85.4352 7.18338C85.2486 7.18338 85.0752 7.21671 84.9152 7.28338C84.7619 7.35005 84.6286 7.44338 84.5152 7.56338C84.4086 7.68338 84.3252 7.82671 84.2652 7.99338C84.2052 8.16005 84.1752 8.34338 84.1752 8.54338V8.61338H86.5952V8.51338C86.5952 8.11338 86.4919 7.79338 86.2852 7.55338C86.0786 7.30671 85.7952 7.18338 85.4352 7.18338ZM91.3152 6.45338H94.0852C94.5318 6.45338 94.8752 6.57338 95.1152 6.81338C95.3618 7.05338 95.4852 7.37338 95.4852 7.77338C95.4852 8.42671 95.1352 8.79671 94.4352 8.88338V8.93338C94.8552 8.96671 95.1652 9.09005 95.3652 9.30338C95.5718 9.51005 95.6752 9.78338 95.6752 10.1234C95.6752 10.3434 95.6385 10.5467 95.5652 10.7334C95.4985 10.92 95.3985 11.0834 95.2652 11.2234C95.1385 11.3567 94.9818 11.4634 94.7952 11.5434C94.6085 11.6167 94.3985 11.6534 94.1652 11.6534H91.3152V6.45338ZM93.9152 10.8234C94.1085 10.8234 94.2618 10.7734 94.3752 10.6734C94.4885 10.5734 94.5452 10.4267 94.5452 10.2334V9.96338C94.5452 9.77005 94.4885 9.62338 94.3752 9.52338C94.2618 9.41671 94.1085 9.36338 93.9152 9.36338H92.3852V10.8234H93.9152ZM93.7752 8.61338C93.9618 8.61338 94.1052 8.56671 94.2052 8.47338C94.3052 8.38005 94.3552 8.24671 94.3552 8.07338V7.82338C94.3552 7.65005 94.3052 7.51671 94.2052 7.42338C94.1052 7.33005 93.9618 7.28338 93.7752 7.28338H92.3852V8.61338H93.7752Z" fill="white"/>
<path d="M37.605 28.6534L36.855 26.1634H33.36L32.61 28.6534H30.3L33.75 18.1834H36.57L39.975 28.6534H37.605ZM35.13 20.2534H35.055L33.9 24.2284H36.3L35.13 20.2534ZM41.3036 20.7784H43.5236V22.0984H43.5986C43.7086 21.6584 43.9586 21.2984 44.3486 21.0184C44.7486 20.7384 45.2036 20.5984 45.7136 20.5984C46.7136 20.5984 47.4686 20.9484 47.9786 21.6484C48.4886 22.3484 48.7436 23.3684 48.7436 24.7084C48.7436 26.0484 48.4886 27.0734 47.9786 27.7834C47.4686 28.4834 46.7136 28.8334 45.7136 28.8334C45.4536 28.8334 45.2086 28.7934 44.9786 28.7134C44.7486 28.6434 44.5386 28.5434 44.3486 28.4134C44.1686 28.2734 44.0136 28.1134 43.8836 27.9334C43.7536 27.7434 43.6586 27.5434 43.5986 27.3334H43.5236V31.6534H41.3036V20.7784ZM44.9786 27.0334C45.3986 27.0334 45.7436 26.8884 46.0136 26.5984C46.2936 26.2984 46.4336 25.8984 46.4336 25.3984V24.0334C46.4336 23.5334 46.2936 23.1384 46.0136 22.8484C45.7436 22.5484 45.3986 22.3984 44.9786 22.3984C44.5586 22.3984 44.2086 22.5034 43.9286 22.7134C43.6586 22.9134 43.5236 23.1934 43.5236 23.5534V25.8784C43.5236 26.2384 43.6586 26.5234 43.9286 26.7334C44.2086 26.9334 44.5586 27.0334 44.9786 27.0334ZM50.4295 20.7784H52.6495V22.0984H52.7245C52.8345 21.6584 53.0845 21.2984 53.4745 21.0184C53.8745 20.7384 54.3295 20.5984 54.8395 20.5984C55.8395 20.5984 56.5945 20.9484 57.1045 21.6484C57.6145 22.3484 57.8695 23.3684 57.8695 24.7084C57.8695 26.0484 57.6145 27.0734 57.1045 27.7834C56.5945 28.4834 55.8395 28.8334 54.8395 28.8334C54.5795 28.8334 54.3345 28.7934 54.1045 28.7134C53.8745 28.6434 53.6645 28.5434 53.4745 28.4134C53.2945 28.2734 53.1395 28.1134 53.0095 27.9334C52.8795 27.7434 52.7845 27.5434 52.7245 27.3334H52.6495V31.6534H50.4295V20.7784ZM54.1045 27.0334C54.5245 27.0334 54.8695 26.8884 55.1395 26.5984C55.4195 26.2984 55.5595 25.8984 55.5595 25.3984V24.0334C55.5595 23.5334 55.4195 23.1384 55.1395 22.8484C54.8695 22.5484 54.5245 22.3984 54.1045 22.3984C53.6845 22.3984 53.3345 22.5034 53.0545 22.7134C52.7845 22.9134 52.6495 23.1934 52.6495 23.5534V25.8784C52.6495 26.2384 52.7845 26.5234 53.0545 26.7334C53.3345 26.9334 53.6845 27.0334 54.1045 27.0334ZM66.6104 28.8334C65.6904 28.8334 64.9104 28.6784 64.2704 28.3684C63.6304 28.0484 63.0854 27.6384 62.6354 27.1384L64.1354 25.6234C64.8454 26.4234 65.7204 26.8234 66.7604 26.8234C67.3204 26.8234 67.7354 26.7084 68.0054 26.4784C68.2754 26.2484 68.4104 25.9434 68.4104 25.5634C68.4104 25.2734 68.3304 25.0334 68.1704 24.8434C68.0104 24.6434 67.6854 24.5084 67.1954 24.4384L66.1604 24.3034C65.0504 24.1634 64.2354 23.8284 63.7154 23.2984C63.2054 22.7684 62.9504 22.0634 62.9504 21.1834C62.9504 20.7134 63.0404 20.2834 63.2204 19.8934C63.4004 19.5034 63.6554 19.1684 63.9854 18.8884C64.3254 18.6084 64.7354 18.3934 65.2154 18.2434C65.7054 18.0834 66.2604 18.0034 66.8804 18.0034C67.6704 18.0034 68.3654 18.1284 68.9654 18.3784C69.5654 18.6284 70.0804 18.9934 70.5104 19.4734L68.9954 21.0034C68.7454 20.7134 68.4404 20.4784 68.0804 20.2984C67.7304 20.1084 67.2854 20.0134 66.7454 20.0134C66.2354 20.0134 65.8554 20.1034 65.6054 20.2834C65.3554 20.4634 65.2304 20.7134 65.2304 21.0334C65.2304 21.3934 65.3254 21.6534 65.5154 21.8134C65.7154 21.9734 66.0354 22.0884 66.4754 22.1584L67.5104 22.3234C68.5904 22.4934 69.3904 22.8284 69.9104 23.3284C70.4304 23.8184 70.6904 24.5184 70.6904 25.4284C70.6904 25.9284 70.6004 26.3884 70.4204 26.8084C70.2404 27.2284 69.9754 27.5884 69.6254 27.8884C69.2854 28.1884 68.8604 28.4234 68.3504 28.5934C67.8404 28.7534 67.2604 28.8334 66.6104 28.8334ZM75.1475 28.6534C74.3775 28.6534 73.7925 28.4584 73.3925 28.0684C73.0025 27.6784 72.8075 27.1084 72.8075 26.3584V22.5034H71.6975V20.7784H72.2525C72.5525 20.7784 72.7575 20.7084 72.8675 20.5684C72.9775 20.4184 73.0325 20.2084 73.0325 19.9384V18.6484H75.0275V20.7784H76.5875V22.5034H75.0275V26.9284H76.4675V28.6534H75.1475ZM81.2661 28.8334C80.6861 28.8334 80.1661 28.7384 79.7061 28.5484C79.2561 28.3584 78.8711 28.0834 78.5511 27.7234C78.2411 27.3634 78.0011 26.9284 77.8311 26.4184C77.6611 25.9084 77.5761 25.3384 77.5761 24.7084C77.5761 24.0784 77.6611 23.5084 77.8311 22.9984C78.0011 22.4884 78.2411 22.0584 78.5511 21.7084C78.8711 21.3484 79.2561 21.0734 79.7061 20.8834C80.1661 20.6934 80.6861 20.5984 81.2661 20.5984C81.8461 20.5984 82.3611 20.6934 82.8111 20.8834C83.2711 21.0734 83.6561 21.3484 83.9661 21.7084C84.2861 22.0584 84.5311 22.4884 84.7011 22.9984C84.8711 23.5084 84.9561 24.0784 84.9561 24.7084C84.9561 25.3384 84.8711 25.9084 84.7011 26.4184C84.5311 26.9284 84.2861 27.3634 83.9661 27.7234C83.6561 28.0834 83.2711 28.3584 82.8111 28.5484C82.3611 28.7384 81.8461 28.8334 81.2661 28.8334ZM81.2661 27.0784C81.7061 27.0784 82.0461 26.9434 82.2861 26.6734C82.5261 26.4034 82.6461 26.0184 82.6461 25.5184V23.9134C82.6461 23.4134 82.5261 23.0284 82.2861 22.7584C82.0461 22.4884 81.7061 22.3534 81.2661 22.3534C80.8261 22.3534 80.4861 22.4884 80.2461 22.7584C80.0061 23.0284 79.8861 23.4134 79.8861 23.9134V25.5184C79.8861 26.0184 80.0061 26.4034 80.2461 26.6734C80.4861 26.9434 80.8261 27.0784 81.2661 27.0784ZM86.5379 28.6534V20.7784H88.7579V22.4884H88.8329C88.8729 22.2684 88.9429 22.0584 89.0429 21.8584C89.1429 21.6484 89.2729 21.4634 89.4329 21.3034C89.6029 21.1434 89.8029 21.0184 90.0329 20.9284C90.2629 20.8284 90.5329 20.7784 90.8429 20.7784H91.2329V22.8484H90.6779C90.0279 22.8484 89.5429 22.9334 89.2229 23.1034C88.9129 23.2734 88.7579 23.5884 88.7579 24.0484V28.6534H86.5379ZM95.8141 28.8334C95.2141 28.8334 94.6791 28.7384 94.2091 28.5484C93.7391 28.3484 93.3391 28.0734 93.0091 27.7234C92.6891 27.3634 92.4441 26.9284 92.2741 26.4184C92.1141 25.9084 92.0341 25.3384 92.0341 24.7084C92.0341 24.0884 92.1141 23.5284 92.2741 23.0284C92.4341 22.5184 92.6691 22.0834 92.9791 21.7234C93.2991 21.3634 93.6891 21.0884 94.1491 20.8984C94.6091 20.6984 95.1341 20.5984 95.7241 20.5984C96.3741 20.5984 96.9291 20.7084 97.3891 20.9284C97.8591 21.1484 98.2391 21.4434 98.5291 21.8134C98.8291 22.1834 99.0441 22.6134 99.1741 23.1034C99.3141 23.5834 99.3841 24.0884 99.3841 24.6184V25.2784H94.3291V25.3984C94.3291 25.9184 94.4691 26.3334 94.7491 26.6434C95.0291 26.9434 95.4691 27.0934 96.0691 27.0934C96.5291 27.0934 96.9041 27.0034 97.1941 26.8234C97.4841 26.6334 97.7541 26.4084 98.0041 26.1484L99.1141 27.5284C98.7641 27.9384 98.3041 28.2584 97.7341 28.4884C97.1741 28.7184 96.5341 28.8334 95.8141 28.8334ZM95.7691 22.2334C95.3191 22.2334 94.9641 22.3834 94.7041 22.6834C94.4541 22.9734 94.3291 23.3634 94.3291 23.8534V23.9734H97.0891V23.8384C97.0891 23.3584 96.9791 22.9734 96.7591 22.6834C96.5491 22.3834 96.2191 22.2334 95.7691 22.2334Z" fill="white"/>
<path fill-rule="evenodd" clip-rule="evenodd" d="M0 14.8504C0 16.2163 0.26876 18.0261 0.679804 19.2471C1.41155 21.4284 1.28282 21.0026 2.19073 22.8102L3.16414 24.3732C3.50291 24.8262 3.8462 25.3835 4.26853 25.8025C4.37694 25.909 4.46502 25.9883 4.56665 26.0993C5.46553 27.0778 6.33731 27.6532 7.80984 27.6532C9.0633 27.6532 10.2784 26.5183 11.9564 26.5183C13.0676 26.5183 13.7248 26.5319 14.775 27.0393C15.5768 27.4267 16.2633 27.6351 16.9002 27.6509H17.0628C18.0317 27.626 18.8945 27.1412 19.886 26.1536C20.7058 25.3382 22.1919 23.1726 22.7452 22.0536C22.9033 21.732 23.5334 20.4952 23.5876 20.2528C22.2257 19.9334 20.7058 18.3274 20.157 16.9434C19.8498 16.1732 19.5833 14.9953 19.6962 14.1346C19.8634 12.8479 20.0418 11.9351 20.9384 10.8432C21.1394 10.5963 21.2546 10.474 21.4759 10.2475C21.9005 9.81711 22.2912 9.61778 22.7813 9.28932C22.298 8.56673 20.9836 7.4953 20.1976 7.12834C18.4789 6.33099 17.1103 6.28569 15.2967 6.80442C15.116 6.85652 14.9828 6.91768 14.7795 6.9879C14.4272 7.10795 14.1449 7.23707 13.7971 7.35259C11.5951 8.08878 10.5291 7.1827 8.63193 6.68436C6.63091 6.16111 4.97318 6.60961 3.31997 7.75353L2.08006 8.88612C1.61256 9.49319 1.62837 9.29386 1.0773 10.2566C0.871775 10.6145 0.616566 11.14 0.499125 11.5658C0.17842 12.7256 0.00451697 13.5569 0.00451697 14.8504H0Z" fill="white"/>
<path fill-rule="evenodd" clip-rule="evenodd" d="M11.3623 6.64134C12.3877 6.64134 13.0133 6.49863 13.8918 5.99123C14.6868 5.5314 15.1588 5.10101 15.7031 4.4056C15.8206 4.2561 15.9041 4.14284 15.9922 3.99334L16.462 3.11445C16.934 2.12683 17.0175 1.49257 17.0175 0.378103C17.0175 0.192358 16.9769 0.169706 16.9633 -0.000183105C15.5089 -0.000183105 13.8579 1.10523 12.9094 2.09058C12.2228 2.80412 11.543 4.17682 11.3826 5.20521C11.2878 5.81908 11.3623 6.05465 11.3623 6.6436V6.64134Z" fill="white"/>
</svg>
