<svg width="24" height="15" viewBox="0 0 24 15" fill="none" xmlns="http://www.w3.org/2000/svg">
<g clip-path="url(#clip0_160_662)">
<path fill-rule="evenodd" clip-rule="evenodd" d="M9.38711 8.31624C9.38711 8.27504 10.1546 7.41324 10.2485 7.30097C10.3716 7.15364 11.0536 6.42486 11.0956 6.27213H12.9047L14.6133 8.31624C14.6133 8.64356 13.7438 12.5992 13.6375 13.1142C13.3717 14.4025 13.1861 14.2053 11.2464 14.2053C10.5131 14.2053 10.4563 13.5678 10.3712 13.1547C10.2642 12.6357 9.38711 8.65073 9.38711 8.31624ZM13.9098 6.27213H15.0655C15.0028 6.53294 14.8645 7.0609 14.8645 7.34283H14.764C14.7155 7.16722 14.0486 6.47294 13.9098 6.27213H13.9098ZM9.23633 7.34283H9.13587C9.13587 7.0609 8.99758 6.53294 8.93486 6.27213H10.0906L9.44406 7.05736C9.33084 7.19 9.28435 7.1688 9.23633 7.34283H9.23633ZM14.6132 3.05992V1.89182H15.7187C15.7187 3.21581 15.8844 3.59532 15.0655 3.59532C14.757 3.59532 14.6132 3.36362 14.6132 3.05992H14.6132ZM8.2816 3.05992V1.89182H9.3871C9.3871 3.21581 9.55277 3.59532 8.73384 3.59532C8.42536 3.59532 8.2816 3.36362 8.2816 3.05992H8.2816ZM7.47756 1.74579V2.81659C7.47756 3.15861 7.55411 3.31617 7.57802 3.59532C6.95674 3.59532 6.51401 3.59029 6.10277 3.82116C5.25484 4.2974 5.41724 5.10198 5.41724 5.98006C5.41724 6.21417 5.66262 6.2724 5.86527 6.27612L8.13082 6.27213C8.67594 8.53827 9.12713 11.3425 9.66802 13.6411C9.76397 14.049 9.92713 14.3572 10.2048 14.5813C10.8759 15.1231 11.6655 14.9839 12.7037 14.9839C13.5357 14.9839 14.1485 14.4306 14.3324 13.6413L15.3545 8.74215C15.5249 7.91096 15.6764 7.07512 15.8695 6.27212L18.1351 6.27612C18.7341 6.26505 18.5831 5.8808 18.5831 4.8607C18.5831 4.42827 18.2057 4.00737 17.9293 3.8392C17.527 3.59438 17.0677 3.59531 16.4223 3.59531C16.4463 3.31617 16.5228 3.1586 16.5228 2.81658C16.5228 0.827346 16.7939 1.11309 14.362 1.11309C13.6318 1.11309 13.8092 1.82234 13.8092 2.86523C13.8092 3.15432 13.854 3.3636 13.9098 3.59531C13.6087 3.59531 12.8201 3.5488 12.5767 3.66693C12.4941 3.70702 12.3519 3.86431 12.3519 3.93593C12.3519 4.51979 12.982 4.37394 13.558 4.37394L16.8753 4.37329C17.8275 4.36669 17.8293 4.76815 17.8293 5.54204H6.17106C6.17106 5.14161 6.11593 4.81 6.40703 4.55384C6.59171 4.39134 6.73336 4.36985 7.07421 4.37264L11.1991 4.37673C11.4545 4.36669 11.6484 4.25507 11.6484 3.98467C11.6484 3.45178 10.6459 3.5953 10.0906 3.5953C10.2398 2.97517 10.1912 2.40117 10.1912 1.74578C10.1912 0.903614 9.64286 1.11308 8.03038 1.11308C7.59014 1.11308 7.47758 1.32293 7.47758 1.74578L7.47756 1.74579Z" fill="#7D6858"/>
<path fill-rule="evenodd" clip-rule="evenodd" d="M19.4774 10.7011H19.8292V14.2053H19.4774V10.7011ZM19.8292 1.21052C19.8292 1.47683 20.1044 2.52019 20.1906 2.85597C20.3255 3.3816 20.4727 3.94286 20.5955 4.50793C20.6712 4.85665 21.387 7.58043 21.387 7.82952C21.387 8.55663 19.779 7.78385 19.779 8.51096C19.779 9.03417 20.4343 8.90033 21.1357 8.90033C21.677 8.90033 22.191 8.34372 22.191 7.82953L21.0149 2.93364C20.9378 2.63767 20.8907 2.4002 20.8139 2.10618C20.6725 1.56464 20.364 0.772518 21.186 0.772518C21.6893 0.772518 21.7196 1.38754 21.8194 1.81392L23.1367 7.15703C23.5348 8.68314 22.4372 9.9223 21.0855 9.9223H17.7187C17.1679 9.9223 17.083 9.08562 17.6456 8.92684C18.1838 8.77504 18.9249 9.12367 19.0507 8.62947C19.2053 8.02254 18.2968 8.17025 17.6684 8.17025C17.0589 8.17025 16.4624 8.78555 16.4624 9.38699C16.4624 10.1205 17.0661 10.7011 17.8192 10.7011H18.7237V14.2053C18.0644 14.2053 17.2664 14.0675 17.2664 14.5947C17.2664 14.8301 17.4254 14.9839 17.6684 14.9839H21.6383C22.206 14.9839 22.206 14.2053 21.6383 14.2053H20.6333V10.7011C21.6736 10.7011 22.3987 10.5218 23.0841 9.91123C23.765 9.30477 24.0001 8.52967 24.0001 7.63486C24.0001 7.24633 23.8685 6.91325 23.795 6.56815L22.5128 1.33685C22.3957 0.885544 22.2731 0.376281 21.7403 0.138348C20.6391 -0.353335 19.8292 0.576361 19.8292 1.21054V1.21052Z" fill="#7D6858"/>
<path fill-rule="evenodd" clip-rule="evenodd" d="M4.17087 10.7011H4.52266V14.2053H4.17087V10.7011ZM0 8.07483V7.71662C0.0248728 7.31786 0.124949 6.92068 0.222237 6.48742L0.743629 4.36415C0.818059 4.0784 0.875782 3.49798 1.20606 3.49798C1.4619 3.49798 1.6584 3.62458 1.6584 3.8387C1.6584 4.03821 1.30642 5.36388 1.22604 5.70748C1.08294 6.31915 0.890669 6.8964 0.794435 7.52882C0.602837 8.78797 1.64822 9.9223 2.91459 9.9223H6.28142C6.8322 9.9223 6.9171 9.08562 6.3545 8.92684C5.83407 8.78006 2.92169 9.07697 2.39991 8.76611C2.09134 8.58231 1.80908 8.24197 1.80908 7.78089L3.20654 2.02861C3.27876 1.74686 3.62374 0.772519 2.91459 0.772519C2.24375 0.772519 2.2935 1.35814 2.04246 2.36123C1.87957 3.01188 1.25628 2.80882 1.25628 2.42727C1.25628 2.14264 1.53912 1.05892 1.63746 0.800985C2.13062 -0.493327 4.17087 -0.113826 4.17087 1.25918C4.17087 1.49265 4.04957 1.87596 3.99003 2.10609L2.9846 6.19394C2.41759 8.37861 2.38234 8.17025 3.91963 8.17025C4.47243 8.17025 5.02513 8.17025 5.57793 8.17025C6.2334 8.17025 6.59892 8.11733 6.99393 8.40484C8.05737 9.17901 7.43196 10.7011 6.18096 10.7011H5.27646V14.2053H6.28141C6.88665 14.2053 6.87186 14.9839 6.33174 14.9839H2.36188C1.79409 14.9839 1.79409 14.2053 2.36188 14.2053H3.36683V10.7011H3.01514C1.7868 10.7011 0.798563 10.0376 0.29993 9.0965C0.108047 8.73439 0.0218954 8.40046 0 8.07481L0 8.07483Z" fill="#7D6858"/>
</g>
<defs>
<clipPath id="clip0_160_662">
<rect width="24" height="15" fill="white"/>
</clipPath>
</defs>
</svg>
