<svg width="50" height="50" viewBox="0 0 50 50" fill="none" xmlns="http://www.w3.org/2000/svg">
<rect x="0.5" y="0.5" width="49" height="49" rx="24.5" fill="#60919F" stroke="#60919F"/>
<path fill-rule="evenodd" clip-rule="evenodd" d="M21.2972 22.3042H28.16V24.8578H21.2972V22.3042ZM20.0332 16.5433V28.6583C20.0332 29.4563 21.2972 29.4626 21.2972 28.6583V26.0451H28.16V28.7176C28.16 29.352 29.1457 29.4651 29.3763 28.8488C29.5446 28.3989 29.2944 16.6665 29.464 16.1666C29.9171 14.8297 31.9174 15.1173 32.0125 16.3655C32.0508 16.87 31.7981 17.9685 32.6751 17.9685C33.4772 17.9685 33.2773 16.9789 33.2773 16.3651C33.2773 15.1619 32.0836 14.0373 30.7434 14.0007C30.0624 13.9822 29.3503 14.3395 28.9868 14.686C28.5994 15.0551 28.1604 15.6474 28.1604 16.3651V21.0569H21.2976V16.6026C21.2976 15.8442 21.9305 15.296 22.3813 15.296C23.0836 15.296 23.7199 15.4229 23.9057 16.3457C24.0361 16.994 23.6419 17.9681 24.6088 17.9681C25.5455 17.9681 25.315 15.6836 24.565 14.9231C22.5906 12.9207 20.0336 14.5535 20.0336 16.5429L20.0332 16.5433Z" fill="white"/>
<path fill-rule="evenodd" clip-rule="evenodd" d="M16 34.2409C16 35.0885 16.805 34.7189 17.3859 35.1309C17.8065 35.429 18.1875 35.8023 18.8024 35.931C19.46 36.0684 20.1188 35.9705 20.617 35.7077C21.0892 35.458 21.9487 34.3969 22.9847 35.1313C23.644 35.5984 23.9495 35.9755 24.9774 35.9991C26.5951 36.0356 26.5712 34.8951 27.9196 34.8951C28.8584 34.8951 29.1695 36.2887 31.1469 35.941C31.7473 35.8355 32.1765 35.4614 32.5719 35.1494C33.1375 34.7034 34 35.1196 34 34.2417C34 33.284 32.4999 33.6628 31.8841 34.1144C31.5104 34.388 31.1533 34.7761 30.5686 34.7761C30.0261 34.7761 29.6242 34.3494 29.3055 34.1215C28.4097 33.4808 27.1994 33.4892 26.2938 34.1223C25.101 34.956 25.0188 35.0649 23.7411 34.1476C22.8381 33.4993 21.6504 33.4711 20.7299 34.0971C20.4759 34.2699 19.962 34.7761 19.4919 34.7761C18.3294 34.7761 18.2382 33.6477 16.6022 33.6477C16.2642 33.6477 16.0004 33.9079 16.0004 34.2417L16 34.2409Z" fill="white"/>
<path fill-rule="evenodd" clip-rule="evenodd" d="M16 30.7964C16 31.657 16.8685 31.2874 17.3948 31.6776C17.8274 31.9983 18.167 32.3528 18.802 32.4869C20.7316 32.8934 21.1676 31.4501 22.0804 31.4501C23.4697 31.4501 23.237 32.5167 24.9787 32.5377C26.6748 32.5583 26.5533 31.4501 27.9196 31.4501C28.8597 31.4501 29.164 32.8413 31.1477 32.497C31.7422 32.3935 32.1803 32.0135 32.5719 31.7045C33.1375 31.2584 34 31.6746 34 30.7968C34 29.8391 32.4999 30.2179 31.8841 30.6694C31.5176 30.9381 31.2104 31.3051 30.624 31.3219C29.5693 31.3522 29.4674 30.2028 27.7393 30.2028C26.3066 30.2028 25.9895 31.2942 25.0256 31.3219C23.9708 31.3522 23.869 30.2028 22.1409 30.2028C21.5307 30.2028 21.0517 30.4285 20.6954 30.6774C20.3251 30.9364 20.0221 31.3047 19.4267 31.3219C18.3916 31.3518 18.2646 30.2028 16.6022 30.2028C16.2642 30.2028 16.0004 30.463 16.0004 30.7968L16 30.7964Z" fill="white"/>
</svg>
