<svg width="17" height="23" viewBox="0 0 17 23" fill="none" xmlns="http://www.w3.org/2000/svg">
<g clip-path="url(#clip0_377_167)">
<path fill-rule="evenodd" clip-rule="evenodd" d="M6.23349 11.2757C6.01354 11.2711 5.49682 11.1295 5.27202 11.0672L2.45553 10.3772C2.51699 10.2557 2.81457 8.79718 2.83317 8.58025C3.10649 8.64102 6.56342 9.51873 6.79954 9.52335C6.77043 9.85644 6.2626 10.9395 6.23268 11.2749L6.23349 11.2757ZM4.86528 3.6828e-05H5.22916C5.84615 0.0238836 6.49792 0.163887 7.14725 0.343122C8.0125 0.582359 8.74997 0.848519 9.33866 1.44777C10.1505 2.2724 9.7357 3.27704 9.67991 3.90783C10.3996 4.3663 10.4829 4.94708 10.4829 5.65941C10.4829 6.63636 9.17855 8.23409 8.44107 8.92795C8.31088 9.05026 8.21708 9.14257 8.08608 9.26411C7.92921 9.41104 7.88716 9.40642 7.8071 9.6272L7.12461 11.5834C6.99765 11.9465 7.00089 12.2111 6.56423 12.308C6.57797 12.9019 6.92083 13.3688 6.74051 14.7666C6.71301 14.9766 6.61679 15.332 6.61113 15.542C8.01573 14.835 10.0163 14.7135 11.5875 15.2104C11.8592 15.2958 12.0541 15.3681 12.2942 15.482L12.9387 15.812C13.0705 15.7281 13.1368 15.6404 13.2565 15.5304C13.3641 15.432 13.4474 15.3796 13.567 15.2866C14.1937 14.8012 15.1123 14.3742 16.0075 14.3742C16.3633 14.3742 16.9989 14.4358 16.9989 14.8681C16.9989 16.0174 15.8199 14.4004 13.7053 16.4066C12.988 17.0874 13.1231 17.032 12.1923 16.4758C11.9724 16.3443 11.7193 16.2412 11.4541 16.1443C9.84972 15.5604 7.80225 15.825 6.49549 16.6458C6.35479 16.7343 6.22864 16.8051 6.10492 16.9028C5.49278 17.3866 5.19277 16.9105 5.19277 16.7089C5.19277 16.4481 5.48712 15.865 5.60841 15.442C6.1033 13.7204 5.54049 12.7973 5.52351 12.0819C5.2979 12.0319 5.05288 11.9588 4.81514 11.9019L2.78465 11.408L1.2353 17.3466C0.367631 20.6675 1.75121 19.8782 2.89867 20.1044C3.60784 20.2444 4.12133 20.5505 4.65827 20.8559C6.5149 21.9121 7.83702 22.3252 9.97425 21.9314C11.7436 21.6052 12.65 21.2006 14.5422 21.2006C15.5296 21.2006 16.9981 21.8767 16.9981 22.4137C16.9981 22.7614 16.6423 23.1745 16.0657 22.6721C15.4237 22.1129 14.7226 22.1444 13.9285 22.1444C12.6428 22.1444 10.3018 22.9983 8.78151 22.9983C6.49387 22.9983 5.58416 22.4206 3.77361 21.4283C2.91484 20.9575 2.724 20.999 1.93235 20.979C1.31536 20.9629 0.720197 20.7359 0.361162 20.2729C-0.0132373 19.7898 -0.00191631 19.3582 -0.00191631 18.7767C-0.00191631 17.9536 0.646611 15.8881 0.860092 14.9243L1.84016 11.1849C1.19729 11.0426 1.4601 10.4557 1.54501 10.0503L1.96388 7.991C1.96873 7.81485 1.90243 7.46715 1.88625 7.23329L1.74636 4.89554C1.74636 3.65859 1.94609 2.3824 2.39084 1.55546C2.98843 0.443125 3.86903 0.0408071 4.86447 -0.000732422L4.86528 3.6828e-05ZM8.78313 3.41397C8.59472 3.39935 8.18554 3.23396 7.83864 3.23396C6.98391 3.23396 6.28039 3.90936 6.28039 4.71631C6.28039 5.1494 6.32002 5.49402 6.56342 5.83941C5.69656 5.83941 4.76581 5.24863 4.76824 4.44784C4.77067 3.48782 4.02672 3.72859 3.86499 3.99091C3.57469 4.46015 3.94343 5.55171 4.62026 6.07173C6.1688 7.26022 8.02786 6.72559 8.02786 6.15481C8.02786 5.38402 7.27259 6.00942 7.27259 4.71708C7.27259 3.77552 8.57612 4.30476 8.97154 4.53861C10.3899 5.37863 8.71439 7.31637 7.99147 8.00716L7.31949 8.71564L3.33372 7.74561C2.82589 7.62869 2.92697 7.73792 2.86632 7.24714C2.64395 5.43402 2.28572 0.89929 5.00598 0.89929C5.61974 0.89929 6.87879 1.21314 7.38014 1.38084C8.67073 1.81162 9.06534 2.26471 8.78313 3.41474V3.41397Z" fill="white"/>
<path fill-rule="evenodd" clip-rule="evenodd" d="M6.56372 18.4629C6.56372 18.913 7.19042 19.1176 7.63193 19.243C8.65405 19.5337 9.92442 19.4653 10.9207 19.283C11.5223 19.173 12.0883 19.0937 12.0883 18.5968C12.0883 17.8822 10.9983 18.3329 10.5649 18.4053C8.09771 18.8145 7.21225 18.0129 7.08287 18.0129C6.81197 18.0129 6.56372 18.206 6.56372 18.4622V18.4629Z" fill="white"/>
</g>
<defs>
<clipPath id="clip0_377_167">
<rect width="17" height="23" fill="white"/>
</clipPath>
</defs>
</svg>
