<svg width="17" height="23" viewBox="0 0 17 23" fill="none" xmlns="http://www.w3.org/2000/svg">
<g clip-path="url(#clip0_160_627)">
<path fill-rule="evenodd" clip-rule="evenodd" d="M6.23349 11.2756C6.01354 11.271 5.49682 11.1295 5.27202 11.0672L2.45553 10.3772C2.51699 10.2556 2.81457 8.79712 2.83317 8.58019C3.10649 8.64096 6.56342 9.51867 6.79954 9.52329C6.77043 9.85637 6.2626 10.9395 6.23268 11.2749L6.23349 11.2756ZM4.86528 -2.42072e-05H5.22916C5.84615 0.0238225 6.49792 0.163826 7.14725 0.343061C8.0125 0.582298 8.74997 0.848458 9.33866 1.4477C10.1505 2.27234 9.7357 3.27698 9.67991 3.90776C10.3996 4.36624 10.4829 4.94702 10.4829 5.65935C10.4829 6.63629 9.17855 8.23403 8.44107 8.92789C8.31088 9.0502 8.21708 9.14251 8.08608 9.26405C7.92921 9.41098 7.88716 9.40636 7.8071 9.62714L7.12461 11.5833C6.99765 11.9464 7.00089 12.211 6.56423 12.308C6.57797 12.9018 6.92083 13.3688 6.74051 14.7665C6.71301 14.9765 6.61679 15.3319 6.61113 15.5419C8.01573 14.835 10.0163 14.7134 11.5875 15.2104C11.8592 15.2957 12.0541 15.368 12.2942 15.4819L12.9387 15.8119C13.0705 15.7281 13.1368 15.6404 13.2565 15.5304C13.3641 15.4319 13.4474 15.3796 13.567 15.2865C14.1937 14.8011 15.1123 14.3742 16.0075 14.3742C16.3633 14.3742 16.9989 14.4357 16.9989 14.868C16.9989 16.0173 15.8199 14.4003 13.7053 16.4065C12.988 17.0873 13.1231 17.0319 12.1923 16.4758C11.9724 16.3442 11.7193 16.2411 11.4541 16.1442C9.84972 15.5604 7.80225 15.825 6.49549 16.6458C6.35479 16.7342 6.22864 16.805 6.10492 16.9027C5.49278 17.3866 5.19277 16.9104 5.19277 16.7089C5.19277 16.4481 5.48712 15.865 5.60841 15.4419C6.1033 13.7203 5.54049 12.7972 5.52351 12.0818C5.2979 12.0318 5.05288 11.9587 4.81514 11.9018L2.78465 11.408L1.2353 17.3466C0.367631 20.6674 1.75121 19.8782 2.89867 20.1043C3.60784 20.2443 4.12133 20.5505 4.65827 20.8559C6.5149 21.9121 7.83702 22.3251 9.97425 21.9313C11.7436 21.6051 12.65 21.2005 14.5422 21.2005C15.5296 21.2005 16.9981 21.8767 16.9981 22.4136C16.9981 22.7613 16.6423 23.1744 16.0657 22.6721C15.4237 22.1128 14.7226 22.1444 13.9285 22.1444C12.6428 22.1444 10.3018 22.9982 8.78151 22.9982C6.49387 22.9982 5.58416 22.4205 3.77361 21.4282C2.91484 20.9574 2.724 20.999 1.93235 20.979C1.31536 20.9628 0.720197 20.7359 0.361162 20.2728C-0.0132373 19.7897 -0.00191631 19.3581 -0.00191631 18.7766C-0.00191631 17.9535 0.646611 15.8881 0.860092 14.9242L1.84016 11.1849C1.19729 11.0426 1.4601 10.4556 1.54501 10.0502L1.96388 7.99094C1.96873 7.81479 1.90243 7.46708 1.88625 7.23323L1.74636 4.89548C1.74636 3.65853 1.94609 2.38234 2.39084 1.5554C2.98843 0.443064 3.86903 0.040746 4.86447 -0.000793457L4.86528 -2.42072e-05ZM8.78313 3.41391C8.59472 3.39929 8.18554 3.2339 7.83864 3.2339C6.98391 3.2339 6.28039 3.9093 6.28039 4.71625C6.28039 5.14933 6.32002 5.49396 6.56342 5.83935C5.69656 5.83935 4.76581 5.24857 4.76824 4.44778C4.77067 3.48775 4.02672 3.72853 3.86499 3.99084C3.57469 4.46009 3.94343 5.55165 4.62026 6.07167C6.1688 7.26016 8.02786 6.72553 8.02786 6.15474C8.02786 5.38396 7.27259 6.00936 7.27259 4.71702C7.27259 3.77545 8.57612 4.3047 8.97154 4.53855C10.3899 5.37857 8.71439 7.31631 7.99147 8.0071L7.31949 8.71558L3.33372 7.74555C2.82589 7.62863 2.92697 7.73786 2.86632 7.24708C2.64395 5.43396 2.28572 0.899229 5.00598 0.899229C5.61974 0.899229 6.87879 1.21308 7.38014 1.38078C8.67073 1.81156 9.06534 2.26465 8.78313 3.41468V3.41391Z" fill="#7D6858"/>
<path fill-rule="evenodd" clip-rule="evenodd" d="M6.56348 18.4629C6.56348 18.9129 7.19017 19.1175 7.63169 19.2429C8.65381 19.5337 9.92418 19.4652 10.9204 19.2829C11.522 19.1729 12.0881 19.0936 12.0881 18.5967C12.0881 17.8821 10.998 18.3329 10.5646 18.4052C8.09746 18.8144 7.212 18.0128 7.08262 18.0128C6.81173 18.0128 6.56348 18.2059 6.56348 18.4621V18.4629Z" fill="#7D6858"/>
</g>
<defs>
<clipPath id="clip0_160_627">
<rect width="17" height="23" fill="white"/>
</clipPath>
</defs>
</svg>
