<svg width="24" height="22" viewBox="0 0 24 22" fill="none" xmlns="http://www.w3.org/2000/svg">
<path fill-rule="evenodd" clip-rule="evenodd" d="M12.75 18.8291C10.2803 18.8291 10.1667 18.8188 7.76472 18.5083C7.33557 18.453 7.37683 18.6071 8.00028 17.4205L8.67246 16.1401C9.02405 15.4476 9.13021 15.0348 10.1719 15.0348H14.0156C15.3103 15.0348 15.3407 15.5948 15.9837 16.8605C16.0729 17.0361 16.1533 17.1548 16.2498 17.3563C16.3621 17.5907 16.7318 18.2071 16.7812 18.3968C16.5725 18.4994 15.1779 18.662 14.8633 18.6891C14.1796 18.748 13.5161 18.829 12.7499 18.829L12.75 18.8291ZM24 5.69657V5.85857C23.9829 6.2997 23.8251 6.70666 23.5134 6.94765C22.5384 7.70199 21.6417 7.15801 20.5313 7.15801C20.511 7.40762 20.3852 7.73485 20.3132 7.99123C20.2315 8.28206 20.1706 8.52448 20.0801 8.80907L18.7031 13.6899L20.4844 17.3401C20.9465 17.3007 21.7984 16.6198 22.4062 16.6198C23.307 16.6198 24 17.3093 24 18.1086C24 19.32 23.2559 19.5976 22.2995 20.0165C21.5002 20.3666 20.7434 20.6557 19.8484 20.9152C18.2344 21.383 17.2954 21.5478 15.6706 21.7736C15.2351 21.8341 14.6612 21.9029 14.1561 21.9029C13.8695 21.9029 13.6406 21.778 13.6406 21.4706C13.6406 20.8237 14.0918 20.9575 14.7585 20.887C17.0712 20.6426 20.2283 20.0092 22.2497 18.9568C22.4248 18.8656 22.6548 18.7976 22.7908 18.6946C23.3267 18.2891 22.9415 17.6282 22.5468 17.6282C22.1979 17.6282 22.1421 17.6894 21.8596 17.8367C19.1881 19.2292 14.8733 19.8376 12 19.8376C10.3085 19.8376 7.81057 19.5945 6.27194 19.2228C5.0297 18.9228 3.8222 18.5885 2.6587 18.0741C2.3159 17.9224 1.8092 17.6282 1.54689 17.6282C1.14739 17.6282 0.937491 17.9495 0.937491 18.2046C0.937491 18.6984 1.54632 18.8504 1.78126 18.9731C3.80996 20.0328 6.96354 20.6396 9.28863 20.8866C9.76243 20.9369 10.3593 20.8543 10.3593 21.3745C10.3593 21.6683 10.2374 21.9028 9.93753 21.9028C9.0715 21.9028 7.69883 21.7036 6.85645 21.5535C5.92572 21.3878 5.03543 21.1721 4.15158 20.9151C3.60642 20.7564 1.09291 19.8704 0.575269 19.4403C0.141791 19.0802 0 18.6776 0 18.1085C0 17.3193 0.723514 16.6197 1.50006 16.6197C2.29658 16.6197 2.79316 17.2078 3.74976 17.436L5.06253 14.7465C4.94124 14.561 3.99854 13.7942 3.84373 13.1135H3.74996C3.69724 13.3157 3.36125 13.5254 3.18828 13.6427C2.96093 13.7967 2.78149 13.8764 2.49791 13.9919C2.22146 14.1046 1.99467 14.2092 1.73428 14.3143C1.23104 14.5174 1.05104 14.7529 0.713187 14.448C0.458625 14.2183 0.605114 13.801 0.658815 13.4044C0.835047 12.1012 1.0466 10.2743 1.36911 9.08915C2.14478 6.24008 4.85424 4.65944 7.13667 7.00188C7.94059 7.82691 7.47452 7.44302 8.82634 7.62401C10.0355 7.78601 10.5236 7.97452 11.9062 7.97452C12.0596 7.97452 12.0504 7.86198 12.0908 7.73136L12.8029 5.435C13.0834 4.57214 13.3661 3.73362 13.7498 2.94727C14.4949 1.42049 15.2098 0.674615 16.702 0.352678C16.9553 0.298025 16.8033 0.355323 16.9894 0.214962C17.3541 -0.0603646 17.7803 -0.0749139 18.1416 0.192741C18.2867 0.300194 18.4201 0.408388 18.5693 0.52309L23.2439 4.13847C23.7163 4.49162 23.9778 5.10978 24 5.69657ZM10.4531 12.057H11.8125V14.0742H10.4531V12.057ZM4.35936 11.3365C4.35936 9.36342 5.79364 8.50284 7.49998 8.50284C7.67647 8.50284 7.58859 8.53443 7.78124 8.55088C7.78124 9.88974 7.66511 10.7167 8.63802 11.5633C8.80114 11.7053 9.24448 11.9547 9.51567 11.9609V14.1222C9.05359 14.1327 8.612 14.4651 8.37881 14.7345C8.08047 15.0792 6.77905 17.6518 6.46872 18.2527C6.16862 18.2271 4.90985 17.8818 4.68756 17.7724C4.76816 17.4176 6.18746 14.8368 6.18746 14.5545C6.18746 14.1008 5.53696 14.0324 4.99577 13.23C4.6667 12.7421 4.35942 12.1314 4.35942 11.3365H4.35936ZM12.2813 11.0483H9.98442C9.44767 11.0483 9.0729 10.7302 8.88856 10.346C8.68641 9.92503 8.76561 9.11164 8.76561 8.59887C9.37088 8.7433 10.7802 8.93509 11.3906 8.93509H12.4219C12.8597 8.93509 13.181 8.83901 13.5469 8.83901C13.5469 9.55478 13.6214 10.0788 13.2409 10.5907C13.0549 10.8408 12.6895 11.0483 12.2812 11.0483L12.2813 11.0483ZM1.64066 13.2577C1.88443 12.737 1.80755 9.12264 3.12791 7.72136C3.67215 7.14378 4.03835 6.86977 4.875 6.86977C5.38335 6.86977 6.17936 7.3389 6.3749 7.63824C5.21914 7.73681 3.92666 8.83695 3.58143 10.0591C3.34612 10.8923 3.42063 11.4442 3.36569 11.708C3.24967 12.2647 3.06605 12.5815 2.57702 12.8722C2.43827 12.9546 1.81328 13.2429 1.64066 13.2577V13.2577ZM17.0157 2.40308C17.0157 1.80544 17.224 1.2532 17.5782 1.0102C18.6748 1.76275 21.2342 3.82071 22.3995 4.71541C22.6954 4.94259 22.9238 5.09703 23.0155 5.52843C23.3567 7.13383 20.5976 5.83032 19.9691 6.19548C19.6727 6.36779 19.6077 6.97564 19.4589 7.45222C19.2733 8.04684 19.1261 8.6286 18.9538 9.24004C18.7794 9.85889 18.5923 10.4707 18.4316 11.0585L17.6929 13.7386C17.6917 13.9569 17.9281 14.3577 18.0311 14.5707C18.3064 15.1405 19.5209 17.4058 19.5469 17.7244L17.7657 18.2047C17.7237 18.0202 16.7228 16.1821 16.5154 15.7874C16.1351 15.0636 15.6978 14.0742 14.5313 14.0742H12.7969V11.961C13.0914 11.9359 13.4286 11.7154 13.6281 11.5638C13.8675 11.3816 14.0695 11.1483 14.2191 10.8725C14.5741 10.2176 14.4844 9.51839 14.4844 8.55093C15.8262 8.23058 16.0568 5.84947 16.6093 4.72446L16.9666 4.08191C17.1329 3.79648 17.297 3.65553 17.297 3.41174C17.297 3.16319 17.0157 2.89479 17.0157 2.40308H17.0157ZM16.125 1.58657C16.1147 2.05945 15.9458 2.4673 16.1802 3.16774C16.2587 3.40248 16.2727 3.35672 16.1432 3.57083L15.7024 4.37163C15.3099 5.18803 14.9951 6.6664 14.7475 7.09145C14.4603 7.58486 13.8184 7.87844 13.0781 7.87844L13.6114 6.0713C13.961 5.00598 14.3656 3.70135 14.9618 2.74819C15.1715 2.4127 15.7386 1.67878 16.125 1.58657ZM11.9062 7.97452L16.125 1.58657L11.9062 7.97452Z" fill="#7D6858"/>
<path fill-rule="evenodd" clip-rule="evenodd" d="M11.5312 21.4705C11.5312 22.184 12.4688 22.1686 12.4688 21.4705C12.4688 20.8686 11.5312 20.8643 11.5312 21.4705Z" fill="#7D6858"/>
<path fill-rule="evenodd" clip-rule="evenodd" d="M18.7031 4.08403C18.7031 4.72594 19.6407 4.80678 19.6407 4.03599C19.6407 3.47306 18.7031 3.44222 18.7031 4.08403Z" fill="#7D6858"/>
</svg>
