<svg xmlns="http://www.w3.org/2000/svg" width="32" height="29" viewBox="0 0 32 29" fill="none">
<path fill-rule="evenodd" clip-rule="evenodd" d="M17 24.8203C13.7071 24.8203 13.5557 24.8069 10.353 24.3976C9.78076 24.3246 9.83577 24.5277 10.667 22.9636L11.5633 21.2758C12.0321 20.363 12.1736 19.8188 13.5625 19.8188H18.6875C20.4138 19.8188 20.4543 20.557 21.3116 22.2254C21.4305 22.4568 21.5377 22.6134 21.6665 22.879C21.8161 23.1879 22.309 24.0005 22.3749 24.2505C22.0966 24.3858 20.2372 24.6002 19.8178 24.6359C18.9062 24.7134 18.0215 24.8203 16.9999 24.8203L17 24.8203ZM32 7.50943V7.72297C31.9772 8.30447 31.7667 8.84091 31.3512 9.15857C30.0512 10.1529 28.8555 9.43586 27.3751 9.43586C27.348 9.76489 27.1802 10.1962 27.0842 10.5342C26.9753 10.9176 26.8941 11.2371 26.7735 11.6122L24.9375 18.046L27.3125 22.8576C27.9287 22.8057 29.0645 21.9081 29.875 21.9081C31.0759 21.9081 32 22.817 32 23.8707C32 25.4674 31.0079 25.8334 29.7327 26.3856C28.6669 26.8471 27.6578 27.2281 26.4645 27.5702C24.3125 28.1868 23.0605 28.4041 20.8941 28.7017C20.3135 28.7815 19.5483 28.8722 18.8748 28.8722C18.4927 28.8722 18.1875 28.7076 18.1875 28.3023C18.1875 27.4497 18.7891 27.626 19.678 27.5331C22.7615 27.2109 26.9711 26.376 29.6663 24.9887C29.8997 24.8685 30.2065 24.7788 30.3877 24.6431C31.1023 24.1086 30.5887 23.2374 30.0624 23.2374C29.5972 23.2374 29.5227 23.3181 29.1461 23.5122C25.5841 25.3478 19.8311 26.1498 16 26.1498C13.7446 26.1498 10.4141 25.8293 8.36258 25.3394C6.70626 24.9438 5.09627 24.5032 3.54494 23.8251C3.08786 23.6253 2.41226 23.2374 2.06252 23.2374C1.52985 23.2374 1.24999 23.661 1.24999 23.9972C1.24999 24.6481 2.06176 24.8484 2.37502 25.0102C5.07995 26.4071 9.28472 27.207 12.3848 27.5325C13.0166 27.5988 13.8124 27.4899 13.8124 28.1756C13.8124 28.5629 13.6499 28.872 13.25 28.872C12.0953 28.872 10.2651 28.6094 9.14193 28.4116C7.90096 28.1932 6.7139 27.9089 5.53545 27.57C4.80856 27.361 1.45722 26.193 0.767026 25.626C0.189054 25.1514 0 24.6207 0 23.8705C0 22.8302 0.964686 21.908 2.00008 21.908C3.06211 21.908 3.72422 22.6832 4.99968 22.984L6.75005 19.4388C6.58832 19.1943 5.33138 18.1835 5.12498 17.2862H4.99995C4.92966 17.5528 4.48167 17.8292 4.25103 17.9838C3.9479 18.1869 3.70866 18.2918 3.33055 18.4441C2.96194 18.5927 2.65956 18.7305 2.31237 18.8691C1.64138 19.1369 1.40138 19.4473 0.950916 19.0454C0.6115 18.7425 0.806819 18.1925 0.87842 17.6697C1.1134 15.9519 1.39546 13.5436 1.82548 11.9814C2.8597 8.22587 6.47232 6.14231 9.51556 9.23006C10.5874 10.3176 9.96603 9.81155 11.7684 10.0501C13.3807 10.2637 14.0315 10.5122 15.875 10.5122C16.0795 10.5122 16.0672 10.3638 16.1211 10.1916L17.0705 7.16463C17.4445 6.02724 17.8215 4.92193 18.333 3.88538C19.3265 1.87282 20.2797 0.889625 22.2694 0.465256C22.607 0.393215 22.4044 0.468743 22.6525 0.283723C23.1388 -0.0792048 23.707 -0.0983833 24.1888 0.254432C24.3823 0.396074 24.5601 0.538693 24.759 0.689889L30.9919 5.45558C31.6217 5.9211 31.9705 6.73594 32 7.50943ZM13.9374 15.8936H15.7499V18.5526H13.9374V15.8936ZM5.81249 14.9439C5.81249 12.343 7.72485 11.2086 9.99997 11.2086C10.2353 11.2086 10.1181 11.2502 10.375 11.2719C10.375 13.0368 10.2201 14.1269 11.5174 15.2428C11.7349 15.43 12.326 15.7587 12.6876 15.7669V18.6158C12.0714 18.6298 11.4827 19.0679 11.1718 19.4229C10.774 19.8774 9.03873 23.2685 8.62496 24.0606C8.22482 24.0269 6.54646 23.5716 6.25008 23.4275C6.35755 22.9597 8.24995 19.5578 8.24995 19.1857C8.24995 18.5877 7.38261 18.4975 6.66103 17.4398C6.22226 16.7967 5.81255 15.9917 5.81255 14.9439H5.81249ZM16.375 14.564H13.3126C12.5969 14.564 12.0972 14.1446 11.8514 13.6382C11.5819 13.0833 11.6875 12.0111 11.6875 11.3352C12.4945 11.5256 14.3736 11.7784 15.1875 11.7784H16.5625C17.1462 11.7784 17.5747 11.6517 18.0625 11.6517C18.0625 12.5952 18.1619 13.2859 17.6545 13.9607C17.4065 14.2905 16.9194 14.5639 16.3749 14.5639L16.375 14.564ZM2.18755 17.4763C2.51257 16.7899 2.41006 12.0256 4.17055 10.1785C4.8962 9.4171 5.38446 9.05592 6.49999 9.05592C7.17779 9.05592 8.23914 9.6743 8.49986 10.0689C6.95886 10.1988 5.23555 11.649 4.77524 13.26C4.4615 14.3583 4.56085 15.0858 4.48759 15.4335C4.33289 16.1673 4.08807 16.585 3.43602 16.9682C3.25103 17.0768 2.4177 17.4568 2.18755 17.4763V17.4763ZM22.6875 3.16804C22.6875 2.38025 22.9653 1.6523 23.4376 1.33199C24.8998 2.32397 28.3122 5.03672 29.866 6.2161C30.2606 6.51556 30.5651 6.71913 30.6873 7.28779C31.1423 9.40399 27.4635 7.68573 26.6254 8.16708C26.2303 8.39422 26.1436 9.19547 25.9452 9.82368C25.6977 10.6075 25.5014 11.3744 25.2718 12.1803C25.0391 12.9961 24.7897 13.8026 24.5755 14.5774L23.5905 18.1102C23.5889 18.398 23.9041 18.9263 24.0415 19.2071C24.4085 19.9581 26.0279 22.9442 26.0625 23.3642L23.6876 23.9973C23.6316 23.7541 22.2971 21.3312 22.0205 20.8109C21.5135 19.8568 20.9303 18.5526 19.375 18.5526H17.0626V15.767C17.4552 15.734 17.9048 15.4433 18.1707 15.2434C18.49 15.0033 18.7594 14.6957 18.9588 14.3322C19.4321 13.4689 19.3125 12.5472 19.3125 11.272C21.1016 10.8497 21.4091 7.71098 22.1457 6.22802L22.6221 5.38103C22.8439 5.00478 23.0626 4.81899 23.0626 4.49763C23.0626 4.16999 22.6876 3.8162 22.6876 3.16804H22.6875ZM21.5 2.09174C21.4862 2.71507 21.2611 3.2527 21.5736 4.17599C21.6783 4.48543 21.6969 4.4251 21.5242 4.70734L20.9365 5.76293C20.4132 6.83909 19.9934 8.78784 19.6634 9.34813C19.2804 9.99852 18.4246 10.3855 17.4375 10.3855L18.1485 8.0034C18.6146 6.59911 19.1542 4.87939 19.949 3.62295C20.2287 3.18073 20.9848 2.21329 21.5 2.09174ZM15.875 10.5122L21.5 2.09174L15.875 10.5122Z" fill="white"/>
<path fill-rule="evenodd" clip-rule="evenodd" d="M15.375 28.3021C15.375 29.2426 16.6251 29.2223 16.6251 28.3021C16.6251 27.5087 15.375 27.5031 15.375 28.3021Z" fill="white"/>
<path fill-rule="evenodd" clip-rule="evenodd" d="M24.9375 5.3838C24.9375 6.22996 26.1876 6.33652 26.1876 5.32048C26.1876 4.57844 24.9375 4.53779 24.9375 5.3838Z" fill="white"/>
<deepl-alert xmlns=""/><deepl-alert xmlns=""/><deepl-alert xmlns=""/></svg>