<svg xmlns="http://www.w3.org/2000/svg" width="23" height="33" viewBox="0 0 23 33" fill="none">
<path fill-rule="evenodd" clip-rule="evenodd" d="M14.4759 0H20.4037C21.8692 0.0347014 22.8161 1.23394 22.391 2.57403C22.2605 2.98534 22.0654 3.22927 21.7635 3.49667C21.0918 4.0917 20.3 3.99576 19.0881 3.99576C18.0293 3.99576 16.9694 3.99576 15.9106 3.99576C16.0564 4.27031 16.2341 4.42136 16.3656 4.70408C16.4703 4.92964 16.573 5.294 16.609 5.55835C16.7866 6.85557 16.0503 7.87007 15.0048 8.38141C14.2479 8.75189 13.835 8.57226 13.1213 8.57226C13.1315 9.04073 13.2825 9.40408 13.1172 9.92153C12.8542 10.7411 12.3479 10.8074 12.3387 11.4035L12.3438 13.5999C12.9949 13.9418 13.606 14.3225 14.0682 14.9155C14.5827 15.5738 14.8425 16.0024 15.1065 16.9128C15.2585 17.4374 15.1886 17.8733 15.2759 18.2917C15.4002 18.8888 17.2827 20.6269 16.2372 21.1454C15.7319 21.3954 15.4033 21.0505 15.2163 20.7361C14.8487 20.1166 14.3732 19.5042 14.0404 18.8745C13.9377 18.6806 13.8987 18.5346 13.9151 18.2611C13.9963 16.9292 13.2075 15.5636 12.085 14.9522C11.5233 14.647 11.6978 14.6889 10.9872 14.8308C10.1337 15.0012 9.31007 15.1359 8.4248 15.3135C7.99346 15.4003 7.58985 15.4176 7.2992 15.7412L5.20926 18.1764C5.00283 18.4438 4.74711 18.6969 4.51501 18.9694L3.47466 20.1911C3.32472 20.3564 3.27029 20.4452 3.15321 20.6453C2.40144 21.9241 2.62738 23.0356 3.1984 24.1716C3.86389 25.4933 4.51604 26.865 5.20926 28.1673C5.64368 27.9601 6.40982 27.556 6.83089 27.458L4.98846 22.4569C4.78922 21.9109 4.91451 21.5924 5.33866 21.2699L8.12799 19.0143C8.3488 18.8429 8.54598 18.6683 8.76781 18.4897C8.93316 18.356 9.21764 18.1029 9.41688 18.0325C9.72806 17.9233 10.0043 18.107 10.1861 18.3234L16.6521 26.5282C16.839 26.764 16.9746 26.9518 17.1625 27.1804C17.6647 27.7917 18.1936 28.4153 18.6342 29.0696C18.9659 28.8491 19.5688 28.3276 19.9313 28.2316C19.8841 28.0561 19.5205 27.5202 19.3993 27.3427C19.2042 27.0559 19.0306 26.7762 18.8499 26.471C18.6208 26.0852 18.0735 25.3984 18.5541 24.9942C19.1005 24.5339 19.4979 25.0391 19.7885 25.4729L21.3948 28.001C21.7645 28.6011 22.1014 29.1165 22.4721 29.7013C22.8264 30.2596 23.2413 30.9567 22.8285 31.8212C22.5183 32.4693 22.0058 32.9388 21.2243 33.001L21.213 33.002H20.8402C20.1131 32.9428 19.6746 32.5356 19.3449 32.1008C18.5377 31.0394 17.6791 30.0259 16.8729 28.9501L11.3404 21.9435C11.0272 21.5302 9.79995 19.8676 9.48774 19.6594C8.80787 20.0166 7.11024 21.6404 6.3102 22.1732C6.63474 22.8468 8.37242 27.8999 8.86641 29.1716C9.18375 29.9881 9.59968 30.7863 9.30288 31.6579C9.03073 32.454 8.38474 32.9132 7.6833 33.002H7.18213C6.53306 32.9204 5.90146 32.5223 5.53174 31.7783L2.3542 25.4616C1.49563 23.7551 0.870187 22.4681 1.70616 20.5636C2.17242 19.5001 3.02072 18.7061 3.76119 17.8365L5.9374 15.2941C6.34923 14.8348 6.4088 14.795 6.30096 14.1908C5.92508 12.0842 6.37696 12.2108 5.36228 11.9648C4.13091 11.6658 3.00429 11.1463 1.8253 10.7105C1.19164 10.4768 0.747974 10.3165 0.359768 9.78171C0.224204 9.59595 0.187232 9.50308 0.105072 9.26119C-0.234865 8.26199 0.316634 7.41385 0.859917 7.02397C1.67638 6.44017 2.40452 6.66573 3.31855 6.96988L5.13737 7.5547C5.39617 7.64757 5.47936 7.76495 5.53379 7.42099C5.6673 6.57591 6.04627 5.91148 6.69944 5.41546C7.14618 5.07661 7.48509 4.59691 7.88254 4.20601C9.83589 2.28723 10.9502 0.564408 14.0086 0.0459283C14.1185 0.027557 14.2787 0.0122475 14.4759 0.00102063V0ZM7.4132 12.3108C8.5316 12.3108 9.26694 12.2659 10.3093 11.9659C10.4398 11.9281 10.5671 11.8995 10.6637 11.8669C10.8485 11.8056 10.8557 11.774 11.0447 11.7301C11.0447 12.0312 11.0436 12.3323 11.0457 12.6333C11.0478 13.0181 10.9861 13.1835 10.98 13.4703L7.6073 14.1153C7.6073 13.4539 7.4132 12.9712 7.4132 12.3108V12.3108ZM2.02967 7.99255C2.52982 7.99255 5.11067 9.13157 7.2304 9.33978C7.52206 9.36835 8.38372 9.23771 8.6723 9.18056C9.18272 9.07849 9.4898 8.98154 9.91497 8.80497C10.1912 8.69066 11.1012 8.05582 11.6414 8.68964C12.0378 9.15504 11.9022 9.796 11.4093 10.0961C10.3669 10.7319 9.0451 10.9585 7.73671 10.9585C5.81724 10.9585 4.35172 10.2073 2.76706 9.64494C2.44458 9.53063 2.09745 9.41224 1.82427 9.29283C1.52644 9.16321 1.30872 8.93561 1.34671 8.59063C1.38471 8.24464 1.65687 7.99357 2.0307 7.99357L2.02967 7.99255ZM7.4779 7.99255H6.82884C6.82884 7.41079 6.9377 6.98621 7.36185 6.58816C7.64017 6.32688 8.05816 6.12377 8.5809 6.12377H11.1104C11.1104 6.50345 11.2377 6.84332 11.3702 7.09031C10.1635 7.09031 10.2672 7.20462 9.44358 7.56082C8.94343 7.77719 8.16394 7.99255 7.47893 7.99255H7.4779ZM12.4065 5.86556C12.4065 4.02842 15.2605 4.04679 15.2605 5.73696V6.12377C15.2605 6.60347 14.5755 7.28423 14.0928 7.28423H13.7036C12.9878 7.28423 12.4065 6.58 12.4065 5.86658V5.86556ZM11.3035 4.83472C10.828 4.83472 10.3504 4.83064 9.87492 4.83574C8.96911 4.84595 9.03586 4.96332 10.2806 3.62527C10.526 3.36093 10.7694 3.14354 11.0272 2.8843C11.9536 1.95246 13.4088 1.28905 15.2595 1.28905H20.3185C21.3937 1.28905 21.5006 2.64445 20.3226 2.64649L15.5193 2.64241C13.5824 2.64241 13.5495 2.69752 12.4445 3.51811C12.2267 3.68039 12.1641 3.68957 11.9669 3.88145C11.741 4.10293 11.3815 4.50199 11.3035 4.8337V4.83472ZM5.79054 29.3268C6.08632 29.3023 6.26399 29.141 6.53101 29.0318C6.83089 28.9083 7.02602 28.8164 7.28175 28.6827L7.68946 29.8238C7.90719 30.3709 8.48025 31.6426 7.40293 31.6926C6.97057 31.713 6.83397 31.4119 6.67582 31.0894C6.37799 30.4852 6.09556 29.9014 5.78952 29.3278L5.79054 29.3268ZM19.4753 30.1004L20.643 29.3268C20.8823 29.6819 21.1308 30.0606 21.3537 30.425C21.4379 30.5638 21.632 30.8363 21.6515 31.02C21.6741 31.2384 21.5344 31.4823 21.3578 31.5854C20.7139 31.961 20.3626 31.2119 19.8748 30.6056C19.7382 30.4362 19.5944 30.2739 19.4763 30.0994L19.4753 30.1004Z" fill="white"/>
<path fill-rule="evenodd" clip-rule="evenodd" d="M17.2692 22.4559C17.6174 22.4559 17.8998 22.7366 17.8998 23.0826C17.8998 23.4286 17.6174 23.7093 17.2692 23.7093C16.9211 23.7093 16.6387 23.4286 16.6387 23.0826C16.6387 22.7366 16.9211 22.4559 17.2692 22.4559Z" fill="white"/>
<deepl-alert xmlns=""/><deepl-alert xmlns=""/><deepl-alert xmlns=""/></svg>