<svg width="1110" height="584" viewBox="0 0 1110 584" fill="none" xmlns="http://www.w3.org/2000/svg">
<rect x="0.5" y="0.5" width="1109" height="583" fill="#F6F3EE" stroke="#B8ADA0"/>
<rect x="773" y="522" width="135" height="60" fill="#B8ADA0"/>
<path d="M823.27 556.964H824.278C824.493 556.759 824.679 556.511 824.838 556.222C824.997 555.923 825.127 555.545 825.23 555.088C825.333 554.631 825.407 554.066 825.454 553.394C825.501 552.722 825.524 551.901 825.524 550.93V548.228H831.404V558H830.228V549.264H826.644V551.014C826.644 552.022 826.611 552.885 826.546 553.604C826.49 554.313 826.406 554.92 826.294 555.424C826.182 555.919 826.042 556.325 825.874 556.642C825.706 556.95 825.515 557.211 825.3 557.426C825.104 557.622 824.885 557.767 824.642 557.86C824.399 557.953 824.11 558 823.774 558H823.27V556.964ZM833.89 550.776H834.982V554.78L834.87 556.516H834.926L835.822 554.976L838.706 550.776H839.742V558H838.65V553.996L838.762 552.26H838.706L837.81 553.8L834.926 558H833.89V550.776ZM845.621 557.244H845.579C845.392 557.524 845.177 557.748 844.935 557.916C844.692 558.084 844.393 558.168 844.039 558.168C843.227 558.168 842.625 557.865 842.233 557.258C841.841 556.642 841.645 555.685 841.645 554.388C841.645 553.091 841.841 552.139 842.233 551.532C842.625 550.916 843.227 550.608 844.039 550.608C844.393 550.608 844.692 550.692 844.935 550.86C845.177 551.028 845.392 551.252 845.579 551.532H845.621V548.06H846.741V551.532H846.783C846.969 551.252 847.184 551.028 847.427 550.86C847.669 550.692 847.968 550.608 848.323 550.608C849.135 550.608 849.737 550.916 850.129 551.532C850.521 552.139 850.717 553.091 850.717 554.388C850.717 555.685 850.521 556.642 850.129 557.258C849.737 557.865 849.135 558.168 848.323 558.168C847.968 558.168 847.669 558.084 847.427 557.916C847.184 557.748 846.969 557.524 846.783 557.244H846.741V560.8H845.621V557.244ZM844.333 557.174C845.201 557.174 845.635 556.847 845.635 556.194V552.582C845.635 551.929 845.201 551.602 844.333 551.602C843.81 551.602 843.432 551.77 843.199 552.106C842.965 552.433 842.849 552.988 842.849 553.772V555.004C842.849 555.788 842.965 556.348 843.199 556.684C843.432 557.011 843.81 557.174 844.333 557.174ZM848.029 557.174C848.542 557.174 848.915 557.011 849.149 556.684C849.391 556.348 849.513 555.788 849.513 555.004V553.772C849.513 552.988 849.391 552.433 849.149 552.106C848.915 551.77 848.542 551.602 848.029 551.602C847.161 551.602 846.727 551.929 846.727 552.582V556.194C846.727 556.847 847.161 557.174 848.029 557.174ZM854.011 551.756H851.547V550.776H857.595V551.756H855.131V558H854.011V551.756Z" fill="white"/>
<line x1="380.5" y1="190" x2="380.5" y2="583" stroke="#B8ADA0"/>
<path d="M446.792 161.792L380 189.459L313.208 161.792L285.541 95L313.208 28.2075L380 0.54119L446.792 28.2075L474.459 95L446.792 161.792Z" stroke="#B8ADA0"/>
</svg>
