<svg width="25" height="25" viewBox="0 0 25 25" fill="none" xmlns="http://www.w3.org/2000/svg">
<path fill-rule="evenodd" clip-rule="evenodd" d="M12.4999 0.333374C12.7761 0.333374 12.9999 0.557232 12.9999 0.833374V4.16671C12.9999 4.44285 12.7761 4.66671 12.4999 4.66671C12.2238 4.66671 11.9999 4.44285 11.9999 4.16671V0.833374C11.9999 0.557232 12.2238 0.333374 12.4999 0.333374ZM3.89679 3.89691C4.09205 3.70165 4.40863 3.70165 4.60389 3.89691L6.96092 6.25393C7.15618 6.44919 7.15618 6.76578 6.96092 6.96104C6.76565 7.1563 6.44907 7.1563 6.25381 6.96104L3.89679 4.60401C3.70152 4.40875 3.70152 4.09217 3.89679 3.89691ZM0.833252 12C0.55711 12 0.333252 12.2239 0.333252 12.5C0.333252 12.7762 0.55711 13 0.833252 13H4.16659C4.44273 13 4.66658 12.7762 4.66658 12.5C4.66658 12.2239 4.44273 12 4.16659 12H0.833252ZM3.89679 21.1032C3.70152 20.9079 3.70152 20.5913 3.89679 20.3961L6.25381 18.039C6.44907 17.8438 6.76565 17.8438 6.96092 18.039C7.15618 18.2343 7.15618 18.5509 6.96092 18.7462L4.60389 21.1032C4.40863 21.2984 4.09205 21.2984 3.89679 21.1032ZM20.8333 12C20.5571 12 20.3333 12.2239 20.3333 12.5C20.3333 12.7762 20.5571 13 20.8333 13H24.1666C24.4427 13 24.6666 12.7762 24.6666 12.5C24.6666 12.2239 24.4427 12 24.1666 12H20.8333ZM18.0389 6.96104C17.8437 6.76578 17.8437 6.44919 18.0389 6.25393L20.3959 3.89691C20.5912 3.70165 20.9078 3.70165 21.1031 3.89691C21.2983 4.09217 21.2983 4.40875 21.1031 4.60401L18.746 6.96104C18.5508 7.1563 18.2342 7.1563 18.0389 6.96104ZM12.9999 20.8334C12.9999 20.5572 12.7761 20.3334 12.4999 20.3334C12.2238 20.3334 11.9999 20.5572 11.9999 20.8334V24.1667C11.9999 24.4428 12.2238 24.6667 12.4999 24.6667C12.7761 24.6667 12.9999 24.4428 12.9999 24.1667V20.8334ZM18.0389 18.039C18.2342 17.8438 18.5508 17.8438 18.746 18.039L21.1031 20.3961C21.2983 20.5913 21.2983 20.9079 21.1031 21.1032C20.9078 21.2984 20.5912 21.2984 20.3959 21.1032L18.0389 18.7462C17.8437 18.5509 17.8437 18.2343 18.0389 18.039ZM8.83325 12.5C8.83325 10.475 10.4749 8.83337 12.4999 8.83337C14.525 8.83337 16.1666 10.475 16.1666 12.5C16.1666 14.5251 14.525 16.1667 12.4999 16.1667C10.4749 16.1667 8.83325 14.5251 8.83325 12.5ZM12.4999 7.83337C9.92259 7.83337 7.83325 9.92271 7.83325 12.5C7.83325 15.0774 9.92259 17.1667 12.4999 17.1667C15.0772 17.1667 17.1666 15.0774 17.1666 12.5C17.1666 9.92271 15.0772 7.83337 12.4999 7.83337Z" fill="white"/>
</svg>
