<svg width="21" height="20" viewBox="0 0 21 20" fill="none" xmlns="http://www.w3.org/2000/svg">
<path d="M10.253 19.253C9.0711 19.253 7.90078 19.0202 6.80885 18.5679C5.71692 18.1156 4.72477 17.4527 3.88904 16.617C3.05331 15.7812 2.39038 14.7891 1.93808 13.6972C1.48579 12.6052 1.253 11.4349 1.253 10.253C1.253 9.0711 1.48579 7.90078 1.93808 6.80885C2.39038 5.71692 3.05331 4.72477 3.88904 3.88904C4.72477 3.05331 5.71692 2.39038 6.80885 1.93808C7.90078 1.48579 9.0711 1.253 10.253 1.253C12.6399 1.253 14.9291 2.20121 16.617 3.88904C18.3048 5.57687 19.253 7.86605 19.253 10.253C19.253 12.6399 18.3048 14.9291 16.617 16.617C14.9291 18.3048 12.6399 19.253 10.253 19.253ZM11.253 10.253V5.253H9.253V12.253H14.253V10.253H11.253ZM0 3.535L3.535 0L4.95 1.414L1.413 4.95L0 3.535ZM16.97 0L20.506 3.535L19.092 4.95L15.556 1.414L16.971 0H16.97Z" fill="white"/>
</svg>
