<svg width="158" height="144" viewBox="0 0 158 144" fill="none" xmlns="http://www.w3.org/2000/svg">
<path d="M22.8576 71.133C22.6733 72.8967 21.9332 74.2069 20.6372 75.0635C19.3279 75.9188 17.5063 76.2245 15.1723 75.9806C12.8383 75.7368 11.0993 75.0591 9.9553 73.9476C8.79801 72.8346 8.3115 71.3963 8.49576 69.6325C8.61767 68.4656 8.98472 67.5186 9.59691 66.7916C10.2105 66.0513 11.0242 65.513 12.0379 65.1765L12.7122 66.6143C11.967 66.818 11.3524 67.1828 10.8685 67.7087C10.3713 68.2332 10.0777 68.9264 9.98764 69.7884C9.92529 70.3852 9.9819 70.934 10.1575 71.435C10.3344 71.9227 10.6178 72.3544 11.0075 72.7303C11.3853 73.0915 11.857 73.3888 12.4225 73.6222C12.9747 73.8541 13.6088 74.0075 14.325 74.0823L16.3937 74.2984C17.8259 74.4481 18.9811 74.2336 19.8593 73.6551C20.7375 73.0765 21.2396 72.1839 21.3657 70.9771C21.4585 70.0886 21.3107 69.3224 20.9221 68.6786C20.5203 68.0333 19.9561 67.532 19.2293 67.1745L20.2039 65.9291C21.1396 66.4692 21.8495 67.1801 22.3339 68.0619C22.8049 68.9423 22.9795 69.966 22.8576 71.133Z" fill="#7D6858"/>
<path d="M16.021 50.6002L15.9873 50.6944L17.7923 52.5943L22.39 57.7889L15.5398 58.8831L12.939 59.2049L12.9053 59.2991L23.9765 63.2646L23.4235 64.8085L10.2811 60.1012L11.0364 57.9924L19.4648 56.7624L19.4985 56.6683L13.7745 50.3479L14.5029 48.3144L27.6453 53.0218L27.0923 54.5657L16.021 50.6002Z" fill="#7D6858"/>
<path d="M32.0823 46.5225C31.5761 47.2747 30.9911 47.8694 30.3272 48.3066C29.6598 48.7253 28.932 48.9829 28.1439 49.0793C27.3522 49.1572 26.5076 49.063 25.6101 48.7966C24.7016 48.5227 23.7606 48.0582 22.7871 47.4031C21.8137 46.7481 21.0345 46.055 20.4497 45.324C19.8649 44.593 19.4595 43.8461 19.2335 43.0833C19.015 42.3095 18.9795 41.5383 19.127 40.7697C19.2709 39.9826 19.596 39.213 20.1022 38.4608C20.6009 37.7196 21.1877 37.1342 21.8626 36.7044C22.5264 36.2672 23.2542 36.0097 24.0459 35.9317C24.8451 35.8427 25.6934 35.9315 26.5909 36.1979C27.4884 36.4643 28.4238 36.9251 29.3973 37.5801C30.3707 38.2352 31.1554 38.932 31.7513 39.6704C32.3361 40.4015 32.7378 41.1539 32.9563 41.9278C33.1713 42.6831 33.2068 43.4543 33.0628 44.2413C32.9079 45.0209 32.581 45.7813 32.0823 46.5225ZM30.8378 45.6851C31.1728 45.1873 31.3932 44.6686 31.4991 44.1292C31.6049 43.5897 31.5924 43.059 31.4616 42.537C31.3381 42.004 31.0999 41.4982 30.747 41.0196C30.3941 40.541 29.93 40.1082 29.3547 39.7211L27.43 38.4259C26.8547 38.0388 26.279 37.7719 25.7027 37.6252C25.1265 37.4785 24.5682 37.4483 24.0279 37.5348C23.4951 37.6101 22.9987 37.7984 22.5389 38.0997C22.079 38.4009 21.6816 38.8004 21.3466 39.2982C21.0117 39.796 20.7912 40.3146 20.6854 40.8541C20.5795 41.3936 20.5883 41.9298 20.7117 42.4629C20.8426 42.9848 21.0845 43.4851 21.4374 43.9637C21.7904 44.4423 22.2544 44.8751 22.8297 45.2622L24.7544 46.5574C25.3297 46.9445 25.9054 47.2114 26.4817 47.3581C27.0579 47.5048 27.6125 47.5405 28.1453 47.4651C28.6856 47.3787 29.1857 47.1849 29.6455 46.8836C30.1054 46.5824 30.5028 46.1828 30.8378 45.6851Z" fill="#7D6858"/>
<path d="M31.4069 27.7527L40.0372 36.7676L38.8236 37.9294L30.1934 28.9144L26.9861 31.9848L25.9627 30.9157L33.5907 23.6132L34.6142 24.6823L31.4069 27.7527Z" fill="#7D6858"/>
<path d="M45.2119 32.2424L37.7179 20.4644L42.4089 17.4797C43.4663 16.8069 44.4695 16.5953 45.4185 16.8449C46.3715 17.0761 47.1809 17.7147 47.8466 18.7609C48.5122 19.8071 48.7514 20.8164 48.5642 21.7889C48.3811 22.743 47.7608 23.5565 46.7034 24.2293L43.4299 26.3122L46.6293 31.3406L45.2119 32.2424ZM42.6354 25.0635L45.9089 22.9806C46.4714 22.6227 46.8114 22.2009 46.9291 21.7152C47.0579 21.2223 46.9506 20.7059 46.607 20.1659L46.0488 19.2885C45.7052 18.7485 45.2829 18.4325 44.7818 18.3404C44.292 18.2412 43.7658 18.3705 43.2034 18.7284L39.9298 20.8112L42.6354 25.0635Z" fill="#7D6858"/>
<path d="M54.7734 26.4898L49.7712 13.4567L57.7255 10.4038L58.2558 11.7856L51.87 14.2365L53.5469 18.6057L59.5593 16.2981L60.0896 17.6799L54.0772 19.9875L55.8115 24.5061L62.1973 22.0552L62.7276 23.4369L54.7734 26.4898Z" fill="#7D6858"/>
<path d="M68.218 9.57049L70.2742 21.8799L68.6172 22.1567L66.5609 9.84729L62.1816 10.5788L61.9378 9.11905L72.3535 7.37918L72.5973 8.83895L68.218 9.57049Z" fill="#7D6858"/>
<path d="M78.6745 7.12787L80.3527 7.20564L80.0934 12.7996L84.4488 13.0015C85.7008 13.0595 86.6428 13.4702 87.2748 14.2336C87.9207 14.9843 88.2128 16.0256 88.1511 17.3575C88.0894 18.6894 87.7019 19.7059 86.9887 20.407C86.2894 21.0953 85.3138 21.4105 84.0618 21.3525L78.0283 21.0729L78.6745 7.12787ZM84.1303 19.8741C84.7962 19.9049 85.3174 19.7489 85.6936 19.406C86.0832 19.0636 86.295 18.5262 86.329 17.7936L86.3771 16.7548C86.411 16.0222 86.2499 15.4675 85.8936 15.0906C85.5507 14.7143 85.0462 14.5107 84.3803 14.4799L80.0249 14.278L79.775 19.6723L84.1303 19.8741Z" fill="#7D6858"/>
<path d="M111.707 14.9293L116.628 17.8851C117.622 18.4824 118.231 19.2293 118.455 20.1258C118.69 21.0292 118.526 21.9495 117.963 22.8867C117.695 23.3325 117.406 23.6719 117.094 23.9049C116.783 24.138 116.469 24.2991 116.151 24.3881C115.84 24.4657 115.539 24.4872 115.249 24.4528C114.965 24.4069 114.716 24.3427 114.501 24.2603L114.439 24.3632C114.65 24.5051 114.855 24.7064 115.057 24.9672C115.269 25.2348 115.427 25.555 115.529 25.9278C115.639 26.2892 115.667 26.6951 115.614 27.1455C115.58 27.5914 115.415 28.06 115.12 28.5515C114.825 29.043 114.47 29.4521 114.056 29.7789C113.653 30.1125 113.222 30.3513 112.762 30.4951C112.303 30.6389 111.829 30.689 111.342 30.6453C110.862 30.5901 110.399 30.4287 109.953 30.1609L104.519 26.8962L111.707 14.9293ZM106.721 26.4926L110.27 28.6244C110.887 28.9952 111.465 29.1327 112.005 29.0369C112.552 28.9298 113.007 28.5733 113.371 27.9675L113.721 27.3846C114.085 26.7788 114.182 26.2152 114.013 25.6938C113.851 25.1609 113.462 24.7091 112.845 24.3383L109.296 22.2065L106.721 26.4926ZM110.037 20.972L113.346 22.9597C113.917 23.303 114.449 23.4279 114.941 23.3344C115.432 23.2409 115.84 22.9256 116.162 22.3884L116.512 21.8055C116.835 21.2683 116.922 20.7607 116.774 20.2827C116.626 19.8047 116.266 19.3941 115.694 19.0508L112.385 17.0631L110.037 20.972Z" fill="#7D6858"/>
<path d="M124.5 23.326L125.685 24.4601L119.627 30.7879L117.534 32.7432L117.577 32.7846L120.331 31.9325L130.929 29.4805L132.027 30.5317L122.374 40.6157L121.189 39.4816L127.247 33.1538L129.34 31.1985L129.297 31.157L126.543 32.0092L115.945 34.4611L114.847 33.41L124.5 23.326Z" fill="#7D6858"/>
<path d="M124.93 41.1631L125.719 42.392C126.761 42.4364 127.93 42.2332 129.225 41.7827C130.52 41.3322 132.037 40.549 133.777 39.4332L137.228 37.2196L141.763 44.29L131.258 51.0281L132.316 52.6779L128.546 55.0967L127.714 53.8004L130.239 52.1807L124.516 43.2585L121.991 44.8782L121.16 43.5819L124.93 41.1631ZM130.351 49.614L139.61 43.675L136.846 39.3654L134.539 40.8448C132.755 41.9894 131.237 42.7966 129.986 43.2664C128.754 43.7402 127.712 43.9807 126.861 43.9878L126.777 44.0418L130.351 49.614Z" fill="#7D6858"/>
<path d="M131.292 54.6023L144.417 49.8456L147.32 57.8557L145.928 58.36L143.598 51.9293L139.198 53.524L141.392 59.5786L140.001 60.0829L137.806 54.0283L133.256 55.6774L135.587 62.1081L134.195 62.6124L131.292 54.6023Z" fill="#7D6858"/>
<path d="M135.469 70.7084C135.35 69.8095 135.395 68.9765 135.603 68.2094C135.826 67.4538 136.202 66.779 136.728 66.1851C137.27 65.6026 137.966 65.1143 138.815 64.72C139.677 64.3239 140.69 64.0493 141.853 63.896C143.017 63.7428 144.059 63.7466 144.982 63.9075C145.904 64.0684 146.702 64.36 147.376 64.7822C148.052 65.2176 148.59 65.7722 148.988 66.446C149.401 67.1312 149.666 67.9233 149.785 68.8222C149.902 69.7079 149.849 70.5351 149.628 71.304C149.419 72.0711 149.044 72.7459 148.502 73.3283C147.962 73.924 147.268 74.419 146.419 74.8132C145.569 75.2075 144.563 75.4813 143.4 75.6346C142.237 75.7879 141.187 75.7849 140.252 75.6257C139.33 75.4648 138.53 75.1667 137.854 74.7312C137.193 74.3073 136.656 73.7527 136.243 73.0674C135.843 72.3804 135.585 71.5941 135.469 70.7084ZM136.956 70.5125C137.034 71.1073 137.212 71.642 137.49 72.1165C137.767 72.5909 138.128 72.9805 138.572 73.2851C139.017 73.603 139.53 73.8245 140.112 73.9497C140.693 74.0748 141.327 74.0921 142.015 74.0015L144.315 73.6985C145.002 73.6079 145.611 73.4269 146.14 73.1555C146.669 72.884 147.107 72.5371 147.455 72.1148C147.804 71.7056 148.052 71.2359 148.197 70.7057C148.343 70.1755 148.376 69.613 148.298 69.0181C148.219 68.4233 148.041 67.8886 147.764 67.4142C147.486 66.9397 147.124 66.5435 146.679 66.2256C146.235 65.921 145.723 65.7061 145.142 65.5809C144.56 65.4558 143.926 65.4385 143.239 65.5291L140.938 65.8321C140.251 65.9227 139.643 66.1037 139.114 66.3751C138.585 66.6466 138.145 66.9869 137.796 67.396C137.448 67.8184 137.201 68.2947 137.056 68.8249C136.911 69.3551 136.877 69.9176 136.956 70.5125Z" fill="#7D6858"/>
<path d="M79 47.0001L79.7625 58.2192C80.2372 65.203 85.7971 70.763 92.781 71.2376L104 72.0001L92.781 72.7626C85.7971 73.2373 80.2372 78.7972 79.7625 85.7811L79 97.0001L78.2375 85.7811C77.7628 78.7972 72.2029 73.2373 65.219 72.7626L54 72.0001L65.219 71.2376C72.2029 70.763 77.7628 65.203 78.2375 58.2192L79 47.0001Z" fill="#CFC8BE"/>
</svg>
