<svg width="25" height="18" viewBox="0 0 25 18" fill="none" xmlns="http://www.w3.org/2000/svg">
<g clip-path="url(#clip0_377_204)">
<path fill-rule="evenodd" clip-rule="evenodd" d="M22.256 12.1699V10.1803H23.3535V12.1699C23.3535 12.4891 23.1348 12.7005 22.8048 12.7005C22.4746 12.7005 22.2559 12.4891 22.2559 12.1699H22.256ZM20.6096 12.1699V10.1803H21.7072V12.1699C21.7072 12.4891 21.4885 12.7005 21.1583 12.7005C20.8282 12.7005 20.6096 12.4891 20.6096 12.1699H20.6096ZM20.8841 1.59192C20.8841 0.745119 22.0083 0.140086 22.7458 0.853082C22.8455 0.949452 22.9214 1.03918 22.9726 1.16432C23.1496 1.5959 23.0815 2.00616 22.7458 2.33075C22.6461 2.42712 22.5532 2.5004 22.4238 2.55004C21.9794 2.7203 21.547 2.65137 21.2173 2.33075C21.0214 2.14032 20.884 1.8436 20.884 1.59192H20.8841ZM20.3352 1.52555C20.3352 1.90988 20.3538 1.99545 20.5177 2.31084C20.5685 2.40854 20.6069 2.48066 20.6723 2.55925C20.748 2.65013 20.8169 2.68871 20.8842 2.7857C20.5352 2.81375 20.1239 3.09313 19.9641 3.32206C19.8429 3.49604 19.7787 3.60064 19.7261 3.82144C19.6365 4.19771 19.4527 4.70885 19.9238 4.70885C20.1833 4.70885 20.1885 4.3647 20.2347 4.14727C20.3042 3.82029 20.3106 3.74551 20.5315 3.53879C20.9941 3.10596 22.9035 3.028 23.4664 3.57197C23.6635 3.76241 23.6784 3.88966 23.7403 4.20249C23.789 4.44859 23.8443 4.74204 23.894 4.98239L24.4388 7.67358C24.4596 7.95667 24.1888 7.92534 24.0741 7.92534C23.8712 7.92534 23.7541 6.92165 23.6884 6.60705C23.6429 6.38962 23.5956 6.15989 23.5453 5.91627C23.4819 5.6091 23.499 5.37194 23.1823 5.37194C22.7581 5.37194 22.9689 5.95051 23.0364 6.27555L23.4881 8.49171C23.5337 8.71232 23.6968 9.4293 23.6968 9.61638H20.2668C20.2668 9.41479 20.9408 6.19184 21.0329 5.74423C21.073 5.54919 21.0098 5.37194 20.747 5.37194C20.473 5.37194 20.4735 5.64839 20.424 5.88866L20.1381 7.3035C20.0042 7.95083 20.0711 7.92526 19.718 7.92526C19.2862 7.92526 19.7522 6.94731 19.7522 6.49935C19.7522 6.38378 19.5974 6.23405 19.4778 6.23405C19.1644 6.23405 19.154 6.59041 19.1099 6.84005C19.0394 7.2389 18.9634 7.36739 18.9634 7.7926C18.9634 8.21817 19.3781 8.48896 19.8894 8.48896C19.8703 9.31674 19.1817 10.1801 20.0609 10.1801V12.2692C20.0609 12.7292 20.3942 13.0585 20.7615 13.1836C21.354 13.3853 21.6707 13.1337 21.9817 12.9325C22.1141 13.0183 22.2102 13.141 22.4872 13.2065C23.2522 13.3873 23.9025 12.8768 23.9025 12.3355V10.1802C24.0582 10.1802 24.1326 10.1972 24.2387 10.1073C24.451 9.92743 24.3027 9.64443 24.2139 9.21576C24.1738 9.02143 24.0782 8.67586 24.0739 8.48905C24.6278 8.48905 25 8.23083 25 7.69314C25 7.43615 24.5089 5.13681 24.4484 4.84416C24.2879 4.06842 24.2864 3.45348 23.7073 3.04039C23.5616 2.93641 23.2939 2.80269 23.0792 2.78544C23.2691 2.51119 23.628 2.35704 23.628 1.52537C23.628 0.729456 22.9088 0 21.9131 0C21.1028 0 20.3353 0.742022 20.3353 1.52537L20.3352 1.52555Z" fill="white"/>
<path fill-rule="evenodd" clip-rule="evenodd" d="M19.4092 5.40523C19.4092 5.5593 19.41 5.73691 19.6836 5.73691C20.0517 5.73691 20.0517 5.2063 19.6836 5.2063C19.5582 5.2063 19.4092 5.2978 19.4092 5.40523Z" fill="white"/>
<path fill-rule="evenodd" clip-rule="evenodd" d="M21.167 17.1884H1.45834C1.03417 17.1884 0.467289 16.4896 1.30768 15.9319L3.31478 14.6682C3.53638 14.526 3.75616 14.383 3.97713 14.2405L5.31172 13.3946C5.54403 13.2449 5.74706 13.1291 5.9834 12.9761L11.3126 9.62665C11.4159 9.62665 14.3451 11.4956 14.6268 11.6772L21.3002 15.8634C22.303 16.4986 21.5161 17.1883 21.167 17.1883V17.1884ZM22.6252 16.4487V16.6599C22.5699 17.3868 21.9564 18 21.2111 18H1.36983C0.642762 18 0 17.2946 0 16.7184C0 15.8348 0.263073 15.5804 0.96332 15.1292L5.21432 12.4462C5.68207 12.1447 6.16126 11.8509 6.62845 11.5491C6.86892 11.3937 7.10023 11.2595 7.35332 11.0963L10.1616 9.32559C10.3334 9.22639 10.6972 8.94516 10.8707 8.90029C10.8707 8.37358 10.8729 7.84624 10.8706 7.31952C10.8669 6.49662 10.9742 6.64166 11.6351 6.52051C12.0223 6.44963 12.4253 6.27069 12.6649 5.97831C13.2866 5.21983 13.2993 4.27577 12.6282 3.56986C12.1526 3.06933 11.66 3.04748 11.0917 3.04748C10.4139 3.04748 9.56427 3.76153 9.50185 4.62913C9.48921 4.80497 9.48656 4.93054 9.40271 5.04594C9.3423 5.12903 9.18623 5.22629 9.05891 5.22629C8.68187 5.22629 8.61706 4.93594 8.61706 4.6709C8.61706 2.5812 11.4713 1.26078 13.2464 2.97235C14.1032 3.79861 14.286 5.28929 13.5413 6.27034C13.2769 6.61865 13.0614 6.86652 12.6239 7.09218C12.3206 7.24873 12.1188 7.32306 11.7545 7.40519V8.90038C11.9038 8.93896 12.0173 9.04073 12.1432 9.12268L16.0231 11.5663C16.2756 11.7297 16.5072 11.8639 16.7479 12.0191L20.2835 14.2401C20.7388 14.5324 22.0506 15.2887 22.3172 15.6491C22.5093 15.9089 22.6053 16.183 22.6252 16.4487Z" fill="white"/>
</g>
<defs>
<clipPath id="clip0_377_204">
<rect width="25" height="18" fill="white"/>
</clipPath>
</defs>
</svg>
