<svg version="1.2" xmlns="http://www.w3.org/2000/svg" viewBox="0 0 253 80" width="253" height="80"><style>.a{fill:#f6f3ee}</style><path class="a" d="m94.3 16q-6.6 0-9.1 4.8-2.5 4.9-2.5 13.7v14.5q0 8.8 2.5 13.6 2.5 4.9 9.1 4.9 6.6 0 9.2-4.9 2.5-4.8 2.5-13.6v-14.5q0-8.9-2.5-13.7-2.6-4.8-9.2-4.8z"/><path fill-rule="evenodd" class="a" d="m253-3v90.4h-253v-65.8l14.5 5.5q0.1-0.6 0.3-1.1 0.1-0.5 0.3-1 0.2-0.5 0.4-1 0.2-0.5 0.5-1 0.2-0.5 0.5-0.9 0.3-0.5 0.6-0.9 0.3-0.4 0.6-0.8 0.3-0.4 0.7-0.8 0.4-0.4 0.8-0.7 0.4-0.4 0.8-0.7 0.5-0.3 1-0.5 0.4-0.3 0.9-0.5 0.6-0.3 1.2-0.4 0.6-0.2 1.2-0.3 0.6-0.1 1.2-0.2 0.6 0 1.3 0 0.4 0 0.9 0 0.4 0.1 0.9 0.1 0.5 0.1 0.9 0.2 0.5 0.1 0.9 0.2 0.4 0.2 0.9 0.3 0.4 0.2 0.8 0.4 0.4 0.2 0.8 0.5 0.4 0.2 0.8 0.5 0.3 0.3 0.7 0.6 0.3 0.3 0.6 0.7 0.3 0.3 0.5 0.7 0.3 0.3 0.5 0.7 0.2 0.5 0.4 1 0.2 0.4 0.3 0.9 0.1 0.5 0.1 1 0.1 0.5 0.1 1v1.5q0 0.6-0.1 1.2 0 0.6-0.1 1.1-0.1 0.6-0.2 1.1-0.1 0.6-0.3 1.1-0.2 0.6-0.4 1.2-0.2 0.5-0.4 1.1-0.3 0.5-0.6 1-0.3 0.5-0.6 1-0.4 0.6-0.8 1.2-0.4 0.6-0.8 1.1-0.5 0.6-1 1.1-0.4 0.5-0.9 1-2.2 2.2-5.4 5l-23.7 20.2v15.1h54.4v-13.9h-36.3l14.3-11.2q4.1-3.3 7.8-6.5 0.9-0.7 1.7-1.5 0.9-0.8 1.7-1.7 0.8-0.8 1.6-1.7 0.8-0.9 1.5-1.8 0.7-0.8 1.3-1.8 0.7-0.9 1.2-1.9 0.6-0.9 1.1-1.9 0.5-1 0.9-2.1 0.4-1 0.7-2.1 0.4-1.2 0.6-2.3 0.2-1.1 0.3-2.3 0.1-1.1 0-2.3 0.1-1.1 0-2.3-0.1-1.2-0.4-2.3-0.2-1.2-0.5-2.3-0.4-1.1-0.8-2.2-0.4-1.1-1-2.1-0.5-1-1.2-1.9-0.6-0.9-1.4-1.8-0.7-0.8-1.6-1.6-0.9-0.8-1.8-1.5-1-0.7-2-1.3-1-0.6-2.1-1.1-1.1-0.5-2.2-0.9-1.4-0.5-2.7-0.8-1.4-0.4-2.8-0.6-1.4-0.2-2.8-0.3-1.4-0.1-2.8-0.1-1.4 0-2.7 0.1-1.4 0.1-2.7 0.2-1.4 0.2-2.7 0.5-1.3 0.3-2.6 0.7-1.1 0.4-2.2 0.8-1.1 0.5-2.1 1-1 0.6-2 1.2-1 0.6-2 1.3-0.8 0.7-1.6 1.4-0.8 0.7-1.5 1.5-0.7 0.8-1.3 1.7-0.7 0.8-1.3 1.7-0.5 0.9-1.1 1.8-0.5 0.9-0.9 1.8-0.5 1-0.9 1.9-0.4 1-0.7 2v-24.6zm-129.1 44.7q0-18.8-7.2-29.3-7.3-10.4-22.4-10.4-15 0-22.3 10.4-7.3 10.5-7.3 29.3 0 18.8 7.3 29.3 7.3 10.5 22.3 10.4 15.1 0.1 22.4-10.4 7.2-10.5 7.2-29.3zm64 24.5h-36.3l14.3-11.2q4.1-3.3 7.8-6.5 0.9-0.7 1.8-1.5 0.8-0.8 1.6-1.6 0.8-0.9 1.6-1.8 0.8-0.9 1.5-1.8 0.7-0.8 1.3-1.8 0.7-0.9 1.2-1.9 0.6-0.9 1.1-1.9 0.5-1 0.9-2.1 0.4-1 0.7-2.1 0.4-1.2 0.6-2.3 0.2-1.1 0.3-2.3 0.1-1.1 0.1-2.3 0-1.1-0.1-2.3-0.1-1.2-0.4-2.3-0.2-1.2-0.5-2.3-0.4-1.1-0.8-2.2-0.4-1.1-1-2.1-0.5-1-1.2-1.9-0.6-0.9-1.4-1.8-0.7-0.8-1.6-1.6-0.9-0.8-1.8-1.5-1-0.7-2-1.3-1-0.6-2.1-1.1-1.1-0.5-2.2-0.9-1.3-0.5-2.7-0.8-1.4-0.4-2.8-0.6-1.4-0.2-2.8-0.3-1.4-0.1-2.8-0.1-1.4 0-2.7 0.1-1.4 0.1-2.7 0.2-1.4 0.2-2.7 0.5-1.3 0.3-2.6 0.7-1.1 0.4-2.2 0.8-1.1 0.5-2.1 1-1 0.6-2 1.2-1 0.6-1.9 1.3-0.9 0.7-1.7 1.4-0.8 0.7-1.5 1.5-0.7 0.8-1.3 1.6-0.7 0.9-1.3 1.8-0.5 0.9-1 1.8-0.6 0.9-1 1.8-0.5 1-0.9 1.9-0.4 1-0.7 2l14.4 5.5q0.2-0.6 0.3-1.1 0.2-0.5 0.4-1 0.2-0.5 0.4-1 0.2-0.5 0.5-1 0.2-0.5 0.5-0.9 0.2-0.5 0.5-0.9 0.3-0.4 0.7-0.8 0.3-0.4 0.7-0.8 0.4-0.4 0.8-0.7 0.4-0.4 0.8-0.7 0.5-0.3 1-0.5 0.4-0.3 0.9-0.5 0.6-0.2 1.2-0.4 0.6-0.2 1.2-0.3 0.6-0.1 1.2-0.2 0.6 0 1.3 0 0.4 0 0.9 0 0.4 0.1 0.9 0.1 0.5 0.1 0.9 0.2 0.5 0.1 0.9 0.2 0.4 0.2 0.9 0.3 0.4 0.2 0.8 0.4 0.4 0.2 0.8 0.5 0.4 0.2 0.8 0.5 0.4 0.3 0.7 0.6 0.3 0.3 0.6 0.6 0.3 0.4 0.5 0.8 0.3 0.3 0.5 0.7 0.2 0.5 0.4 1 0.2 0.4 0.3 0.9 0.1 0.5 0.1 1 0.1 0.5 0.1 1v1.5q0 0.6-0.1 1.2 0 0.5-0.1 1.1-0.1 0.6-0.2 1.1-0.1 0.6-0.3 1.1-0.1 0.6-0.3 1.2-0.3 0.5-0.5 1-0.3 0.6-0.6 1.1-0.2 0.5-0.6 1-0.4 0.6-0.8 1.2-0.4 0.5-0.8 1.1-0.5 0.5-0.9 1.1-0.5 0.5-1 1-2.2 2.2-5.4 5l-23.6 20.2v15.1h54.3zm62.5 1.9q0.6-1.1 1-2.3 0.4-1.1 0.6-2.3 0.3-1.2 0.4-2.4 0.1-1.2 0.1-2.4 0-0.9 0-1.8-0.1-0.8-0.2-1.7-0.2-0.9-0.4-1.8-0.3-0.8-0.6-1.7-0.6-1.5-1.4-2.8-0.8-1.4-1.9-2.6-1.1-1.2-2.4-2.1-1.3-1-2.8-1.7-0.7-0.4-1.5-0.7-0.7-0.4-1.5-0.6-0.8-0.3-1.6-0.5-0.8-0.3-1.6-0.4v-0.7q0.7-0.1 1.4-0.3 0.7-0.2 1.5-0.4 0.7-0.2 1.3-0.5 0.7-0.3 1.4-0.6 0.6-0.4 1.3-0.8 0.6-0.4 1.2-0.9 0.5-0.4 1.1-0.9 0.5-0.5 1-1.1 0.5-0.5 1-1.1 0.5-0.6 0.9-1.3 0.4-0.6 0.7-1.3 0.3-0.7 0.6-1.4 0.3-0.8 0.5-1.6 0.3-0.9 0.4-1.7 0.2-0.8 0.3-1.7 0-0.8 0-1.7 0-2.1-0.5-4.2-0.4-2.1-1.4-4.1-1-1.9-2.4-3.5-1.4-1.7-3.2-2.9-0.9-0.8-1.9-1.4-1.1-0.6-2.1-1.1-1.1-0.6-2.3-1-1.1-0.4-2.2-0.7-1.4-0.4-2.8-0.7-1.4-0.2-2.7-0.4-1.4-0.2-2.8-0.3-1.4-0.1-2.9 0-1.1-0.1-2.2 0-1.1 0.1-2.2 0.2-1.2 0.1-2.3 0.3-1.1 0.2-2.2 0.5-0.9 0.2-1.8 0.4-0.9 0.3-1.8 0.6-0.9 0.4-1.8 0.7-0.9 0.4-1.7 0.9-0.8 0.4-1.5 0.9-0.8 0.4-1.5 0.9-0.7 0.6-1.4 1.1-0.7 0.6-1.3 1.2-0.7 0.6-1.3 1.2-0.6 0.6-1.2 1.3-0.6 0.6-1.2 1.3-0.5 0.7-1.1 1.4l10.4 9.7q0.6-1.1 1.4-2 0.8-1 1.6-1.8 0.9-0.9 1.9-1.6 1-0.7 2-1.4 1-0.5 2-1 1.1-0.4 2.2-0.8 1.1-0.3 2.2-0.4 1.2-0.2 2.3-0.2 5 0 7.6 2.6 0.7 0.6 1.2 1.4 0.5 0.7 0.9 1.6 0.3 0.9 0.5 1.8 0.2 0.9 0.1 1.8v0.8q0 0.8-0.2 1.7-0.1 0.8-0.5 1.6-0.4 0.8-0.9 1.4-0.6 0.7-1.2 1.2-2.8 2.3-8.9 2.3h-7.2v13.8h6.9q6.3 0 9.8 2.4 0.9 0.6 1.6 1.4 0.7 0.7 1.2 1.7 0.5 0.9 0.7 1.9 0.2 1 0.2 2v0.7q0 1.1-0.2 2.2-0.2 1-0.6 2-0.4 1-1 1.9-0.6 0.9-1.4 1.6-3.1 2.8-8.7 2.8-6.3 0-10-3-1-0.9-1.8-1.8-0.9-0.9-1.7-1.8-0.7-1-1.4-2.1-0.7-1-1.3-2.1l-12.2 9.4q0.5 0.8 1 1.5 0.5 0.7 1 1.4 0.6 0.7 1.1 1.4 0.6 0.7 1.2 1.3 0.7 0.7 1.3 1.3 0.7 0.7 1.5 1.3 0.7 0.6 1.5 1.1 0.7 0.6 1.5 1.1 1 0.5 1.9 1 1 0.4 2 0.8 1 0.4 2 0.8 1 0.3 2 0.6 1.3 0.3 2.6 0.5 1.3 0.3 2.6 0.4 1.3 0.2 2.6 0.2 1.3 0.1 2.6 0.1 1.5 0 3-0.1 1.5-0.1 3-0.3 1.5-0.2 2.9-0.5 1.5-0.3 3-0.7 1.2-0.3 2.4-0.8 1.2-0.5 2.4-1.1 1.2-0.5 2.3-1.2 1.1-0.7 2.1-1.5 0.9-0.7 1.8-1.5 0.8-0.8 1.6-1.7 0.7-0.9 1.4-1.9 0.6-1 1.2-2z"/></svg>