<svg width="23" height="19" viewBox="0 0 23 19" fill="none" xmlns="http://www.w3.org/2000/svg">
<g clip-path="url(#clip0_160_615)">
<path fill-rule="evenodd" clip-rule="evenodd" d="M9.74779 17.2316C10.2732 17.1133 11.1666 16.3173 11.4998 16.1015L12.3084 16.71C12.4783 16.8265 13.0517 17.1866 13.2515 17.2316C13.1296 17.6737 11.7597 18.5156 10.4205 17.841L9.87394 17.457C9.78642 17.3639 9.76107 17.2567 9.74748 17.2316H9.74779ZM17.205 17.2316C16.5341 17.2316 16.2485 17.2251 15.5912 17.0978C14.6112 16.908 13.9261 16.6227 13.0855 16.1318L12.6678 15.8407C14.2059 15.8407 16.2359 15.0192 17.5503 14.2623C17.7253 14.1616 17.878 14.0702 18.0389 13.9525C18.2852 13.7723 18.2626 13.7857 18.6151 13.8669C19.5226 14.0766 20.1676 14.3187 20.9424 14.7888C21.185 14.936 21.7388 15.2931 21.8768 15.4929C21.3848 15.8115 21.0589 16.128 20.4247 16.4352C19.5154 16.8756 18.386 17.2316 17.2047 17.2316H17.205ZM10.3318 15.8407C9.16951 16.8181 7.33328 17.2316 5.79463 17.2316C4.36313 17.2316 3.17519 16.7854 2.06361 16.1476C1.70929 15.9441 1.44822 15.704 1.12286 15.4932C1.38061 15.1209 2.60024 14.4667 3.08646 14.2635C3.48033 14.0988 3.87178 13.9899 4.31212 13.8845C4.89372 13.7452 4.71987 13.8164 5.15147 14.0731C6.31918 14.7675 7.5207 15.3533 8.89094 15.6272C9.32163 15.7134 9.81056 15.841 10.3321 15.841L10.3318 15.8407ZM11.4998 14.7976L10.9466 14.2028C9.59748 12.5856 8.66971 10.3656 8.66971 8.23447C8.66971 6.56646 8.88369 5.1785 9.55312 3.82995C9.62284 3.68949 9.66026 3.56947 9.733 3.43894C10.1235 2.73634 10.6282 1.95315 11.1745 1.35656C11.2843 1.23683 11.4087 1.18689 11.4548 1.01927C11.6531 1.07038 11.9148 1.43394 12.0778 1.63339C12.4892 2.13508 13.0258 2.89812 13.3122 3.48158C14.6363 6.17691 14.7389 9.14586 13.5087 11.9168C13.3798 12.2074 13.2684 12.4533 13.1148 12.7094L12.6416 13.4683C12.5486 13.6006 12.4783 13.6894 12.379 13.8228L11.8249 14.5035C11.7207 14.618 11.6233 14.717 11.4995 14.7973L11.4998 14.7976ZM12.6229 14.9713L13.1556 14.3134C14.0486 13.169 14.7108 11.6607 15.0298 10.259L15.2707 8.71017C15.3162 8.16965 15.1183 8.1127 15.5357 7.79323C16.5929 6.98434 16.886 6.74956 18.1473 6.14742C19.0255 5.72837 20.7948 5.23544 22.101 5.23544C22.0108 5.6101 22.0162 6.33372 21.7781 7.26994C20.9943 10.3528 18.5894 13.075 15.5553 14.2448C15.0226 14.4501 14.2768 14.6916 13.7052 14.802C13.3753 14.8656 12.9494 14.8975 12.6223 14.9713H12.6229ZM7.77151 6.84359L6.36053 5.90533C6.10158 5.75465 4.98909 5.17061 4.71686 5.14842C4.71686 3.83872 4.7733 2.9355 5.13668 1.72976C5.18044 1.58491 5.24412 1.4173 5.2559 1.28005C5.71918 1.3843 6.72724 1.96717 7.11567 2.21889L8.32142 3.09524C8.50039 3.24825 8.48651 3.29322 8.71498 3.41003C8.68661 3.52742 8.61991 3.66847 8.56468 3.78615C8.49677 3.93158 8.45723 4.05422 8.40049 4.19235C8.18681 4.71214 8.04344 5.34174 7.92483 5.90533C7.85904 6.21779 7.84063 6.55624 7.77151 6.84359ZM14.2403 3.2795C14.4832 2.92879 15.2613 2.33277 15.6328 2.06237C16.1511 1.68566 16.701 1.36678 17.2949 1.06279C17.3613 1.33816 17.6831 2.09653 17.8883 2.96587C18.0419 3.61678 18.0827 4.42947 18.1485 5.19164C17.103 5.4273 15.3274 6.81789 15.2284 6.8433C15.2284 6.03557 14.7214 4.27674 14.3296 3.49705C14.288 3.41383 14.2765 3.35718 14.2403 3.27921V3.2795ZM9.11911 2.5842L8.28399 1.91431C7.64716 1.48738 5.94524 0.367489 5.25559 0.367489C4.40659 0.367489 4.23275 1.43277 4.07641 2.13858C3.90528 2.91156 3.77309 3.84397 3.77309 4.80063C3.07741 4.64381 1.16904 4.13833 0.537042 4.40815C0.15736 4.57022 -0.000488281 4.85319 -0.000488281 5.27895C-0.000488281 6.05806 0.168527 6.92827 0.366819 7.66182C0.566921 8.40122 1.30214 8.06715 1.30214 7.71322C1.30214 7.49099 1.23755 7.33184 1.18504 7.13093C1.12648 6.90579 1.10023 6.75949 1.05827 6.51477C0.987649 6.1039 0.933926 5.65478 0.898011 5.23573C2.80698 5.23573 4.84422 6.00345 6.36959 6.98288C6.62673 7.14787 6.82261 7.29622 7.07221 7.47668C7.22161 7.58444 7.27684 7.65715 7.41175 7.75673C7.85179 8.08175 7.68821 8.0762 7.75883 8.59453C7.84183 9.20631 7.8035 9.44986 7.9695 10.1726C8.12524 10.851 8.30542 11.4146 8.54747 12.0039C9.31046 13.8617 10.138 14.5357 10.3765 14.9716L9.11488 14.7579C8.68329 14.6714 8.3356 14.5517 7.93359 14.4232C6.31556 13.9064 4.47993 12.6723 3.41996 11.4014C3.13415 11.0586 2.9274 10.7123 2.60507 10.7123C2.40798 10.7123 2.15597 10.9561 2.15597 11.1468C2.15597 11.3529 2.36905 11.5702 2.48072 11.7019L2.90748 12.2015C3.15135 12.4466 3.65025 12.8601 3.81806 13.1024C3.32369 13.1129 2.13967 13.6996 1.69238 13.958C0.910687 14.4098 -0.459848 15.2295 0.50354 16.1353C2.11643 17.6518 5.06213 18.475 7.48298 17.9961C7.74073 17.945 7.96618 17.907 8.18107 17.8457C9.26126 17.5356 8.65884 17.6509 9.31136 18.1757C11.6718 20.0744 13.9527 18.1754 14.1054 17.6232C14.2358 17.6527 14.2602 17.6789 14.4021 17.7271C16.3711 18.3967 18.711 18.2008 20.5144 17.3916C20.9674 17.1884 21.4669 16.9118 21.8451 16.6361C22.554 16.119 23.4652 15.5309 22.2305 14.5862C21.5707 14.0816 19.9449 13.1194 19.1816 13.1027L19.9114 12.3747C21.7189 10.643 22.9998 7.66504 22.9998 5.149C22.9998 4.79099 22.7194 4.51854 22.4623 4.40874C22.1734 4.2855 21.629 4.35004 21.2789 4.39676C20.0577 4.56 20.1003 4.60731 19.0467 4.84472C19.0467 3.49443 18.7231 2.25773 18.2776 1.06833C18.2233 0.922908 18.1445 0.669728 18.0471 0.552629C17.4733 -0.135951 16.8974 0.263822 16.471 0.483712C15.8375 0.810773 14.7211 1.54987 14.1826 2.05098C14.0432 2.18093 13.9436 2.35935 13.7456 2.41045C13.3991 1.77648 12.7206 0.91882 12.1846 0.400195C11.9438 0.166872 11.8152 -0.0559384 11.4035 0.012978C10.6822 0.13329 9.24527 2.49485 9.11881 2.5845L9.11911 2.5842Z" fill="#7D6858"/>
<path fill-rule="evenodd" clip-rule="evenodd" d="M1.12305 9.49503C1.12305 10.1056 2.06652 10.0426 2.06652 9.49503C2.06652 9.11687 1.4988 8.88939 1.23079 9.20798C1.17586 9.2731 1.12305 9.39107 1.12305 9.49503Z" fill="#7D6858"/>
</g>
<defs>
<clipPath id="clip0_160_615">
<rect width="23" height="19" fill="white"/>
</clipPath>
</defs>
</svg>
