<svg width="27" height="17" viewBox="0 0 27 17" fill="none" xmlns="http://www.w3.org/2000/svg">
<path fill-rule="evenodd" clip-rule="evenodd" d="M18.5628 14.6547V2.34467C18.5628 0.658158 20.6723 0.658158 20.6723 2.34467V14.6547C20.6723 15.9158 19.5046 16.2666 18.8373 15.5454C18.637 15.3296 18.5628 15.0552 18.5628 14.6547ZM6.32854 14.6547V2.34467C6.32854 1.94324 6.40356 1.66971 6.60304 1.4539C7.27032 0.732759 8.43805 1.08356 8.43805 2.34467V14.6547C8.43805 16.3412 6.32854 16.3412 6.32854 14.6547ZM21.7271 13.3278V3.6706C21.7271 2.4095 22.8948 2.0587 23.5621 2.77984C23.7625 2.99565 23.8366 3.27007 23.8366 3.6706V13.3278C23.8366 15.0143 21.7271 15.0143 21.7271 13.3278ZM3.16515 13.3278V3.6706C3.16515 1.9841 5.27466 1.9841 5.27466 3.6706V13.3278C5.27466 15.0143 3.16515 15.0143 3.16515 13.3278ZM25.2603 10.0916H24.8914V6.90774C26.1712 6.90774 25.9461 7.12355 25.9461 9.40153C25.9461 9.85447 25.7105 10.0916 25.2603 10.0916ZM1.05564 9.40153V7.5978C1.05564 6.84735 1.62759 6.90774 2.1104 6.90774V10.0916C1.62759 10.0916 1.05564 10.1529 1.05564 9.40153ZM13.2899 8.39354C13.2899 8.68661 13.4126 9.03031 13.7118 9.03031H17.509V10.0916H9.49369V6.90774H17.509V7.96902H13.7118C13.5574 7.96902 13.2899 8.23812 13.2899 8.39354ZM5.32674 1.60221C4.75038 1.46722 5.11667 1.33667 4.00807 1.33667C3.13426 1.33667 2.10951 2.36687 2.10951 3.24698V5.84734H1.4237C0.758189 5.84734 0 6.61022 0 7.27985V9.72036C0 10.39 0.758189 11.1529 1.4237 11.1529H2.10951V13.7532C2.10951 13.9495 2.25338 14.3589 2.32223 14.4939C2.75208 15.3296 3.4679 15.6635 4.37702 15.6635C4.85364 15.6635 4.99752 15.4753 5.32586 15.398C5.49444 15.7506 5.59595 16.3767 6.46623 16.7977C7.27826 17.1902 8.25005 16.993 8.87319 16.3669C9.183 16.0552 9.49192 15.541 9.49192 15.0801V11.1538H17.5072V15.0801C17.5072 15.541 17.817 16.0561 18.1259 16.3669C19.2292 17.4779 20.9883 17.0295 21.5515 15.7532C21.6168 15.6049 21.6132 15.5223 21.6733 15.398C22.2496 15.533 21.8833 15.6635 22.9919 15.6635C23.187 15.6635 23.5939 15.5188 23.728 15.4486C24.3203 15.1405 24.8905 14.398 24.8905 13.7532V11.1529H25.5763C26.2418 11.1529 27 10.39 27 9.72036V7.27985C27 6.61022 26.2418 5.84734 25.5763 5.84734H24.8905V3.24698C24.8905 3.05071 24.7466 2.64129 24.6778 2.5063C24.2479 1.6706 23.5321 1.33667 22.623 1.33667C22.1464 1.33667 22.0025 1.52495 21.6741 1.60221C21.5815 1.40683 21.6432 1.36065 21.4226 1.00629C20.607 -0.301881 18.629 -0.426215 17.7199 1.17859C17.644 1.3118 17.5081 1.71411 17.5081 1.92104V5.84734H9.49281V1.92104C9.49281 1.71411 9.35688 1.31269 9.28097 1.17859C8.27829 -0.591403 6.08581 -0.197085 5.44854 1.24697C5.38323 1.39528 5.38676 1.47788 5.32674 1.60221Z" fill="#7D6858"/>
<path fill-rule="evenodd" clip-rule="evenodd" d="M11.1802 8.39355C11.1802 9.37224 12.2349 9.05341 12.2349 8.60581C12.2349 7.62712 11.1802 7.94595 11.1802 8.39355Z" fill="#7D6858"/>
</svg>
