<svg xmlns="http://www.w3.org/2000/svg" width="36" height="22" viewBox="0 0 36 22" fill="none">
<path fill-rule="evenodd" clip-rule="evenodd" d="M24.1711 18.9649V3.03427C24.1711 0.851734 26.918 0.851734 26.918 3.03427V18.9649C26.918 20.5969 25.3974 21.0509 24.5286 20.1176C24.2677 19.8383 24.1711 19.4832 24.1711 18.9649ZM8.24055 18.9649V3.03427C8.24055 2.51479 8.33824 2.1608 8.59799 1.88152C9.46687 0.948277 10.9874 1.40225 10.9874 3.03427V18.9649C10.9874 21.1474 8.24055 21.1474 8.24055 18.9649ZM28.2914 17.2478V4.75019C28.2914 3.11817 29.8119 2.6642 30.6808 3.59744C30.9417 3.87672 31.0383 4.23185 31.0383 4.75019V17.2478C31.0383 19.4303 28.2914 19.4303 28.2914 17.2478ZM4.12142 17.2478V4.75019C4.12142 2.56765 6.86828 2.56765 6.86828 4.75019V17.2478C6.86828 19.4303 4.12142 19.4303 4.12142 17.2478ZM32.8921 13.0597H32.4117V8.93943C34.0782 8.93943 33.7851 9.21871 33.7851 12.1667C33.7851 12.7528 33.4782 13.0597 32.8921 13.0597ZM1.37457 12.1667V9.83244C1.37457 8.86127 2.11933 8.93943 2.748 8.93943V13.0597C2.11933 13.0597 1.37457 13.139 1.37457 12.1667ZM17.3052 10.8622C17.3052 11.2415 17.4649 11.6863 17.8545 11.6863H22.7989V13.0597H12.362V8.93943H22.7989V10.3129H17.8545C17.6534 10.3129 17.3052 10.6611 17.3052 10.8622ZM6.93608 2.07345C6.18559 1.89876 6.66255 1.72981 5.21902 1.72981C4.0812 1.72981 2.74685 3.06301 2.74685 4.20197V7.56715H1.85384C0.987257 7.56715 0 8.55441 0 9.42099V12.5793C0 13.4459 0.987257 14.4331 1.85384 14.4331H2.74685V17.7983C2.74685 18.0523 2.93419 18.5821 3.02383 18.7568C3.58355 19.8383 4.51564 20.2705 5.69943 20.2705C6.32005 20.2705 6.50739 20.0268 6.93494 19.9268C7.15445 20.3831 7.28662 21.1934 8.41984 21.7381C9.47721 22.2461 10.7426 21.991 11.554 21.1807C11.9574 20.7773 12.3597 20.1119 12.3597 19.5154V14.4343H22.7966V19.5154C22.7966 20.1119 23.2 20.7785 23.6022 21.1807C25.0389 22.6185 27.3294 22.0381 28.0627 20.3866C28.1477 20.1946 28.1431 20.0877 28.2213 19.9268C28.9718 20.1015 28.4948 20.2705 29.9384 20.2705C30.1924 20.2705 30.7222 20.0831 30.8969 19.9923C31.6681 19.5935 32.4105 18.6327 32.4105 17.7983V14.4331H33.3036C34.1701 14.4331 35.1574 13.4459 35.1574 12.5793V9.42099C35.1574 8.55441 34.1701 7.56715 33.3036 7.56715H32.4105V4.20197C32.4105 3.94797 32.2232 3.41814 32.1336 3.24345C31.5738 2.16195 30.6417 1.72981 29.458 1.72981C28.8373 1.72981 28.65 1.97346 28.2225 2.07345C28.1018 1.8206 28.1822 1.76084 27.8949 1.30226C26.8329 -0.390669 24.2573 -0.551573 23.0735 1.52523C22.9747 1.69763 22.7977 2.21826 22.7977 2.48605V7.56715H12.3608V2.48605C12.3608 2.21826 12.1838 1.69878 12.085 1.52523C10.7794 -0.765345 7.92449 -0.255051 7.09469 1.61373C7.00964 1.80566 7.01424 1.91255 6.93608 2.07345Z" fill="white"/>
<path fill-rule="evenodd" clip-rule="evenodd" d="M14.5583 10.8622C14.5583 12.1287 15.9318 11.7161 15.9318 11.1369C15.9318 9.87033 14.5583 10.2829 14.5583 10.8622Z" fill="white"/>
<deepl-alert xmlns=""/><deepl-alert xmlns=""/><deepl-alert xmlns=""/></svg>