<svg width="58" height="54" viewBox="0 0 58 54" fill="none" xmlns="http://www.w3.org/2000/svg">
<path d="M52.44 18.8681C53.88 20.6281 55.16 22.7615 56.28 25.2681C57.4 27.7748 57.96 30.9748 57.96 34.8681C57.96 37.9615 57.5867 40.6815 56.84 43.0281C56.04 45.3748 54.9467 47.3481 53.56 48.9481C52.12 50.5481 50.4667 51.7748 48.6 52.6281C46.68 53.4281 44.6 53.8281 42.36 53.8281C40.44 53.8281 38.7333 53.5615 37.24 53.0281C35.7467 52.4415 34.3867 51.6681 33.16 50.7081C31.9333 49.6948 30.8133 48.4948 29.8 47.1081C28.7867 45.7215 27.8 44.2281 26.84 42.6281C25.9867 43.4281 25.0533 44.2015 24.04 44.9481C23.0267 45.6948 21.96 46.3615 20.84 46.9481C19.72 47.5348 18.5467 48.0148 17.32 48.3881C16.0933 48.7081 14.84 48.8681 13.56 48.8681C11.7467 48.8681 10.04 48.4948 8.44 47.7481C6.78666 46.9481 5.34667 45.8281 4.12 44.3881C2.89333 42.8948 1.93333 41.1348 1.24 39.1081C0.546663 37.0281 0.199996 34.7081 0.199996 32.1481C0.199996 29.8548 0.493328 27.7481 1.07999 25.8281C1.61333 23.8548 2.44 22.1481 3.55999 20.7081C4.62666 19.2681 5.96 18.1481 7.56 17.3481C9.16 16.4948 10.9733 16.0681 13 16.0681C14.76 16.0681 16.36 16.3615 17.8 16.9481C19.24 17.5348 20.5733 18.3348 21.8 19.3481C22.9733 20.3615 24.0667 21.5615 25.08 22.9481C26.0933 24.2815 27.0533 25.6948 27.96 27.1881L37.32 18.5481C35.6133 17.8548 33.8 17.3215 31.88 16.9481C29.96 16.5748 28.0667 16.3348 26.2 16.2281L26.2 2.86812L36.04 2.86812L36.04 7.90812C39.4533 8.81479 42.4133 10.0148 44.92 11.5081L57 0.388117L57 14.7081L52.44 18.8681ZM9.24 32.4681C9.24 33.9081 9.64 35.1348 10.44 36.1481C11.24 37.1081 12.36 37.5881 13.8 37.5881L14.12 37.5881C15.1867 37.5881 16.2533 37.2415 17.32 36.5481C18.3333 35.8548 19.7733 34.6815 21.64 33.0281C20.52 31.1615 19.4 29.7481 18.28 28.7881C17.1067 27.8281 15.72 27.3481 14.12 27.3481L13.8 27.3481C12.36 27.3481 11.24 27.8548 10.44 28.8681C9.64 29.8281 9.24 31.0281 9.24 32.4681ZM48.12 33.1081C48.12 29.9615 47.3733 27.2681 45.88 25.0281L33.16 36.7881C34.2267 38.6015 35.32 39.8815 36.44 40.6281C37.56 41.3748 38.84 41.7481 40.28 41.7481L41.08 41.7481C43.1067 41.7481 44.7867 41.0281 46.12 39.5881C47.4533 38.1481 48.12 35.9881 48.12 33.1081Z" fill="#B8ADA0"/>
</svg>
