<svg width="24" height="15" viewBox="0 0 24 15" fill="none" xmlns="http://www.w3.org/2000/svg">
<g clip-path="url(#clip0_372_126)">
<path fill-rule="evenodd" clip-rule="evenodd" d="M9.38686 8.31636C9.38686 8.27516 10.1544 7.41336 10.2482 7.30109C10.3714 7.15376 11.0533 6.42498 11.0954 6.27225H12.9045L14.613 8.31636C14.613 8.64368 13.7436 12.5993 13.6373 13.1143C13.3714 14.4027 13.1859 14.2054 11.2462 14.2054C10.5128 14.2054 10.4561 13.5679 10.371 13.1549C10.264 12.6358 9.38686 8.65085 9.38686 8.31636ZM13.9095 6.27225H15.0653C15.0025 6.53306 14.8642 7.06102 14.8642 7.34295H14.7638C14.7153 7.16734 14.0484 6.47306 13.9095 6.27225H13.9095ZM9.23608 7.34295H9.13563C9.13563 7.06102 8.99733 6.53306 8.93462 6.27225H10.0904L9.44382 7.05749C9.33059 7.19013 9.28411 7.16892 9.23609 7.34295H9.23608ZM14.613 3.06004V1.89194H15.7185C15.7185 3.21593 15.8842 3.59544 15.0652 3.59544C14.7568 3.59544 14.613 3.36374 14.613 3.06004H14.613ZM8.28136 3.06004V1.89194H9.38686C9.38686 3.21593 9.55252 3.59544 8.7336 3.59544C8.42512 3.59544 8.28135 3.36374 8.28135 3.06004H8.28136ZM7.47732 1.74591V2.81671C7.47732 3.15873 7.55386 3.31629 7.57777 3.59544C6.9565 3.59544 6.51376 3.59041 6.10252 3.82128C5.2546 4.29752 5.417 5.10211 5.417 5.98018C5.417 6.2143 5.66238 6.27252 5.86502 6.27625L8.13058 6.27225C8.67569 8.53839 9.12688 11.3426 9.66778 13.6412C9.76372 14.0491 9.92689 14.3574 10.2045 14.5814C10.8757 15.1233 11.6653 14.984 12.7035 14.984C13.5355 14.984 14.1483 14.4308 14.3322 13.6414L15.3542 8.74227C15.5246 7.91108 15.6762 7.07524 15.8693 6.27224L18.1349 6.27624C18.7338 6.26517 18.5829 5.88092 18.5829 4.86082C18.5829 4.42839 18.2054 4.00749 17.929 3.83932C17.5267 3.59451 17.0675 3.59543 16.4221 3.59543C16.446 3.31629 16.5226 3.15872 16.5226 2.8167C16.5226 0.827469 16.7937 1.11321 14.3618 1.11321C13.6316 1.11321 13.809 1.82246 13.809 2.86535C13.809 3.15444 13.8537 3.36373 13.9095 3.59543C13.6084 3.59543 12.8199 3.54893 12.5764 3.66705C12.4938 3.70714 12.3517 3.86443 12.3517 3.93605C12.3517 4.51991 12.9818 4.37406 13.5577 4.37406L16.875 4.37342C17.8272 4.36681 17.8291 4.76827 17.8291 5.54216H6.17082C6.17082 5.14173 6.11569 4.81013 6.40678 4.55396C6.59146 4.39146 6.73312 4.36997 7.07397 4.37276L11.1988 4.37685C11.4543 4.36681 11.6482 4.25519 11.6482 3.98479C11.6482 3.45191 10.6457 3.59543 10.0904 3.59543C10.2396 2.97529 10.1909 2.40129 10.1909 1.7459C10.1909 0.903736 9.64262 1.1132 8.03013 1.1132C7.58989 1.1132 7.47733 1.32305 7.47733 1.7459L7.47732 1.74591Z" fill="white"/>
<path fill-rule="evenodd" clip-rule="evenodd" d="M19.4774 10.7012H19.8292V14.2054H19.4774V10.7012ZM19.8292 1.21065C19.8292 1.47695 20.1044 2.52031 20.1906 2.85609C20.3255 3.38173 20.4727 3.94298 20.5955 4.50805C20.6712 4.85677 21.387 7.58055 21.387 7.82965C21.387 8.55675 19.779 7.78397 19.779 8.51108C19.779 9.0343 20.4343 8.90045 21.1357 8.90045C21.677 8.90045 22.191 8.34384 22.191 7.82965L21.0149 2.93377C20.9378 2.63779 20.8907 2.40032 20.8139 2.1063C20.6725 1.56476 20.364 0.77264 21.186 0.77264C21.6893 0.77264 21.7196 1.38766 21.8194 1.81405L23.1367 7.15715C23.5348 8.68326 22.4372 9.92242 21.0855 9.92242H17.7187C17.1679 9.92242 17.083 9.08574 17.6456 8.92696C18.1838 8.77516 18.9249 9.12379 19.0507 8.62959C19.2053 8.02267 18.2968 8.17037 17.6684 8.17037C17.0589 8.17037 16.4624 8.78567 16.4624 9.38711C16.4624 10.1206 17.0661 10.7012 17.8192 10.7012H18.7237V14.2054C18.0644 14.2054 17.2664 14.0676 17.2664 14.5948C17.2664 14.8302 17.4254 14.9841 17.6684 14.9841H21.6383C22.206 14.9841 22.206 14.2054 21.6383 14.2054H20.6333V10.7012C21.6736 10.7012 22.3987 10.5219 23.0841 9.91136C23.765 9.30489 24.0001 8.52979 24.0001 7.63498C24.0001 7.24645 23.8685 6.91337 23.795 6.56828L22.5128 1.33698C22.3957 0.885666 22.2731 0.376403 21.7403 0.13847C20.6391 -0.353213 19.8292 0.576483 19.8292 1.21066V1.21065Z" fill="white"/>
<path fill-rule="evenodd" clip-rule="evenodd" d="M4.17087 10.7012H4.52266V14.2054H4.17087V10.7012ZM0 8.07495V7.71674C0.0248728 7.31798 0.124949 6.92081 0.222237 6.48754L0.743629 4.36427C0.818059 4.07853 0.875782 3.4981 1.20606 3.4981C1.4619 3.4981 1.6584 3.6247 1.6584 3.83882C1.6584 4.03834 1.30642 5.364 1.22604 5.7076C1.08294 6.31927 0.890669 6.89653 0.794435 7.52894C0.602837 8.78809 1.64822 9.92242 2.91459 9.92242H6.28142C6.8322 9.92242 6.9171 9.08574 6.3545 8.92696C5.83407 8.78018 2.92169 9.0771 2.39991 8.76623C2.09134 8.58243 1.80908 8.24209 1.80908 7.78101L3.20654 2.02873C3.27876 1.74698 3.62374 0.772641 2.91459 0.772641C2.24375 0.772641 2.2935 1.35827 2.04246 2.36135C1.87957 3.012 1.25628 2.80894 1.25628 2.42739C1.25628 2.14277 1.53912 1.05904 1.63746 0.801107C2.13062 -0.493205 4.17087 -0.113704 4.17087 1.2593C4.17087 1.49277 4.04957 1.87608 3.99003 2.10621L2.9846 6.19407C2.41759 8.37873 2.38234 8.17037 3.91963 8.17037C4.47243 8.17037 5.02513 8.17037 5.57793 8.17037C6.2334 8.17037 6.59892 8.11745 6.99393 8.40496C8.05737 9.17913 7.43196 10.7012 6.18096 10.7012H5.27646V14.2054H6.28141C6.88665 14.2054 6.87186 14.9841 6.33174 14.9841H2.36188C1.79409 14.9841 1.79409 14.2054 2.36188 14.2054H3.36683V10.7012H3.01514C1.7868 10.7012 0.798563 10.0378 0.29993 9.09662C0.108047 8.73451 0.0218954 8.40058 0 8.07493L0 8.07495Z" fill="white"/>
</g>
<defs>
<clipPath id="clip0_372_126">
<rect width="24" height="15" fill="white"/>
</clipPath>
</defs>
</svg>
