<svg width="24" height="24" viewBox="0 0 24 24" fill="none" xmlns="http://www.w3.org/2000/svg">
<path d="M6.2915 2.12419C5.91952 2.24014 5.58135 2.51067 5.40743 2.82951C5.23835 3.1387 5.2625 3.81503 5.4654 4.61214C5.96299 6.57351 6.72629 8.02763 7.82775 9.12426C8.36398 9.6605 8.41712 9.7861 8.45094 10.5977C8.4751 11.1484 8.48959 11.2499 8.57655 11.3417C8.71664 11.4963 8.99201 11.4914 9.13694 11.3368C9.24322 11.2257 9.24805 11.1967 9.22873 10.4286C9.2094 9.40929 9.16592 9.30784 8.42679 8.53488C7.56204 7.63632 6.94851 6.59284 6.53305 5.32712C6.33498 4.71842 6.09826 3.72324 6.09826 3.50102C6.09826 3.05657 6.66348 2.74739 7.03064 2.99377C7.24803 3.13387 7.306 3.25947 7.35914 3.70875C7.5089 4.91649 7.97751 6.07109 8.66833 6.90685C9.12728 7.46724 9.19491 7.49623 10.6973 7.84889C11.422 8.0228 12.2626 8.20638 12.5621 8.26435L13.108 8.37063L14.4172 8.18705C15.8182 7.98898 15.9196 7.95517 15.9776 7.68946C15.9969 7.58801 15.8665 7.17738 15.4462 6.01312C15.1418 5.1677 14.8906 4.43339 14.8906 4.38509C14.8906 4.25465 15.195 3.96479 15.3302 3.96479C15.393 3.96479 15.5138 4.00344 15.5911 4.05175C15.7215 4.13387 15.8085 4.33194 16.4993 6.17254C16.9534 7.38511 17.2578 8.26918 17.2578 8.37063C17.2578 8.59285 17.108 8.78126 16.881 8.84406C16.7844 8.86822 16.137 8.95518 15.4462 9.0373C14.7553 9.11943 14.1273 9.19672 14.0452 9.21122C13.7988 9.26436 13.5573 9.41412 13.3737 9.62668C13.0597 9.989 13.0548 10.0518 13.0548 12.5494V14.791L13.2964 15.9118C13.6249 17.4239 13.6104 17.3804 13.7843 17.4722C13.8761 17.5156 13.9824 17.535 14.0549 17.5156C14.1225 17.5012 14.7409 17.1292 15.422 16.6895C16.4848 16.0132 16.6926 15.8973 16.852 15.8973C17.3447 15.8973 17.6346 16.4094 17.3834 16.8296C17.3544 16.8828 17.108 17.0712 16.8375 17.2548C16.567 17.4383 16.3206 17.6316 16.2916 17.6799C16.224 17.8103 16.2336 18.0277 16.3109 18.1292C16.393 18.2403 16.6201 18.3224 16.736 18.2838C16.9051 18.2306 17.7602 17.6557 17.9196 17.4867C18.4414 16.9359 18.4172 16.0084 17.8713 15.4721C17.5863 15.1919 17.2771 15.0663 16.8665 15.0663C16.4414 15.0663 16.2819 15.1436 15.1563 15.8683C14.4172 16.3417 14.2819 16.4142 14.2529 16.3417C14.2336 16.2982 14.1418 15.9069 14.0452 15.4721L13.8761 14.6847V12.5349C13.8761 10.1871 13.8761 10.1726 14.1515 10.0566C14.2239 10.0276 14.9148 9.9262 15.6781 9.83441C16.6974 9.71364 17.1322 9.64117 17.2964 9.56871C17.794 9.34648 18.0791 8.90204 18.0791 8.35131C18.0791 8.04696 18.0259 7.8827 17.3496 6.08075C16.9486 5.00828 16.5815 4.03726 16.5283 3.91648C16.166 3.09039 15.0935 2.88749 14.4558 3.53C14.2191 3.76189 14.0694 4.10006 14.0694 4.39958C14.0694 4.60248 14.2336 5.13388 14.6201 6.1822C14.823 6.72327 14.9872 7.19187 14.9872 7.22569C14.9872 7.25951 14.6394 7.32714 14.0307 7.40927L13.0742 7.5397L11.393 7.15806L9.71182 6.77641L9.47027 6.54453C8.81326 5.89718 8.37848 4.902 8.17558 3.58798C8.10794 3.1387 8.0548 2.94063 7.94852 2.74256C7.79393 2.46719 7.47025 2.21598 7.17073 2.12902C6.96783 2.07588 6.47025 2.07105 6.2915 2.12419Z" fill="white"/>
<path d="M11.0403 2.39465C10.3881 2.53475 9.84706 2.96471 9.56687 3.55408C8.72145 5.36569 10.4171 7.26909 12.306 6.62174C13.2867 6.28358 13.9147 5.22077 13.7408 4.19177C13.5766 3.2449 12.9582 2.58306 12.0548 2.39465C11.6587 2.30769 11.4316 2.30769 11.0403 2.39465ZM12.1659 3.30287C13.021 3.73766 13.1949 4.83912 12.5089 5.52512C12.2432 5.79082 11.9437 5.91642 11.5572 5.91642C10.7939 5.91642 10.1852 5.30772 10.1852 4.54443C10.1852 3.91157 10.5765 3.39949 11.2191 3.18693C11.4413 3.11447 11.9051 3.17244 12.1659 3.30287Z" fill="white"/>
<path d="M20.538 3.23068C20.3882 3.51571 20.3302 3.57851 20.0549 3.73793C19.8858 3.83455 19.7409 3.93117 19.736 3.95533C19.7264 3.97465 19.8616 4.06644 20.0355 4.15823C20.3206 4.30799 20.3737 4.36113 20.5331 4.65099C20.6298 4.83456 20.7215 4.97949 20.7409 4.97949C20.7602 4.97949 20.8471 4.83939 20.9341 4.66548C21.0839 4.37079 21.1273 4.33214 21.4558 4.1534L21.8133 3.95533L21.4655 3.76209C21.1467 3.58817 21.1032 3.53987 20.9389 3.23551C20.8423 3.05194 20.7505 2.90218 20.736 2.90218C20.7215 2.90218 20.6346 3.05194 20.538 3.23068Z" fill="white"/>
<path d="M2.84702 4.04208C2.75523 4.22083 2.66828 4.30778 2.50402 4.39474C2.38325 4.45754 2.2818 4.52518 2.2818 4.53967C2.2818 4.55899 2.37842 4.6218 2.49436 4.67494C2.64895 4.75223 2.74074 4.84402 2.84702 5.0276L2.99195 5.27881L3.12239 5.04209C3.21418 4.87784 3.31563 4.77156 3.46539 4.68943C3.58616 4.6218 3.68278 4.55416 3.68278 4.53484C3.68278 4.51069 3.58616 4.44788 3.46539 4.38991C3.34461 4.33194 3.22867 4.23532 3.19968 4.16286C3.1707 4.09522 3.10789 3.98411 3.05958 3.92131L2.9678 3.80053L2.84702 4.04208Z" fill="white"/>
<path d="M21.1998 7.10971L21.0742 7.20633V8.33194V9.45756L20.8375 9.40442C20.364 9.3078 19.7602 9.55901 19.4945 9.95998C19.3882 10.1194 19.3592 10.2305 19.3447 10.4866C19.3206 10.9068 19.393 11.1291 19.6442 11.3803C19.9679 11.704 20.538 11.8296 21.0355 11.6943C21.3061 11.617 21.6104 11.361 21.7457 11.0904C21.8665 10.8585 21.8713 10.8247 21.8955 9.57833L21.9196 8.30779L22.1515 8.48653C22.451 8.71842 22.6732 8.73291 22.8423 8.53484C22.9631 8.39475 22.9921 8.22083 22.91 8.0759C22.8713 7.99861 22.0307 7.31261 21.7022 7.09039C21.5428 6.97927 21.3544 6.98894 21.1998 7.10971ZM20.8085 10.2643C21.0742 10.3754 21.1032 10.7523 20.8568 10.8634C20.5476 11.0083 20.1563 10.8537 20.1563 10.5928C20.1563 10.4238 20.1998 10.3658 20.3737 10.274C20.5525 10.1774 20.6008 10.1774 20.8085 10.2643Z" fill="white"/>
<path d="M3.96778 11.5444L3.82768 11.6845V12.7812V13.873L3.7214 13.8391C3.51367 13.7763 3.05956 13.8101 2.82767 13.9164C2.17549 14.2015 1.91462 14.8681 2.20448 15.4913C2.40738 15.9309 2.78902 16.1387 3.3784 16.1387C3.81319 16.1387 4.05474 16.0469 4.30595 15.7957C4.6103 15.4962 4.61996 15.4285 4.64895 13.9986L4.6731 12.7087L4.9388 12.9068C5.16586 13.0758 5.22866 13.1 5.37359 13.0758C5.60548 13.042 5.72142 12.8874 5.7021 12.6411C5.6876 12.4526 5.66345 12.4237 5.1562 12.0179C4.30595 11.3319 4.21899 11.298 3.96778 11.5444ZM3.70691 14.7618C3.90498 14.9551 3.84217 15.1821 3.55715 15.2981C3.36391 15.3802 3.1755 15.3464 3.02091 15.2063C2.7697 14.9792 2.98226 14.6411 3.36874 14.6411C3.53782 14.6411 3.61995 14.6701 3.70691 14.7618Z" fill="white"/>
<path d="M8.67797 12.245C8.59584 12.2837 8.50888 12.3513 8.48956 12.3996C8.47023 12.4527 8.44608 12.8827 8.44125 13.361C8.42676 14.1629 8.41709 14.2595 8.29632 14.5929C8.11757 15.1049 7.96298 15.7233 7.83255 16.4528C7.73593 16.9842 7.72144 17.2499 7.72144 18.1919C7.72144 19.1436 7.73593 19.3852 7.82772 19.8683C8.04511 21.0229 8.57652 22.3031 9.15623 23.0712C9.34947 23.3321 9.47024 23.4383 9.69247 23.5543C9.94851 23.6847 10.0258 23.6992 10.4171 23.6992C10.8133 23.6992 10.8809 23.6847 11.1176 23.5543C11.5765 23.2982 11.8374 22.9118 11.9244 22.3417C11.9679 22.0567 11.8422 21.6412 11.5621 21.1388C10.8857 19.9311 10.5475 18.6412 10.6055 17.4673C10.6587 16.2885 10.9727 15.5784 11.335 15.8151C11.3978 15.8586 11.4654 15.931 11.4799 15.9793C11.4944 16.0276 11.6152 16.7136 11.7456 17.5011C12.0065 19.0518 12.0741 19.2596 12.4026 19.5929C12.6973 19.8876 13.021 20.018 13.4993 20.0422C13.8857 20.0615 13.9437 20.0518 14.2287 19.9166C14.3978 19.8393 14.7988 19.5977 15.1176 19.3852C15.5862 19.0712 15.7118 18.9649 15.736 18.8538C15.8181 18.4769 15.4751 18.2161 15.1321 18.3997C15.0403 18.448 14.7022 18.6605 14.3833 18.8634C13.8084 19.2354 13.7988 19.2402 13.5283 19.2209C13.2142 19.1968 12.9679 19.0422 12.8471 18.7861C12.8084 18.6992 12.6635 17.9649 12.5234 17.1533C12.2432 15.4817 12.1997 15.361 11.7794 15.1001C11.5717 14.9745 11.4944 14.9552 11.1997 14.9552C10.9099 14.9552 10.8181 14.9745 10.6297 15.0904C10.2335 15.3223 10.0693 15.6267 9.88088 16.4866C9.7601 17.0422 9.7601 18.4045 9.88088 18.989C10.0693 19.8828 10.3881 20.7282 10.8422 21.5591C11.1273 22.0712 11.1659 22.2451 11.05 22.4866C10.9389 22.7185 10.7311 22.8586 10.4606 22.8924C10.1369 22.9263 9.98233 22.8248 9.68281 22.3562C8.37845 20.3417 8.15622 17.7523 9.05478 14.9503L9.25285 14.3271V13.4334C9.25285 12.9407 9.23836 12.4866 9.21903 12.4286C9.19488 12.3609 9.10792 12.2837 9.01613 12.245C8.82773 12.1677 8.86154 12.1677 8.67797 12.245Z" fill="white"/>
<path d="M19.765 17.3756C19.6829 17.5302 19.5814 17.6317 19.422 17.7186C19.2916 17.7863 19.1901 17.8587 19.1901 17.8781C19.1901 17.8925 19.2867 17.9553 19.4075 18.0133C19.5669 18.0906 19.6587 18.1824 19.765 18.366L19.9051 18.6172L20.0404 18.3756C20.137 18.2017 20.2384 18.1003 20.4124 18.0037L20.6539 17.8684L20.4075 17.7283C20.2384 17.6317 20.1273 17.5254 20.0597 17.3998C20.0066 17.2935 19.9438 17.1969 19.9196 17.1824C19.9003 17.1679 19.8278 17.2549 19.765 17.3756Z" fill="white"/>
<path d="M5.71174 20.3706C5.62479 20.5252 5.52334 20.6266 5.35908 20.7184L5.1272 20.844L5.23831 20.931C5.30111 20.9744 5.40739 21.0372 5.47503 21.0662C5.54749 21.0952 5.64411 21.2111 5.70208 21.3319C5.76005 21.4527 5.82769 21.5493 5.84701 21.5493C5.87117 21.5493 5.94363 21.4527 6.0016 21.3416C6.0789 21.1918 6.18518 21.0904 6.35426 20.9938C6.6103 20.8488 6.6103 20.8537 6.28663 20.6797C6.18035 20.6218 6.06924 20.5058 5.99677 20.3706C5.93397 20.2498 5.87117 20.1483 5.85667 20.1483C5.84218 20.1483 5.77455 20.2498 5.71174 20.3706Z" fill="white"/>
</svg>
