<svg width="23" height="23" viewBox="0 0 23 23" fill="none" xmlns="http://www.w3.org/2000/svg">
<g clip-path="url(#clip0_353_153)">
<path fill-rule="evenodd" clip-rule="evenodd" d="M20.7738 13.0316C21.0806 13.1788 21.3749 13.1363 21.8303 13.6906C22.1039 14.0234 22.2573 14.3881 22.2573 14.979V22.2587H20.7733V13.0316H20.7738ZM0.74125 20.7749H20.0318V22.2587H0.74125V20.7749ZM10.3865 17.4363H20.0318V20.033H10.3865V17.4363ZM8.16059 17.4363H9.64455V20.033H8.16059V17.4363ZM7.04762 17.4363H7.41861V20.033H7.04762V17.4363ZM5.56365 14.0977H6.30563V20.0325H5.56365V14.0977ZM19.2894 12.7533C19.4939 12.801 19.8113 12.8744 20.0313 12.8922V16.6944H19.2894V12.7533ZM11.87 12.6144C12.021 12.6018 13.4669 12.3244 13.5392 12.2897C13.6656 12.7634 14.4071 13.3563 15.0695 13.3563C15.5674 13.3563 15.8897 13.3264 16.3036 13.0138C16.5004 12.8647 16.8121 12.5386 16.8782 12.2902L18.5474 12.6148V16.6954H11.87V12.6148V12.6144ZM4.82167 13.7272V16.6949H1.15855C0.929399 16.6949 0.74125 16.5068 0.74125 16.2776V11.1773C0.74125 10.9482 0.929399 10.7601 1.15855 10.7601H10.7112C10.9404 10.7601 11.1285 10.9482 11.1285 11.1773V16.6949H7.0481V13.7272C7.0481 13.5029 6.90144 13.3563 6.67711 13.3563H5.19314C4.96881 13.3563 4.82215 13.5029 4.82215 13.7272H4.82167ZM14.096 10.9916C14.2518 11.0046 14.3724 11.0524 14.5186 11.0789C15.4511 11.2473 15.8544 11.0302 16.3214 10.9916C16.3214 11.5044 16.3291 11.8044 16.1106 12.1257C15.6769 12.7634 14.7598 12.76 14.3256 12.1532C14.1013 11.8392 14.0955 11.5328 14.0955 10.9921L14.096 10.9916ZM12.241 7.28253V5.42774C12.241 5.21983 12.6318 4.62698 12.7046 4.31487C12.8305 4.3443 13.3149 4.69644 13.7086 4.88747C14.5678 5.30473 15.8496 5.30473 16.7088 4.88747C17.1025 4.69644 17.5869 4.3443 17.7128 4.31487C17.7784 4.59707 18.1764 5.21887 18.1764 5.42774C18.1764 6.32836 18.2748 7.80013 17.9443 8.53432C17.7576 8.94966 17.6206 9.14213 17.3413 9.46147C17.254 9.56133 17.0692 9.7128 16.9452 9.80734C16.7585 9.94917 16.6601 9.98824 16.4459 10.0963C15.3194 10.6621 13.8784 10.3283 13.0973 9.48704C12.599 8.95014 12.241 8.29168 12.241 7.28301V7.28253ZM18.9184 6.67954V5.93763C19.0911 5.97766 19.2894 6.11418 19.2894 6.30858C19.2894 6.50299 19.0911 6.6395 18.9184 6.67954ZM11.128 6.30858C11.128 6.11418 11.3263 5.97766 11.499 5.93763V6.67954C11.3263 6.6395 11.128 6.50299 11.128 6.30858ZM14.9306 0.791028C15.9384 0.791028 16.1323 0.831066 17.0948 1.31635C17.2791 1.40945 17.4276 1.45286 17.6057 1.54741C18.1306 1.82623 18.7794 2.52666 18.7794 3.2951C18.7794 4.32886 18.6738 4.04908 18.6405 4.45428C18.3288 4.22611 18.2912 3.34141 17.8059 3.34141C17.3114 3.34141 16.1231 5.24443 13.7549 4.05342L13.2015 3.67957C13.0563 3.57007 12.8151 3.34141 12.612 3.34141C12.1141 3.34141 12.0379 4.2758 11.7311 4.50059C11.6587 4.18945 11.0031 3.26278 11.788 2.42488C12.0456 2.1504 12.2603 1.98108 12.7032 1.90197C13.574 1.74567 14.2127 2.26376 14.5133 2.83153C14.7222 2.69164 14.9378 2.53293 15.1626 2.41426C14.8823 1.88508 14.2846 1.35012 13.6787 1.20878C13.93 0.990254 14.6286 0.79151 14.9306 0.79151V0.791028ZM10.6644 3.202C10.6644 4.19958 10.759 4.23576 11.2675 5.19571C10.7681 5.43546 10.3865 5.55413 10.3865 6.4012C10.3865 6.91253 10.8487 7.42145 11.4995 7.42145C11.4995 8.51358 11.9221 9.41275 12.6231 10.1002C12.762 10.2362 13.1697 10.5714 13.3545 10.6207V11.5478L11.8705 11.8261V11.0379C11.8705 10.528 11.3606 10.0177 10.8502 10.0177H1.01961C0.509682 10.0177 -0.000732422 10.5275 -0.000732422 11.0379V16.4165C-0.000732422 16.9264 0.509199 17.4368 1.01961 17.4368H4.82215V20.0335H0.370741C0.14641 20.0335 -0.000249989 20.1801 -0.000249989 20.4044V22.6302C-0.000249989 22.8545 0.14641 23.0011 0.370741 23.0011H22.6288C22.8531 23.0011 22.9998 22.8545 22.9998 22.6302V14.7017C22.9998 13.541 22.06 12.5121 20.879 12.2781C20.2668 12.1571 19.6078 12.0447 18.969 11.9159C18.3539 11.7924 17.6756 11.6911 17.0644 11.5483V10.6211C17.4605 10.5155 18.0722 9.83291 18.3173 9.46244C18.6974 8.88791 18.9193 8.26804 18.9193 7.42145C19.2638 7.42145 19.5084 7.30037 19.6956 7.13106C20.1177 6.749 20.1524 6.02928 19.7631 5.5575C19.5933 5.35152 19.3912 5.31052 19.1514 5.19571C19.2937 4.58501 19.5687 4.58453 19.5687 3.38724C19.5687 2.35059 18.8267 1.3916 18.1638 0.990254C17.7432 0.735553 17.3157 0.590354 16.8801 0.37328C15.9123 -0.109109 14.5905 -0.132263 13.6179 0.357843C13.3651 0.485194 13.2257 0.557069 13.0042 0.717705L12.4485 1.13594C12.2704 1.24592 12.1831 1.20299 11.8097 1.4244C11.6336 1.52908 11.3832 1.70226 11.2568 1.84553C11.0007 2.13544 10.6659 2.68006 10.6659 3.202H10.6644Z" fill="white"/>
</g>
<defs>
<clipPath id="clip0_353_153">
<rect width="23" height="23" fill="white"/>
</clipPath>
</defs>
</svg>
