<svg width="1110" height="775" viewBox="0 0 1110 775" fill="none" xmlns="http://www.w3.org/2000/svg">
<path d="M789.552 475.189V474.189H788.552H1V1H1046V394.181V395.181H1047H1109V774H789.552V475.189Z" fill="#F6F3EE" stroke="#B8ADA0" stroke-width="2"/>
<rect x="950.5" y="396.5" width="158" height="151" stroke="#B8ADA0"/>
<rect x="885.5" y="181.5" width="160" height="215" stroke="#B8ADA0"/>
<rect x="730.5" y="1.5" width="316" height="139" stroke="#B8ADA0"/>
<rect x="380.5" y="1.5" width="284" height="139" stroke="#B8ADA0"/>
<rect x="255.5" y="1.5" width="169" height="95" fill="#F6F3EE" stroke="#B8ADA0"/>
<rect x="425.5" y="181.5" width="114" height="59" stroke="#B8ADA0"/>
<rect x="255.5" y="337.5" width="179" height="59" stroke="#B8ADA0"/>
<rect x="730.5" y="181.5" width="154" height="156" stroke="#B8ADA0"/>
<rect x="570.5" y="181.5" width="94" height="215" stroke="#B8ADA0"/>
<rect x="435" y="337" width="135" height="60" fill="#B8ADA0"/>
<rect x="255.5" y="181.5" width="284" height="115" stroke="#B8ADA0"/>
<path d="M95.5 474V47.6131H189.5V2" stroke="#B8ADA0"/>
<rect x="730.5" y="337.5" width="154" height="59" stroke="#B8ADA0"/>
<rect x="95.5" y="97.5" width="94" height="299" stroke="#B8ADA0"/>
</svg>
