<svg width="23" height="23" viewBox="0 0 23 23" fill="none" xmlns="http://www.w3.org/2000/svg">
<g clip-path="url(#clip0_214_58)">
<path fill-rule="evenodd" clip-rule="evenodd" d="M18.2728 5.50338C18.2718 5.54719 18.2662 5.59879 18.2568 5.6533L17.6471 11.2373C18.3142 8.64098 19.1496 5.45763 19.2813 4.96212C19.4026 4.50555 19.4365 4.48024 20.1007 4.02074L19.3895 6.76115C19.1674 7.68987 18.8918 8.60009 18.6782 9.50058L17.4336 14.2951C17.3734 14.5297 17.3292 14.812 17.236 15.0116C17.0836 14.9064 16.9576 14.7955 16.791 14.7049C16.7939 14.592 17.1796 13.0597 17.6471 11.2383L18.2568 5.65428C18.2173 5.88305 18.1185 6.18386 18.0752 6.37369H13.8765C13.4014 6.37369 12.8182 6.25785 12.7072 6.65114C12.6375 6.89938 12.7382 7.07754 12.8784 7.15152C13.075 7.25471 17.4985 7.19144 17.8287 7.19144C17.8231 7.46791 17.6923 7.8174 17.6312 8.0598L16.2689 13.3459C16.1984 13.635 16.0742 13.9592 16.0507 14.2454C15.8663 14.2298 15.6997 14.1481 15.5511 14.0974C15.3535 14.0313 15.2275 14.005 14.9866 13.966C14.1033 13.8249 13.3902 13.9037 12.5331 14.1315C12.2076 14.2182 11.7748 14.3671 11.5067 14.5005C11.4475 14.2707 11.0232 13.9135 10.963 13.6827C11.2518 13.6827 11.6356 13.7343 11.8181 13.5961C12.0345 13.4306 11.9978 13.0616 11.7946 12.9244C11.5773 12.7774 9.61766 12.8669 9.03438 12.8621C8.68535 12.8592 8.4718 12.9049 8.44357 13.2281C8.38995 13.8463 9.19713 13.6827 9.92529 13.6827C9.97139 13.8609 10.6375 14.6611 10.7654 14.8587C10.2 15.1683 9.81146 15.4068 9.30438 15.8001C9.14257 15.9257 8.99016 16.0834 8.83964 16.1876L5.77742 8.67408C6.58179 8.67408 7.39932 8.89409 7.24127 7.9274C7.18482 7.58084 7.09356 7.30826 6.93457 7.0678C5.943 5.5725 4.42365 6.7446 1.47339 5.76623C1.06698 5.63189 0.986072 5.62215 0.699137 5.92394C0.310598 6.33281 0.087635 6.86726 0.00861011 7.56429C-0.0186723 7.80085 0.0330702 8.30123 0.242862 8.41999C0.608823 8.62638 2.8695 8.67408 3.40574 8.67408C3.48853 8.8532 3.54968 9.05374 3.63623 9.25331C3.72748 9.46553 3.78393 9.60961 3.87142 9.82767L6.96374 17.3626C7.04464 17.5524 7.12367 17.7919 7.20928 17.9778C7.1152 18.1229 7.00513 18.2592 6.8913 18.4159L5.99004 19.8859C5.72286 20.3999 5.21108 21.5574 5.08502 22.1181C4.50268 22.1181 2.03221 22.0344 1.72082 22.1639C1.43764 22.2817 1.16576 22.9933 2.1197 22.9894L19.2126 22.9875C19.7752 22.9875 20.4902 23.1257 20.5184 22.5708C20.5457 22.0217 19.8269 22.1191 19.2625 22.1191C18.6858 22.1191 18.11 22.1191 17.5333 22.1191C17.9463 21.4805 18.2483 21.2186 18.5211 20.2792C18.9501 18.8043 18.8419 17.274 17.9934 15.9646C17.8419 15.73 17.8983 15.769 18.0554 15.1965C18.1147 14.9804 18.1363 14.8432 18.1956 14.6261L20.8524 4.39262C21.3049 2.56925 20.9549 3.45027 22.6558 1.96568C23.6004 1.14015 22.4159 -0.542055 21.3246 0.179309L19.3462 1.76125C19.2022 1.8732 19.0903 1.954 18.9539 2.07082L16.6151 3.94481C16.3367 4.16969 16.0949 4.32642 16.0177 4.7606C15.9189 5.32329 16.331 5.91031 16.7826 6.0797C17.4778 6.3406 17.951 5.68446 18.2737 5.50825L18.2728 5.50338ZM4.29383 8.6731H4.88651C5.03516 8.99436 5.14993 9.33411 5.29857 9.67776C6.13586 11.6189 6.94775 13.8054 7.78409 15.7446L8.19615 16.8009L7.81231 17.2214C7.64862 16.9118 7.48775 16.4923 7.36357 16.1798L6.0399 12.9497C5.53847 11.7825 4.75198 9.66121 4.29383 8.6731ZM12.0496 15.1644C12.5134 15.0525 12.7514 14.8938 13.4513 14.775C13.646 14.7419 13.8558 14.7585 14.0619 14.7409C14.7242 14.6845 15.5201 14.9045 16.0234 15.1936C16.5549 15.4983 16.967 15.8536 17.3075 16.3696C18.3339 17.9243 18.0705 20.3756 16.8052 21.6693C16.6565 21.8212 16.5145 22.0724 16.2953 22.1123L5.92513 22.1162C6.0098 21.9507 6.05401 21.7832 6.12175 21.6041C7.13872 18.9338 8.87915 16.8525 11.3092 15.5217C11.4823 15.8595 11.7701 16.0873 11.9517 16.4416C11.6638 16.8865 11.1615 17.3207 11.1615 18.3332C11.1615 19.0078 11.1568 19.2463 11.4569 19.8674C11.6384 20.2422 11.7598 20.4087 12.0373 20.6978C14.0449 22.7889 17.7262 20.8487 16.8814 17.6274C16.823 17.4064 16.7346 17.2302 16.6273 17.0209C16.5182 16.8086 16.4147 16.6986 16.2774 16.5147C16.0422 16.2002 15.6499 15.95 15.3112 15.7767C13.9885 15.1002 13.0882 15.7612 12.5933 15.8799L12.0496 15.1644ZM13.1361 16.5448C13.519 16.4523 13.6141 16.3404 14.124 16.3404C14.6988 16.3404 15.2632 16.648 15.5699 16.9401C16.2247 17.5641 16.3696 18.6895 16.0017 19.5101C15.3347 21.0015 13.0289 21.2731 12.1963 19.5111C11.9178 18.9211 11.8821 18.2631 12.1643 17.6352C12.2076 17.5388 12.2528 17.4443 12.2998 17.3665C12.3911 17.2165 12.3976 17.2925 12.4447 17.1075C12.6112 17.2224 13.3883 18.301 13.5745 18.5454C14.1597 19.3144 14.4702 18.7917 14.4702 18.4363C14.4702 18.3117 13.6404 17.2633 13.4607 17.0277C13.2377 16.7347 13.2989 16.8661 13.1361 16.5458V16.5448ZM17.0874 5.29992L16.951 5.18602C16.6311 4.84919 17.0648 4.64281 17.7017 4.1473L19.317 2.85449C19.4751 2.72307 21.7263 0.853945 21.8787 0.853945C21.9973 0.853945 22.1751 1.03794 22.1751 1.1606C22.1751 1.34848 21.1543 2.10684 20.9615 2.25676C20.5137 2.60527 20.1186 2.92069 19.6764 3.27796C19.254 3.61869 17.5719 5.03513 17.0864 5.3009L17.0874 5.29992ZM1.23067 6.57813C2.38312 6.85558 2.53835 6.97045 3.90058 7.0863C4.97871 7.17878 6.14339 6.80885 6.36823 7.80474C5.20355 7.80474 4.19881 7.85634 3.05859 7.85634C2.62772 7.85634 2.34643 7.81837 1.9212 7.80669C1.55336 7.79695 1.24478 7.70252 0.835549 7.70252C0.835549 7.45136 0.869417 7.23914 0.949382 7.0532C1.04722 6.82345 1.11872 6.75239 1.23161 6.57813H1.23067Z" fill="#7D6858"/>
<path fill-rule="evenodd" clip-rule="evenodd" d="M17.235 15.0105L18.2726 5.5033L17.235 15.0105Z" fill="#7D6858"/>
</g>
<defs>
<clipPath id="clip0_214_58">
<rect width="23" height="23" fill="white"/>
</clipPath>
</defs>
</svg>
