<svg width="23" height="23" viewBox="0 0 23 23" fill="none" xmlns="http://www.w3.org/2000/svg">
<g clip-path="url(#clip0_377_175)">
<path fill-rule="evenodd" clip-rule="evenodd" d="M18.2728 5.50326C18.2719 5.54707 18.2662 5.59867 18.2568 5.65318L17.6472 11.2372C18.3142 8.64086 19.1496 5.45751 19.2813 4.962C19.4027 4.50542 19.4365 4.48011 20.1007 4.02062L19.3895 6.76103C19.1675 7.68974 18.8918 8.59997 18.6783 9.50046L17.4336 14.2949C17.3734 14.5296 17.3292 14.8119 17.2361 15.0114C17.0837 14.9063 16.9576 14.7953 16.7911 14.7048C16.7939 14.5919 17.1796 13.0596 17.6472 11.2382L18.2568 5.65416C18.2173 5.88293 18.1185 6.18374 18.0752 6.37357H13.8766C13.4015 6.37357 12.8182 6.25773 12.7072 6.65102C12.6376 6.89926 12.7382 7.07741 12.8784 7.1514C13.075 7.25459 17.4986 7.19131 17.8288 7.19131C17.8231 7.46779 17.6924 7.81727 17.6312 8.05968L16.269 13.3458C16.1984 13.6349 16.0742 13.9591 16.0507 14.2453C15.8663 14.2297 15.6998 14.1479 15.5512 14.0973C15.3536 14.0311 15.2275 14.0048 14.9867 13.9659C14.1033 13.8247 13.3902 13.9036 12.5332 14.1314C12.2076 14.218 11.7749 14.367 11.5068 14.5004C11.4475 14.2706 11.0232 13.9133 10.963 13.6826C11.2518 13.6826 11.6357 13.7342 11.8182 13.596C12.0345 13.4305 11.9979 13.0615 11.7946 12.9243C11.5773 12.7773 9.6177 12.8668 9.03442 12.862C8.6854 12.859 8.47184 12.9048 8.44362 13.228C8.38999 13.8462 9.19718 13.6826 9.92533 13.6826C9.97143 13.8608 10.6375 14.661 10.7654 14.8586C10.2 15.1682 9.8115 15.4067 9.30443 15.8C9.14261 15.9256 8.99021 16.0833 8.83968 16.1874L5.77747 8.67395C6.58183 8.67395 7.39936 8.89397 7.24131 7.92728C7.18487 7.58071 7.09361 7.30813 6.93462 7.06768C5.94305 5.57238 4.4237 6.74448 1.47344 5.76611C1.06702 5.63176 0.986118 5.62203 0.699183 5.92381C0.310644 6.33268 0.0876807 6.86714 0.00865589 7.56416C-0.0186265 7.80072 0.033116 8.3011 0.242908 8.41987C0.608869 8.62625 2.86954 8.67395 3.40578 8.67395C3.48857 8.85308 3.54972 9.05362 3.63627 9.25319C3.72753 9.46541 3.78397 9.60949 3.87147 9.82755L6.96378 17.3624C7.04469 17.5523 7.12372 17.7918 7.20933 17.9777C7.11525 18.1228 7.00518 18.259 6.89135 18.4158L5.99009 19.8858C5.72291 20.3998 5.21113 21.5573 5.08506 22.118C4.50272 22.118 2.03226 22.0343 1.72086 22.1638C1.43769 22.2815 1.16581 22.9932 2.11975 22.9893L19.2126 22.9873C19.7752 22.9873 20.4902 23.1256 20.5184 22.5707C20.5457 22.0216 19.827 22.119 19.2625 22.119C18.6858 22.119 18.1101 22.119 17.5334 22.119C17.9464 21.4804 18.2483 21.2185 18.5212 20.2791C18.9502 18.8042 18.842 17.2739 17.9934 15.9645C17.8419 15.7299 17.8984 15.7688 18.0555 15.1964C18.1148 14.9803 18.1364 14.843 18.1957 14.6259L20.8524 4.3925C21.3049 2.56913 20.9549 3.45015 22.6559 1.96556C23.6004 1.14003 22.416 -0.542177 21.3247 0.179187L19.3462 1.76113C19.2023 1.87308 19.0903 1.95388 18.9539 2.0707L16.6152 3.94469C16.3367 4.16957 16.0949 4.3263 16.0178 4.76048C15.919 5.32316 16.3311 5.91019 16.7826 6.07957C17.4779 6.34047 17.9511 5.68433 18.2737 5.50813L18.2728 5.50326ZM4.29387 8.67298H4.88656C5.0352 8.99424 5.14998 9.33399 5.29862 9.67763C6.1359 11.6188 6.94779 13.8053 7.78414 15.7445L8.1962 16.8007L7.81236 17.2213C7.64867 16.9117 7.48779 16.4921 7.36361 16.1796L6.03995 12.9496C5.53851 11.7823 4.75203 9.66108 4.29387 8.67298ZM12.0496 15.1643C12.5134 15.0523 12.7514 14.8937 13.4513 14.7749C13.6461 14.7418 13.8559 14.7583 14.0619 14.7408C14.7242 14.6843 15.5201 14.9044 16.0234 15.1935C16.555 15.4982 16.967 15.8535 17.3076 16.3695C18.334 17.9242 18.0705 20.3754 16.8052 21.6692C16.6566 21.8211 16.5145 22.0722 16.2953 22.1122L5.92517 22.1161C6.00984 21.9506 6.05406 21.7831 6.12179 21.604C7.13877 18.9337 8.8792 16.8523 11.3092 15.5216C11.4823 15.8594 11.7702 16.0872 11.9518 16.4415C11.6639 16.8864 11.1615 17.3206 11.1615 18.333C11.1615 19.0077 11.1568 19.2462 11.4569 19.8673C11.6385 20.2421 11.7598 20.4085 12.0374 20.6977C14.045 22.7887 17.7262 20.8486 16.8814 17.6272C16.8231 17.4063 16.7346 17.2301 16.6274 17.0208C16.5183 16.8085 16.4148 16.6985 16.2774 16.5145C16.0422 16.2001 15.6499 15.9499 15.3113 15.7766C13.9885 15.1 13.0882 15.761 12.5934 15.8798L12.0496 15.1643ZM13.1362 16.5447C13.5191 16.4522 13.6141 16.3403 14.124 16.3403C14.6988 16.3403 15.2633 16.6479 15.57 16.9399C16.2247 17.564 16.3696 18.6893 16.0018 19.51C15.3348 21.0014 13.0289 21.273 12.1964 19.511C11.9179 18.921 11.8821 18.2629 12.1644 17.635C12.2076 17.5387 12.2528 17.4442 12.2998 17.3663C12.3911 17.2164 12.3977 17.2924 12.4447 17.1074C12.6112 17.2223 13.3883 18.3009 13.5746 18.5453C14.1597 19.3143 14.4702 18.7915 14.4702 18.4362C14.4702 18.3116 13.6404 17.2632 13.4608 17.0276C13.2378 16.7345 13.2989 16.866 13.1362 16.5457V16.5447ZM17.0874 5.2998L16.951 5.1859C16.6312 4.84907 17.0649 4.64269 17.7018 4.14718L19.3171 2.85437C19.4751 2.72294 21.7264 0.853823 21.8788 0.853823C21.9973 0.853823 22.1751 1.03781 22.1751 1.16048C22.1751 1.34836 21.1544 2.10672 20.9615 2.25664C20.5137 2.60515 20.1186 2.92056 19.6764 3.27784C19.254 3.61856 17.5719 5.03501 17.0865 5.30077L17.0874 5.2998ZM1.23072 6.57801C2.38316 6.85546 2.53839 6.97033 3.90063 7.08617C4.97875 7.17866 6.14343 6.80873 6.36828 7.80462C5.2036 7.80462 4.19885 7.85621 3.05864 7.85621C2.62777 7.85621 2.34647 7.81825 1.92125 7.80657C1.5534 7.79683 1.24483 7.7024 0.835595 7.7024C0.835595 7.45124 0.869462 7.23901 0.949428 7.05308C1.04727 6.82333 1.11877 6.75226 1.23166 6.57801H1.23072Z" fill="white"/>
<path fill-rule="evenodd" clip-rule="evenodd" d="M17.2351 15.0104L18.2728 5.50317L17.2351 15.0104Z" fill="white"/>
</g>
<defs>
<clipPath id="clip0_377_175">
<rect width="23" height="23" fill="white"/>
</clipPath>
</defs>
</svg>
