<svg width="20" height="20" viewBox="0 0 20 20" fill="none" xmlns="http://www.w3.org/2000/svg">
<path fill-rule="evenodd" clip-rule="evenodd" d="M17.0203 14.9799C17.2156 15.1751 17.2156 15.4917 17.0203 15.687C16.825 15.8822 16.5085 15.8822 16.3132 15.687L10.9799 10.3536C10.7846 10.1584 10.7846 9.84179 10.9799 9.64653L16.3132 4.31319C16.5085 4.11793 16.825 4.11793 17.0203 4.31319C17.2156 4.50846 17.2156 4.82504 17.0203 5.0203L12.0405 10.0001L17.0203 14.9799ZM9.0203 14.9799C9.21556 15.1751 9.21556 15.4917 9.0203 15.687C8.82504 15.8822 8.50846 15.8822 8.31319 15.687L2.97986 10.3536C2.7846 10.1584 2.7846 9.84179 2.97986 9.64653L8.31319 4.31319C8.50846 4.11793 8.82504 4.11793 9.0203 4.31319C9.21556 4.50846 9.21556 4.82504 9.0203 5.0203L4.04052 10.0001L9.0203 14.9799Z" fill="#7D6858"/>
</svg>
