<svg width="20" height="20" viewBox="0 0 20 20" fill="none" xmlns="http://www.w3.org/2000/svg">
<path d="M18.3337 10.9383C17.4051 10.2709 16.2758 9.94188 15.1341 10.0062C13.9924 10.0705 12.9072 10.5242 12.0595 11.2917C11.2118 12.0592 10.6527 13.0941 10.4756 14.2238C10.2985 15.3536 10.514 16.5099 11.0862 17.5H2.50033C2.27931 17.5 2.06735 17.4122 1.91107 17.2559C1.75479 17.0996 1.66699 16.8877 1.66699 16.6667V3.33333C1.66699 3.11232 1.75479 2.90036 1.91107 2.74408C2.06735 2.5878 2.27931 2.5 2.50033 2.5H8.67866L10.3453 4.16667H17.5003C17.7213 4.16667 17.9333 4.25446 18.0896 4.41074C18.2459 4.56702 18.3337 4.77899 18.3337 5V10.9383ZM15.0003 14.1667V11.25L19.167 15L15.0003 18.75V15.8333H12.5003V14.1667H15.0003Z" fill="#7D6858"/>
</svg>
