<svg width="50" height="50" viewBox="0 0 50 50" fill="none" xmlns="http://www.w3.org/2000/svg">
<rect width="50" height="50" rx="25" fill="#C9D0A4"/>
<g clip-path="url(#clip0_160_608)">
<path fill-rule="evenodd" clip-rule="evenodd" d="M22.3871 26.3162C22.3871 26.275 23.1546 25.4132 23.2485 25.301C23.3716 25.1536 24.0536 24.4249 24.0956 24.2721H25.9047L27.6133 26.3162C27.6133 26.6436 26.7438 30.5992 26.6375 31.1142C26.3717 32.4025 26.1861 32.2053 24.2464 32.2053C23.5131 32.2053 23.4563 31.5678 23.3712 31.1547C23.2642 30.6357 22.3871 26.6507 22.3871 26.3162ZM26.9098 24.2721H28.0655C28.0028 24.5329 27.8645 25.0609 27.8645 25.3428H27.764C27.7155 25.1672 27.0486 24.4729 26.9098 24.2721H26.9098ZM22.2363 25.3428H22.1359C22.1359 25.0609 21.9976 24.5329 21.9349 24.2721H23.0906L22.4441 25.0574C22.3308 25.19 22.2844 25.1688 22.2363 25.3428H22.2363ZM27.6132 21.0599V19.8918H28.7187C28.7187 21.2158 28.8844 21.5953 28.0655 21.5953C27.757 21.5953 27.6132 21.3636 27.6132 21.0599H27.6132ZM21.2816 21.0599V19.8918H22.3871C22.3871 21.2158 22.5528 21.5953 21.7338 21.5953C21.4254 21.5953 21.2816 21.3636 21.2816 21.0599H21.2816ZM20.4776 19.7458V20.8166C20.4776 21.1586 20.5541 21.3162 20.578 21.5953C19.9567 21.5953 19.514 21.5903 19.1028 21.8212C18.2548 22.2974 18.4172 23.102 18.4172 23.9801C18.4172 24.2142 18.6626 24.2724 18.8653 24.2761L21.1308 24.2721C21.6759 26.5383 22.1271 29.3425 22.668 31.6411C22.764 32.049 22.9271 32.3572 23.2048 32.5813C23.8759 33.1231 24.6655 32.9839 25.7037 32.9839C26.5357 32.9839 27.1485 32.4306 27.3324 31.6413L28.3545 26.7422C28.5249 25.911 28.6764 25.0751 28.8695 24.2721L31.1351 24.2761C31.7341 24.265 31.5831 23.8808 31.5831 22.8607C31.5831 22.4283 31.2057 22.0074 30.9293 21.8392C30.527 21.5944 30.0677 21.5953 29.4223 21.5953C29.4463 21.3162 29.5228 21.1586 29.5228 20.8166C29.5228 18.8273 29.7939 19.1131 27.362 19.1131C26.6318 19.1131 26.8092 19.8223 26.8092 20.8652C26.8092 21.1543 26.854 21.3636 26.9098 21.5953C26.6087 21.5953 25.8201 21.5488 25.5767 21.6669C25.4941 21.707 25.3519 21.8643 25.3519 21.9359C25.3519 22.5198 25.982 22.3739 26.558 22.3739L29.8753 22.3733C30.8275 22.3667 30.8293 22.7681 30.8293 23.542H19.1711C19.1711 23.1416 19.1159 22.81 19.407 22.5538C19.5917 22.3913 19.7334 22.3699 20.0742 22.3726L24.1991 22.3767C24.4545 22.3667 24.6484 22.2551 24.6484 21.9847C24.6484 21.4518 23.6459 21.5953 23.0906 21.5953C23.2398 20.9752 23.1912 20.4012 23.1912 19.7458C23.1912 18.9036 22.6429 19.1131 21.0304 19.1131C20.5901 19.1131 20.4776 19.3229 20.4776 19.7458L20.4776 19.7458Z" fill="#7D6858"/>
<path fill-rule="evenodd" clip-rule="evenodd" d="M32.4774 28.7011H32.8292V32.2053H32.4774V28.7011ZM32.8292 19.2105C32.8292 19.4768 33.1044 20.5202 33.1906 20.856C33.3255 21.3816 33.4727 21.9429 33.5955 22.5079C33.6712 22.8566 34.387 25.5804 34.387 25.8295C34.387 26.5566 32.779 25.7839 32.779 26.511C32.779 27.0342 33.4343 26.9003 34.1357 26.9003C34.677 26.9003 35.191 26.3437 35.191 25.8295L34.0149 20.9336C33.9378 20.6377 33.8907 20.4002 33.8139 20.1062C33.6725 19.5646 33.364 18.7725 34.186 18.7725C34.6893 18.7725 34.7196 19.3875 34.8194 19.8139L36.1367 25.157C36.5348 26.6831 35.4372 27.9223 34.0855 27.9223H30.7187C30.1679 27.9223 30.083 27.0856 30.6456 26.9268C31.1838 26.775 31.9249 27.1237 32.0507 26.6295C32.2053 26.0225 31.2968 26.1703 30.6684 26.1703C30.0589 26.1703 29.4624 26.7856 29.4624 27.387C29.4624 28.1205 30.0661 28.7011 30.8192 28.7011H31.7237V32.2053C31.0644 32.2053 30.2664 32.0675 30.2664 32.5947C30.2664 32.8301 30.4254 32.9839 30.6684 32.9839H34.6383C35.206 32.9839 35.206 32.2053 34.6383 32.2053H33.6333V28.7011C34.6736 28.7011 35.3987 28.5218 36.0841 27.9112C36.765 27.3048 37.0001 26.5297 37.0001 25.6349C37.0001 25.2463 36.8685 24.9132 36.795 24.5682L35.5128 19.3369C35.3957 18.8855 35.2731 18.3763 34.7403 18.1383C33.6391 17.6467 32.8292 18.5764 32.8292 19.2105V19.2105Z" fill="#7D6858"/>
<path fill-rule="evenodd" clip-rule="evenodd" d="M17.1709 28.7011H17.5227V32.2053H17.1709V28.7011ZM13 26.0748V25.7166C13.0249 25.3179 13.1249 24.9207 13.2222 24.4874L13.7436 22.3641C13.8181 22.0784 13.8758 21.498 14.2061 21.498C14.4619 21.498 14.6584 21.6246 14.6584 21.8387C14.6584 22.0382 14.3064 23.3639 14.226 23.7075C14.0829 24.3191 13.8907 24.8964 13.7944 25.5288C13.6028 26.788 14.6482 27.9223 15.9146 27.9223H19.2814C19.8322 27.9223 19.9171 27.0856 19.3545 26.9268C18.8341 26.7801 15.9217 27.077 15.3999 26.7661C15.0913 26.5823 14.8091 26.242 14.8091 25.7809L16.2065 20.0286C16.2788 19.7469 16.6237 18.7725 15.9146 18.7725C15.2438 18.7725 15.2935 19.3581 15.0425 20.3612C14.8796 21.0119 14.2563 20.8088 14.2563 20.4273C14.2563 20.1426 14.5391 19.0589 14.6375 18.801C15.1306 17.5067 17.1709 17.8862 17.1709 19.2592C17.1709 19.4926 17.0496 19.876 16.99 20.1061L15.9846 24.1939C15.4176 26.3786 15.3823 26.1703 16.9196 26.1703C17.4724 26.1703 18.0251 26.1703 18.5779 26.1703C19.2334 26.1703 19.5989 26.1173 19.9939 26.4048C21.0574 27.179 20.432 28.7011 19.181 28.7011H18.2765V32.2053H19.2814C19.8866 32.2053 19.8719 32.9839 19.3317 32.9839H15.3619C14.7941 32.9839 14.7941 32.2053 15.3619 32.2053H16.3668V28.7011H16.0151C14.7868 28.7011 13.7986 28.0376 13.2999 27.0965C13.108 26.7344 13.0219 26.4005 13 26.0748L13 26.0748Z" fill="#7D6858"/>
</g>
<defs>
<clipPath id="clip0_160_608">
<rect width="24" height="15" fill="white" transform="translate(13 18)"/>
</clipPath>
</defs>
</svg>
