<svg width="58" height="324" viewBox="0 0 58 324" fill="none" xmlns="http://www.w3.org/2000/svg">
<path d="M57 323.824L1.16 323.824L1.16 286.784L11.96 286.784L11.96 311.664L23.4 311.664L23.4 290.464L34.12 290.464L34.12 311.664L57 311.664L57 323.824ZM57 279.187L47.32 279.187L47.32 271.987L10.84 271.987L10.84 279.187L1.16 279.187L1.16 252.627L10.84 252.627L10.84 259.827L47.32 259.827L47.32 252.627L57 252.627L57 279.187ZM11.96 219.529L57 219.529L57 231.689L11.96 231.689L11.96 246.809L1.16 246.809L1.15999 204.409L11.96 204.409L11.96 219.529ZM30.6 179.05L19.4 184.41L19.4 184.65L57 184.65L57 196.09L1.15999 196.09L1.15999 182.81L27.56 167.53L38.76 162.17L38.76 161.93L1.15999 161.93L1.15999 150.49L57 150.49L57 163.77L30.6 179.05ZM57 138.199L1.15999 138.199L1.15999 100.199L11.96 100.199L11.96 126.039L23.4 126.039L23.4 103.879L34.12 103.879L34.12 126.039L46.2 126.039L46.2 100.199L57 100.199L57 138.199ZM57.96 71.5256C57.96 76.4323 57.1333 80.5923 55.48 84.0056C53.7733 87.419 51.5867 90.3256 48.92 92.7256L40.84 84.7256C45.1067 80.939 47.24 76.2723 47.24 70.7256C47.24 67.739 46.6267 65.5256 45.4 64.0856C44.1733 62.6456 42.5467 61.9256 40.52 61.9256C38.9733 61.9256 37.6933 62.3523 36.68 63.2056C35.6133 64.059 34.8933 65.7923 34.52 68.4056L33.8 73.9256C33.0533 79.8456 31.2667 84.1923 28.44 86.9656C25.6133 89.6856 21.8533 91.0456 17.16 91.0456C14.6533 91.0456 12.36 90.5656 10.28 89.6056C8.19999 88.6456 6.41332 87.2856 4.91999 85.5256C3.42665 83.7123 2.27999 81.5256 1.47999 78.9656C0.626653 76.3523 0.199986 73.3923 0.199986 70.0856C0.199985 65.8723 0.866651 62.1656 2.19998 58.9656C3.53332 55.7656 5.47999 53.019 8.03998 50.7256L16.2 58.8056C14.6533 60.139 13.4 61.7656 12.44 63.6856C11.4267 65.5523 10.92 67.9256 10.92 70.8056C10.92 73.5256 11.4 75.5523 12.36 76.8856C13.32 78.219 14.6533 78.8856 16.36 78.8856C18.28 78.8856 19.6667 78.379 20.52 77.3656C21.3733 76.299 21.9867 74.5923 22.36 72.2456L23.24 66.7256C24.1467 60.9656 25.9333 56.699 28.6 53.9256C31.2133 51.1523 34.9467 49.7656 39.8 49.7656C42.4667 49.7656 44.92 50.2456 47.16 51.2056C49.4 52.1656 51.32 53.579 52.92 55.4456C54.52 57.259 55.7733 59.5256 56.68 62.2456C57.5333 64.9656 57.96 68.059 57.96 71.5256ZM57.96 22.6975C57.96 27.6042 57.1333 31.7642 55.48 35.1775C53.7733 38.5908 51.5867 41.4975 48.92 43.8975L40.84 35.8975C45.1067 32.1108 47.24 27.4442 47.24 21.8975C47.24 18.9108 46.6267 16.6975 45.4 15.2575C44.1733 13.8175 42.5467 13.0975 40.52 13.0975C38.9733 13.0975 37.6933 13.5242 36.68 14.3775C35.6133 15.2308 34.8933 16.9642 34.52 19.5775L33.8 25.0975C33.0533 31.0175 31.2667 35.3642 28.44 38.1375C25.6133 40.8575 21.8533 42.2175 17.16 42.2175C14.6533 42.2175 12.36 41.7375 10.28 40.7775C8.19998 39.8175 6.41332 38.4575 4.91999 36.6975C3.42665 34.8842 2.27999 32.6975 1.47999 30.1375C0.626651 27.5242 0.199984 24.5642 0.199983 21.2575C0.199983 17.0442 0.866649 13.3375 2.19998 10.1375C3.53332 6.9375 5.47998 4.19083 8.03998 1.8975L16.2 9.9775C14.6533 11.3108 13.4 12.9375 12.44 14.8575C11.4267 16.7242 10.92 19.0975 10.92 21.9775C10.92 24.6975 11.4 26.7242 12.36 28.0575C13.32 29.3908 14.6533 30.0575 16.36 30.0575C18.28 30.0575 19.6667 29.5508 20.52 28.5375C21.3733 27.4708 21.9867 25.7642 22.36 23.4175L23.24 17.8975C24.1467 12.1375 25.9333 7.87083 28.6 5.0975C31.2133 2.32416 34.9467 0.937494 39.8 0.937493C42.4667 0.937493 44.92 1.41749 47.16 2.37749C49.4 3.33749 51.32 4.75083 52.92 6.6175C54.52 8.43083 55.7733 10.6975 56.68 13.4175C57.5333 16.1375 57.96 19.2308 57.96 22.6975Z" fill="#CFC8BE" fill-opacity="0.01"/>
<path d="M57 323.824L57 324.824L58 324.824L58 323.824L57 323.824ZM1.16 323.824L0.16 323.824L0.16 324.824L1.16 324.824L1.16 323.824ZM1.16 286.784L1.16 285.784L0.159998 285.784L0.159998 286.784L1.16 286.784ZM11.96 286.784L12.96 286.784L12.96 285.784L11.96 285.784L11.96 286.784ZM11.96 311.664L10.96 311.664L10.96 312.664L11.96 312.664L11.96 311.664ZM23.4 311.664L23.4 312.664L24.4 312.664L24.4 311.664L23.4 311.664ZM23.4 290.464L23.4 289.464L22.4 289.464L22.4 290.464L23.4 290.464ZM34.12 290.464L35.12 290.464L35.12 289.464L34.12 289.464L34.12 290.464ZM34.12 311.664L33.12 311.664L33.12 312.664L34.12 312.664L34.12 311.664ZM57 311.664L58 311.664L58 310.664L57 310.664L57 311.664ZM57 322.824L1.16 322.824L1.16 324.824L57 324.824L57 322.824ZM2.16 323.824L2.16 286.784L0.159998 286.784L0.16 323.824L2.16 323.824ZM1.16 287.784L11.96 287.784L11.96 285.784L1.16 285.784L1.16 287.784ZM10.96 286.784L10.96 311.664L12.96 311.664L12.96 286.784L10.96 286.784ZM11.96 312.664L23.4 312.664L23.4 310.664L11.96 310.664L11.96 312.664ZM24.4 311.664L24.4 290.464L22.4 290.464L22.4 311.664L24.4 311.664ZM23.4 291.464L34.12 291.464L34.12 289.464L23.4 289.464L23.4 291.464ZM33.12 290.464L33.12 311.664L35.12 311.664L35.12 290.464L33.12 290.464ZM34.12 312.664L57 312.664L57 310.664L34.12 310.664L34.12 312.664ZM56 311.664L56 323.824L58 323.824L58 311.664L56 311.664ZM57 279.187L57 280.187L58 280.187L58 279.187L57 279.187ZM47.32 279.187L46.32 279.187L46.32 280.187L47.32 280.187L47.32 279.187ZM47.32 271.987L48.32 271.987L48.32 270.987L47.32 270.987L47.32 271.987ZM10.84 271.987L10.84 270.987L9.83999 270.987L9.83999 271.987L10.84 271.987ZM10.84 279.187L10.84 280.187L11.84 280.187L11.84 279.187L10.84 279.187ZM1.16 279.187L0.159998 279.187L0.159998 280.187L1.16 280.187L1.16 279.187ZM1.16 252.627L1.16 251.627L0.159996 251.627L0.159996 252.627L1.16 252.627ZM10.84 252.627L11.84 252.627L11.84 251.627L10.84 251.627L10.84 252.627ZM10.84 259.827L9.83999 259.827L9.83999 260.827L10.84 260.827L10.84 259.827ZM47.32 259.827L47.32 260.827L48.32 260.827L48.32 259.827L47.32 259.827ZM47.32 252.627L47.32 251.627L46.32 251.627L46.32 252.627L47.32 252.627ZM57 252.627L58 252.627L58 251.627L57 251.627L57 252.627ZM57 278.187L47.32 278.187L47.32 280.187L57 280.187L57 278.187ZM48.32 279.187L48.32 271.987L46.32 271.987L46.32 279.187L48.32 279.187ZM47.32 270.987L10.84 270.987L10.84 272.987L47.32 272.987L47.32 270.987ZM9.83999 271.987L9.83999 279.187L11.84 279.187L11.84 271.987L9.83999 271.987ZM10.84 278.187L1.16 278.187L1.16 280.187L10.84 280.187L10.84 278.187ZM2.16 279.187L2.16 252.627L0.159996 252.627L0.159998 279.187L2.16 279.187ZM1.16 253.627L10.84 253.627L10.84 251.627L1.16 251.627L1.16 253.627ZM9.83999 252.627L9.83999 259.827L11.84 259.827L11.84 252.627L9.83999 252.627ZM10.84 260.827L47.32 260.827L47.32 258.827L10.84 258.827L10.84 260.827ZM48.32 259.827L48.32 252.627L46.32 252.627L46.32 259.827L48.32 259.827ZM47.32 253.627L57 253.627L57 251.627L47.32 251.627L47.32 253.627ZM56 252.627L56 279.187L58 279.187L58 252.627L56 252.627ZM11.96 219.529L10.96 219.529L10.96 220.529L11.96 220.529L11.96 219.529ZM57 219.529L58 219.529L58 218.529L57 218.529L57 219.529ZM57 231.689L57 232.689L58 232.689L58 231.689L57 231.689ZM11.96 231.689L11.96 230.689L10.96 230.689L10.96 231.689L11.96 231.689ZM11.96 246.809L11.96 247.809L12.96 247.809L12.96 246.809L11.96 246.809ZM1.16 246.809L0.159996 246.809L0.159996 247.809L1.16 247.809L1.16 246.809ZM1.15999 204.409L1.15999 203.409L0.159994 203.409L0.159994 204.409L1.15999 204.409ZM11.96 204.409L12.96 204.409L12.96 203.409L11.96 203.409L11.96 204.409ZM11.96 220.529L57 220.529L57 218.529L11.96 218.529L11.96 220.529ZM56 219.529L56 231.689L58 231.689L58 219.529L56 219.529ZM57 230.689L11.96 230.689L11.96 232.689L57 232.689L57 230.689ZM10.96 231.689L10.96 246.809L12.96 246.809L12.96 231.689L10.96 231.689ZM11.96 245.809L1.16 245.809L1.16 247.809L11.96 247.809L11.96 245.809ZM2.16 246.809L2.15999 204.409L0.159994 204.409L0.159996 246.809L2.16 246.809ZM1.15999 205.409L11.96 205.409L11.96 203.409L1.15999 203.409L1.15999 205.409ZM10.96 204.409L10.96 219.529L12.96 219.529L12.96 204.409L10.96 204.409ZM30.6 179.05L31.0317 179.952L31.067 179.935L31.1009 179.915L30.6 179.05ZM19.4 184.41L18.9683 183.508L18.4 183.78L18.4 184.41L19.4 184.41ZM19.4 184.65L18.4 184.65L18.4 185.65L19.4 185.65L19.4 184.65ZM57 184.65L58 184.65L58 183.65L57 183.65L57 184.65ZM57 196.09L57 197.09L58 197.09L58 196.09L57 196.09ZM1.15999 196.09L0.159994 196.09L0.159994 197.09L1.15999 197.09L1.15999 196.09ZM1.15999 182.81L0.659059 181.945L0.159993 182.233L0.159993 182.81L1.15999 182.81ZM27.56 167.53L27.1283 166.628L27.093 166.645L27.0591 166.665L27.56 167.53ZM38.76 162.17L39.1917 163.072L39.76 162.8L39.76 162.17L38.76 162.17ZM38.76 161.93L39.76 161.93L39.76 160.93L38.76 160.93L38.76 161.93ZM1.15999 161.93L0.159993 161.93L0.159993 162.93L1.15999 162.93L1.15999 161.93ZM1.15999 150.49L1.15999 149.49L0.159992 149.49L0.159992 150.49L1.15999 150.49ZM57 150.49L58 150.49L58 149.49L57 149.49L57 150.49ZM57 163.77L57.5009 164.635L58 164.347L58 163.77L57 163.77ZM30.1683 178.148L18.9683 183.508L19.8317 185.312L31.0317 179.952L30.1683 178.148ZM18.4 184.41L18.4 184.65L20.4 184.65L20.4 184.41L18.4 184.41ZM19.4 185.65L57 185.65L57 183.65L19.4 183.65L19.4 185.65ZM56 184.65L56 196.09L58 196.09L58 184.65L56 184.65ZM57 195.09L1.15999 195.09L1.15999 197.09L57 197.09L57 195.09ZM2.15999 196.09L2.15999 182.81L0.159993 182.81L0.159994 196.09L2.15999 196.09ZM1.66093 183.675L28.0609 168.395L27.0591 166.665L0.659059 181.945L1.66093 183.675ZM27.9917 168.432L39.1917 163.072L38.3283 161.268L27.1283 166.628L27.9917 168.432ZM39.76 162.17L39.76 161.93L37.76 161.93L37.76 162.17L39.76 162.17ZM38.76 160.93L1.15999 160.93L1.15999 162.93L38.76 162.93L38.76 160.93ZM2.15999 161.93L2.15999 150.49L0.159992 150.49L0.159993 161.93L2.15999 161.93ZM1.15999 151.49L57 151.49L57 149.49L1.15999 149.49L1.15999 151.49ZM56 150.49L56 163.77L58 163.77L58 150.49L56 150.49ZM56.4991 162.905L30.0991 178.185L31.1009 179.915L57.5009 164.635L56.4991 162.905ZM57 138.199L57 139.199L58 139.199L58 138.199L57 138.199ZM1.15999 138.199L0.159991 138.199L0.159992 139.199L1.15999 139.199L1.15999 138.199ZM1.15999 100.199L1.15999 99.1994L0.15999 99.1994L0.15999 100.199L1.15999 100.199ZM11.96 100.199L12.96 100.199L12.96 99.1994L11.96 99.1994L11.96 100.199ZM11.96 126.039L10.96 126.039L10.96 127.039L11.96 127.039L11.96 126.039ZM23.4 126.039L23.4 127.039L24.4 127.039L24.4 126.039L23.4 126.039ZM23.4 103.879L23.4 102.879L22.4 102.879L22.4 103.879L23.4 103.879ZM34.12 103.879L35.12 103.879L35.12 102.879L34.12 102.879L34.12 103.879ZM34.12 126.039L33.12 126.039L33.12 127.039L34.12 127.039L34.12 126.039ZM46.2 126.039L46.2 127.039L47.2 127.039L47.2 126.039L46.2 126.039ZM46.2 100.199L46.2 99.1994L45.2 99.1994L45.2 100.199L46.2 100.199ZM57 100.199L58 100.199L58 99.1994L57 99.1994L57 100.199ZM57 137.199L1.15999 137.199L1.15999 139.199L57 139.199L57 137.199ZM2.15999 138.199L2.15999 100.199L0.15999 100.199L0.159991 138.199L2.15999 138.199ZM1.15999 101.199L11.96 101.199L11.96 99.1994L1.15999 99.1994L1.15999 101.199ZM10.96 100.199L10.96 126.039L12.96 126.039L12.96 100.199L10.96 100.199ZM11.96 127.039L23.4 127.039L23.4 125.039L11.96 125.039L11.96 127.039ZM24.4 126.039L24.4 103.879L22.4 103.879L22.4 126.039L24.4 126.039ZM23.4 104.879L34.12 104.879L34.12 102.879L23.4 102.879L23.4 104.879ZM33.12 103.879L33.12 126.039L35.12 126.039L35.12 103.879L33.12 103.879ZM34.12 127.039L46.2 127.039L46.2 125.039L34.12 125.039L34.12 127.039ZM47.2 126.039L47.2 100.199L45.2 100.199L45.2 126.039L47.2 126.039ZM46.2 101.199L57 101.199L57 99.1994L46.2 99.1994L46.2 101.199ZM56 100.199L56 138.199L58 138.199L58 100.199L56 100.199ZM55.48 84.0056L56.3745 84.4529L56.38 84.4416L55.48 84.0056ZM48.92 92.7256L48.2164 93.4362L48.8873 94.1004L49.589 93.4689L48.92 92.7256ZM40.84 84.7256L40.1762 83.9777L39.3784 84.6857L40.1364 85.4362L40.84 84.7256ZM45.4 64.0856L46.1612 63.4372L45.4 64.0856ZM36.68 63.2056L37.3047 63.9865L37.3145 63.9786L37.3241 63.9705L36.68 63.2056ZM34.52 68.4056L33.53 68.2642L33.5284 68.2763L34.52 68.4056ZM33.8 73.9256L32.8084 73.7963L32.8078 73.8005L33.8 73.9256ZM28.44 86.9656L29.1334 87.6862L29.1403 87.6794L28.44 86.9656ZM10.28 89.6056L9.86093 90.5136L10.28 89.6056ZM4.91999 85.5256L4.14806 86.1613L4.15273 86.167L4.15748 86.1726L4.91999 85.5256ZM1.47999 78.9656L2.43455 78.6673L2.43059 78.6552L1.47999 78.9656ZM2.19998 58.9656L1.27691 58.581L1.27691 58.581L2.19998 58.9656ZM8.03998 50.7256L8.7436 50.015L8.0743 49.3523L7.37274 49.9808L8.03998 50.7256ZM16.2 58.8056L16.8529 59.563L17.6726 58.8564L16.9036 58.095L16.2 58.8056ZM12.44 63.6856L13.3188 64.1627L13.3269 64.1479L13.3344 64.1328L12.44 63.6856ZM12.36 76.8856L13.1715 76.3013L12.36 76.8856ZM20.52 77.3656L21.2849 78.0098L21.293 78.0001L21.3009 77.9903L20.52 77.3656ZM22.36 72.2456L21.3725 72.0882L21.3724 72.0885L22.36 72.2456ZM23.24 66.7256L24.2275 66.8831L24.2278 66.8811L23.24 66.7256ZM28.6 53.9256L29.3209 54.6188L29.3278 54.6114L28.6 53.9256ZM52.92 55.4456L52.1607 56.0964L52.1654 56.1019L52.1701 56.1072L52.92 55.4456ZM56.68 62.2456L57.6341 61.9463L57.6315 61.9378L57.6287 61.9294L56.68 62.2456ZM56.96 71.5256C56.96 76.324 56.1511 80.3261 54.58 83.5697L56.38 84.4416C58.1155 80.8585 58.96 76.5405 58.96 71.5256L56.96 71.5256ZM54.5856 83.5584C52.9313 86.867 50.8189 89.6713 48.251 91.9823L49.589 93.4689C52.3544 90.98 54.6154 87.9709 56.3744 84.4528L54.5856 83.5584ZM49.6236 92.015L41.5436 84.015L40.1364 85.4362L48.2164 93.4362L49.6236 92.015ZM41.5038 85.4736C45.9773 81.5033 48.24 76.5674 48.24 70.7256L46.24 70.7256C46.24 75.9772 44.236 80.3746 40.1762 83.9777L41.5038 85.4736ZM48.24 70.7256C48.24 67.6314 47.6094 65.1372 46.1612 63.4372L44.6387 64.7341C45.6439 65.9141 46.24 67.8465 46.24 70.7256L48.24 70.7256ZM46.1612 63.4372C44.7297 61.7566 42.8159 60.9256 40.52 60.9256L40.52 62.9256C42.2774 62.9256 43.617 63.5346 44.6387 64.7341L46.1612 63.4372ZM40.52 60.9256C38.7792 60.9256 37.2589 61.4108 36.0359 62.4407L37.3241 63.9705C38.1277 63.2938 39.1675 62.9256 40.52 62.9256L40.52 60.9256ZM36.0553 62.4247C34.6722 63.5312 33.91 65.6045 33.53 68.2642L35.5099 68.5471C35.8766 65.9801 36.5544 64.5867 37.3047 63.9865L36.0553 62.4247ZM33.5284 68.2763L32.8084 73.7963L34.7916 74.055L35.5116 68.535L33.5284 68.2763ZM32.8078 73.8005C32.0757 79.6052 30.342 83.6986 27.7396 86.2518L29.1403 87.6794C32.1913 84.686 34.0309 80.0861 34.7921 74.0508L32.8078 73.8005ZM27.7466 86.2451C25.1419 88.7515 21.6489 90.0456 17.16 90.0456L17.16 92.0456C22.0578 92.0456 26.0848 90.6198 29.1334 87.6862L27.7466 86.2451ZM17.16 90.0456C14.7842 90.0456 12.6357 89.5915 10.699 88.6977L9.86093 90.5136C12.0843 91.5397 14.5224 92.0456 17.16 92.0456L17.16 90.0456ZM10.699 88.6977C8.75218 87.7991 7.08243 86.5286 5.6825 84.8786L4.15748 86.1726C5.74421 88.0427 7.64779 89.4921 9.86093 90.5136L10.699 88.6977ZM5.69192 84.8899C4.29144 83.1893 3.20138 81.1215 2.43447 78.6673L0.525509 79.2639C1.35859 81.9298 2.56186 84.2352 4.14806 86.1613L5.69192 84.8899ZM2.43059 78.6552C1.61584 76.16 1.19999 73.3076 1.19999 70.0856L-0.800014 70.0856C-0.800014 73.477 -0.362533 76.5445 0.529383 79.276L2.43059 78.6552ZM1.19999 70.0856C1.19999 65.9766 1.85018 62.4052 3.12306 59.3502L1.27691 58.581C-0.116877 61.9261 -0.800015 65.768 -0.800014 70.0856L1.19999 70.0856ZM3.12306 59.3502C4.39956 56.2867 6.25929 53.6634 8.70723 51.4705L7.37274 49.9808C4.70068 52.3745 2.66708 55.2446 1.27691 58.581L3.12306 59.3502ZM7.33637 51.4362L15.4964 59.5162L16.9036 58.095L8.7436 50.015L7.33637 51.4362ZM15.547 58.0482C13.8951 59.4723 12.5617 61.2062 11.5456 63.2384L13.3344 64.1328C14.2383 62.325 15.4116 60.8056 16.8529 59.563L15.547 58.0482ZM11.5611 63.2085C10.445 65.2645 9.91999 67.8157 9.91999 70.8056L11.92 70.8056C11.92 68.0356 12.4083 65.8401 13.3188 64.1627L11.5611 63.2085ZM9.91999 70.8056C9.91999 73.6104 10.409 75.8873 11.5485 77.4699L13.1715 76.3013C12.391 75.2173 11.92 73.4408 11.92 70.8056L9.91999 70.8056ZM11.5485 77.4699C12.7048 79.076 14.3464 79.8856 16.36 79.8856L16.36 77.8856C14.9602 77.8856 13.9352 77.3619 13.1715 76.3013L11.5485 77.4699ZM16.36 79.8856C18.4385 79.8856 20.1684 79.3356 21.2849 78.0098L19.7551 76.7215C19.1649 77.4223 18.1215 77.8856 16.36 77.8856L16.36 79.8856ZM21.3009 77.9903C22.3155 76.722 22.9645 74.8105 23.3476 72.4027L21.3724 72.0885C21.0088 74.3741 20.4311 75.8759 19.7391 76.7409L21.3009 77.9903ZM23.3475 72.403L24.2275 66.8831L22.2525 66.5682L21.3725 72.0882L23.3475 72.403ZM24.2278 66.8811C25.1181 61.2255 26.8521 57.1862 29.3208 54.6187L27.8792 53.2325C25.0146 56.2117 23.1752 60.7057 22.2522 66.5701L24.2278 66.8811ZM29.3278 54.6114C31.7036 52.0901 35.1423 50.7656 39.8 50.7656L39.8 48.7656C34.751 48.7656 30.7231 50.2144 27.8722 53.2398L29.3278 54.6114ZM39.8 50.7656C42.3441 50.7656 44.6618 51.223 46.7661 52.1248L47.5539 50.2865C45.1781 49.2683 42.5892 48.7656 39.8 48.7656L39.8 50.7656ZM46.7661 52.1248C48.8641 53.0239 50.6594 54.3449 52.1607 56.0964L53.6792 54.7948C51.9805 52.813 49.9359 51.3073 47.5539 50.2865L46.7661 52.1248ZM52.1701 56.1072C53.6665 57.8031 54.8593 59.9459 55.7313 62.5619L57.6287 61.9294C56.6873 59.1053 55.3735 56.7148 53.6698 54.784L52.1701 56.1072ZM55.7258 62.5449C56.543 65.1498 56.96 68.1394 56.96 71.5256L58.96 71.5256C58.96 67.9785 58.5236 64.7814 57.6341 61.9463L55.7258 62.5449ZM55.48 35.1775L56.3745 35.6248L56.38 35.6134L55.48 35.1775ZM48.92 43.8975L48.2164 44.6081L48.8873 45.2723L49.589 44.6408L48.92 43.8975ZM40.84 35.8975L40.1762 35.1496L39.3784 35.8576L40.1364 36.6081L40.84 35.8975ZM45.4 15.2575L46.1612 14.609L45.4 15.2575ZM36.68 14.3775L37.3047 15.1584L37.3145 15.1505L37.3241 15.1424L36.68 14.3775ZM34.52 19.5775L33.53 19.4361L33.5284 19.4481L34.52 19.5775ZM33.8 25.0975L32.8084 24.9682L32.8078 24.9723L33.8 25.0975ZM28.44 38.1375L29.1334 38.8581L29.1403 38.8513L28.44 38.1375ZM10.28 40.7775L9.86093 41.6855L10.28 40.7775ZM4.91999 36.6975L4.14805 37.3332L4.15272 37.3389L4.15748 37.3445L4.91999 36.6975ZM1.47999 30.1375L2.43454 29.8392L2.43059 29.8271L1.47999 30.1375ZM2.19998 10.1375L1.2769 9.75287L1.2769 9.7529L2.19998 10.1375ZM8.03998 1.89749L8.7436 1.18692L8.0743 0.524168L7.37273 1.15265L8.03998 1.89749ZM16.2 9.97751L16.8529 10.7349L17.6726 10.0283L16.9036 9.2669L16.2 9.97751ZM12.44 14.8575L13.3188 15.3346L13.3269 15.3198L13.3344 15.3047L12.44 14.8575ZM12.36 28.0575L13.1715 27.4732L12.36 28.0575ZM20.52 28.5375L21.2849 29.1816L21.293 29.172L21.3009 29.1622L20.52 28.5375ZM22.36 23.4175L21.3725 23.2601L21.3724 23.2604L22.36 23.4175ZM23.24 17.8975L24.2275 18.0549L24.2278 18.053L23.24 17.8975ZM28.6 5.0975L29.3209 5.79065L29.3278 5.78329L28.6 5.0975ZM52.92 6.61749L52.1607 7.26828L52.1654 7.27374L52.1701 7.27911L52.92 6.61749ZM56.68 13.4175L57.6341 13.1182L57.6315 13.1097L57.6287 13.1013L56.68 13.4175ZM56.96 22.6975C56.96 27.4959 56.1511 31.498 54.58 34.7416L56.38 35.6134C58.1155 32.0304 58.96 27.7124 58.96 22.6975L56.96 22.6975ZM54.5856 34.7303C52.9313 38.0389 50.8189 40.8431 48.251 43.1542L49.589 44.6408C52.3544 42.1519 54.6154 39.1428 56.3744 35.6247L54.5856 34.7303ZM49.6236 43.1869L41.5436 35.1869L40.1364 36.6081L48.2164 44.6081L49.6236 43.1869ZM41.5038 36.6454C45.9773 32.6751 48.24 27.7392 48.24 21.8975L46.24 21.8975C46.24 27.1491 44.236 31.5465 40.1762 35.1496L41.5038 36.6454ZM48.24 21.8975C48.24 18.8033 47.6094 16.309 46.1612 14.609L44.6387 15.906C45.6439 17.0859 46.24 19.0183 46.24 21.8975L48.24 21.8975ZM46.1612 14.609C44.7297 12.9285 42.8159 12.0975 40.52 12.0975L40.52 14.0975C42.2774 14.0975 43.617 14.7065 44.6387 15.906L46.1612 14.609ZM40.52 12.0975C38.7792 12.0975 37.2589 12.5826 36.0358 13.6126L37.3241 15.1424C38.1277 14.4657 39.1675 14.0975 40.52 14.0975L40.52 12.0975ZM36.0553 13.5966C34.6722 14.7031 33.91 16.7764 33.53 19.4361L35.5099 19.7189C35.8766 17.1519 36.5544 15.7586 37.3047 15.1584L36.0553 13.5966ZM33.5284 19.4481L32.8084 24.9682L34.7916 25.2268L35.5116 19.7068L33.5284 19.4481ZM32.8078 24.9723C32.0757 30.777 30.342 34.8705 27.7396 37.4237L29.1403 38.8513C32.1913 35.8579 34.0309 31.258 34.7921 25.2226L32.8078 24.9723ZM27.7466 37.4169C25.1419 39.9233 21.6488 41.2175 17.16 41.2175L17.16 43.2175C22.0578 43.2175 26.0847 41.7917 29.1334 38.8581L27.7466 37.4169ZM17.16 41.2175C14.7842 41.2175 12.6357 40.7634 10.699 39.8695L9.86093 41.6855C12.0843 42.7116 14.5224 43.2175 17.16 43.2175L17.16 41.2175ZM10.699 39.8695C8.75218 38.971 7.08243 37.7004 5.68249 36.0505L4.15748 37.3445C5.74421 39.2145 7.64779 40.664 9.86093 41.6855L10.699 39.8695ZM5.69192 36.0618C4.29144 34.3612 3.20138 32.2933 2.43447 29.8392L0.525507 30.4358C1.35859 33.1017 2.56186 35.4071 4.14805 37.3332L5.69192 36.0618ZM2.43059 29.8271C1.61584 27.3319 1.19998 24.4794 1.19998 21.2575L-0.800017 21.2575C-0.800016 24.6489 -0.362535 27.7164 0.529381 30.4479L2.43059 29.8271ZM1.19998 21.2575C1.19998 17.1485 1.85018 13.577 3.12306 10.5221L1.2769 9.7529C-0.116879 13.098 -0.800017 16.9398 -0.800017 21.2575L1.19998 21.2575ZM3.12306 10.5221C4.39955 7.45853 6.25929 4.8353 8.70723 2.64233L7.37273 1.15265C4.70068 3.54639 2.66708 6.41647 1.2769 9.75287L3.12306 10.5221ZM7.33637 2.60809L15.4964 10.6881L16.9036 9.2669L8.7436 1.18692L7.33637 2.60809ZM15.547 9.22009C13.8951 10.6442 12.5617 12.3781 11.5456 14.4103L13.3344 15.3047C14.2383 13.4969 15.4116 11.9774 16.8529 10.7349L15.547 9.22009ZM11.5611 14.3804C10.445 16.4364 9.91998 18.9876 9.91998 21.9775L11.92 21.9775C11.92 19.2074 12.4083 17.012 13.3188 15.3346L11.5611 14.3804ZM9.91998 21.9775C9.91998 24.7823 10.4089 27.0592 11.5484 28.6418L13.1715 27.4732C12.391 26.3892 11.92 24.6127 11.92 21.9775L9.91998 21.9775ZM11.5484 28.6418C12.7048 30.2479 14.3464 31.0575 16.36 31.0575L16.36 29.0575C14.9602 29.0575 13.9352 28.5338 13.1715 27.4732L11.5484 28.6418ZM16.36 31.0575C18.4385 31.0575 20.1684 30.5075 21.2849 29.1816L19.7551 27.8934C19.1649 28.5942 18.1215 29.0575 16.36 29.0575L16.36 31.0575ZM21.3009 29.1622C22.3155 27.8939 22.9645 25.9824 23.3476 23.5746L21.3724 23.2604C21.0088 25.546 20.4311 27.0478 19.7391 27.9128L21.3009 29.1622ZM23.3475 23.5749L24.2275 18.0549L22.2525 17.7401L21.3725 23.2601L23.3475 23.5749ZM24.2278 18.053C25.1181 12.3974 26.8521 8.35809 29.3208 5.79062L27.8792 4.40439C25.0146 7.38354 23.1752 11.8776 22.2521 17.742L24.2278 18.053ZM29.3278 5.78329C31.7036 3.26202 35.1423 1.9375 39.8 1.9375L39.8 -0.0625028C34.751 -0.0625026 30.7231 1.38629 27.8722 4.41171L29.3278 5.78329ZM39.8 1.9375C42.3441 1.9375 44.6618 2.39483 46.7661 3.29663L47.5539 1.45834C45.1781 0.440152 42.5892 -0.062503 39.8 -0.0625028L39.8 1.9375ZM46.7661 3.29663C48.8641 4.1958 50.6594 5.51678 52.1607 7.26828L53.6792 5.9667C51.9805 3.98486 49.9359 2.47921 47.5539 1.45834L46.7661 3.29663ZM52.1701 7.27911C53.6665 8.97497 54.8593 11.1178 55.7313 13.7337L57.6287 13.1013C56.6873 10.2772 55.3735 7.88668 53.6698 5.95587L52.1701 7.27911ZM55.7258 13.7168C56.543 16.3217 56.96 19.3112 56.96 22.6975L58.96 22.6975C58.96 19.1504 58.5236 15.9533 57.6341 13.1182L55.7258 13.7168Z" fill="#CFC8BE"/>
</svg>
