<svg width="110" height="110" viewBox="0 0 110 110" fill="none" xmlns="http://www.w3.org/2000/svg">
<path d="M54.9492 31.166L55.6788 41.4883C56.1723 48.4703 61.7465 54.0149 68.731 54.4714L79.9492 55.2045L68.731 55.9376C61.7465 56.394 56.1723 61.9387 55.6788 68.9207L54.9492 79.2429L54.2196 68.9207C53.7261 61.9387 48.1519 56.394 41.1674 55.9376L29.9492 55.2045L41.1674 54.4714C48.1519 54.0149 53.7261 48.4703 54.2196 41.4883L54.9492 31.166Z" fill="white"/>
<path d="M0 52.9175L0.939309 44.7837L12.0731 46.0844L11.9175 47.432L1.96405 46.2692L1.336 51.7078L11.2894 52.8705L11.1338 54.2181L0 52.9175Z" fill="white"/>
<path d="M14.2612 39.9217C14.0054 40.6072 13.6589 41.1836 13.2215 41.6511C12.7779 42.1047 12.2572 42.4429 11.6595 42.6659C11.0555 42.8749 10.3782 42.9586 9.62771 42.9169C8.86716 42.8713 8.04587 42.6822 7.16384 42.3493C6.2818 42.0164 5.5445 41.6174 4.95193 41.1523C4.35936 40.6872 3.90401 40.1761 3.58586 39.619C3.27147 39.0518 3.10056 38.4526 3.07311 37.8212C3.03941 37.176 3.15043 36.5106 3.40617 35.8251C3.65815 35.1497 4.00784 34.5802 4.45524 34.1165C4.89263 33.6491 5.4133 33.3108 6.01728 33.1017C6.62502 32.8826 7.30415 32.7939 8.05468 32.8356C8.8052 32.8773 9.62148 33.0646 10.5035 33.3975C11.3855 33.7304 12.1279 34.1312 12.7305 34.6002C13.323 35.0653 13.7765 35.5814 14.0909 36.1486C14.399 36.7019 14.5699 37.3011 14.6036 37.9464C14.6273 38.5878 14.5132 39.2462 14.2612 39.9217ZM13.1336 39.4961C13.3028 39.0425 13.3787 38.5939 13.3613 38.1503C13.3438 37.7067 13.2355 37.292 13.0364 36.9064C12.841 36.5106 12.561 36.1577 12.1964 35.8477C11.8319 35.5376 11.389 35.2842 10.8678 35.0875L9.12378 34.4293C8.60258 34.2326 8.10329 34.1305 7.62591 34.1228C7.14852 34.1151 6.70683 34.1957 6.30084 34.3645C5.8986 34.5232 5.54584 34.7638 5.24255 35.0864C4.93927 35.4089 4.70301 35.797 4.53377 36.2507C4.36453 36.7043 4.28863 37.1529 4.30609 37.5965C4.32354 38.0401 4.42997 38.4598 4.62535 38.8555C4.8245 39.2412 5.10635 39.589 5.47091 39.8991C5.83547 40.2092 6.27835 40.4626 6.79955 40.6593L8.54357 41.3175C9.06477 41.5142 9.56406 41.6163 10.0414 41.624C10.5188 41.6316 10.9586 41.5561 11.3609 41.3974C11.7669 41.2286 12.1215 40.983 12.4248 40.6604C12.7281 40.3378 12.9643 39.9498 13.1336 39.4961Z" fill="white"/>
<path d="M18.7926 31.0454C18.002 32.2364 16.9861 32.8942 15.7449 33.0188C14.4948 33.1374 13.0863 32.6706 11.5192 31.6184C9.95221 30.5662 8.97016 29.4278 8.57309 28.2031C8.16712 26.9725 8.35942 25.7617 9.15 24.5707C9.67308 23.7827 10.2881 23.2441 10.9949 22.9549C11.7077 22.6567 12.4872 22.5781 13.3333 22.719L13.2745 24.0001C12.6689 23.8653 12.0958 23.8948 11.5553 24.0885C11.0059 24.2763 10.538 24.6612 10.1517 25.2433C9.88416 25.6463 9.7191 26.0598 9.65648 26.4838C9.59979 26.8988 9.6396 27.3139 9.77591 27.7291C9.90926 28.1294 10.1332 28.5192 10.4477 28.8987C10.7532 29.2722 11.1464 29.6203 11.6272 29.9432L13.0162 30.8758C13.9778 31.5215 14.8787 31.8028 15.7191 31.7197C16.5594 31.6367 17.25 31.1877 17.7909 30.3728C18.1892 29.7728 18.3707 29.1697 18.3355 28.5635C18.2913 27.9513 18.0779 27.3807 17.6952 26.8519L18.8536 26.3286C19.3163 27.0665 19.5548 27.8416 19.5691 28.6539C19.5745 29.4602 19.3157 30.2573 18.7926 31.0454Z" fill="white"/>
<path d="M22.6065 12.725L22.5469 12.7791L23.103 14.8202L24.3847 20.2717L19.1226 18.4356L17.1602 17.6719L17.1006 17.726L23.4291 24.774L22.4518 25.6616L14.9395 17.2952L16.2742 16.0828L22.7045 18.4247L22.7641 18.3706L21.1128 11.6879L22.3999 10.5189L29.9123 18.8853L28.935 19.7729L22.6065 12.725Z" fill="white"/>
<path d="M35.2462 16.3249C34.5986 16.6594 33.9567 16.8518 33.3205 16.9021C32.6889 16.9379 32.0773 16.8363 31.4858 16.5971C30.8989 16.3435 30.3417 15.9475 29.814 15.4091C29.2814 14.8612 28.7998 14.1658 28.3694 13.323C27.939 12.4801 27.6599 11.6862 27.5321 10.9412C27.4044 10.1962 27.4089 9.50994 27.5458 8.88243C27.6922 8.25 27.9662 7.69081 28.3679 7.20487C28.7743 6.70443 29.3012 6.28695 29.9488 5.95242C30.5868 5.6228 31.2264 5.43764 31.8675 5.39692C32.5037 5.34662 33.1153 5.44829 33.7022 5.70191C34.2986 5.95061 34.8606 6.34415 35.3883 6.88254C35.916 7.42092 36.3951 8.11152 36.8255 8.95435C37.256 9.79717 37.5375 10.5959 37.6701 11.3505C37.7979 12.0955 37.7886 12.7842 37.6422 13.4166C37.5005 14.0345 37.2264 14.5937 36.8201 15.0942C36.4088 15.585 35.8842 15.9953 35.2462 16.3249ZM34.6959 15.2474C35.1244 15.026 35.4805 14.7452 35.7641 14.4051C36.0477 14.0649 36.2446 13.6847 36.355 13.2645C36.4749 12.8395 36.5035 12.3889 36.4409 11.9129C36.3783 11.4368 36.2199 10.9498 35.9655 10.4517L35.1144 8.78525C34.8601 8.28721 34.5587 7.87397 34.2105 7.5455C33.8622 7.21704 33.4814 6.97802 33.068 6.82845C32.6641 6.67395 32.2421 6.61355 31.802 6.64726C31.3619 6.68096 30.9276 6.80851 30.499 7.02989C30.0705 7.25127 29.7145 7.53205 29.4309 7.87224C29.1473 8.21242 28.9455 8.59505 28.8256 9.02013C28.7153 9.44028 28.6914 9.88839 28.754 10.3644C28.8166 10.8405 28.9751 11.3275 29.2294 11.8256L30.0805 13.4921C30.3349 13.9901 30.6362 14.4033 30.9845 14.7318C31.3327 15.0603 31.7088 15.3017 32.1127 15.4562C32.526 15.6058 32.9528 15.6637 33.3929 15.63C33.833 15.5963 34.2674 15.4688 34.6959 15.2474Z" fill="white"/>
<path d="M42.2696 2.82136L44.7803 12.578L43.4744 12.9179L40.9638 3.16127L37.5126 4.05962L37.2148 2.90259L45.4231 0.76598L45.7209 1.92301L42.2696 2.82136Z" fill="white"/>
<path d="M49.3097 11.5873L48.834 0.324219L53.2941 0.133676C54.2995 0.0907243 55.0819 0.348276 55.6412 0.906331C56.2108 1.45317 56.5167 2.22681 56.559 3.22726C56.6012 4.2277 56.3619 5.03003 55.8409 5.63423C55.3302 6.22722 54.5721 6.5452 53.5667 6.58815L50.4542 6.72112L50.6573 11.5297L49.3097 11.5873ZM50.4038 5.52704L53.5163 5.39407C54.0511 5.37122 54.457 5.21378 54.7339 4.92175C55.0216 4.62927 55.1546 4.22484 55.1327 3.70849L55.0973 2.8694C55.0755 2.35305 54.9089 1.96142 54.5977 1.69452C54.2971 1.42716 53.8794 1.30491 53.3446 1.32775L50.2321 1.46072L50.4038 5.52704Z" fill="white"/>
<path d="M59.357 11.4957L61.2461 0.383789L67.989 1.54336L67.7888 2.72142L62.3754 1.79049L61.7421 5.5157L66.8389 6.39219L66.6386 7.57024L61.5418 6.69376L60.8869 10.5463L66.3002 11.4773L66.1 12.6553L59.357 11.4957Z" fill="white"/>
<path d="M75.1334 5.24266L71.5078 14.6379L70.2503 14.1471L73.8759 4.7518L70.5525 3.45451L70.9824 2.34033L78.8867 5.42576L78.4568 6.53994L75.1334 5.24266Z" fill="white"/>
<path d="M82.166 7.23462L83.2933 7.97961L80.8242 11.759L83.7499 13.6924C84.5909 14.2482 85.0734 14.9214 85.1974 15.7119C85.3363 16.4994 85.1117 17.343 84.5239 18.2429C83.936 19.1427 83.2522 19.6893 82.4726 19.8827C81.7078 20.073 80.9049 19.8902 80.0639 19.3344L76.011 16.656L82.166 7.23462ZM80.7164 18.3356C81.1638 18.6312 81.5876 18.7374 81.9879 18.6541C82.3971 18.5767 82.7634 18.2905 83.0868 17.7956L83.5453 17.0937C83.8686 16.5988 83.9844 16.1471 83.8926 15.7386C83.8098 15.336 83.5447 14.9869 83.0973 14.6912L80.1717 12.7578L77.7908 16.4022L80.7164 18.3356Z" fill="white"/>
<path d="M95.0913 35.5889L94.8788 35.1362C94.5543 34.4449 94.3705 33.7761 94.3275 33.1297C94.2891 32.4931 94.3647 31.8975 94.5543 31.3431C94.7485 30.7985 95.0515 30.3092 95.4635 29.8754C95.8852 29.4371 96.3961 29.0754 96.9963 28.7904C97.5868 28.5099 98.1843 28.3453 98.7888 28.2963C99.3979 28.2572 99.9732 28.3352 100.515 28.5305C101.061 28.7355 101.566 29.0552 102.03 29.4896C102.499 29.9337 102.896 30.5014 103.221 31.1927L103.426 31.6308L104.733 31.0102L105.309 32.237L104.002 32.8576L104.208 33.2957C104.528 33.9773 104.709 34.6413 104.752 35.2876C104.795 35.934 104.72 36.5295 104.526 37.0742C104.336 37.6286 104.03 38.125 103.609 38.5634C103.192 39.0115 102.688 39.3758 102.097 39.6562C101.497 39.9412 100.892 40.1033 100.283 40.1425C99.6886 40.1868 99.1181 40.1065 98.572 39.9014C98.0305 39.7062 97.5252 39.3865 97.0563 38.9424C96.5873 38.4983 96.1929 37.9354 95.8729 37.2539L95.6672 36.8157L94.3604 37.4363L93.7844 36.2096L95.0913 35.5889ZM96.1215 35.1355L102.424 32.1427L102.204 31.6754C101.989 31.2178 101.725 30.8313 101.411 30.5159C101.102 30.2103 100.762 29.9786 100.392 29.8209C100.022 29.6633 99.6386 29.5895 99.2409 29.5998C98.8432 29.61 98.4507 29.7071 98.0635 29.891L97.1632 30.3185C96.776 30.5024 96.4521 30.7455 96.1915 31.0479C95.9309 31.3502 95.7413 31.6903 95.6227 32.0681C95.5087 32.4557 95.4708 32.8666 95.5089 33.301C95.5516 33.745 95.6804 34.1959 95.8953 34.6535L96.1215 35.1355ZM96.8894 36.7712C97.1042 37.2288 97.3662 37.6104 97.6755 37.916C97.9893 38.2314 98.3312 38.4679 98.7012 38.6256C99.0711 38.7833 99.455 38.857 99.8527 38.8468C100.25 38.8365 100.643 38.7394 101.03 38.5556L101.93 38.128C102.318 37.9441 102.642 37.701 102.902 37.3987C103.163 37.0963 103.35 36.7514 103.464 36.3638C103.578 35.9763 103.614 35.5605 103.571 35.1164C103.533 34.682 103.406 34.2361 103.191 33.7784L102.972 33.3111L96.67 36.3038L96.8894 36.7712Z" fill="white"/>
<path d="M97.7502 47.5396C97.6221 46.8189 97.6273 46.1453 97.766 45.5187C97.9172 44.9009 98.1931 44.3426 98.5938 43.844C99.0069 43.354 99.5467 42.9342 100.213 42.5846C100.89 42.2331 101.692 41.974 102.62 41.8071C103.547 41.6403 104.384 41.6046 105.129 41.7002C105.875 41.7958 106.526 42.0013 107.082 42.3169C107.641 42.643 108.092 43.0705 108.436 43.5992C108.793 44.1366 109.035 44.7657 109.163 45.4864C109.289 46.1966 109.278 46.8659 109.129 47.4943C108.99 48.1208 108.714 48.6791 108.301 49.1691C107.89 49.6696 107.351 50.0947 106.684 50.4443C106.018 50.7939 105.221 51.0521 104.294 51.219C103.366 51.3858 102.524 51.4224 101.768 51.3287C101.023 51.2332 100.371 51.0223 99.8124 50.6962C99.2666 50.3787 98.8153 49.9513 98.4588 49.4138C98.1127 48.8745 97.8765 48.2498 97.7502 47.5396ZM98.9358 47.3264C99.0206 47.8033 99.1831 48.228 99.4234 48.6004C99.6636 48.9729 99.9673 49.2737 100.334 49.503C100.703 49.7429 101.123 49.9025 101.594 49.9819C102.065 50.0613 102.574 50.0516 103.122 49.9531L104.956 49.6232C105.504 49.5246 105.985 49.356 106.399 49.1174C106.814 48.8788 107.153 48.5826 107.416 48.229C107.681 47.886 107.862 47.4979 107.959 47.0648C108.056 46.6317 108.062 46.1767 107.978 45.6997C107.893 45.2228 107.73 44.7981 107.49 44.4257C107.25 44.0532 106.945 43.7471 106.576 43.5072C106.209 43.2779 105.79 43.1236 105.319 43.0442C104.848 42.9648 104.339 42.9745 103.791 43.073L101.957 43.4029C101.409 43.5015 100.928 43.6701 100.514 43.9087C100.1 44.1473 99.7598 44.4381 99.4945 44.7812C99.2312 45.1348 99.051 45.5282 98.954 45.9613C98.857 46.3944 98.851 46.8494 98.9358 47.3264Z" fill="white"/>
<path d="M108.567 58.2937L98.5558 57.866L98.6131 56.5106L108.624 56.9382L108.776 53.356L109.963 53.4067L109.603 61.9266L108.416 61.8759L108.567 58.2937Z" fill="white"/>
<path d="M96.9218 66.7553C97.1122 66.0487 97.4033 65.4419 97.7949 64.9351C98.1941 64.4415 98.6808 64.0554 99.255 63.7769C99.8367 63.5115 100.503 63.3641 101.254 63.3345C102.016 63.3078 102.851 63.4183 103.76 63.6662C104.67 63.914 105.441 64.2414 106.074 64.6483C106.708 65.0552 107.209 65.5209 107.578 66.0454C107.944 66.5802 108.17 67.1606 108.257 67.7866C108.351 68.4258 108.303 69.0987 108.112 69.8054C107.925 70.5016 107.63 71.1018 107.228 71.6058C106.836 72.1126 106.349 72.4986 105.768 72.764C105.183 73.0398 104.515 73.1924 103.764 73.222C103.013 73.2515 102.183 73.1424 101.274 72.8945C100.364 72.6467 99.5879 72.3179 98.9441 71.9082C98.3106 71.5012 97.8108 71.0304 97.4447 70.4955C97.0861 69.9739 96.8599 69.3935 96.7659 68.7543C96.6822 68.118 96.7342 67.4516 96.9218 66.7553ZM98.0843 67.0722C97.9583 67.5398 97.9247 67.9936 97.9836 68.4336C98.0426 68.8736 98.1892 69.2761 98.4236 69.6412C98.6552 70.0167 98.9669 70.3415 99.3589 70.6156C99.7509 70.8898 100.216 71.1001 100.753 71.2466L102.551 71.7366C103.088 71.883 103.595 71.9375 104.071 71.8999C104.547 71.8623 104.979 71.7402 105.367 71.5337C105.753 71.3376 106.081 71.0646 106.353 70.7148C106.625 70.3649 106.824 69.9562 106.95 69.4885C107.076 69.0209 107.109 68.5671 107.05 68.1271C106.991 67.6871 106.846 67.2794 106.615 66.9039C106.38 66.5388 106.067 66.2192 105.675 65.9451C105.283 65.6709 104.819 65.4606 104.281 65.3141L102.483 64.8241C101.946 64.6777 101.439 64.6232 100.963 64.6608C100.487 64.6984 100.057 64.8153 99.671 65.0114C99.2826 65.2179 98.9526 65.4961 98.6809 65.8459C98.4091 66.1958 98.2103 66.6045 98.0843 67.0722Z" fill="white"/>
<path d="M93.0835 76.3209C93.4351 75.6798 93.8609 75.1598 94.3609 74.7609C94.8651 74.3766 95.429 74.1177 96.0525 73.984C96.6802 73.865 97.3623 73.8807 98.099 74.0312C98.845 74.1868 99.6304 74.4935 100.455 74.9512C101.28 75.4088 101.952 75.9109 102.472 76.4573C102.991 77.0037 103.368 77.5757 103.603 78.1732C103.833 78.7801 103.916 79.3979 103.852 80.0266C103.793 80.67 103.587 81.3122 103.235 81.9533C102.889 82.585 102.461 83.0977 101.952 83.4914C101.452 83.8903 100.888 84.1493 100.26 84.2683C99.6272 84.3967 98.9425 84.3857 98.2059 84.2353C97.4692 84.0848 96.6885 83.7807 95.8636 83.3231C95.0387 82.8654 94.3618 82.3608 93.833 81.8091C93.3135 81.2627 92.939 80.686 92.7095 80.0791C92.4842 79.4868 92.4012 78.869 92.4606 78.2257C92.5294 77.5875 92.7371 76.9526 93.0835 76.3209ZM94.1381 76.906C93.9054 77.3303 93.7658 77.7631 93.7193 78.2046C93.6728 78.6461 93.7203 79.0721 93.8619 79.4827C93.9983 79.9027 94.2246 80.2926 94.5407 80.6524C94.8569 81.0123 95.2587 81.3274 95.7461 81.5979L97.3772 82.5028C97.8646 82.7732 98.3439 82.9469 98.8152 83.024C99.2865 83.101 99.7351 83.0855 100.161 82.9775C100.582 82.879 100.966 82.6922 101.312 82.4172C101.659 82.1421 101.948 81.7925 102.181 81.3682C102.414 80.944 102.553 80.5111 102.6 80.0696C102.646 79.6282 102.601 79.1974 102.465 78.7774C102.323 78.3669 102.094 77.9816 101.778 77.6218C101.462 77.262 101.06 76.9468 100.573 76.6764L98.9417 75.7715C98.4543 75.501 97.9749 75.3273 97.5037 75.2503C97.0324 75.1733 96.5864 75.184 96.1655 75.2826C95.7395 75.3905 95.3533 75.582 95.0068 75.8571C94.6603 76.1321 94.3708 76.4818 94.1381 76.906Z" fill="white"/>
<path d="M94.817 91.471L87.3076 84.7983L88.2007 83.7816L95.7101 90.4543L98.0704 87.7673L98.9609 88.5586L93.3472 94.9493L92.4566 94.158L94.817 91.471Z" fill="white"/>
<path d="M81.6255 95.6041L81.69 95.5561C81.8526 95.2881 82.087 95.0002 82.3933 94.6924C82.6995 94.3845 83.055 94.0802 83.4598 93.7796C84.5792 92.9479 85.5924 92.5968 86.4993 92.7262C87.4039 92.8707 88.2602 93.4929 89.068 94.5928L90.957 97.165L89.872 97.9711L87.983 95.3989C87.3978 94.6021 86.794 94.1605 86.1715 94.0741C85.5405 93.9941 84.859 94.2259 84.127 94.7697C83.6965 95.0896 83.3281 95.4034 83.0218 95.7113C82.7155 96.0191 82.4854 96.3038 82.3315 96.5654L85.6612 101.099L84.5762 101.905L77.9167 92.8376L79.0017 92.0316L81.6255 95.6041Z" fill="white"/>
<path d="M75.9204 93.9642L80.5547 104.229L74.326 107.073L73.8347 105.985L78.8352 103.701L77.2816 100.26L72.5735 102.411L72.0822 101.322L76.7903 99.1721L75.1835 95.6134L70.183 97.8971L69.6917 96.8089L75.9204 93.9642Z" fill="white"/>
<path d="M66.5327 108.03L64.2812 98.2095L65.5956 97.9047L67.8471 107.725L71.3209 106.919L71.5879 108.084L63.326 110L63.059 108.835L66.5327 108.03Z" fill="white"/>
</svg>
