<svg width="24" height="21" viewBox="0 0 24 21" fill="none" xmlns="http://www.w3.org/2000/svg">
<g clip-path="url(#clip0_377_220)">
<path fill-rule="evenodd" clip-rule="evenodd" d="M-0.000129426 7.63342C0.0395596 8.22087 0.198701 8.77929 0.749723 8.77929C1.65602 8.77929 1.21828 7.40307 1.21828 6.86977C1.21828 5.68152 1.54196 4.67104 2.11726 3.77553C3.02818 2.35732 4.58607 1.28445 6.32738 1.28445C8.55458 1.28445 9.47668 1.97079 10.8388 3.3733C11.0654 3.60679 11.6742 4.24408 11.9994 4.24408C12.3293 4.24408 12.9042 3.63622 13.1365 3.39685C13.8456 2.66655 14.5014 2.06419 15.4547 1.65214C16.4604 1.21734 17.7825 1.18987 18.8441 1.47477C19.4806 1.64547 20.0786 1.96176 20.5985 2.36125C20.842 2.54804 21.0944 2.74935 21.2878 2.99579C21.6793 3.49534 22.0735 3.99882 22.3263 4.61139C22.9193 6.04608 22.8823 7.71269 22.3771 9.17956C22.2893 9.43502 22.1833 9.62103 22.1248 9.87689L18.3728 9.87493C17.5675 9.86943 17.6495 10.6068 17.1559 10.9749L15.9845 8.68314C15.8412 8.38334 15.6986 8.15848 15.2809 8.15848C14.8293 8.15848 14.7152 8.66588 14.5623 9.00218C14.4756 9.19251 14.397 9.31612 14.316 9.51547C14.2247 9.74111 14.1577 9.87414 14.0617 10.068C13.8918 10.4102 13.1385 11.9975 13.0776 12.264C12.9146 12.1423 12.9096 11.7436 12.8614 11.5294L11.8472 6.83367C11.6939 6.07826 11.2222 5.89578 10.8169 6.19088C10.6119 6.33961 9.9753 7.80648 9.86278 8.08353C9.54681 8.86366 9.15262 9.59866 8.82508 10.3686C8.75996 10.522 8.70872 10.573 8.67095 10.7367H8.57732C8.4833 10.3258 7.74847 9.0995 7.51573 8.61918C7.3774 8.33389 7.22096 8.15887 6.84295 8.15887C6.53237 8.15887 6.39404 8.41237 6.26187 8.61722L5.83878 9.23685C5.29007 10.0044 5.62723 9.87767 4.40535 9.87767C3.71792 9.87767 3.03049 9.87767 2.34268 9.87767C1.61903 9.87767 0.889598 9.74268 0.889598 10.4985C0.889598 10.7693 1.16781 11.2186 1.29111 11.4262C1.47646 11.7381 1.63328 11.9869 1.82711 12.2648L2.3762 13.0422C2.48833 13.196 2.56732 13.2741 2.67136 13.4099C2.77271 13.5429 2.87019 13.6708 2.98695 13.8042L4.25276 15.2362C4.47086 15.4583 4.68317 15.7016 4.90936 15.9041C5.26386 16.2219 5.59486 16.5779 5.97172 16.8749L9.39268 19.5014C9.78841 19.7702 11.6095 21.0004 11.9987 21.0004C12.3867 21.0004 14.3877 19.6489 14.7738 19.3868C16.5043 18.2119 18.115 16.8961 19.5808 15.4033L21.1248 13.6818C21.3233 13.4424 21.5144 13.2823 21.5144 12.9327C21.5144 12.3142 20.736 12.1188 20.3218 12.6725L19.3234 13.8517C18.5967 14.5832 17.8892 15.3147 17.1189 15.9983C17.0053 16.0991 16.9544 16.1262 16.8392 16.2384C16.0099 17.0433 14.3596 18.166 13.3966 18.795C13.229 18.9045 12.1104 19.6156 11.9994 19.6156C11.6611 19.6156 9.1688 17.8038 8.65207 17.4392C8.10953 17.0566 6.96201 16.1403 6.5027 15.6659C5.87384 15.0164 5.06619 14.3972 4.51902 13.6759C3.97108 12.9531 3.05091 12.0293 2.57734 11.1181C3.46823 11.1181 4.35872 11.1173 5.24922 11.1181C6.18904 11.1185 6.08192 11.0569 6.53468 10.422C6.62177 10.3003 6.75162 10.088 6.84295 10.0201C7.10613 10.5267 7.34966 11.0059 7.60783 11.5325L7.99855 12.2801C8.11955 12.5304 8.28293 12.8369 8.62394 12.8369C9.21119 12.8369 9.32756 12.2467 9.67127 11.5168C9.76799 11.3112 9.82001 11.1621 9.92058 10.9592L10.4246 9.84942C10.5764 9.47466 10.8315 9.1203 10.9205 8.73141C11.0916 8.85895 11.087 9.24745 11.1363 9.46642C11.2006 9.75131 11.2473 9.96165 11.307 10.2473L12.1505 14.1621C12.29 14.8485 12.7069 15.1212 13.1743 14.7986C13.3855 14.6526 13.424 14.4651 13.5315 14.2076L15.1722 10.6276C15.2374 10.4742 15.2886 10.4231 15.3264 10.2595H15.42C15.4659 10.4596 15.6535 10.7928 15.7572 10.9662C15.8944 11.1954 15.9861 11.4109 16.1074 11.66C16.3856 12.2318 16.591 12.8373 17.1544 12.8373C17.7193 12.8373 18.2699 11.3406 18.5982 11.157C18.814 11.0357 21.1946 11.1189 21.6546 11.1189C23.0357 11.1189 22.9983 11.1362 23.4653 9.81214C23.7666 8.95902 23.9612 8.04036 23.9982 7.11974V6.48088C23.9616 5.59872 23.7682 4.72833 23.3736 3.92583L22.7706 2.86904C22.1309 1.908 21.1822 1.06508 20.121 0.602418C17.9035 -0.364506 15.563 -0.14946 13.6382 1.23618C13.4394 1.37941 13.2406 1.52068 13.0637 1.70159L12.2669 2.46563C12.1659 2.57002 12.1108 2.63987 11.9979 2.71678C11.5451 2.40795 10.9544 1.53913 9.79265 0.857099C7.19938 -0.665101 3.97571 -0.0697985 2.00166 1.94097C0.853377 3.11038 -0.00244141 4.7609 -0.00244141 6.5833V7.63342H-0.000129426Z" fill="white"/>
</g>
<defs>
<clipPath id="clip0_377_220">
<rect width="24" height="21" fill="white"/>
</clipPath>
</defs>
</svg>
