<svg width="24" height="21" viewBox="0 0 24 21" fill="none" xmlns="http://www.w3.org/2000/svg">
<g clip-path="url(#clip0_160_632)">
<path fill-rule="evenodd" clip-rule="evenodd" d="M-0.000129426 7.63339C0.0395596 8.22084 0.198701 8.77926 0.749723 8.77926C1.65602 8.77926 1.21828 7.40304 1.21828 6.86974C1.21828 5.68149 1.54196 4.671 2.11726 3.7755C3.02818 2.35729 4.58607 1.28441 6.32738 1.28441C8.55458 1.28441 9.47668 1.97076 10.8388 3.37327C11.0654 3.60676 11.6742 4.24405 11.9994 4.24405C12.3293 4.24405 12.9042 3.63619 13.1365 3.39682C13.8456 2.66652 14.5014 2.06415 15.4547 1.65211C16.4604 1.21731 17.7825 1.18984 18.8441 1.47474C19.4806 1.64544 20.0786 1.96173 20.5985 2.36122C20.842 2.54801 21.0944 2.74932 21.2878 2.99576C21.6793 3.49531 22.0735 3.99879 22.3263 4.61136C22.9193 6.04605 22.8823 7.71266 22.3771 9.17953C22.2893 9.43499 22.1833 9.621 22.1248 9.87686L18.3728 9.8749C17.5675 9.8694 17.6495 10.6068 17.1559 10.9749L15.9845 8.68311C15.8412 8.3833 15.6986 8.15845 15.2809 8.15845C14.8293 8.15845 14.7152 8.66585 14.5623 9.00215C14.4756 9.19248 14.397 9.31609 14.316 9.51544C14.2247 9.74108 14.1577 9.87411 14.0617 10.068C13.8918 10.4102 13.1385 11.9975 13.0776 12.264C12.9146 12.1423 12.9096 11.7436 12.8614 11.5293L11.8472 6.83364C11.6939 6.07823 11.2222 5.89575 10.8169 6.19085C10.6119 6.33958 9.9753 7.80645 9.86278 8.0835C9.54681 8.86363 9.15262 9.59863 8.82508 10.3686C8.75996 10.522 8.70872 10.573 8.67095 10.7367H8.57732C8.4833 10.3258 7.74847 9.09947 7.51573 8.61915C7.3774 8.33386 7.22096 8.15884 6.84295 8.15884C6.53237 8.15884 6.39404 8.41234 6.26187 8.61719L5.83878 9.23682C5.29007 10.0044 5.62723 9.87764 4.40535 9.87764C3.71792 9.87764 3.03049 9.87764 2.34268 9.87764C1.61903 9.87764 0.889598 9.74265 0.889598 10.4985C0.889598 10.7692 1.16781 11.2185 1.29111 11.4261C1.47646 11.7381 1.63328 11.9869 1.82711 12.2647L2.3762 13.0421C2.48833 13.196 2.56732 13.274 2.67136 13.4098C2.77271 13.5429 2.87019 13.6708 2.98695 13.8042L4.25276 15.2361C4.47086 15.4583 4.68317 15.7016 4.90936 15.904C5.26386 16.2219 5.59486 16.5778 5.97172 16.8749L9.39268 19.5014C9.78841 19.7702 11.6095 21.0004 11.9987 21.0004C12.3867 21.0004 14.3877 19.6489 14.7738 19.3868C16.5043 18.2119 18.115 16.8961 19.5808 15.4033L21.1248 13.6818C21.3233 13.4424 21.5144 13.2823 21.5144 12.9326C21.5144 12.3142 20.736 12.1188 20.3218 12.6725L19.3234 13.8517C18.5967 14.5832 17.8892 15.3146 17.1189 15.9982C17.0053 16.0991 16.9544 16.1262 16.8392 16.2384C16.0099 17.0432 14.3596 18.166 13.3966 18.795C13.229 18.9045 12.1104 19.6156 11.9994 19.6156C11.6611 19.6156 9.1688 17.8038 8.65207 17.4392C8.10953 17.0566 6.96201 16.1403 6.5027 15.6658C5.87384 15.0164 5.06619 14.3972 4.51902 13.6759C3.97108 12.953 3.05091 12.0293 2.57734 11.1181C3.46823 11.1181 4.35872 11.1173 5.24922 11.1181C6.18904 11.1185 6.08192 11.0569 6.53468 10.4219C6.62177 10.3003 6.75162 10.088 6.84295 10.0201C7.10613 10.5267 7.34966 11.0059 7.60783 11.5325L7.99855 12.28C8.11955 12.5304 8.28293 12.8369 8.62394 12.8369C9.21119 12.8369 9.32756 12.2467 9.67127 11.5168C9.76799 11.3112 9.82001 11.162 9.92058 10.9592L10.4246 9.84939C10.5764 9.47463 10.8315 9.12027 10.9205 8.73138C11.0916 8.85892 11.087 9.24741 11.1363 9.46639C11.2006 9.75128 11.2473 9.96162 11.307 10.2473L12.1505 14.1621C12.29 14.8484 12.7069 15.1212 13.1743 14.7986C13.3855 14.6526 13.424 14.465 13.5315 14.2076L15.1722 10.6276C15.2374 10.4741 15.2886 10.4231 15.3264 10.2595H15.42C15.4659 10.4596 15.6535 10.7928 15.7572 10.9662C15.8944 11.1954 15.9861 11.4108 16.1074 11.66C16.3856 12.2318 16.591 12.8373 17.1544 12.8373C17.7193 12.8373 18.2699 11.3406 18.5982 11.1569C18.814 11.0357 21.1946 11.1189 21.6546 11.1189C23.0357 11.1189 22.9983 11.1361 23.4653 9.81211C23.7666 8.95899 23.9612 8.04033 23.9982 7.11971V6.48085C23.9616 5.59869 23.7682 4.7283 23.3736 3.9258L22.7706 2.86901C22.1309 1.90797 21.1822 1.06505 20.121 0.602388C17.9035 -0.364537 15.563 -0.14949 13.6382 1.23615C13.4394 1.37938 13.2406 1.52065 13.0637 1.70156L12.2669 2.4656C12.1659 2.56998 12.1108 2.63984 11.9979 2.71675C11.5451 2.40792 10.9544 1.5391 9.79265 0.857069C7.19938 -0.665131 3.97571 -0.069829 2.00166 1.94093C0.853377 3.11035 -0.00244141 4.76087 -0.00244141 6.58327V7.63339H-0.000129426Z" fill="#7D6858"/>
</g>
<defs>
<clipPath id="clip0_160_632">
<rect width="24" height="21" fill="white"/>
</clipPath>
</defs>
</svg>
