<svg width="116" height="31" viewBox="0 0 116 31" fill="none" xmlns="http://www.w3.org/2000/svg">
<path d="M36.83 10.12C36.2833 10.12 35.8033 10.02 35.39 9.82C34.9833 9.62 34.6333 9.33667 34.34 8.97L35.11 8.26C35.3233 8.53333 35.5667 8.74333 35.84 8.89C36.12 9.03667 36.45 9.11 36.83 9.11C37.29 9.11 37.6433 9.02333 37.89 8.85C38.1367 8.67667 38.26 8.41333 38.26 8.06V7.95C38.26 7.63 38.1567 7.38333 37.95 7.21C37.7433 7.03667 37.42 6.95 36.98 6.95H35.86V5.95H36.92C37.3333 5.95 37.6367 5.86667 37.83 5.7C38.0233 5.52667 38.12 5.27 38.12 4.93V4.83C38.12 4.53 38.0167 4.30333 37.81 4.15C37.61 3.99 37.3033 3.91 36.89 3.91C36.53 3.91 36.2167 3.97667 35.95 4.11C35.69 4.23667 35.4767 4.41 35.31 4.63L34.54 3.98C34.8133 3.64 35.14 3.37667 35.52 3.19C35.9 2.99667 36.3567 2.9 36.89 2.9C37.6767 2.9 38.2767 3.07 38.69 3.41C39.11 3.75 39.32 4.20667 39.32 4.78C39.32 5.26 39.19 5.62667 38.93 5.88C38.6767 6.13333 38.3467 6.29333 37.94 6.36V6.41C38.14 6.43 38.33 6.47667 38.51 6.55C38.6967 6.62333 38.86 6.72667 39 6.86C39.14 6.98667 39.25 7.14667 39.33 7.34C39.4167 7.52667 39.46 7.75 39.46 8.01C39.46 8.32333 39.4 8.61 39.28 8.87C39.16 9.13 38.9867 9.35333 38.76 9.54C38.5333 9.72667 38.2567 9.87 37.93 9.97C37.6033 10.07 37.2367 10.12 36.83 10.12ZM44.5763 10C44.2897 10 44.0697 9.92 43.9163 9.76C43.763 9.59333 43.6697 9.38333 43.6363 9.13H43.5863C43.4863 9.45667 43.303 9.70333 43.0363 9.87C42.7697 10.0367 42.4463 10.12 42.0663 10.12C41.5263 10.12 41.1097 9.98 40.8163 9.7C40.5297 9.42 40.3863 9.04333 40.3863 8.57C40.3863 8.05 40.573 7.66 40.9463 7.4C41.3263 7.14 41.8797 7.01 42.6063 7.01H43.5463V6.57C43.5463 6.25 43.4597 6.00333 43.2863 5.83C43.113 5.65667 42.843 5.57 42.4763 5.57C42.1697 5.57 41.9197 5.63667 41.7263 5.77C41.533 5.90333 41.3697 6.07333 41.2363 6.28L40.5863 5.69C40.7597 5.39667 41.003 5.15667 41.3163 4.97C41.6297 4.77667 42.0397 4.68 42.5463 4.68C43.2197 4.68 43.7363 4.83667 44.0963 5.15C44.4563 5.46333 44.6363 5.91333 44.6363 6.5V9.11H45.1863V10H44.5763ZM42.3763 9.29C42.7163 9.29 42.9963 9.21667 43.2163 9.07C43.4363 8.91667 43.5463 8.71333 43.5463 8.46V7.71H42.6263C41.873 7.71 41.4963 7.94333 41.4963 8.41V8.59C41.4963 8.82333 41.573 9 41.7263 9.12C41.8863 9.23333 42.103 9.29 42.3763 9.29ZM46.2546 4.8H49.6446V5.69H47.3446V10H46.2546V4.8ZM50.6491 4.8H51.7391V5.66H51.7891C51.9025 5.34667 52.0858 5.10667 52.3391 4.94C52.5991 4.76667 52.9025 4.68 53.2491 4.68C53.9091 4.68 54.4191 4.92 54.7791 5.4C55.1391 5.87333 55.3191 6.54 55.3191 7.4C55.3191 8.26 55.1391 8.93 54.7791 9.41C54.4191 9.88333 53.9091 10.12 53.2491 10.12C52.9025 10.12 52.5991 10.0333 52.3391 9.86C52.0858 9.68667 51.9025 9.44667 51.7891 9.14H51.7391V12H50.6491V4.8ZM52.9191 9.18C53.2991 9.18 53.6025 9.06 53.8291 8.82C54.0558 8.57333 54.1691 8.25 54.1691 7.85V6.95C54.1691 6.55 54.0558 6.23 53.8291 5.99C53.6025 5.74333 53.2991 5.62 52.9191 5.62C52.5858 5.62 52.3058 5.70333 52.0791 5.87C51.8525 6.03 51.7391 6.24333 51.7391 6.51V8.29C51.7391 8.55667 51.8525 8.77333 52.0791 8.94C52.3058 9.1 52.5858 9.18 52.9191 9.18ZM59.6888 4.8H60.7388L58.5488 11.03C58.4888 11.2033 58.4188 11.35 58.3388 11.47C58.2654 11.5967 58.1754 11.6967 58.0688 11.77C57.9688 11.85 57.8454 11.9067 57.6988 11.94C57.5521 11.98 57.3788 12 57.1788 12H56.5488V11.11H57.4288L57.7288 10.23L55.8388 4.8H56.9288L57.9688 7.86L58.2688 8.99H58.3188L58.6488 7.86L59.6888 4.8ZM61.2455 9.11H61.8255L62.3955 7.85C62.4688 7.69667 62.5555 7.58 62.6555 7.5C62.7621 7.42 62.8788 7.36667 63.0055 7.34V7.3C62.7521 7.22667 62.5555 7.04667 62.4155 6.76L61.9255 5.69H61.3455V4.8H61.8755C62.1088 4.8 62.3055 4.85333 62.4655 4.96C62.6321 5.06667 62.7721 5.24 62.8855 5.48L63.5555 6.9H64.3655V4.8H65.4555V6.9H66.2655L66.9355 5.48C67.0488 5.24 67.1855 5.06667 67.3455 4.96C67.5121 4.85333 67.7121 4.8 67.9455 4.8H68.4755V5.69H67.8955L67.4055 6.76C67.2655 7.04667 67.0688 7.22667 66.8155 7.3V7.34C66.9421 7.36667 67.0555 7.42 67.1555 7.5C67.2621 7.58 67.3521 7.69667 67.4255 7.85L67.9955 9.11H68.5755V10H67.9555C67.7288 10 67.5355 9.95 67.3755 9.85C67.2155 9.74333 67.0721 9.55333 66.9455 9.28L66.2655 7.78H65.4555V10H64.3655V7.78H63.5555L62.8755 9.28C62.7488 9.55333 62.6055 9.74333 62.4455 9.85C62.2855 9.95 62.0921 10 61.8655 10H61.2455V9.11ZM73.4533 10C73.1666 10 72.9466 9.92 72.7933 9.76C72.6399 9.59333 72.5466 9.38333 72.5133 9.13H72.4633C72.3633 9.45667 72.1799 9.70333 71.9133 9.87C71.6466 10.0367 71.3233 10.12 70.9433 10.12C70.4033 10.12 69.9866 9.98 69.6933 9.7C69.4066 9.42 69.2633 9.04333 69.2633 8.57C69.2633 8.05 69.4499 7.66 69.8233 7.4C70.2033 7.14 70.7566 7.01 71.4833 7.01H72.4233V6.57C72.4233 6.25 72.3366 6.00333 72.1633 5.83C71.9899 5.65667 71.7199 5.57 71.3533 5.57C71.0466 5.57 70.7966 5.63667 70.6033 5.77C70.4099 5.90333 70.2466 6.07333 70.1133 6.28L69.4633 5.69C69.6366 5.39667 69.8799 5.15667 70.1933 4.97C70.5066 4.77667 70.9166 4.68 71.4233 4.68C72.0966 4.68 72.6133 4.83667 72.9733 5.15C73.3333 5.46333 73.5133 5.91333 73.5133 6.5V9.11H74.0633V10H73.4533ZM71.2533 9.29C71.5933 9.29 71.8733 9.21667 72.0933 9.07C72.3133 8.91667 72.4233 8.71333 72.4233 8.46V7.71H71.5033C70.7499 7.71 70.3733 7.94333 70.3733 8.41V8.59C70.3733 8.82333 70.4499 9 70.6033 9.12C70.7633 9.23333 70.9799 9.29 71.2533 9.29ZM75.1316 4.8H76.2016V7.34L76.1016 8.57H76.1416L76.7616 7.46L78.5616 4.8H79.5516V10H78.4816V7.46L78.5816 6.23H78.5416L77.9216 7.34L76.1216 10H75.1316V4.8ZM77.3516 4.11C76.9516 4.11 76.6316 4.03 76.3916 3.87C76.1582 3.70333 75.9716 3.47667 75.8316 3.19L75.6316 2.75L76.5216 2.39L76.8616 3.29C76.9282 3.31 77.0049 3.32667 77.0916 3.34C77.1849 3.35333 77.2716 3.36 77.3516 3.36C77.4316 3.36 77.5149 3.35333 77.6016 3.34C77.6949 3.32667 77.7749 3.31 77.8416 3.29L78.1816 2.39L79.0716 2.75L78.8716 3.19C78.7316 3.47667 78.5416 3.70333 78.3016 3.87C78.0682 4.03 77.7516 4.11 77.3516 4.11ZM82.1881 5.69H80.5281V4.8H84.9381V5.69H83.2781V10H82.1881V5.69ZM87.8649 10.12C87.4916 10.12 87.1583 10.0567 86.8649 9.93C86.5716 9.80333 86.3216 9.62333 86.1149 9.39C85.9083 9.15 85.7483 8.86333 85.6349 8.53C85.5283 8.19 85.4749 7.81333 85.4749 7.4C85.4749 6.98667 85.5283 6.61333 85.6349 6.28C85.7483 5.94 85.9083 5.65333 86.1149 5.42C86.3216 5.18 86.5716 4.99667 86.8649 4.87C87.1583 4.74333 87.4916 4.68 87.8649 4.68C88.2449 4.68 88.5783 4.74667 88.8649 4.88C89.1583 5.01333 89.4016 5.2 89.5949 5.44C89.7883 5.67333 89.9316 5.94667 90.0249 6.26C90.1249 6.57333 90.1749 6.91 90.1749 7.27V7.68H86.6049V7.85C86.6049 8.25 86.7216 8.58 86.9549 8.84C87.1949 9.09333 87.5349 9.22 87.9749 9.22C88.2949 9.22 88.5649 9.15 88.7849 9.01C89.0049 8.87 89.1916 8.68 89.3449 8.44L89.9849 9.07C89.7916 9.39 89.5116 9.64667 89.1449 9.84C88.7783 10.0267 88.3516 10.12 87.8649 10.12ZM87.8649 5.53C87.6783 5.53 87.5049 5.56333 87.3449 5.63C87.1916 5.69667 87.0583 5.79 86.9449 5.91C86.8383 6.03 86.7549 6.17333 86.6949 6.34C86.6349 6.50667 86.6049 6.69 86.6049 6.89V6.96H89.0249V6.86C89.0249 6.46 88.9216 6.14 88.7149 5.9C88.5083 5.65333 88.2249 5.53 87.8649 5.53ZM93.7448 4.8H96.5148C96.9615 4.8 97.3048 4.92 97.5448 5.16C97.7915 5.4 97.9148 5.72 97.9148 6.12C97.9148 6.77333 97.5648 7.14333 96.8648 7.23V7.28C97.2848 7.31333 97.5948 7.43667 97.7948 7.65C98.0015 7.85667 98.1048 8.13 98.1048 8.47C98.1048 8.69 98.0682 8.89333 97.9948 9.08C97.9282 9.26667 97.8282 9.43 97.6948 9.57C97.5682 9.70333 97.4115 9.81 97.2248 9.89C97.0382 9.96333 96.8282 10 96.5948 10H93.7448V4.8ZM96.3448 9.17C96.5382 9.17 96.6915 9.12 96.8048 9.02C96.9182 8.92 96.9748 8.77333 96.9748 8.58V8.31C96.9748 8.11667 96.9182 7.97 96.8048 7.87C96.6915 7.76333 96.5382 7.71 96.3448 7.71H94.8148V9.17H96.3448ZM96.2048 6.96C96.3915 6.96 96.5348 6.91333 96.6348 6.82C96.7348 6.72667 96.7848 6.59333 96.7848 6.42V6.17C96.7848 5.99667 96.7348 5.86333 96.6348 5.77C96.5348 5.67667 96.3915 5.63 96.2048 5.63H94.8148V6.96H96.2048Z" fill="#7D6858"/>
<path d="M39.8 25.335H39.725C39.645 25.865 39.375 26.305 38.915 26.655C38.455 27.005 37.83 27.18 37.04 27.18C36.44 27.18 35.88 27.065 35.36 26.835C34.84 26.605 34.385 26.265 33.995 25.815C33.605 25.365 33.3 24.805 33.08 24.135C32.86 23.465 32.75 22.69 32.75 21.81C32.75 20.93 32.865 20.15 33.095 19.47C33.325 18.79 33.645 18.22 34.055 17.76C34.475 17.3 34.975 16.95 35.555 16.71C36.135 16.47 36.78 16.35 37.49 16.35C38.43 16.35 39.24 16.555 39.92 16.965C40.6 17.365 41.135 17.97 41.525 18.78L39.665 19.845C39.505 19.435 39.255 19.09 38.915 18.81C38.575 18.52 38.1 18.375 37.49 18.375C36.78 18.375 36.215 18.58 35.795 18.99C35.375 19.4 35.165 20.045 35.165 20.925V22.605C35.165 23.475 35.375 24.12 35.795 24.54C36.215 24.95 36.78 25.155 37.49 25.155C37.77 25.155 38.035 25.125 38.285 25.065C38.535 24.995 38.755 24.895 38.945 24.765C39.135 24.625 39.28 24.46 39.38 24.27C39.49 24.08 39.545 23.855 39.545 23.595V23.07H37.595V21.165H41.72V27H39.8V25.335ZM47.0113 27.18C46.4313 27.18 45.9113 27.085 45.4513 26.895C45.0013 26.705 44.6163 26.43 44.2963 26.07C43.9863 25.71 43.7463 25.275 43.5763 24.765C43.4063 24.255 43.3213 23.685 43.3213 23.055C43.3213 22.425 43.4063 21.855 43.5763 21.345C43.7463 20.835 43.9863 20.405 44.2963 20.055C44.6163 19.695 45.0013 19.42 45.4513 19.23C45.9113 19.04 46.4313 18.945 47.0113 18.945C47.5913 18.945 48.1063 19.04 48.5563 19.23C49.0163 19.42 49.4013 19.695 49.7113 20.055C50.0313 20.405 50.2763 20.835 50.4463 21.345C50.6163 21.855 50.7012 22.425 50.7012 23.055C50.7012 23.685 50.6163 24.255 50.4463 24.765C50.2763 25.275 50.0313 25.71 49.7113 26.07C49.4013 26.43 49.0163 26.705 48.5563 26.895C48.1063 27.085 47.5913 27.18 47.0113 27.18ZM47.0113 25.425C47.4513 25.425 47.7913 25.29 48.0313 25.02C48.2713 24.75 48.3913 24.365 48.3913 23.865V22.26C48.3913 21.76 48.2713 21.375 48.0313 21.105C47.7913 20.835 47.4513 20.7 47.0113 20.7C46.5713 20.7 46.2313 20.835 45.9913 21.105C45.7513 21.375 45.6313 21.76 45.6313 22.26V23.865C45.6313 24.365 45.7513 24.75 45.9913 25.02C46.2313 25.29 46.5713 25.425 47.0113 25.425ZM55.478 27.18C54.898 27.18 54.378 27.085 53.918 26.895C53.468 26.705 53.083 26.43 52.763 26.07C52.453 25.71 52.213 25.275 52.043 24.765C51.873 24.255 51.788 23.685 51.788 23.055C51.788 22.425 51.873 21.855 52.043 21.345C52.213 20.835 52.453 20.405 52.763 20.055C53.083 19.695 53.468 19.42 53.918 19.23C54.378 19.04 54.898 18.945 55.478 18.945C56.058 18.945 56.573 19.04 57.023 19.23C57.483 19.42 57.868 19.695 58.178 20.055C58.498 20.405 58.743 20.835 58.913 21.345C59.083 21.855 59.168 22.425 59.168 23.055C59.168 23.685 59.083 24.255 58.913 24.765C58.743 25.275 58.498 25.71 58.178 26.07C57.868 26.43 57.483 26.705 57.023 26.895C56.573 27.085 56.058 27.18 55.478 27.18ZM55.478 25.425C55.918 25.425 56.258 25.29 56.498 25.02C56.738 24.75 56.858 24.365 56.858 23.865V22.26C56.858 21.76 56.738 21.375 56.498 21.105C56.258 20.835 55.918 20.7 55.478 20.7C55.038 20.7 54.698 20.835 54.458 21.105C54.218 21.375 54.098 21.76 54.098 22.26V23.865C54.098 24.365 54.218 24.75 54.458 25.02C54.698 25.29 55.038 25.425 55.478 25.425ZM68.0398 27.57C68.0398 27.99 67.9648 28.36 67.8148 28.68C67.6748 29 67.4398 29.27 67.1098 29.49C66.7798 29.72 66.3398 29.89 65.7898 30C65.2498 30.12 64.5798 30.18 63.7798 30.18C63.0998 30.18 62.5198 30.135 62.0398 30.045C61.5698 29.965 61.1848 29.845 60.8848 29.685C60.5948 29.535 60.3798 29.345 60.2398 29.115C60.1098 28.895 60.0448 28.64 60.0448 28.35C60.0448 27.91 60.1748 27.565 60.4348 27.315C60.6948 27.065 61.0548 26.91 61.5148 26.85V26.685C61.1348 26.615 60.8498 26.455 60.6598 26.205C60.4698 25.945 60.3748 25.645 60.3748 25.305C60.3748 25.095 60.4148 24.915 60.4948 24.765C60.5848 24.605 60.6948 24.47 60.8248 24.36C60.9648 24.24 61.1248 24.145 61.3048 24.075C61.4848 24.005 61.6648 23.95 61.8448 23.91V23.85C61.3648 23.63 61.0098 23.33 60.7798 22.95C60.5498 22.56 60.4348 22.11 60.4348 21.6C60.4348 20.8 60.7098 20.16 61.2598 19.68C61.8198 19.19 62.6698 18.945 63.8098 18.945C64.3298 18.945 64.7748 18.995 65.1448 19.095V18.795C65.1448 18.375 65.2448 18.075 65.4448 17.895C65.6548 17.705 65.9498 17.61 66.3298 17.61H67.5748V19.26H65.8348V19.35C66.2948 19.57 66.6348 19.875 66.8548 20.265C67.0748 20.645 67.1848 21.09 67.1848 21.6C67.1848 22.39 66.9048 23.025 66.3448 23.505C65.7948 23.975 64.9498 24.21 63.8098 24.21C63.2998 24.21 62.8348 24.155 62.4148 24.045C62.1848 24.195 62.0698 24.405 62.0698 24.675C62.0698 24.865 62.1398 25.015 62.2798 25.125C62.4298 25.225 62.6748 25.275 63.0148 25.275H65.2948C66.2548 25.275 66.9498 25.475 67.3798 25.875C67.8198 26.275 68.0398 26.84 68.0398 27.57ZM65.9548 27.87C65.9548 27.64 65.8648 27.465 65.6848 27.345C65.5048 27.225 65.1898 27.165 64.7398 27.165H62.0398C61.9398 27.265 61.8648 27.375 61.8148 27.495C61.7748 27.625 61.7548 27.75 61.7548 27.87C61.7548 28.16 61.8798 28.37 62.1298 28.5C62.3798 28.64 62.8048 28.71 63.4048 28.71H64.3048C64.9048 28.71 65.3298 28.64 65.5798 28.5C65.8298 28.37 65.9548 28.16 65.9548 27.87ZM63.8098 22.755C64.2498 22.755 64.5748 22.665 64.7848 22.485C65.0048 22.295 65.1148 22.025 65.1148 21.675V21.495C65.1148 21.145 65.0048 20.88 64.7848 20.7C64.5748 20.51 64.2498 20.415 63.8098 20.415C63.3698 20.415 63.0398 20.51 62.8198 20.7C62.6098 20.88 62.5048 21.145 62.5048 21.495V21.675C62.5048 22.025 62.6098 22.295 62.8198 22.485C63.0398 22.665 63.3698 22.755 63.8098 22.755ZM71.2312 27C70.4712 27 69.9112 26.815 69.5512 26.445C69.2012 26.075 69.0262 25.54 69.0262 24.84V15.9H71.2462V25.275H72.2362V27H71.2312ZM76.8522 27.18C76.2522 27.18 75.7172 27.085 75.2472 26.895C74.7772 26.695 74.3772 26.42 74.0472 26.07C73.7272 25.71 73.4822 25.275 73.3122 24.765C73.1522 24.255 73.0722 23.685 73.0722 23.055C73.0722 22.435 73.1522 21.875 73.3122 21.375C73.4722 20.865 73.7072 20.43 74.0172 20.07C74.3372 19.71 74.7272 19.435 75.1872 19.245C75.6472 19.045 76.1722 18.945 76.7622 18.945C77.4122 18.945 77.9672 19.055 78.4272 19.275C78.8972 19.495 79.2772 19.79 79.5672 20.16C79.8672 20.53 80.0822 20.96 80.2122 21.45C80.3522 21.93 80.4222 22.435 80.4222 22.965V23.625H75.3672V23.745C75.3672 24.265 75.5072 24.68 75.7872 24.99C76.0672 25.29 76.5072 25.44 77.1072 25.44C77.5672 25.44 77.9422 25.35 78.2322 25.17C78.5222 24.98 78.7922 24.755 79.0422 24.495L80.1522 25.875C79.8022 26.285 79.3422 26.605 78.7722 26.835C78.2122 27.065 77.5722 27.18 76.8522 27.18ZM76.8072 20.58C76.3572 20.58 76.0022 20.73 75.7422 21.03C75.4922 21.32 75.3672 21.71 75.3672 22.2V22.32H78.1272V22.185C78.1272 21.705 78.0172 21.32 77.7972 21.03C77.5872 20.73 77.2572 20.58 76.8072 20.58ZM85.655 27V16.53H90.605C91.095 16.53 91.535 16.615 91.925 16.785C92.315 16.945 92.645 17.17 92.915 17.46C93.195 17.75 93.41 18.105 93.56 18.525C93.71 18.935 93.785 19.385 93.785 19.875C93.785 20.375 93.71 20.83 93.56 21.24C93.41 21.65 93.195 22 92.915 22.29C92.645 22.58 92.315 22.81 91.925 22.98C91.535 23.14 91.095 23.22 90.605 23.22H87.935V27H85.655ZM87.935 21.24H90.335C90.675 21.24 90.94 21.155 91.13 20.985C91.33 20.805 91.43 20.545 91.43 20.205V19.545C91.43 19.205 91.33 18.95 91.13 18.78C90.94 18.6 90.675 18.51 90.335 18.51H87.935V21.24ZM97.5838 27C96.8238 27 96.2638 26.815 95.9038 26.445C95.5538 26.075 95.3788 25.54 95.3788 24.84V15.9H97.5988V25.275H98.5888V27H97.5838ZM105.74 27C105.34 27 105.005 26.875 104.735 26.625C104.475 26.375 104.31 26.04 104.24 25.62H104.15C104.03 26.13 103.765 26.52 103.355 26.79C102.945 27.05 102.44 27.18 101.84 27.18C101.05 27.18 100.445 26.97 100.025 26.55C99.6048 26.13 99.3948 25.575 99.3948 24.885C99.3948 24.055 99.6948 23.44 100.295 23.04C100.905 22.63 101.73 22.425 102.77 22.425H104.015V21.93C104.015 21.55 103.915 21.25 103.715 21.03C103.515 20.8 103.18 20.685 102.71 20.685C102.27 20.685 101.92 20.78 101.66 20.97C101.4 21.16 101.185 21.375 101.015 21.615L99.6948 20.445C100.015 19.975 100.415 19.61 100.895 19.35C101.385 19.08 102.045 18.945 102.875 18.945C103.995 18.945 104.835 19.19 105.395 19.68C105.955 20.17 106.235 20.885 106.235 21.825V25.275H106.97V27H105.74ZM102.665 25.635C103.035 25.635 103.35 25.555 103.61 25.395C103.88 25.235 104.015 24.975 104.015 24.615V23.685H102.935C102.065 23.685 101.63 23.98 101.63 24.57V24.795C101.63 25.085 101.72 25.3 101.9 25.44C102.08 25.57 102.335 25.635 102.665 25.635ZM113.143 19.125H115.213L112.183 28.215C111.983 28.825 111.698 29.275 111.328 29.565C110.968 29.855 110.448 30 109.768 30H108.388V28.275H109.873L110.143 27.405L107.383 19.125H109.588L110.743 22.8L111.313 25.08H111.403L111.988 22.8L113.143 19.125Z" fill="#7D6858"/>
<path fill-rule="evenodd" clip-rule="evenodd" d="M0 3.89233V24.1033C0 24.5463 0.255983 25.1265 0.416665 25.4236C0.679297 25.2518 9.09239 16.9907 9.62209 16.4731L12.3049 13.8584C12.4423 13.7244 12.603 13.6359 12.6562 13.4392C12.4966 13.3982 11.67 12.6051 11.4982 12.4355L10.3513 11.4209C10.226 11.2978 10.1196 11.1767 9.98556 11.0676L5.79785 7.33033C5.66377 7.22121 5.55738 7.09912 5.43216 6.97594C5.28035 6.82684 5.18837 6.78687 5.03988 6.64749C4.90468 6.52107 4.81271 6.41303 4.67751 6.29094C4.52902 6.15696 4.43926 6.11266 4.28523 5.96248C4.02148 5.70209 3.78877 5.53138 3.53057 5.27639C3.26905 5.01925 3.03855 4.8507 2.77592 4.59031L0.874332 2.88967C0.734705 2.75138 0.661567 2.59147 0.418882 2.57202C0.374556 2.73517 0.364582 2.67575 0.284795 2.84754C0.154033 3.12737 0.0022163 3.57144 0.0022163 3.89233H0Z" fill="#7D6858"/>
<path fill-rule="evenodd" clip-rule="evenodd" d="M1.61439 26.5915C2.05211 26.6909 2.46545 26.933 3.05166 26.9978H3.65228C3.95813 26.9654 4.30831 26.8822 4.71722 26.7234C5.32448 26.4867 14.3703 21.494 16.0414 20.6501C16.3872 20.4751 18.6855 19.1764 18.9049 19.1256L13.9049 14.6061C13.7121 14.6558 13.6323 14.7952 13.5015 14.9237L1.96457 26.1723C1.82715 26.3063 1.66647 26.3949 1.61328 26.5915H1.61439Z" fill="#7D6858"/>
<path fill-rule="evenodd" clip-rule="evenodd" d="M1.66712 1.40409C1.80453 1.60397 1.86881 1.59749 2.045 1.74767C2.17909 1.86328 2.27993 1.97889 2.40848 2.10422L5.45701 4.8194C5.59331 4.94149 5.68418 5.04953 5.81937 5.17595L8.8679 7.89112C8.99977 8.01538 9.09507 8.13207 9.23359 8.24551C9.40314 8.38381 9.46408 8.42163 9.62255 8.57829C9.76218 8.71551 9.84972 8.80951 10.0004 8.92079L10.7662 9.59608C10.9003 9.7052 11.0066 9.82729 11.1319 9.95047L12.2788 10.965C12.5115 11.1951 13.6706 12.1848 13.8014 12.375L17.9293 8.37625L6.4754 2.20146C6.15514 2.04264 5.87478 1.8622 5.57225 1.71094C4.64695 1.24526 4.4364 1 3.22851 1C2.66224 1 2.14585 1.18152 1.66602 1.40625L1.66712 1.40409Z" fill="#7D6858"/>
<path fill-rule="evenodd" clip-rule="evenodd" d="M15.0391 13.4273C15.1377 13.5635 20.1388 18.0819 20.4169 18.2645L21.8409 17.5201C23.563 16.6244 25.0002 16.0507 25.0002 13.8466C25.0002 13.0881 24.6467 12.4863 24.2877 12.053C24.1713 11.9125 24.1403 11.8477 23.9896 11.7343C23.2239 11.1606 23.5319 11.4058 22.7917 10.9726C22.5113 10.8094 22.2365 10.6787 21.9451 10.5285L19.4273 9.17468L15.0391 13.4273Z" fill="#7D6858"/>
</svg>
