<svg width="24" height="24" viewBox="0 0 24 24" fill="none" xmlns="http://www.w3.org/2000/svg">
<g clip-path="url(#clip0_227_245)">
<path d="M4.00008 20C3.73486 20 3.48051 19.8946 3.29297 19.7071C3.10544 19.5196 3.00008 19.2652 3.00008 19L3.00008 5C3.00008 4.73478 3.10544 4.48043 3.29297 4.29289C3.48051 4.10536 3.73486 4 4.00008 4L13.0001 4V1L22.3881 11.327C22.5556 11.5111 22.6484 11.7511 22.6484 12C22.6484 12.2489 22.5556 12.4889 22.3881 12.673L13.0001 23V20L4.00008 20ZM11.0001 11L5.00008 11V13L11.0001 13V11Z" fill="white"/>
</g>
<defs>
<clipPath id="clip0_227_245">
<rect width="24" height="24" fill="white" transform="matrix(0 1 -1 0 24 0)"/>
</clipPath>
</defs>
</svg>
