<svg width="188" height="128" viewBox="0 0 188 128" fill="none" xmlns="http://www.w3.org/2000/svg">
<g filter="url(#filter0_bd_353_152)">
<mask id="path-1-inside-1_353_152" fill="white">
<path fill-rule="evenodd" clip-rule="evenodd" d="M19 10C16.2386 10 14 12.2386 14 15V95C14 97.7614 16.2386 100 19 100H88.2265L94 110L99.7735 100H169C171.761 100 174 97.7614 174 95V15C174 12.2386 171.761 10 169 10H19Z"/>
</mask>
<path fill-rule="evenodd" clip-rule="evenodd" d="M19 10C16.2386 10 14 12.2386 14 15V95C14 97.7614 16.2386 100 19 100H88.2265L94 110L99.7735 100H169C171.761 100 174 97.7614 174 95V15C174 12.2386 171.761 10 169 10H19Z" fill="white" fill-opacity="0.15" shape-rendering="crispEdges"/>
<path d="M88.2265 100L89.0925 99.5L88.8038 99H88.2265V100ZM94 110L93.134 110.5L94 112L94.866 110.5L94 110ZM99.7735 100V99H99.1962L98.9075 99.5L99.7735 100ZM15 15C15 12.7909 16.7909 11 19 11V9C15.6863 9 13 11.6863 13 15H15ZM15 95V15H13V95H15ZM19 99C16.7909 99 15 97.2091 15 95H13C13 98.3137 15.6863 101 19 101V99ZM88.2265 99H19V101H88.2265V99ZM94.866 109.5L89.0925 99.5L87.3605 100.5L93.134 110.5L94.866 109.5ZM98.9075 99.5L93.134 109.5L94.866 110.5L100.64 100.5L98.9075 99.5ZM169 99H99.7735V101H169V99ZM173 95C173 97.2091 171.209 99 169 99V101C172.314 101 175 98.3137 175 95H173ZM173 15V95H175V15H173ZM169 11C171.209 11 173 12.7909 173 15H175C175 11.6863 172.314 9 169 9V11ZM19 11H169V9H19V11Z" fill="#B8ADA0" mask="url(#path-1-inside-1_353_152)"/>
</g>
<defs>
<filter id="filter0_bd_353_152" x="-1" y="-5" width="190" height="133" filterUnits="userSpaceOnUse" color-interpolation-filters="sRGB">
<feFlood flood-opacity="0" result="BackgroundImageFix"/>
<feGaussianBlur in="BackgroundImageFix" stdDeviation="7.5"/>
<feComposite in2="SourceAlpha" operator="in" result="effect1_backgroundBlur_353_152"/>
<feColorMatrix in="SourceAlpha" type="matrix" values="0 0 0 0 0 0 0 0 0 0 0 0 0 0 0 0 0 0 127 0" result="hardAlpha"/>
<feOffset dy="4"/>
<feGaussianBlur stdDeviation="7"/>
<feComposite in2="hardAlpha" operator="out"/>
<feColorMatrix type="matrix" values="0 0 0 0 0 0 0 0 0 0 0 0 0 0 0 0 0 0 0.25 0"/>
<feBlend mode="normal" in2="effect1_backgroundBlur_353_152" result="effect2_dropShadow_353_152"/>
<feBlend mode="normal" in="SourceGraphic" in2="effect2_dropShadow_353_152" result="shape"/>
</filter>
</defs>
</svg>
