<svg width="50" height="50" viewBox="0 0 50 50" fill="none" xmlns="http://www.w3.org/2000/svg">
<rect width="50" height="50" rx="25" fill="#D2D6BF"/>
<path fill-rule="evenodd" clip-rule="evenodd" d="M25.75 32.8291C23.2803 32.8291 23.1667 32.8188 20.7647 32.5083C20.3356 32.453 20.3768 32.6071 21.0003 31.4205L21.6725 30.1401C22.024 29.4476 22.1302 29.0348 23.1719 29.0348H27.0156C28.3103 29.0348 28.3407 29.5948 28.9837 30.8605C29.0729 31.0361 29.1533 31.1548 29.2498 31.3563C29.3621 31.5907 29.7318 32.2071 29.7812 32.3968C29.5725 32.4994 28.1779 32.662 27.8633 32.6891C27.1796 32.748 26.5161 32.829 25.7499 32.829L25.75 32.8291ZM37 19.6966V19.8586C36.9829 20.2997 36.8251 20.7067 36.5134 20.9477C35.5384 21.702 34.6417 21.158 33.5313 21.158C33.511 21.4076 33.3852 21.7348 33.3132 21.9912C33.2315 22.2821 33.1706 22.5245 33.0801 22.8091L31.7031 27.6899L33.4844 31.3401C33.9465 31.3007 34.7984 30.6198 35.4062 30.6198C36.307 30.6198 37 31.3093 37 32.1086C37 33.32 36.2559 33.5976 35.2995 34.0165C34.5002 34.3666 33.7434 34.6557 32.8484 34.9152C31.2344 35.383 30.2954 35.5478 28.6706 35.7736C28.2351 35.8341 27.6612 35.9029 27.1561 35.9029C26.8695 35.9029 26.6406 35.778 26.6406 35.4706C26.6406 34.8237 27.0918 34.9575 27.7585 34.887C30.0712 34.6426 33.2283 34.0092 35.2497 32.9568C35.4248 32.8656 35.6548 32.7976 35.7908 32.6946C36.3267 32.2891 35.9415 31.6282 35.5468 31.6282C35.1979 31.6282 35.1421 31.6894 34.8596 31.8367C32.1881 33.2292 27.8733 33.8376 25 33.8376C23.3085 33.8376 20.8106 33.5945 19.2719 33.2228C18.0297 32.9228 16.8222 32.5885 15.6587 32.0741C15.3159 31.9224 14.8092 31.6282 14.5469 31.6282C14.1474 31.6282 13.9375 31.9495 13.9375 32.2046C13.9375 32.6984 14.5463 32.8504 14.7813 32.9731C16.81 34.0328 19.9635 34.6396 22.2886 34.8866C22.7624 34.9369 23.3593 34.8543 23.3593 35.3745C23.3593 35.6683 23.2374 35.9028 22.9375 35.9028C22.0715 35.9028 20.6988 35.7036 19.8564 35.5535C18.9257 35.3878 18.0354 35.1721 17.1516 34.9151C16.6064 34.7564 14.0929 33.8704 13.5753 33.4403C13.1418 33.0802 13 32.6776 13 32.1085C13 31.3193 13.7235 30.6197 14.5001 30.6197C15.2966 30.6197 15.7932 31.2078 16.7498 31.436L18.0625 28.7465C17.9412 28.561 16.9985 27.7942 16.8437 27.1135H16.75C16.6972 27.3157 16.3613 27.5254 16.1883 27.6427C15.9609 27.7967 15.7815 27.8764 15.4979 27.9919C15.2215 28.1046 14.9947 28.2092 14.7343 28.3143C14.231 28.5174 14.051 28.7529 13.7132 28.448C13.4586 28.2183 13.6051 27.801 13.6588 27.4044C13.835 26.1012 14.0466 24.2743 14.3691 23.0892C15.1448 20.2401 17.8542 18.6594 20.1367 21.0019C20.9406 21.8269 20.4745 21.443 21.8263 21.624C23.0355 21.786 23.5236 21.9745 24.9062 21.9745C25.0596 21.9745 25.0504 21.862 25.0908 21.7314L25.8029 19.435C26.0834 18.5721 26.3661 17.7336 26.7498 16.9473C27.4949 15.4205 28.2098 14.6746 29.702 14.3527C29.9553 14.298 29.8033 14.3553 29.9894 14.215C30.3541 13.9396 30.7803 13.9251 31.1416 14.1927C31.2867 14.3002 31.4201 14.4084 31.5693 14.5231L36.2439 18.1385C36.7163 18.4916 36.9778 19.1098 37 19.6966ZM23.4531 26.057H24.8125V28.0742H23.4531V26.057ZM17.3594 25.3365C17.3594 23.3634 18.7936 22.5028 20.5 22.5028C20.6765 22.5028 20.5886 22.5344 20.7812 22.5509C20.7812 23.8897 20.6651 24.7167 21.638 25.5633C21.8011 25.7053 22.2445 25.9547 22.5157 25.9609V28.1222C22.0536 28.1327 21.612 28.4651 21.3788 28.7345C21.0805 29.0792 19.779 31.6518 19.4687 32.2527C19.1686 32.2271 17.9098 31.8818 17.6876 31.7724C17.7682 31.4176 19.1875 28.8368 19.1875 28.5545C19.1875 28.1008 18.537 28.0324 17.9958 27.23C17.6667 26.7421 17.3594 26.1314 17.3594 25.3365H17.3594ZM25.2813 25.0483H22.9844C22.4477 25.0483 22.0729 24.7302 21.8886 24.346C21.6864 23.925 21.7656 23.1116 21.7656 22.5989C22.3709 22.7433 23.7802 22.9351 24.3906 22.9351H25.4219C25.8597 22.9351 26.181 22.839 26.5469 22.839C26.5469 23.5548 26.6214 24.0788 26.2409 24.5907C26.0549 24.8408 25.6895 25.0483 25.2812 25.0483L25.2813 25.0483ZM14.6407 27.2577C14.8844 26.737 14.8075 23.1226 16.1279 21.7214C16.6722 21.1438 17.0383 20.8698 17.875 20.8698C18.3833 20.8698 19.1794 21.3389 19.3749 21.6382C18.2191 21.7368 16.9267 22.8369 16.5814 24.0591C16.3461 24.8923 16.4206 25.4442 16.3657 25.708C16.2497 26.2647 16.0661 26.5815 15.577 26.8722C15.4383 26.9546 14.8133 27.2429 14.6407 27.2577V27.2577ZM30.0157 16.4031C30.0157 15.8054 30.224 15.2532 30.5782 15.0102C31.6748 15.7627 34.2342 17.8207 35.3995 18.7154C35.6954 18.9426 35.9238 19.097 36.0155 19.5284C36.3567 21.1338 33.5976 19.8303 32.9691 20.1955C32.6727 20.3678 32.6077 20.9756 32.4589 21.4522C32.2733 22.0468 32.1261 22.6286 31.9538 23.24C31.7794 23.8589 31.5923 24.4707 31.4316 25.0585L30.6929 27.7386C30.6917 27.9569 30.9281 28.3577 31.0311 28.5707C31.3064 29.1405 32.5209 31.4058 32.5469 31.7244L30.7657 32.2047C30.7237 32.0202 29.7228 30.1821 29.5154 29.7874C29.1351 29.0636 28.6978 28.0742 27.5313 28.0742H25.7969V25.961C26.0914 25.9359 26.4286 25.7154 26.6281 25.5638C26.8675 25.3816 27.0695 25.1483 27.2191 24.8725C27.5741 24.2176 27.4844 23.5184 27.4844 22.5509C28.8262 22.2306 29.0568 19.8495 29.6093 18.7245L29.9666 18.0819C30.1329 17.7965 30.297 17.6555 30.297 17.4117C30.297 17.1632 30.0157 16.8948 30.0157 16.4031H30.0157ZM29.125 15.5866C29.1147 16.0594 28.9458 16.4673 29.1802 17.1677C29.2587 17.4025 29.2727 17.3567 29.1432 17.5708L28.7024 18.3716C28.3099 19.188 27.9951 20.6664 27.7475 21.0915C27.4603 21.5849 26.8184 21.8784 26.0781 21.8784L26.6114 20.0713C26.961 19.006 27.3656 17.7014 27.9618 16.7482C28.1715 16.4127 28.7386 15.6788 29.125 15.5866ZM24.9062 21.9745L29.125 15.5866L24.9062 21.9745Z" fill="#7D6858"/>
<path fill-rule="evenodd" clip-rule="evenodd" d="M24.5312 35.4705C24.5312 36.184 25.4688 36.1686 25.4688 35.4705C25.4688 34.8686 24.5312 34.8643 24.5312 35.4705Z" fill="#7D6858"/>
<path fill-rule="evenodd" clip-rule="evenodd" d="M31.7031 18.084C31.7031 18.7259 32.6407 18.8068 32.6407 18.036C32.6407 17.4731 31.7031 17.4422 31.7031 18.084Z" fill="#7D6858"/>
</svg>
