<svg width="24" height="24" viewBox="0 0 24 24" fill="none" xmlns="http://www.w3.org/2000/svg">
<path d="M0.476222 0.777225C0.326271 0.838142 0.157576 0.997465 0.0732285 1.15679C-0.0251769 1.34891 -0.0251769 8.54188 0.0779145 8.73401C0.218494 9.01517 0.569942 9.20729 0.930762 9.20729H1.08071L1.09477 11.5597L1.10883 13.9167L1.27752 14.2213C1.3853 14.4228 1.52119 14.5868 1.67583 14.6993C2.0882 15.0132 2.121 15.0179 4.06568 15.0179H5.80886L5.8276 15.8942C5.84166 16.6955 5.85572 16.8033 5.96818 17.1125C6.03379 17.2953 6.15094 17.539 6.22591 17.6514C6.30089 17.7592 6.42272 17.9373 6.48833 18.0357C6.55862 18.1341 6.61485 18.2793 6.61485 18.3543C6.61485 18.673 7.02253 18.8323 7.24745 18.6027C7.45832 18.3965 7.3646 17.9045 7.04127 17.4874C6.93818 17.3515 6.79291 17.1125 6.72262 16.9626L6.59142 16.6814V14.4556V12.2297L8.49392 12.2157L10.4011 12.2063L10.4339 12.3797C10.5136 12.8202 10.8697 13.2466 11.343 13.4622C11.7179 13.6402 12.2896 13.6402 12.6644 13.4622C13.1377 13.2466 13.4939 12.8202 13.5735 12.3797L13.6063 12.2063L15.5135 12.2157L17.416 12.2297V14.4556V16.6814L17.2848 16.9626C17.2145 17.1125 17.0693 17.3515 16.9662 17.4874C16.6569 17.881 16.6428 17.9841 16.6428 19.6102V21.0487L16.5351 21.1472L16.4273 21.2502H11.999H7.5661L7.46769 21.1425C7.37397 21.0441 7.3646 20.9831 7.3646 20.4349C7.3646 19.8679 7.35992 19.8351 7.24745 19.7273C7.0975 19.5727 6.88195 19.5727 6.732 19.7273C6.61953 19.8351 6.61485 19.8632 6.61485 20.463C6.61485 20.8051 6.63359 21.1565 6.66171 21.2456C6.73668 21.5173 6.93818 21.7563 7.19122 21.8829L7.43021 22H12.0037H16.5772L16.8162 21.8829C17.0693 21.7563 17.2708 21.5173 17.3457 21.2456C17.3738 21.1565 17.3926 20.4443 17.3926 19.6523V18.2184L17.5191 18.0357C17.5847 17.9373 17.7065 17.7592 17.7815 17.6514C17.8565 17.539 17.9736 17.2953 18.0392 17.1125C18.147 16.8079 18.1611 16.6908 18.1798 15.8942L18.1986 15.0179H19.9418C21.8864 15.0179 21.9192 15.0132 22.3316 14.6993C22.4862 14.5868 22.6221 14.4228 22.7299 14.2213L22.8986 13.9167L22.9127 11.5597L22.9267 9.20729H23.0767C23.311 9.20729 23.5593 9.12294 23.7186 8.98705C24.0139 8.73869 23.9998 8.95425 23.9998 4.94306C23.9998 0.885002 24.0186 1.13336 23.6858 0.880316L23.5172 0.749109L22.6221 0.73505C21.7646 0.725679 21.7177 0.730366 21.5444 0.82877C21.4319 0.894375 21.3194 1.01621 21.2491 1.14273C21.146 1.34423 21.1414 1.39109 21.1414 2.44075V3.52789L20.4291 3.54663C19.8105 3.56069 19.684 3.57944 19.52 3.66378C19.4169 3.72002 19.3045 3.79968 19.2717 3.83717C19.2154 3.90277 18.9858 3.91214 17.3645 3.91214H15.5229L15.4198 3.7575C14.9512 3.08741 14.2249 2.57664 13.4236 2.3564C13.0909 2.26736 12.9081 2.25331 11.4414 2.23925C10.4667 2.22519 9.68885 2.23456 9.47798 2.26268C8.67199 2.37514 8.04875 2.91871 7.85663 3.67784L7.8004 3.88871L7.41615 3.91214C7.07876 3.93089 7.01784 3.94963 6.93818 4.04803C6.81634 4.19799 6.82572 4.40886 6.9663 4.54475C7.06939 4.64784 7.11625 4.6619 7.45364 4.6619H7.8332L7.90349 4.83059C7.94098 4.92431 7.97378 5.05083 7.97378 5.11175V5.22421H6.4977H5.02162V4.94306V4.6619H5.37306C5.68702 4.6619 5.74326 4.64784 5.84166 4.54475C5.9963 4.3948 5.9963 4.17924 5.84166 4.02929C5.73857 3.92151 5.6964 3.91214 5.26529 3.91214C4.89978 3.91214 4.78732 3.89808 4.73577 3.83717C4.70297 3.79968 4.59051 3.72002 4.48742 3.66378C4.32341 3.57944 4.19689 3.56069 3.58302 3.54663L2.86607 3.52789V2.44075C2.86607 1.39109 2.86138 1.34423 2.75829 1.14273C2.688 1.01621 2.58022 0.899059 2.46307 0.833456C2.29438 0.73505 2.22409 0.725679 1.43685 0.730366C0.972935 0.730366 0.541826 0.753796 0.476222 0.777225ZM2.11631 4.93837C2.11631 8.05454 2.10694 8.4013 2.04134 8.42942C1.99916 8.44348 1.70863 8.45754 1.38999 8.45754C0.860472 8.45754 0.80424 8.44816 0.757381 8.3685C0.705835 8.2701 0.687091 1.6863 0.738637 1.55041C0.762067 1.48481 0.869844 1.47544 1.44153 1.47544H2.11631V4.93837ZM23.2688 1.55041C23.3203 1.6863 23.3016 8.2701 23.2501 8.3685C23.2032 8.44816 23.147 8.45754 22.6174 8.45754C22.2988 8.45754 22.0083 8.44348 21.9661 8.42942C21.9005 8.4013 21.8911 8.05454 21.8911 4.93837V1.47544H22.5659C23.1376 1.47544 23.2454 1.48481 23.2688 1.55041ZM13.2221 3.08272C14.0093 3.31702 14.6747 3.87465 14.9981 4.57286C15.2324 5.06958 15.2839 5.36479 15.2839 6.14735V6.77059H15.1433C15.0309 6.77059 14.9981 6.74716 14.9746 6.63938C14.8481 6.03957 14.5013 5.62252 13.9625 5.42102C13.7891 5.35542 13.4329 5.34136 11.5585 5.31793C9.403 5.2945 9.35146 5.2945 9.16402 5.19141C8.55953 4.86808 8.35803 4.09021 8.73291 3.53726C8.89223 3.30765 9.15933 3.11084 9.41237 3.04055C9.75914 2.94214 12.8706 2.97963 13.2221 3.08272ZM4.16877 4.362C4.26249 4.4276 4.27186 4.46977 4.27186 4.90557C4.27186 5.5616 4.28592 5.55223 3.4893 5.55223H2.86607V4.91963V4.28702H3.46587C3.92978 4.28702 4.08442 4.30108 4.16877 4.362ZM21.1414 4.91963V5.55223H20.5228C19.7215 5.55223 19.7356 5.5616 19.7356 4.91494C19.7356 4.28233 19.7309 4.28702 20.5416 4.28702H21.1414V4.91963ZM18.9858 4.94306V5.22421H17.4957H16.0009L15.9493 4.98523C15.9165 4.85402 15.8931 4.7275 15.8931 4.70407C15.8931 4.68064 16.5257 4.6619 17.4394 4.6619H18.9858V4.94306ZM9.22493 6.04426C9.23431 6.04895 9.19682 6.15672 9.14527 6.28324C9.09841 6.40977 9.04218 6.56909 9.02812 6.63938C9.00938 6.74716 8.97658 6.77059 8.86411 6.77059H8.72354V6.30667V5.83808L8.97189 5.93648C9.1031 5.99271 9.22025 6.03957 9.22493 6.04426ZM7.97378 6.5644C7.97378 7.11735 7.96909 7.15952 7.85663 7.30479C7.48175 7.79681 7.51924 8.51845 7.94098 9.00111C8.14247 9.22604 8.51735 9.44159 8.72354 9.44159C8.98595 9.44628 9.0375 9.48845 9.06093 9.69932C9.08904 9.94768 9.31397 10.4303 9.51546 10.6834C9.67947 10.8802 10.0872 11.2082 10.2605 11.2738C10.3168 11.2972 10.3636 11.3441 10.3636 11.3816C10.3636 11.4425 10.0965 11.4566 8.38615 11.4659C6.42272 11.48 6.40398 11.48 6.23528 11.5831C6.07127 11.6862 6.01973 11.6909 5.04973 11.6909H4.03756V8.99642V6.30199H4.14534C4.28123 6.2973 4.60456 6.15204 4.68891 6.05363C4.74514 5.98334 4.91853 5.97397 6.3618 5.97397H7.97378V6.5644ZM19.3185 6.05363C19.4076 6.15672 19.7309 6.30199 19.8902 6.30199H20.0167V7.93739V9.57748L20.1386 9.6712C20.3494 9.83521 20.5837 9.79304 20.6962 9.57748C20.7524 9.46971 20.7665 9.16043 20.7665 7.87179V6.30199H20.9539H21.1414V7.42662C21.1414 8.46691 21.1507 8.57 21.2351 8.73869C21.3569 8.97768 21.6146 9.14637 21.9286 9.18855L22.1723 9.22135V11.4331V13.6449L22.0645 13.8511C21.9942 13.9776 21.8864 14.0948 21.7693 14.1604C21.5912 14.2635 21.5584 14.2681 19.8902 14.2681H18.1892V13.3544V12.4406H19.3138C20.0495 12.4406 20.476 12.4219 20.5509 12.3891C20.7196 12.3094 20.7665 12.122 20.7665 11.5175C20.7665 10.824 20.6915 10.6599 20.3729 10.6599C20.3119 10.6599 20.2089 10.7021 20.1386 10.7583C20.0214 10.8474 20.0167 10.8755 20.0167 11.2738V11.6909H18.9811C17.9877 11.6909 17.9362 11.6862 17.7722 11.5831C17.6035 11.48 17.5847 11.48 15.626 11.4659C13.4376 11.4519 13.4236 11.4472 13.8922 11.1848C14.3889 10.8989 14.8622 10.2476 14.9371 9.74618C14.9699 9.52594 15.059 9.44159 15.2558 9.44159C15.6447 9.44159 16.1883 8.99642 16.3336 8.56531C16.4788 8.14358 16.4038 7.63749 16.1508 7.30479C16.0383 7.15952 16.0337 7.11735 16.0337 6.5644V5.97397H17.6456C19.0889 5.97397 19.2623 5.98334 19.3185 6.05363ZM13.7984 6.18015C13.9015 6.2317 14.0374 6.35353 14.103 6.45662L14.2296 6.64875V8.12483C14.2296 9.57748 14.2296 9.61029 14.1171 9.84927C13.9812 10.1585 13.5969 10.5194 13.2924 10.6412C13.0862 10.7209 12.9315 10.7302 12.0037 10.7302C11.0759 10.7302 10.9213 10.7209 10.7151 10.6412C10.4105 10.5194 10.0262 10.1585 9.89034 9.84927C9.78257 9.61497 9.77788 9.55874 9.76382 8.24198C9.75445 7.34227 9.76382 6.80807 9.80131 6.68155C9.86691 6.43788 10.1106 6.18952 10.3496 6.12392C10.4573 6.09581 11.1228 6.07706 12.074 6.08175C13.4892 6.09112 13.6344 6.10049 13.7984 6.18015ZM3.28781 9.25415V12.211L3.40496 12.3235L3.51742 12.4406H4.67017H5.81823V13.3544V14.2681H4.12191C2.44902 14.2681 2.41622 14.2635 2.23815 14.1604C2.121 14.0948 2.01322 13.9776 1.94293 13.8511L1.83515 13.6449V11.4331V9.22135L2.08351 9.18855C2.39279 9.14637 2.65051 8.97768 2.77235 8.73869C2.8567 8.57 2.86607 8.46691 2.86607 7.42662V6.30199H3.07694H3.28781V9.25415ZM9.00469 8.12952V8.73869L8.87817 8.71058C8.58764 8.64497 8.34866 8.37319 8.34866 8.11546C8.34866 7.8343 8.62044 7.52034 8.8688 7.52034H9.00469V8.12952ZM15.3964 7.61875C15.6588 7.82493 15.7244 8.1342 15.5651 8.39662C15.4667 8.56531 15.3214 8.6684 15.1339 8.71058L15.0027 8.73869V8.12952V7.52034H15.1386C15.2089 7.52034 15.3261 7.56252 15.3964 7.61875ZM12.8847 11.8408C12.8659 12.2625 12.7488 12.5062 12.477 12.6983C12.313 12.8155 12.2333 12.8389 12.0037 12.8389C11.7741 12.8389 11.6944 12.8155 11.5304 12.6983C11.2586 12.5062 11.1415 12.2625 11.1228 11.8408L11.104 11.5034H12.0037H12.9034L12.8847 11.8408Z" fill="white"/>
<path d="M10.9072 7.29057C10.7948 7.37961 10.7854 7.41241 10.7854 7.77323C10.7854 8.22308 10.851 8.32617 11.1415 8.32617C11.4274 8.32617 11.5117 8.19496 11.5117 7.77323C11.5117 7.44052 11.5024 7.41241 11.3805 7.30463C11.2212 7.16874 11.0712 7.15936 10.9072 7.29057Z" fill="white"/>
<path d="M12.6269 7.30463C12.5051 7.41241 12.4957 7.44052 12.4957 7.77323C12.4957 8.19496 12.5801 8.32617 12.8659 8.32617C13.1564 8.32617 13.2221 8.22308 13.2221 7.77323C13.2221 7.41241 13.2127 7.37961 13.1002 7.29057C12.9362 7.15936 12.7863 7.16874 12.6269 7.30463Z" fill="white"/>
<path d="M11.0009 9.07141C10.8135 9.21667 10.8276 9.49783 11.0337 9.68995C11.2961 9.93831 11.5539 10.0273 12.0037 10.0273C12.4536 10.0273 12.7113 9.93831 12.9784 9.68995C13.1799 9.49783 13.194 9.21667 13.0065 9.07141C12.8331 8.93551 12.7113 8.94957 12.4723 9.12295C12.2943 9.25416 12.224 9.27759 12.0037 9.27759C11.7835 9.27759 11.7132 9.25416 11.5351 9.12295C11.2961 8.94957 11.1743 8.93551 11.0009 9.07141Z" fill="white"/>
<path d="M11.8397 14.3384C11.7272 14.4462 11.7225 14.479 11.7225 15.0413C11.7225 15.6036 11.7272 15.6364 11.8397 15.7442C11.91 15.8192 12.0084 15.8613 12.0974 15.8613C12.1864 15.8613 12.2849 15.8192 12.3551 15.7442C12.4676 15.6364 12.4723 15.6036 12.4723 15.0413C12.4723 14.479 12.4676 14.4462 12.3551 14.3384C12.2849 14.2634 12.1864 14.2212 12.0974 14.2212C12.0084 14.2212 11.91 14.2634 11.8397 14.3384Z" fill="white"/>
<path d="M11.8538 16.574C11.7788 16.5974 11.7225 16.6349 11.7225 16.6584C11.7225 16.7287 11.2867 17.1785 11.1415 17.2582C11.0196 17.3238 10.8182 17.3425 9.98405 17.3613C9.07028 17.38 8.95782 17.3941 8.86879 17.4737C8.73758 17.5956 8.73289 17.8861 8.86879 18.022C8.96251 18.1157 9.00468 18.1157 10.0497 18.1016C11.0665 18.0876 11.1509 18.0829 11.3711 17.9798C11.5023 17.9189 11.6851 17.8111 11.7788 17.7361C11.8725 17.6565 11.9756 17.5956 12.0037 17.5956C12.0318 17.5956 12.1349 17.6565 12.2286 17.7361C12.3223 17.8111 12.5098 17.9189 12.6363 17.9798C12.8565 18.0829 12.9409 18.0876 13.9578 18.1016C15.0027 18.1157 15.0449 18.1157 15.1386 18.022C15.2745 17.8861 15.2698 17.5956 15.1386 17.4737C15.0496 17.3941 14.9371 17.38 14.0234 17.3613C13.1893 17.3425 12.9878 17.3238 12.8659 17.2582C12.7207 17.1785 12.2849 16.7287 12.2849 16.6584C12.2849 16.6302 12.0084 16.5037 11.985 16.5225C11.9803 16.5225 11.924 16.5459 11.8538 16.574Z" fill="white"/>
</svg>
