<svg width="24" height="21" viewBox="0 0 24 21" fill="none" xmlns="http://www.w3.org/2000/svg">
<g clip-path="url(#clip0_227_454)">
<path fill-rule="evenodd" clip-rule="evenodd" d="M3.09397 16.7555V17.0293C3.09397 17.6007 3.65059 18.1114 4.15285 18.2348C4.49733 18.3195 16.4333 18.2636 18.0939 18.2616C18.5326 18.2611 18.8258 18.2426 19.0872 18.4355C19.889 19.0273 19.4291 20.0873 18.469 20.0873H3.469C1.94171 20.0873 0.937693 19.1097 0.937693 17.6227V17.075C0.937693 15.588 1.94171 14.6104 3.469 14.6104H20.5314C22.0587 14.6104 23.0627 15.588 23.0627 17.075C23.0627 17.9701 23.0383 18.8794 22.2995 19.4811C21.7186 19.9543 21.2496 20.0873 20.2034 20.0873C20.6755 19.2185 20.4452 18.1755 19.5864 17.6301C18.9928 17.2533 18.4581 17.3488 17.5315 17.3488L4.73293 17.3505C3.78355 17.3541 3.90504 16.5485 4.4653 16.4476C4.74832 16.3967 4.96904 16.3871 4.96904 15.934C4.96904 15.1 3.09402 15.5998 3.09402 16.7555H3.09397ZM24.0002 10.2746V11.5386C23.9717 12.0868 23.8629 12.5903 23.5043 13.1234C23.2974 13.4309 22.7981 14.0188 22.4534 14.1084V14.1997C22.6153 14.2418 22.6767 14.3179 22.7964 14.4133C22.9176 14.5099 22.964 14.5291 23.0762 14.6431C23.8209 15.3999 23.9742 16.1166 24.0003 16.9448V18.0335C24.0003 18.9556 23.3647 19.915 22.6137 20.426C22.1766 20.7234 21.5388 21.0002 20.9534 21.0002H3.04722C2.19491 21.0002 1.26695 20.4796 0.756337 19.8532C0.350971 19.356 0.000300938 18.725 0.000300938 18.0335V16.7695C0.0288703 16.2214 0.137638 15.7178 0.49626 15.1846L0.94769 14.6201C1.04339 14.5269 1.12501 14.4775 1.22952 14.3924C1.33704 14.3048 1.39918 14.2382 1.54719 14.1997V14.1085C1.3852 14.0664 1.3238 13.9903 1.20413 13.8948C0.496658 13.3305 0.000244141 12.5203 0.000244141 11.5526V10.3526C0.030063 9.69183 0.173534 9.16967 0.756281 8.45483C1.02102 8.13021 1.35283 7.86559 1.73377 7.6723C2.04235 7.51563 2.42869 7.37107 2.82389 7.31887C3.28799 7.25748 7.74384 7.30803 8.62529 7.30803C8.57769 7.26777 8.63233 7.3046 8.54446 7.24974C8.53634 7.24471 8.52418 7.2373 8.51549 7.23226L7.48944 6.58833C6.83502 6.06472 6.1903 5.36332 5.82805 4.60032C5.66952 4.26629 5.43785 3.65553 5.43785 3.20034C5.43785 2.50917 7.2226 2.47007 7.7815 2.47007V1.51163C7.7815 1.17539 7.9265 0.489255 8.0915 0.216007C8.39696 -0.289788 9.51945 0.234091 9.82957 0.384623C10.3135 0.619714 10.5028 0.842969 10.8284 1.05516L11.3078 0.426598C11.713 -0.00409632 12.0067 -0.153302 12.4122 0.197591C12.7616 0.500039 12.9092 0.672914 13.1721 1.05516C13.4976 0.842914 13.6869 0.619714 14.1709 0.384623C14.4988 0.225519 15.6323 -0.308204 15.9251 0.245815C16.2743 0.906567 16.219 1.75424 16.219 2.47002C16.8084 2.47002 17.23 2.46991 17.7939 2.62531C18.1133 2.71329 18.5627 2.83579 18.5627 3.20028C18.5627 4.45449 17.4714 5.8199 16.511 6.58827C16.3241 6.73786 16.1733 6.83497 15.9661 6.97052C15.8045 7.0762 15.5096 7.19156 15.4221 7.30797C16.2825 7.30797 20.7699 7.25455 21.2167 7.32528C22.7484 7.56734 24.0002 8.91069 24.0002 10.2746H24.0002ZM13.6409 11.37C13.6409 11.6596 13.7315 11.8589 14.1069 11.8746C15.1299 11.9174 17.902 11.8044 18.6047 11.8768C19.8371 12.0037 19.77 13.6977 18.469 13.6977H3.469C1.94171 13.6977 0.937693 12.7201 0.937693 11.233V10.6853C0.937693 9.19837 1.94171 8.22079 3.469 8.22079H20.5314C22.0587 8.22079 23.0627 9.19837 23.0627 10.6853C23.0627 11.3087 23.0988 11.7445 22.8561 12.3098C22.3979 13.3769 21.5025 13.6977 20.2034 13.6977C20.9336 12.354 19.8742 10.9592 18.7034 10.9592H14.0628C13.831 10.9592 13.6409 11.1444 13.6409 11.37ZM11.6252 4.15873L11.344 3.88493C11.4895 3.91789 11.4798 3.94322 11.6252 3.97618V4.15878V4.15873ZM11.344 3.88493L11.2432 3.85982L11.344 3.88493ZM12.7034 6.98849H12.469C12.469 5.17801 12.289 5.59769 13.1365 4.76318C13.3692 4.53407 13.6917 4.30605 13.988 4.13169C14.9988 3.53708 15.7126 3.42857 16.8752 3.42857C17.1745 3.42857 17.2862 3.49997 17.5315 3.51993C17.4588 4.37114 16.4951 5.39971 15.8299 5.92508C15.1534 6.45936 13.9177 6.98855 12.7033 6.98855L12.7034 6.98849ZM6.46901 3.51988C7.07698 3.47049 6.76419 3.42852 7.73458 3.42852C8.7662 3.42852 10.1685 4.08208 10.8408 4.74001C11.7155 5.59631 11.5315 5.18326 11.5315 6.98849C9.69195 6.98849 8.11064 6.21962 7.14491 4.91554C6.89846 4.58262 6.53155 3.99432 6.46901 3.51988ZM8.719 1.83111C8.719 1.48143 8.78818 1.29711 8.81283 1.00965C9.42278 1.14802 9.97151 1.55305 10.3787 1.94957C10.727 2.28874 10.7853 2.38618 11.0628 2.78955C10.7086 2.81826 10.6409 3.01369 10.6409 3.38295C10.4824 3.34695 9.42136 2.70196 8.81289 2.65268C8.78824 2.36511 8.71906 2.1809 8.71906 1.83111H8.719ZM15.1878 2.65268C14.2057 2.73232 12.6894 3.8977 12.5627 3.93055C12.5551 3.59553 12.4303 3.62606 12.8455 2.92792L13.61 1.9379L14.2031 1.46562C14.459 1.29042 14.8368 1.08923 15.1878 1.00959C15.2106 1.27554 15.2817 1.46954 15.2817 1.78543C15.2817 2.13301 15.213 2.35897 15.1878 2.65263L15.1878 2.65268ZM11.5315 1.78549C11.6168 1.42923 11.8951 1.31331 11.9534 1.10084C12.1726 1.2438 12.3416 1.50527 12.469 1.73986C12.397 2.00227 12.1157 2.18344 12.0471 2.47013H11.9534C11.9096 2.28713 11.6408 1.94454 11.5315 1.78549Z" fill="white"/>
<path fill-rule="evenodd" clip-rule="evenodd" d="M3.09375 10.3657V10.6395C3.09375 11.2277 3.75522 11.8718 4.35932 11.8718H9.93744C10.457 11.8718 10.5737 10.9848 9.89331 10.9564C8.85266 10.9129 6.56154 10.959 5.3906 10.959C5.13472 10.959 4.74344 10.9817 4.50359 10.9555C4.10827 10.9126 3.87858 10.5295 4.15638 10.2136C4.25487 10.1017 4.32269 10.0834 4.46502 10.0578C4.74804 10.0068 4.96876 9.99725 4.96876 9.54411C4.96876 8.70998 3.09375 9.20991 3.09375 10.3657V10.3657Z" fill="white"/>
<path fill-rule="evenodd" clip-rule="evenodd" d="M11.5312 11.3698C11.5312 12.0524 12.4688 12.0524 12.4688 11.3698C12.4688 10.8185 11.5312 10.8185 11.5312 11.3698Z" fill="white"/>
</g>
<defs>
<clipPath id="clip0_227_454">
<rect width="24" height="21" fill="white"/>
</clipPath>
</defs>
</svg>
