<svg width="50" height="50" viewBox="0 0 50 50" fill="none" xmlns="http://www.w3.org/2000/svg">
<rect width="50" height="50" rx="25" fill="#E7CBC0"/>
<g clip-path="url(#clip0_160_590)">
<path fill-rule="evenodd" clip-rule="evenodd" d="M16.0937 31.7555V32.0293C16.0937 32.6006 16.6503 33.1113 17.1526 33.2348C17.4971 33.3194 29.4331 33.2636 31.0937 33.2616C31.5324 33.2611 31.8256 33.2426 32.087 33.4355C32.8888 34.0272 32.4289 35.0872 31.4687 35.0872H16.4688C14.9415 35.0872 13.9374 34.1096 13.9374 32.6227V32.0749C13.9374 30.5879 14.9415 29.6104 16.4688 29.6104H33.5312C35.0585 29.6104 36.0625 30.5879 36.0625 32.0749C36.0625 32.97 36.0381 33.8793 35.2993 34.481C34.7183 34.9542 34.2494 35.0872 33.2031 35.0872C33.6752 34.2185 33.445 33.1755 32.5861 32.6301C31.9926 32.2533 31.4579 32.3488 30.5313 32.3488L17.7327 32.3505C16.7833 32.354 16.9048 31.5484 17.4651 31.4476C17.7481 31.3967 17.9688 31.3871 17.9688 30.9339C17.9688 30.0999 16.0938 30.5998 16.0938 31.7555H16.0937ZM37 25.2745V26.5385C36.9714 27.0867 36.8627 27.5902 36.504 28.1233C36.2972 28.4309 35.7978 29.0187 35.4531 29.1084V29.1996C35.6151 29.2417 35.6765 29.3179 35.7962 29.4133C35.9173 29.5099 35.9637 29.5291 36.076 29.643C36.8206 30.3999 36.974 31.1165 37.0001 31.9448V33.0334C37.0001 33.9555 36.3644 34.9149 35.6134 35.4259C35.1764 35.7234 34.5386 36.0001 33.9532 36.0001H16.047C15.1947 36.0001 14.2667 35.4795 13.7561 34.8532C13.3507 34.3559 13.0001 33.7249 13.0001 33.0334V31.7695C13.0286 31.2213 13.1374 30.7178 13.496 30.1846L13.9474 29.62C14.0431 29.5269 14.1248 29.4774 14.2293 29.3924C14.3368 29.3048 14.3989 29.2381 14.5469 29.1997V29.1084C14.385 29.0664 14.3236 28.9902 14.2039 28.8947C13.4964 28.3304 13 27.5202 13 26.5525V25.3525C13.0298 24.6918 13.1733 24.1696 13.756 23.4548C14.0208 23.1301 14.3526 22.8655 14.7335 22.6722C15.0421 22.5156 15.4284 22.371 15.8236 22.3188C16.2877 22.2574 20.7436 22.308 21.625 22.308C21.5774 22.2677 21.6321 22.3045 21.5442 22.2497C21.5361 22.2446 21.5239 22.2372 21.5153 22.2322L20.4892 21.5883C19.8348 21.0647 19.1901 20.3633 18.8278 19.6003C18.6693 19.2662 18.4376 18.6555 18.4376 18.2003C18.4376 17.5091 20.2224 17.47 20.7813 17.47V16.5116C20.7813 16.1753 20.9263 15.4892 21.0913 15.2159C21.3967 14.7102 22.5192 15.234 22.8293 15.3846C23.3132 15.6197 23.5026 15.8429 23.8281 16.0551L24.3075 15.4265C24.7128 14.9958 25.0064 14.8466 25.412 15.1975C25.7613 15.5 25.9089 15.6729 26.1718 16.0551C26.4974 15.8429 26.6867 15.6197 27.1706 15.3846C27.4985 15.2255 28.632 14.6917 28.9248 15.2458C29.274 15.9065 29.2187 16.7542 29.2187 17.47C29.8081 17.47 30.2298 17.4698 30.7936 17.6252C31.113 17.7132 31.5625 17.8357 31.5625 18.2002C31.5625 19.4544 30.4712 20.8198 29.5108 21.5882C29.3239 21.7378 29.173 21.8349 28.9659 21.9705C28.8042 22.0761 28.5094 22.1915 28.4218 22.3079C29.2822 22.3079 33.7696 22.2545 34.2165 22.3252C35.7482 22.5673 36.9999 23.9106 36.9999 25.2745H37ZM26.6406 26.3699C26.6406 26.6595 26.7312 26.8588 27.1067 26.8745C28.1296 26.9173 30.9018 26.8044 31.6044 26.8767C32.8369 27.0037 32.7697 28.6976 31.4687 28.6976H16.4688C14.9415 28.6976 13.9374 27.72 13.9374 26.2329V25.6853C13.9374 24.1983 14.9415 23.2207 16.4688 23.2207H33.5312C35.0585 23.2207 36.0625 24.1983 36.0625 25.6853C36.0625 26.3086 36.0986 26.7445 35.8559 27.3097C35.3976 28.3768 34.5023 28.6976 33.2031 28.6976C33.9334 27.354 32.874 25.9591 31.7031 25.9591H27.0625C26.8307 25.9591 26.6406 26.1443 26.6406 26.3699ZM24.6249 19.1587L24.3437 18.8849C24.4893 18.9178 24.4795 18.9432 24.6249 18.9761V19.1587V19.1587ZM24.3437 18.8849L24.243 18.8598L24.3437 18.8849ZM25.7031 21.9884H25.4687C25.4687 20.1779 25.2888 20.5976 26.1362 19.7631C26.3689 19.534 26.6914 19.306 26.9878 19.1316C27.9986 18.537 28.7124 18.4285 29.8749 18.4285C30.1743 18.4285 30.2859 18.4999 30.5312 18.5199C30.4585 19.3711 29.4949 20.3997 28.8297 20.925C28.1532 21.4593 26.9175 21.9885 25.7031 21.9885L25.7031 21.9884ZM19.4688 18.5198C20.0767 18.4704 19.7639 18.4285 20.7343 18.4285C21.766 18.4285 23.1683 19.082 23.8406 19.74C24.7153 20.5963 24.5312 20.1832 24.5312 21.9884C22.6917 21.9884 21.1104 21.2196 20.1447 19.9155C19.8982 19.5826 19.5313 18.9943 19.4688 18.5198ZM21.7188 16.831C21.7188 16.4814 21.7879 16.2971 21.8126 16.0096C22.4225 16.148 22.9713 16.553 23.3784 16.9495C23.7268 17.2887 23.7851 17.3861 24.0626 17.7895C23.7084 17.8182 23.6407 18.0136 23.6407 18.3829C23.4822 18.3469 22.4211 17.7019 21.8126 17.6526C21.788 17.365 21.7188 17.1808 21.7188 16.831H21.7188ZM28.1875 17.6526C27.2054 17.7323 25.6892 18.8976 25.5625 18.9305C25.5548 18.5955 25.43 18.626 25.8453 17.9279L26.6097 16.9378L27.2029 16.4656C27.4588 16.2904 27.8365 16.0892 28.1876 16.0095C28.2104 16.2755 28.2814 16.4695 28.2814 16.7854C28.2814 17.1329 28.2127 17.3589 28.1876 17.6526L28.1875 17.6526ZM24.5313 16.7854C24.6166 16.4292 24.8949 16.3133 24.9532 16.1008C25.1724 16.2437 25.3413 16.5052 25.4688 16.7398C25.3968 17.0022 25.1154 17.1834 25.0469 17.4701H24.9532C24.9093 17.2871 24.6406 16.9445 24.5313 16.7854Z" fill="#7D6858"/>
<path fill-rule="evenodd" clip-rule="evenodd" d="M16.0938 25.3658V25.6396C16.0938 26.2278 16.7552 26.8718 17.3593 26.8718H22.9374C23.457 26.8718 23.5737 25.9849 22.8933 25.9564C21.8527 25.9129 19.5615 25.959 18.3906 25.959C18.1347 25.959 17.7434 25.9818 17.5036 25.9556C17.1083 25.9126 16.8786 25.5295 17.1564 25.2137C17.2549 25.1017 17.3227 25.0834 17.465 25.0578C17.748 25.0068 17.9688 24.9973 17.9688 24.5441C17.9688 23.71 16.0938 24.2099 16.0938 25.3657V25.3658Z" fill="#7D6858"/>
<path fill-rule="evenodd" clip-rule="evenodd" d="M24.5312 26.3698C24.5312 27.0524 25.4688 27.0524 25.4688 26.3698C25.4688 25.8185 24.5312 25.8185 24.5312 26.3698Z" fill="#7D6858"/>
</g>
<defs>
<clipPath id="clip0_160_590">
<rect width="24" height="21" fill="white" transform="translate(13 15)"/>
</clipPath>
</defs>
</svg>
