<svg width="25" height="20" viewBox="0 0 25 20" fill="none" xmlns="http://www.w3.org/2000/svg">
<g clip-path="url(#clip0_377_197)">
<path fill-rule="evenodd" clip-rule="evenodd" d="M20.7111 1.76847C20.7111 1.66058 20.7875 1.38324 20.8219 1.29348C20.9752 0.893468 21.4513 0.589459 21.8513 0.589459C22.513 0.589459 23.2393 1.30765 22.8807 2.2436C22.8275 2.38258 22.7486 2.48224 22.645 2.58952C22.5415 2.69665 22.4451 2.77802 22.3106 2.83318C21.8489 3.02229 21.3998 2.9458 21.0574 2.58952C20.8539 2.37786 20.7111 2.04825 20.7111 1.76847ZM20.1412 1.69486C20.1412 2.122 20.1605 2.21709 20.3307 2.56742C20.5264 2.97033 20.5832 2.89749 20.7111 3.09498C20.5261 3.11083 20.2059 3.25423 20.0441 3.3263C19.4347 3.59709 18.7161 4.02514 18.7161 4.82669V9.21113C18.7161 9.44901 18.8434 9.67515 18.9747 9.79126C19.3418 10.1158 19.6939 9.98495 19.8562 9.98495V13.6326C19.8562 14.1437 20.2023 14.5096 20.584 14.6486C21.1993 14.8727 21.5283 14.5932 21.8513 14.3695C22.1707 14.5908 22.4697 14.8604 23.0918 14.6577C23.3025 14.5891 23.4438 14.4852 23.5887 14.3243C23.7079 14.1919 23.8462 13.9474 23.8462 13.7064V9.9851C24.0132 9.9851 24.3618 10.1149 24.7276 9.79142C25.0894 9.47156 24.9862 8.8387 24.9862 8.21651C24.9862 8.03822 24.8735 7.9218 24.7013 7.9218C24.0437 7.9218 24.7889 9.39552 24.1313 9.39552C23.7254 9.39552 23.8464 8.72167 23.8464 8.03228C23.8464 7.46769 23.8424 6.90158 23.8467 6.33714C23.8526 5.54199 23.4216 5.8079 23.3348 5.91869C23.2459 6.03191 23.2738 6.11405 23.2757 6.29996L23.2763 13.0063C23.2763 13.4307 23.3688 14.1117 22.7062 14.1117C22.2117 14.1117 22.1335 13.7457 22.136 13.3013L22.1363 10.464C22.1363 9.65427 22.2817 9.24816 21.78 9.24816C21.4546 9.24816 21.5663 10.0826 21.5663 10.4273L21.5665 13.2644C21.568 13.648 21.5523 14.1117 20.9964 14.1117C20.7527 14.1117 20.5751 13.9959 20.4957 13.819C20.3647 13.5265 20.4265 11.7506 20.4265 11.3485L20.4266 6.33729C20.4279 6.15885 20.4764 5.8012 20.1363 5.79465C19.8119 5.78825 19.855 6.21523 19.8561 6.33729L19.8565 8.84327C19.8586 9.15368 19.8696 9.39567 19.5713 9.39567C19.3989 9.39567 19.2863 9.2791 19.2863 9.10096V5.01123C19.2863 4.2938 19.8736 4.05715 20.4465 3.81622C21.5743 3.34185 23.1334 3.51755 24.0971 4.27292C24.3301 4.45548 24.4195 4.72962 24.4167 5.15813C24.4159 5.31036 24.388 5.90055 24.4446 6.01362C24.5688 6.26201 24.9864 6.159 24.9864 5.9324C24.9864 5.252 25.077 4.62158 24.7668 4.13288C24.6429 3.93752 24.4923 3.7923 24.2896 3.66856C23.9902 3.4857 23.346 3.12592 22.9912 3.09544C23.0579 2.99227 23.116 2.95982 23.1949 2.86412C23.9987 1.89114 23.4636 0.000488281 21.7798 0.000488281C20.9382 0.000488281 20.1411 0.824894 20.1411 1.69532L20.1412 1.69486Z" fill="white"/>
<path fill-rule="evenodd" clip-rule="evenodd" d="M24.4163 7.0373C24.4163 7.44036 24.9863 7.44036 24.9863 7.0373C24.9863 6.64186 24.4163 6.64186 24.4163 7.0373Z" fill="white"/>
<path fill-rule="evenodd" clip-rule="evenodd" d="M21.9854 19.098H1.51472C1.0743 19.098 0.485358 18.3216 1.35824 17.702L3.44289 16.298C3.67304 16.1399 3.90143 15.981 4.13085 15.8228L5.51693 14.8829C5.75829 14.7165 5.96929 14.5879 6.21477 14.4178L11.7501 10.6963C11.8574 10.6963 14.8998 12.773 15.1924 12.9747L22.1237 17.6258C23.1653 18.3318 22.3478 19.098 21.9854 19.098ZM23.5001 18.2762V18.5109C23.4428 19.3185 22.8054 20 22.0313 20H1.42292C0.667625 20 0 19.2161 0 18.576C0 17.5941 0.273327 17.3115 1.00063 16.8101L5.416 13.8292C5.9018 13.4942 6.39954 13.1678 6.88475 12.8322C7.1345 12.6596 7.37482 12.5104 7.63754 12.3292L10.5544 10.3618C10.7328 10.2514 11.1108 9.93905 11.291 9.88923C11.291 9.30391 11.2933 8.71814 11.2908 8.13283C11.287 7.21851 11.3983 7.37959 12.0847 7.24503C12.487 7.16625 12.9056 6.96738 13.1545 6.6425C13.8001 5.7998 13.8134 4.75093 13.1163 3.96661C12.6221 3.41055 12.1105 3.38617 11.5203 3.38617C10.8162 3.38617 9.93378 4.17964 9.86895 5.14363C9.85584 5.33899 9.85318 5.47858 9.76595 5.60673C9.70333 5.69908 9.5411 5.80712 9.40893 5.80712C9.01714 5.80712 8.94995 5.48452 8.94995 5.18996C8.94995 2.86806 11.9147 1.40074 13.7583 3.30266C14.6484 4.22079 14.8381 5.87706 14.0646 6.96708C13.7901 7.35399 13.5663 7.6295 13.1119 7.88033C12.7967 8.05435 12.5872 8.13694 12.2088 8.22807V9.88938C12.364 9.9322 12.4817 10.0453 12.6127 10.1364L16.6426 12.8514C16.9047 13.0331 17.1453 13.1821 17.3954 13.3545L21.0677 15.8224C21.5407 16.1471 22.903 16.9875 23.1799 17.388C23.3794 17.6767 23.4793 17.9812 23.4998 18.2764L23.5001 18.2762Z" fill="white"/>
</g>
<defs>
<clipPath id="clip0_377_197">
<rect width="25" height="20" fill="white"/>
</clipPath>
</defs>
</svg>
