<svg width="736" height="189" viewBox="0 0 736 189" fill="none" xmlns="http://www.w3.org/2000/svg">
<path d="M80.1993 188.12C68.2393 188.12 57.3193 186.127 47.4393 182.14C37.5593 178.153 29.1526 172.26 22.2193 164.46C15.286 156.487 9.91264 146.693 6.0993 135.08C2.28597 123.293 0.379303 109.687 0.379303 94.26C0.379303 78.8333 2.28597 65.3133 6.0993 53.7C9.91264 41.9133 15.286 32.12 22.2193 24.32C29.1526 16.3467 37.5593 10.3667 47.4393 6.37999C57.3193 2.39332 68.2393 0.39999 80.1993 0.39999C92.1593 0.39999 103.079 2.39332 112.959 6.37999C122.839 10.3667 131.246 16.3467 138.179 24.32C145.113 32.12 150.486 41.9133 154.299 53.7C158.113 65.3133 160.019 78.8333 160.019 94.26C160.019 109.687 158.113 123.293 154.299 135.08C150.486 146.693 145.113 156.487 138.179 164.46C131.246 172.26 122.839 178.153 112.959 182.14C103.079 186.127 92.1593 188.12 80.1993 188.12ZM80.1993 153.02C92.1593 153.02 101.433 149.12 108.019 141.32C114.779 133.52 118.159 122.34 118.159 107.78V80.74C118.159 66.18 114.779 55 108.019 47.2C101.433 39.4 92.1593 35.5 80.1993 35.5C68.2393 35.5 58.8793 39.4 52.1193 47.2C45.5326 55 42.2393 66.18 42.2393 80.74V107.78C42.2393 122.34 45.5326 133.52 52.1193 141.32C58.8793 149.12 68.2393 153.02 80.1993 153.02ZM289.134 185L276.134 141.84L215.554 141.84L202.554 185L162.514 185L222.314 3.52H271.194L330.214 185H289.134ZM246.234 39.4H244.934L224.914 108.3L266.514 108.3L246.234 39.4ZM406.282 188.12C390.335 188.12 376.815 185.433 365.722 180.06C354.629 174.513 345.182 167.407 337.382 158.74L363.382 132.48C375.689 146.347 390.855 153.28 408.882 153.28C418.589 153.28 425.782 151.287 430.462 147.3C435.142 143.313 437.482 138.027 437.482 131.44C437.482 126.413 436.095 122.253 433.322 118.96C430.549 115.493 424.915 113.153 416.422 111.94L398.482 109.6C379.242 107.173 365.115 101.367 356.102 92.18C347.262 82.9933 342.842 70.7733 342.842 55.52C342.842 47.3733 344.402 39.92 347.522 33.16C350.642 26.4 355.062 20.5933 360.782 15.74C366.675 10.8867 373.782 7.16 382.102 4.56C390.595 1.78666 400.215 0.39999 410.962 0.39999C424.655 0.39999 436.702 2.56665 447.102 6.89998C457.502 11.2333 466.429 17.56 473.882 25.88L447.622 52.4C443.289 47.3733 438.002 43.3 431.762 40.18C425.695 36.8867 417.982 35.24 408.622 35.24C399.782 35.24 393.195 36.8 388.862 39.92C384.529 43.04 382.362 47.3733 382.362 52.92C382.362 59.16 384.009 63.6667 387.302 66.44C390.769 69.2133 396.315 71.2067 403.942 72.42L421.882 75.28C440.602 78.2267 454.469 84.0333 463.482 92.7C472.495 101.193 477.002 113.327 477.002 129.1C477.002 137.767 475.442 145.74 472.322 153.02C469.202 160.3 464.609 166.54 458.542 171.74C452.649 176.94 445.282 181.013 436.442 183.96C427.602 186.733 417.549 188.12 406.282 188.12ZM494.948 185V153.54H518.348V34.98H494.948V3.52L581.268 3.52V34.98L557.868 34.98V153.54H581.268V185L494.948 185ZM665.155 188.12C649.208 188.12 635.688 185.433 624.595 180.06C613.501 174.513 604.055 167.407 596.255 158.74L622.255 132.48C634.561 146.347 649.728 153.28 667.755 153.28C677.461 153.28 684.655 151.287 689.335 147.3C694.015 143.313 696.355 138.027 696.355 131.44C696.355 126.413 694.968 122.253 692.195 118.96C689.421 115.493 683.788 113.153 675.295 111.94L657.355 109.6C638.115 107.173 623.988 101.367 614.975 92.18C606.135 82.9933 601.715 70.7733 601.715 55.52C601.715 47.3733 603.275 39.92 606.395 33.16C609.515 26.4 613.935 20.5933 619.655 15.74C625.548 10.8867 632.655 7.16 640.975 4.56C649.468 1.78666 659.088 0.39999 669.835 0.39999C683.528 0.39999 695.575 2.56665 705.975 6.89998C716.375 11.2333 725.301 17.56 732.755 25.88L706.495 52.4C702.161 47.3733 696.875 43.3 690.635 40.18C684.568 36.8867 676.855 35.24 667.495 35.24C658.655 35.24 652.068 36.8 647.735 39.92C643.401 43.04 641.235 47.3733 641.235 52.92C641.235 59.16 642.881 63.6667 646.175 66.44C649.641 69.2133 655.188 71.2067 662.815 72.42L680.755 75.28C699.475 78.2267 713.341 84.0333 722.355 92.7C731.368 101.193 735.875 113.327 735.875 129.1C735.875 137.767 734.315 145.74 731.195 153.02C728.075 160.3 723.481 166.54 717.415 171.74C711.521 176.94 704.155 181.013 695.315 183.96C686.475 186.733 676.421 188.12 665.155 188.12Z" fill="#CFC8BE"/>
</svg>
