<svg width="50" height="50" viewBox="0 0 50 50" fill="none" xmlns="http://www.w3.org/2000/svg">
<rect x="0.5" y="0.5" width="49" height="49" rx="24.5" fill="#F1CE8E" stroke="#F1CE8E"/>
<path fill-rule="evenodd" clip-rule="evenodd" d="M27.6992 13H32.0806C33.1638 13.0252 33.8637 13.8974 33.5494 14.8719C33.453 15.171 33.3088 15.3484 33.0856 15.5429C32.5892 15.9756 32.0039 15.9058 31.1082 15.9058C30.3256 15.9058 29.5422 15.9058 28.7596 15.9058C28.8674 16.1055 28.9987 16.2153 29.0959 16.4209C29.1733 16.585 29.2492 16.8499 29.2758 17.0422C29.4071 17.9856 28.8629 18.7233 28.0901 19.0952C27.5307 19.3646 27.2255 19.234 26.6979 19.234C26.7055 19.5747 26.8171 19.8389 26.6949 20.2152C26.5006 20.8112 26.1264 20.8595 26.1195 21.2929L26.1233 22.8902C26.6046 23.1389 27.0562 23.4157 27.3978 23.8469C27.7781 24.3257 27.9702 24.6374 28.1653 25.2995C28.2776 25.681 28.226 25.9979 28.2905 26.3022C28.3824 26.7364 29.7738 28.0005 29.001 28.3775C28.6275 28.5594 28.3846 28.3085 28.2465 28.0799C27.9747 27.6293 27.6233 27.184 27.3773 26.7261C27.3014 26.585 27.2726 26.4789 27.2847 26.28C27.3447 25.3114 26.7617 24.3183 25.932 23.8737C25.5168 23.6517 25.6459 23.6822 25.1206 23.7853C24.4898 23.9093 23.881 24.0073 23.2266 24.1364C22.9078 24.1995 22.6095 24.2121 22.3947 24.4474L20.85 26.2184C20.6974 26.4128 20.5084 26.5969 20.3368 26.7951L19.5679 27.6835C19.457 27.8038 19.4168 27.8683 19.3303 28.0138C18.7746 28.9438 18.9416 29.7521 19.3637 30.5782C19.8556 31.5394 20.3376 32.537 20.85 33.4841C21.171 33.3334 21.7373 33.0395 22.0485 32.9682L20.6867 29.3313C20.5395 28.9342 20.6321 28.7026 20.9456 28.4681L23.0073 26.8277C23.1705 26.703 23.3162 26.5761 23.4802 26.4462C23.6024 26.349 23.8127 26.1649 23.9599 26.1137C24.1899 26.0343 24.3941 26.1679 24.5285 26.3253L29.3077 32.292C29.4458 32.4635 29.546 32.6001 29.6849 32.7663C30.0561 33.2109 30.4471 33.6644 30.7727 34.1402C31.0179 33.9799 31.4635 33.6006 31.7314 33.5308C31.6965 33.4032 31.4278 33.0135 31.3382 32.8843C31.194 32.6758 31.0657 32.4724 30.9321 32.2505C30.7628 31.9699 30.3582 31.4704 30.7135 31.1765C31.1173 30.8417 31.4111 31.2091 31.6259 31.5246L32.8131 33.3631C33.0864 33.7995 33.3354 34.1743 33.6094 34.5996C33.8713 35.0056 34.178 35.5126 33.8728 36.1412C33.6436 36.6126 33.2648 36.954 32.6871 36.9993L32.6788 37H32.4032C31.8658 36.9569 31.5417 36.6608 31.298 36.3446C30.7014 35.5727 30.0668 34.8357 29.4709 34.0533L25.3817 28.9579C25.1502 28.6573 24.2431 27.4482 24.0123 27.2968C23.5098 27.5566 22.255 28.7375 21.6637 29.1249C21.9036 29.6148 23.1879 33.2896 23.5531 34.2144C23.7876 34.8082 24.095 35.3886 23.8757 36.0225C23.6745 36.6014 23.197 36.9354 22.6786 37H22.3082C21.8284 36.9406 21.3616 36.6511 21.0883 36.1101L18.7397 31.5164C18.1051 30.2754 17.6428 29.3394 18.2607 27.9544C18.6053 27.181 19.2323 26.6036 19.7796 25.9712L21.3881 24.1223C21.6925 23.7883 21.7366 23.7594 21.6569 23.32C21.379 21.788 21.713 21.88 20.9631 21.7012C20.0529 21.4837 19.2202 21.1059 18.3488 20.789C17.8804 20.619 17.5525 20.5025 17.2656 20.1135C17.1654 19.9784 17.138 19.9109 17.0773 19.735C16.826 19.0083 17.2337 18.3916 17.6352 18.108C18.2387 17.6835 18.7769 17.8475 19.4525 18.0687L20.7968 18.494C20.9881 18.5615 21.0496 18.6469 21.0898 18.3968C21.1885 17.7822 21.4686 17.299 21.9514 16.9383C22.2816 16.6919 22.5321 16.343 22.8259 16.0587C24.2696 14.6633 25.0932 13.4105 27.3538 13.0334C27.435 13.02 27.5534 13.0089 27.6992 13.0007V13ZM22.4789 21.9528C23.3056 21.9528 23.8491 21.9201 24.6196 21.7019C24.716 21.6744 24.8101 21.6537 24.8815 21.6299C25.0181 21.5854 25.0234 21.5624 25.1631 21.5304C25.1631 21.7494 25.1623 21.9684 25.1638 22.1873C25.1653 22.4671 25.1198 22.5874 25.1153 22.7959L22.6224 23.265C22.6224 22.7841 22.4789 22.433 22.4789 21.9528ZM18.4998 18.8124C18.8695 18.8124 20.7771 19.6407 22.3438 19.7921C22.5594 19.8129 23.1963 19.7179 23.4096 19.6764C23.7869 19.6021 24.0138 19.5316 24.3281 19.4032C24.5323 19.3201 25.2048 18.8584 25.6041 19.3193C25.8971 19.6578 25.7969 20.1239 25.4325 20.3421C24.6621 20.8045 23.6851 20.9693 22.7181 20.9693C21.2993 20.9693 20.2161 20.423 19.0448 20.0141C18.8065 19.9309 18.5499 19.8448 18.348 19.758C18.1279 19.6637 17.9669 19.4982 17.995 19.2473C18.0231 18.9957 18.2243 18.8131 18.5006 18.8131L18.4998 18.8124ZM22.5268 18.8124H22.047C22.047 18.3893 22.1275 18.0806 22.441 17.7911C22.6467 17.6011 22.9557 17.4534 23.342 17.4534H25.2117C25.2117 17.7295 25.3058 17.9767 25.4037 18.1563C24.5118 18.1563 24.5884 18.2394 23.9797 18.4984C23.61 18.6558 23.0338 18.8124 22.5275 18.8124H22.5268ZM26.1696 17.2656C26.1696 15.9296 28.2791 15.9429 28.2791 17.1721V17.4534C28.2791 17.8022 27.7728 18.2973 27.416 18.2973H27.1283C26.5993 18.2973 26.1696 17.7852 26.1696 17.2663V17.2656ZM25.3544 16.5159C25.0029 16.5159 24.6499 16.513 24.2985 16.5167C23.629 16.5241 23.6783 16.6095 24.5983 15.6364C24.7797 15.4442 24.9596 15.2861 25.1502 15.0975C25.8349 14.4199 26.9105 13.9374 28.2784 13.9374H32.0176C32.8124 13.9374 32.8913 14.9231 32.0206 14.9246L28.4704 14.9216C27.0388 14.9216 27.0145 14.9617 26.1977 15.5585C26.0368 15.6765 25.9905 15.6832 25.8447 15.8227C25.6777 15.9838 25.4121 16.274 25.3544 16.5152V16.5159ZM21.2796 34.3272C21.4982 34.3094 21.6295 34.1921 21.8269 34.1127C22.0485 34.0229 22.1928 33.9561 22.3818 33.8589L22.6831 34.6887C22.8441 35.0865 23.2676 36.0113 22.4714 36.0477C22.1518 36.0626 22.0508 35.8436 21.9339 35.6091C21.7138 35.1697 21.505 34.7451 21.2788 34.328L21.2796 34.3272ZM31.3944 34.8898L32.2575 34.3272C32.4343 34.5855 32.618 34.8609 32.7828 35.1259C32.845 35.2268 32.9885 35.425 33.0029 35.5586C33.0196 35.7174 32.9164 35.8948 32.7858 35.9698C32.3099 36.2429 32.0503 35.6981 31.6897 35.2572C31.5887 35.134 31.4825 35.016 31.3952 34.8891L31.3944 34.8898Z" fill="white"/>
<path fill-rule="evenodd" clip-rule="evenodd" d="M29.7639 29.3306C30.0213 29.3306 30.23 29.5347 30.23 29.7863C30.23 30.0379 30.0213 30.242 29.7639 30.242C29.5066 30.242 29.2979 30.0379 29.2979 29.7863C29.2979 29.5347 29.5066 29.3306 29.7639 29.3306Z" fill="white"/>
</svg>
