<svg width="50" height="50" viewBox="0 0 50 50" fill="none" xmlns="http://www.w3.org/2000/svg">
<path d="M34 29.42V32.956C34.0001 33.2092 33.9042 33.453 33.7316 33.6382C33.559 33.8234 33.3226 33.9363 33.07 33.954C32.633 33.984 32.276 34 32 34C23.163 34 16 26.837 16 18C16 17.724 16.015 17.367 16.046 16.93C16.0637 16.6774 16.1766 16.441 16.3618 16.2684C16.547 16.0958 16.7908 15.9999 17.044 16H20.58C20.704 15.9999 20.8237 16.0459 20.9157 16.129C21.0078 16.2122 21.0656 16.3266 21.078 16.45C21.101 16.68 21.122 16.863 21.142 17.002C21.3407 18.3889 21.748 19.7378 22.35 21.003C22.445 21.203 22.383 21.442 22.203 21.57L20.045 23.112C21.3645 26.1865 23.8145 28.6365 26.889 29.956L28.429 27.802C28.4919 27.714 28.5838 27.6509 28.6885 27.6237C28.7932 27.5964 28.9042 27.6068 29.002 27.653C30.267 28.2539 31.6156 28.6601 33.002 28.858C33.141 28.878 33.324 28.9 33.552 28.922C33.6752 28.9346 33.7894 28.9926 33.8724 29.0846C33.9553 29.1766 34.0012 29.2961 34.001 29.42H34Z" fill="#7D6858"/>
<circle cx="25" cy="25" r="24.5" stroke="#B8ADA0"/>
</svg>
