<svg width="50" height="50" viewBox="0 0 50 50" fill="none" xmlns="http://www.w3.org/2000/svg">
<circle cx="25" cy="25" r="24.5" stroke="#B8ADA0"/>
<path d="M31.364 29.3639L25 35.7279L18.636 29.3639C17.3773 28.1052 16.5202 26.5016 16.1729 24.7558C15.8257 23.0099 16.0039 21.2004 16.6851 19.5558C17.3663 17.9113 18.5198 16.5057 19.9999 15.5168C21.4799 14.5278 23.22 14 25 14C26.78 14 28.5201 14.5278 30.0001 15.5168C31.4802 16.5057 32.6337 17.9113 33.3149 19.5558C33.9961 21.2004 34.1743 23.0099 33.8271 24.7558C33.4798 26.5016 32.6227 28.1052 31.364 29.3639ZM25 24.9999C25.5304 24.9999 26.0391 24.7892 26.4142 24.4141C26.7893 24.0391 27 23.5304 27 22.9999C27 22.4695 26.7893 21.9608 26.4142 21.5857C26.0391 21.2106 25.5304 20.9999 25 20.9999C24.4696 20.9999 23.9609 21.2106 23.5858 21.5857C23.2107 21.9608 23 22.4695 23 22.9999C23 23.5304 23.2107 24.0391 23.5858 24.4141C23.9609 24.7892 24.4696 24.9999 25 24.9999Z" fill="#7D6858"/>
</svg>
