<svg width="1110" height="584" viewBox="0 0 1110 584" fill="none" xmlns="http://www.w3.org/2000/svg">
<rect x="0.5" y="0.5" width="1109" height="583" fill="#F6F3EE" stroke="#B8ADA0"/>
<line x1="380.5" y1="2.18931e-08" x2="380.5" y2="583" stroke="#B8ADA0"/>
<rect x="772" y="521" width="135" height="60" fill="#B8ADA0"/>
<path d="M822.27 555.964H823.278C823.493 555.759 823.679 555.511 823.838 555.222C823.997 554.923 824.127 554.545 824.23 554.088C824.333 553.631 824.407 553.066 824.454 552.394C824.501 551.722 824.524 550.901 824.524 549.93V547.228H830.404V557H829.228V548.264H825.644V550.014C825.644 551.022 825.611 551.885 825.546 552.604C825.49 553.313 825.406 553.92 825.294 554.424C825.182 554.919 825.042 555.325 824.874 555.642C824.706 555.95 824.515 556.211 824.3 556.426C824.104 556.622 823.885 556.767 823.642 556.86C823.399 556.953 823.11 557 822.774 557H822.27V555.964ZM832.89 549.776H833.982V553.78L833.87 555.516H833.926L834.822 553.976L837.706 549.776H838.742V557H837.65V552.996L837.762 551.26H837.706L836.81 552.8L833.926 557H832.89V549.776ZM844.621 556.244H844.579C844.392 556.524 844.177 556.748 843.935 556.916C843.692 557.084 843.393 557.168 843.039 557.168C842.227 557.168 841.625 556.865 841.233 556.258C840.841 555.642 840.645 554.685 840.645 553.388C840.645 552.091 840.841 551.139 841.233 550.532C841.625 549.916 842.227 549.608 843.039 549.608C843.393 549.608 843.692 549.692 843.935 549.86C844.177 550.028 844.392 550.252 844.579 550.532H844.621V547.06H845.741V550.532H845.783C845.969 550.252 846.184 550.028 846.427 549.86C846.669 549.692 846.968 549.608 847.323 549.608C848.135 549.608 848.737 549.916 849.129 550.532C849.521 551.139 849.717 552.091 849.717 553.388C849.717 554.685 849.521 555.642 849.129 556.258C848.737 556.865 848.135 557.168 847.323 557.168C846.968 557.168 846.669 557.084 846.427 556.916C846.184 556.748 845.969 556.524 845.783 556.244H845.741V559.8H844.621V556.244ZM843.333 556.174C844.201 556.174 844.635 555.847 844.635 555.194V551.582C844.635 550.929 844.201 550.602 843.333 550.602C842.81 550.602 842.432 550.77 842.199 551.106C841.965 551.433 841.849 551.988 841.849 552.772V554.004C841.849 554.788 841.965 555.348 842.199 555.684C842.432 556.011 842.81 556.174 843.333 556.174ZM847.029 556.174C847.542 556.174 847.915 556.011 848.149 555.684C848.391 555.348 848.513 554.788 848.513 554.004V552.772C848.513 551.988 848.391 551.433 848.149 551.106C847.915 550.77 847.542 550.602 847.029 550.602C846.161 550.602 845.727 550.929 845.727 551.582V555.194C845.727 555.847 846.161 556.174 847.029 556.174ZM853.011 550.756H850.547V549.776H856.595V550.756H854.131V557H853.011V550.756Z" fill="white"/>
</svg>
