<svg width="1110" height="775" viewBox="0 0 1110 775" fill="none" xmlns="http://www.w3.org/2000/svg">
<path d="M789.552 475.189V474.189H788.552H1V1H1046V394.181V395.181H1047H1109V774H789.552V475.189Z" fill="#F6F3EE" stroke="#B8ADA0" stroke-width="2"/>
<rect x="950.5" y="396.5" width="158" height="151" stroke="#B8ADA0"/>
<rect x="885.5" y="181.5" width="160" height="215" stroke="#B8ADA0"/>
<rect x="730.5" y="1.5" width="316" height="139" stroke="#B8ADA0"/>
<rect x="380.5" y="1.5" width="284" height="139" stroke="#B8ADA0"/>
<rect x="255.5" y="1.5" width="169" height="95" fill="#F6F3EE" stroke="#B8ADA0"/>
<rect x="425.5" y="181.5" width="114" height="59" stroke="#B8ADA0"/>
<rect x="255.5" y="337.5" width="179" height="59" stroke="#B8ADA0"/>
<rect x="730.5" y="181.5" width="154" height="156" stroke="#B8ADA0"/>
<rect x="570.5" y="181.5" width="94" height="215" stroke="#B8ADA0"/>
<rect x="435" y="337" width="135" height="60" fill="#B8ADA0"/>
<path d="M485.27 371.964H486.278C486.493 371.759 486.679 371.511 486.838 371.222C486.997 370.923 487.127 370.545 487.23 370.088C487.333 369.631 487.407 369.066 487.454 368.394C487.501 367.722 487.524 366.901 487.524 365.93V363.228H493.404V373H492.228V364.264H488.644V366.014C488.644 367.022 488.611 367.885 488.546 368.604C488.49 369.313 488.406 369.92 488.294 370.424C488.182 370.919 488.042 371.325 487.874 371.642C487.706 371.95 487.515 372.211 487.3 372.426C487.104 372.622 486.885 372.767 486.642 372.86C486.399 372.953 486.11 373 485.774 373H485.27V371.964ZM495.89 365.776H496.982V369.78L496.87 371.516H496.926L497.822 369.976L500.706 365.776H501.742V373H500.65V368.996L500.762 367.26H500.706L499.81 368.8L496.926 373H495.89V365.776ZM507.621 372.244H507.579C507.392 372.524 507.177 372.748 506.935 372.916C506.692 373.084 506.393 373.168 506.039 373.168C505.227 373.168 504.625 372.865 504.233 372.258C503.841 371.642 503.645 370.685 503.645 369.388C503.645 368.091 503.841 367.139 504.233 366.532C504.625 365.916 505.227 365.608 506.039 365.608C506.393 365.608 506.692 365.692 506.935 365.86C507.177 366.028 507.392 366.252 507.579 366.532H507.621V363.06H508.741V366.532H508.783C508.969 366.252 509.184 366.028 509.427 365.86C509.669 365.692 509.968 365.608 510.323 365.608C511.135 365.608 511.737 365.916 512.129 366.532C512.521 367.139 512.717 368.091 512.717 369.388C512.717 370.685 512.521 371.642 512.129 372.258C511.737 372.865 511.135 373.168 510.323 373.168C509.968 373.168 509.669 373.084 509.427 372.916C509.184 372.748 508.969 372.524 508.783 372.244H508.741V375.8H507.621V372.244ZM506.333 372.174C507.201 372.174 507.635 371.847 507.635 371.194V367.582C507.635 366.929 507.201 366.602 506.333 366.602C505.81 366.602 505.432 366.77 505.199 367.106C504.965 367.433 504.849 367.988 504.849 368.772V370.004C504.849 370.788 504.965 371.348 505.199 371.684C505.432 372.011 505.81 372.174 506.333 372.174ZM510.029 372.174C510.542 372.174 510.915 372.011 511.149 371.684C511.391 371.348 511.513 370.788 511.513 370.004V368.772C511.513 367.988 511.391 367.433 511.149 367.106C510.915 366.77 510.542 366.602 510.029 366.602C509.161 366.602 508.727 366.929 508.727 367.582V371.194C508.727 371.847 509.161 372.174 510.029 372.174ZM516.011 366.756H513.547V365.776H519.595V366.756H517.131V373H516.011V366.756Z" fill="white"/>
<rect x="255.5" y="181.5" width="284" height="115" stroke="#B8ADA0"/>
<path d="M95.5 474V47.6131H189.5V2" stroke="#B8ADA0"/>
<rect x="730.5" y="337.5" width="154" height="59" stroke="#B8ADA0"/>
<rect x="95.5" y="97.5" width="94" height="299" stroke="#B8ADA0"/>
</svg>
