<svg width="24" height="24" viewBox="0 0 24 24" fill="none" xmlns="http://www.w3.org/2000/svg">
<path d="M0.759375 5.08281C0.435938 5.24219 0.271875 5.41562 0.1125 5.75781L0 5.99219V11.9031V17.8141L0.121875 17.9406L0.248438 18.0625H3.075H5.90625V18.4094C5.90625 18.7188 5.92031 18.7656 6.02813 18.8781L6.15469 19H12H17.8453L17.9719 18.8781C18.0797 18.7656 18.0938 18.7188 18.0938 18.4094V18.0625H20.925H23.7516L23.8781 17.9406L24 17.8141V11.9031V5.99219L23.8875 5.75781C23.7281 5.41562 23.5641 5.24219 23.2406 5.08281C22.9969 4.95625 22.9031 4.9375 22.5938 4.9375C22.2844 4.9375 22.1906 4.95625 21.9469 5.08281C21.7875 5.15781 21.6047 5.29375 21.5344 5.37344C21.3516 5.58906 21.1875 5.96406 21.1875 6.16562V6.34375H13.9969H6.81094L6.68438 6.46562C6.51094 6.64375 6.51094 6.98125 6.68438 7.15937L6.81094 7.28125H13.9969H21.1875V7.98438V8.6875H12H2.8125V7.98438V7.28125H3.15938C3.46875 7.28125 3.51563 7.26719 3.62813 7.15937C3.80156 6.98125 3.80156 6.64375 3.62813 6.46562C3.51563 6.35781 3.46875 6.34375 3.15938 6.34375H2.8125V6.16562C2.8125 5.93125 2.57344 5.44844 2.37656 5.28437C1.92188 4.9 1.27969 4.82031 0.759375 5.08281ZM1.67344 5.99219C1.72969 6.03437 1.8 6.14219 1.82813 6.24062C1.85625 6.34844 1.875 7.27656 1.875 8.72031V11.0312H1.40625H0.9375V8.72031C0.9375 7.27656 0.95625 6.34844 0.984375 6.24062C1.04531 6.025 1.18594 5.92187 1.40625 5.92187C1.5 5.92187 1.61719 5.95469 1.67344 5.99219ZM22.8609 5.99219C22.9172 6.03437 22.9875 6.14219 23.0156 6.24062C23.0438 6.34844 23.0625 7.27656 23.0625 8.72031V11.0312H22.5938H22.125V8.72031C22.125 7.27656 22.1438 6.34844 22.1719 6.24062C22.2328 6.025 22.3734 5.92187 22.5938 5.92187C22.6875 5.92187 22.8047 5.95469 22.8609 5.99219ZM21.1875 10.3281V11.0312H12H2.8125V10.3281V9.625H12H21.1875V10.3281ZM8.71875 12.6719V13.375H8.1375C7.575 13.375 7.55625 13.3797 7.43438 13.4969L7.3125 13.6234V14.6687V15.7187H6.73125C6.16875 15.7187 6.15 15.7234 6.02813 15.8406C5.91094 15.9625 5.90625 15.9812 5.90625 16.5437V17.125H3.42188H0.9375V14.5469V11.9687H4.82812H8.71875V12.6719ZM14.3438 12.6719V13.375H12H9.65625V12.6719V11.9687H12H14.3438V12.6719ZM23.0625 12.6719V13.375H21.7781H20.4984L20.3719 13.4969C20.1984 13.675 20.1984 14.0125 20.3719 14.1906L20.4984 14.3125H21.7781H23.0625V15.7187V17.125H20.5781H18.0938V16.5437C18.0938 15.9812 18.0891 15.9625 17.9719 15.8406C17.85 15.7234 17.8313 15.7187 17.2688 15.7187H16.6875V14.6687V13.6234L16.5656 13.4969C16.4438 13.3797 16.425 13.375 15.8625 13.375H15.2813V12.6719V11.9687H19.1719H23.0625V12.6719ZM15.75 15.0156V15.7187H12H8.25V15.0156V14.3125H12H15.75V15.0156ZM17.1562 17.3594V18.0625H12H6.84375V17.3594V16.6562H12H17.1562V17.3594Z" fill="white"/>
<path d="M18.4969 13.4969C18.3984 13.5953 18.375 13.6656 18.375 13.8437C18.375 14.0219 18.3984 14.0922 18.4969 14.1906C18.5953 14.2891 18.6656 14.3125 18.8438 14.3125C19.0219 14.3125 19.0922 14.2891 19.1906 14.1906C19.2891 14.0922 19.3125 14.0219 19.3125 13.8437C19.3125 13.6656 19.2891 13.5953 19.1906 13.4969C19.0922 13.3984 19.0219 13.375 18.8438 13.375C18.6656 13.375 18.5953 13.3984 18.4969 13.4969Z" fill="white"/>
<path d="M4.80938 6.46562C4.71094 6.56406 4.6875 6.63437 4.6875 6.8125C4.6875 7.12187 4.84688 7.28125 5.15625 7.28125C5.46563 7.28125 5.625 7.12187 5.625 6.8125C5.625 6.63437 5.60156 6.56406 5.50313 6.46562C5.40469 6.36719 5.33438 6.34375 5.15625 6.34375C4.97813 6.34375 4.90781 6.36719 4.80938 6.46562Z" fill="white"/>
</svg>
