<svg width="23" height="18" viewBox="0 0 23 18" fill="none" xmlns="http://www.w3.org/2000/svg">
<g clip-path="url(#clip0_372_140)">
<path fill-rule="evenodd" clip-rule="evenodd" d="M18.1929 17.1408C16.8198 17.1408 15.9726 16.85 15.0371 15.9945C13.0498 14.1773 13.7465 11.0828 16.1705 9.99425C17.3208 9.47783 18.6552 9.50268 19.8098 9.99492C20.221 10.1702 20.6286 10.4784 20.9448 10.7685C21.2399 11.0392 21.5641 11.4884 21.7416 11.8531C22.9949 14.4284 20.7556 17.1401 18.1929 17.1401V17.1408ZM0 1.98209V11.4407C0 12.6079 1.0999 13.4305 2.5153 13.4238L12.7182 13.4184C13.4128 13.4231 12.4027 13.9906 13.8539 16.0092C15.5213 18.3287 19.3256 18.7021 21.4845 16.6969C22.5822 15.6768 23.0007 14.6601 23.0007 13.1753C23.0007 12.1895 22.5034 11.1694 21.8921 10.4778C21.7569 10.3246 21.3976 9.91903 21.2041 9.87135V2.39508C21.2041 1.81084 21.196 1.52208 20.9653 1.12721C20.6132 0.524169 19.9019 -0.000976562 18.913 -0.000976562H12.4889C11.7585 -0.000976562 11.7527 0.854567 12.5312 0.86867C14.2563 0.900232 16.3802 0.865983 18.149 0.865983C19.0759 0.865983 19.4914 0.784727 19.9574 1.26824C20.3781 1.70474 20.305 2.22854 20.305 3.01357V9.25018C20.1217 9.23608 19.9895 9.14206 19.8179 9.07826C18.5989 8.62363 17.2697 8.66392 16.0625 9.10781C15.1013 9.46104 14.1015 10.2602 13.626 11.0808C13.4113 11.4508 13.2389 11.7879 13.1257 12.1909C13.079 12.3567 13.1111 12.5548 12.9373 12.5548H2.20126C1.46945 12.5548 0.898323 11.9948 0.898323 11.2332V2.18758C0.898323 1.4744 1.41102 0.879414 2.15378 0.863969C3.79487 0.830392 5.85298 0.865983 7.54664 0.865983C8.01041 0.865983 8.49682 0.933138 8.71446 0.700784C8.95475 0.443584 8.77581 -0.000976562 8.35513 -0.000976562H2.29109C1.08091 -0.000976562 0 0.889487 0 1.98141L0 1.98209Z" fill="white"/>
<path fill-rule="evenodd" clip-rule="evenodd" d="M3.99789 9.08723C3.99789 8.54799 4.68587 7.93084 5.25554 7.93084H6.78269C7.21359 7.93084 7.70657 8.31026 7.88843 8.60775C8.21928 9.14901 7.97753 9.2531 7.22674 9.53717C5.57543 10.161 3.99789 9.22557 3.99789 9.0879V9.08723ZM5.30082 6.48501V5.90681C5.30082 5.6073 5.61268 5.32861 6.10931 5.32861C6.38976 5.32861 6.73814 5.64894 6.73814 5.90681C6.73814 6.2728 6.85645 7.06321 6.01948 7.06321C5.66818 7.06321 5.30082 6.78922 5.30082 6.48501ZM4.35722 6.03038C4.35722 6.32384 4.33969 6.54813 4.43025 6.83085C4.49014 7.01888 4.56463 7.035 4.58216 7.22841C4.08261 7.33518 3.39535 7.92882 3.27923 8.3848C2.46343 7.52254 2.50214 5.6382 3.60423 4.63625C4.43682 3.87943 5.05543 3.67595 6.24369 3.67595C6.65707 3.67595 7.19606 3.84316 7.48747 3.97814C9.16361 4.7531 9.8589 6.70393 8.89338 8.21893L8.75973 8.3848C8.64434 7.92815 7.95635 7.33518 7.4568 7.22841C7.46921 7.09208 8.13236 5.80675 7.19898 4.94584C7.0405 4.79944 6.9273 4.70811 6.70965 4.61074C6.04869 4.3166 5.32565 4.49725 4.86188 4.92569C4.65812 5.11305 4.63913 5.12312 4.50548 5.38301C4.41272 5.56433 4.35649 5.77989 4.35649 6.03105L4.35722 6.03038ZM1.79663 6.48501C1.79663 7.77773 2.10922 8.60037 3.08788 9.51098C4.24182 10.5841 6.11808 10.9212 7.71169 10.2718C8.18787 10.0778 8.58737 9.84943 8.95108 9.51098C10.2263 8.32503 10.6681 6.55485 9.82311 5.01232C8.47563 2.55246 5.05177 2.09917 3.08861 3.91435C2.68035 4.29175 2.50799 4.4771 2.23119 4.98478C2.01792 5.37562 1.79736 5.9236 1.79736 6.48568L1.79663 6.48501Z" fill="white"/>
<path fill-rule="evenodd" clip-rule="evenodd" d="M19.0466 14.6222C18.7975 14.561 18.3199 14.0594 18.0102 14.0473C17.6721 14.0346 17.2025 14.5563 16.9359 14.6222C16.9688 14.2575 17.3595 13.7787 17.1784 13.4517C17.0673 13.2515 16.4078 12.9634 16.2625 12.7633C17.6063 12.7633 17.5165 12.8748 17.7838 12.1381C17.8488 11.9595 17.924 11.7869 17.9693 11.6069L18.0022 11.6593C18.5653 12.7479 17.8459 12.7633 19.7214 12.7633C19.5695 12.9534 18.9275 13.2495 18.8034 13.4483C18.6106 13.7586 19.0152 14.2609 19.048 14.6215L19.0466 14.6222ZM16.8906 11.8964C16.3918 11.8964 15.5957 11.8245 15.278 12.0656C15.2262 12.1052 15.224 12.1086 15.186 12.1462C14.7843 12.5384 14.9479 12.9782 15.4526 13.3012C15.5855 13.3865 15.6921 13.4725 15.8389 13.5651C15.9616 13.643 16.1427 13.7451 16.2165 13.8378C16.1259 14.1971 15.9039 14.5738 15.8433 14.9411C15.7871 15.2789 16.0865 15.7383 16.4867 15.7383C17.0104 15.7383 16.9563 15.6785 17.358 15.4246L17.8218 15.1077C17.8795 15.0667 17.9233 15.0318 17.9693 14.9949C18.5251 15.3367 18.9451 15.7383 19.4066 15.7383C19.858 15.7383 20.1253 15.4434 20.1253 14.9949C20.1253 14.6954 19.7901 14.0628 19.766 13.7968L20.4488 13.3509C20.9382 13.0454 20.9791 12.9527 20.9791 12.5169C20.9791 11.7513 19.5724 11.897 19.0473 11.897C19.0327 11.7372 18.7435 10.8038 18.4893 10.5929C18.103 10.2733 17.4603 10.3847 17.2375 10.9347C17.1112 11.247 17.0352 11.6217 16.8913 11.897L16.8906 11.8964Z" fill="white"/>
<path fill-rule="evenodd" clip-rule="evenodd" d="M12.1289 4.37837H18.4632V5.16341H12.1289V4.37837ZM11.1853 4.00634V5.57573C11.1853 5.86517 11.4446 6.03037 11.7696 6.03037H18.8225C19.2059 6.03037 19.4068 5.84569 19.4068 5.49313C19.4068 4.93508 19.5127 3.89755 19.2629 3.64304C19.1687 3.54768 19.054 3.51074 18.8678 3.51074H11.725C11.3774 3.51074 11.186 3.68736 11.186 4.00634H11.1853Z" fill="white"/>
<path fill-rule="evenodd" clip-rule="evenodd" d="M11.1853 7.55888C11.1853 7.77915 11.438 7.97188 11.7696 7.97188H18.8225C19.5916 7.97188 19.5718 7.10425 18.8678 7.10425H11.725C11.4073 7.10425 11.186 7.27482 11.186 7.55888H11.1853Z" fill="white"/>
<path fill-rule="evenodd" clip-rule="evenodd" d="M11.1853 9.50029C11.1853 9.70108 11.4387 9.91329 11.6797 9.91329C12.1253 9.91329 13.1733 9.9791 13.4253 9.82464C13.7868 9.60303 13.6159 9.04565 13.1623 9.04565H11.725C11.4073 9.04565 11.186 9.21623 11.186 9.50029H11.1853Z" fill="white"/>
<path fill-rule="evenodd" clip-rule="evenodd" d="M9.92749 0.372114C9.92749 0.508437 9.9567 0.613198 10.0275 0.693111C10.4278 1.1464 11.1158 0.573577 10.7469 0.155878C10.4745 -0.15236 9.92822 0.0692489 9.92822 0.371443L9.92749 0.372114Z" fill="white"/>
</g>
<defs>
<clipPath id="clip0_372_140">
<rect width="23" height="18" fill="white"/>
</clipPath>
</defs>
</svg>
