<svg width="50" height="50" viewBox="0 0 50 50" fill="none" xmlns="http://www.w3.org/2000/svg">
<rect x="0.5" y="0.5" width="49" height="49" rx="24.5" fill="#EBD0B5" stroke="#EBD0B5"/>
<path fill-rule="evenodd" clip-rule="evenodd" d="M14.0166 14.9167C14.0166 14.4197 14.4195 14.0167 14.9166 14.0167H17.4166C17.9137 14.0167 18.3166 14.4197 18.3166 14.9167V15.7167H30.6833V14.9167C30.6833 14.4197 31.0862 14.0167 31.5833 14.0167H34.0833C34.5803 14.0167 34.9833 14.4197 34.9833 14.9167V17.4167C34.9833 17.9138 34.5803 18.3167 34.0833 18.3167H33.2833V30.6834H34.0833C34.5803 30.6834 34.9833 31.0863 34.9833 31.5834V34.0834C34.9833 34.5804 34.5803 34.9834 34.0833 34.9834H31.5833C31.0862 34.9834 30.6833 34.5804 30.6833 34.0834V33.2834H18.3166V34.0834C18.3166 34.5804 17.9137 34.9834 17.4166 34.9834H14.9166C14.4195 34.9834 14.0166 34.5804 14.0166 34.0834V31.5834C14.0166 31.0863 14.4195 30.6834 14.9166 30.6834H15.7166V18.3167H14.9166C14.4195 18.3167 14.0166 17.9138 14.0166 17.4167V14.9167ZM16.6166 18.3167V30.6834H17.4166C17.9137 30.6834 18.3166 31.0863 18.3166 31.5834V32.3834H30.6833V31.5834C30.6833 31.0863 31.0862 30.6834 31.5833 30.6834H32.3833V18.3167H31.5833C31.0862 18.3167 30.6833 17.9138 30.6833 17.4167V16.6167H18.3166V17.4167C18.3166 17.9138 17.9137 18.3167 17.4166 18.3167H16.6166ZM15.8166 14.9167H14.9166V15.8167V16.5167V17.4167H15.8166H16.5166H17.4166V16.5167V15.8167V14.9167H16.5166H15.8166ZM21.0999 22.0001C21.0999 21.503 21.5029 21.1001 21.9999 21.1001H23.6666C24.1637 21.1001 24.5666 21.503 24.5666 22.0001V23.6667C24.5666 24.1638 24.1637 24.5667 23.6666 24.5667H21.9999C21.5029 24.5667 21.0999 24.1638 21.0999 23.6667V22.0001ZM22.7666 22.0001H21.9999V22.7667V22.9001V23.6667H22.7666H22.8999H23.6666V22.9001V22.7667V22.0001H22.8999H22.7666ZM25.3333 24.4334C24.8362 24.4334 24.4333 24.8363 24.4333 25.3334V27.0001C24.4333 27.4971 24.8362 27.9001 25.3333 27.9001H26.9999C27.497 27.9001 27.8999 27.4971 27.8999 27.0001V25.3334C27.8999 24.8363 27.497 24.4334 26.9999 24.4334H25.3333ZM25.3333 25.3334H26.0999H26.2333H26.9999V26.1001V26.2334V27.0001H26.2333H26.0999H25.3333V26.2334V26.1001V25.3334ZM15.8166 31.5834H14.9166V32.4834V33.1834V34.0834H15.8166H16.5166H17.4166V33.1834V32.4834V31.5834H16.5166H15.8166ZM31.5833 14.9167H32.4833H33.1833H34.0833V15.8167V16.5167V17.4167H33.1833H32.4833H31.5833V16.5167V15.8167V14.9167ZM32.4833 31.5834H31.5833V32.4834V33.1834V34.0834H32.4833H33.1833H34.0833V33.1834V32.4834V31.5834H33.1833H32.4833Z" fill="white"/>
</svg>
