<svg width="24" height="23" viewBox="0 0 24 23" fill="none" xmlns="http://www.w3.org/2000/svg">
<g clip-path="url(#clip0_160_641)">
<path fill-rule="evenodd" clip-rule="evenodd" d="M7.3125 11.2304C7.3125 12.1 7.34559 12.6468 7.7653 13.4468C8.51299 14.8724 10.0525 15.992 11.8126 15.992C12.3528 15.992 12.5594 16.004 13.0981 15.8763C14.0139 15.6593 13.6546 14.8251 13.0201 14.9436C12.1098 15.1136 11.426 15.1942 10.4684 14.7648C9.39247 14.2822 8.63403 13.409 8.35538 12.2978C7.88198 10.4099 9.14633 8.47249 11.168 8.00684C11.9511 7.82632 12.8093 7.91227 13.5321 8.23549C14.8382 8.81991 15.7505 10.0978 15.7505 11.5C15.7505 12.1231 15.2376 13.0722 16.0785 13.0722C16.7121 13.0722 16.6877 11.789 16.6877 11.3203C16.6877 9.06163 14.4716 7.00769 12.2814 7.00769C11.3833 7.00769 10.7953 7.04218 9.96862 7.44162C8.96695 7.92534 8.26947 8.59209 7.76559 9.55286C7.5566 9.95147 7.31279 10.656 7.31279 11.2302L7.3125 11.2304Z" fill="#7D6858"/>
<path fill-rule="evenodd" clip-rule="evenodd" d="M11.5312 0.404168V4.80662C11.5312 5.34931 12.4688 5.34931 12.4688 4.80662V0.404168C12.4688 0.154657 12.2702 0.0197494 12.056 0H11.944C11.7298 0.0200276 11.5312 0.154657 11.5312 0.404168Z" fill="#7D6858"/>
<path fill-rule="evenodd" clip-rule="evenodd" d="M11.5312 18.1934V22.5958C11.5312 22.8454 11.7298 22.9803 11.944 23H12.056C12.2702 22.98 12.4688 22.8454 12.4688 22.5958V18.1934C12.4688 17.6507 11.5312 17.6507 11.5312 18.1934Z" fill="#7D6858"/>
<path fill-rule="evenodd" clip-rule="evenodd" d="M0 11.455C0 11.7298 0.121907 11.949 0.42174 11.949H5.0156C5.58189 11.949 5.58189 11.0505 5.0156 11.0505H0.42174C0.190117 11.0505 0 11.2327 0 11.4547L0 11.455Z" fill="#7D6858"/>
<path fill-rule="evenodd" clip-rule="evenodd" d="M18.5625 11.455C18.5625 11.7298 18.6844 11.949 18.9842 11.949H23.5781C23.8385 11.949 23.9792 11.7587 23.9998 11.5534V11.4461C23.9789 11.2408 23.8385 11.0505 23.5781 11.0505H18.9842C18.7526 11.0505 18.5625 11.2327 18.5625 11.4547V11.455Z" fill="#7D6858"/>
<path fill-rule="evenodd" clip-rule="evenodd" d="M3.5625 3.81832C3.5625 4.18577 3.90906 4.39745 4.30091 4.77297L6.45721 6.83943C6.6958 7.06863 6.72366 7.18768 7.07836 7.18768C7.37819 7.18768 7.5001 6.96821 7.5001 6.69367C7.5001 6.44583 7.00144 6.05863 6.73847 5.80634L4.58216 3.73988C4.4292 3.59273 4.31716 3.41415 4.03126 3.41415C3.81821 3.41415 3.5625 3.6275 3.5625 3.81832Z" fill="#7D6858"/>
<path fill-rule="evenodd" clip-rule="evenodd" d="M16.5 16.2168C16.5 16.5923 16.8425 16.792 17.2616 17.1939L19.4179 19.2604C19.5709 19.4075 19.6829 19.5861 19.9688 19.5861C20.1296 19.5861 20.8341 19.3038 20.1447 18.654L17.5429 16.1608C17.3043 15.9316 17.2764 15.8126 16.9217 15.8126C16.6901 15.8126 16.5 15.9948 16.5 16.2168Z" fill="#7D6858"/>
<path fill-rule="evenodd" clip-rule="evenodd" d="M3.5625 19.1366C3.5625 19.2907 3.85711 19.9658 4.53514 19.3052C4.69362 19.1511 4.82046 19.0315 4.98039 18.8782L7.1367 16.8117C7.37587 16.5831 7.5001 16.5564 7.5001 16.2165C7.5001 15.9291 7.27108 15.8123 6.9846 15.8123C6.72599 15.8123 6.32195 16.2902 6.05869 16.5422L3.90239 18.6087C3.74884 18.7553 3.5625 18.8626 3.5625 19.1366Z" fill="#7D6858"/>
<path fill-rule="evenodd" clip-rule="evenodd" d="M16.5001 6.6934C16.5001 7.04332 16.6504 7.18741 17.0156 7.18741C17.2539 7.18741 17.3857 6.99075 17.5195 6.86168C17.6713 6.71565 17.7894 6.60299 17.9412 6.45752L19.6755 4.79551C19.9919 4.49203 20.4371 4.17048 20.4371 3.86339C20.4371 3.70929 20.1425 3.03419 19.4645 3.69482C19.306 3.84893 19.1791 3.96853 19.0192 4.1218L16.8629 6.18826C16.7253 6.31983 16.4995 6.46197 16.4995 6.69368L16.5001 6.6934Z" fill="#7D6858"/>
<path fill-rule="evenodd" clip-rule="evenodd" d="M14.2029 5.3009C14.2029 5.52204 14.5196 5.75013 14.6247 5.75013C15.1393 5.75013 15.2981 5.10786 15.5825 4.42191C15.6765 4.19521 16.2652 2.89481 16.2652 2.78522C16.2652 2.38967 15.6072 2.10623 15.3401 2.5727C15.2685 2.69787 15.231 2.81303 15.1735 2.95211C15.0612 3.22443 14.9602 3.43917 14.8456 3.71594C14.7353 3.98186 14.2026 5.09868 14.2026 5.3009H14.2029Z" fill="#7D6858"/>
<path fill-rule="evenodd" clip-rule="evenodd" d="M7.73438 20.2148C7.73438 20.6103 8.39238 20.8938 8.65942 20.4273L9.15662 19.2865C9.25328 19.0801 9.79693 17.8459 9.79693 17.6991C9.79693 17.4779 9.48026 17.2498 9.37518 17.2498C8.85998 17.2498 8.70325 17.8907 8.41734 18.5781C8.3233 18.8042 7.73467 20.1116 7.73467 20.2148H7.73438Z" fill="#7D6858"/>
<path fill-rule="evenodd" clip-rule="evenodd" d="M2.4375 15.004C2.4375 15.3353 2.59772 15.5878 2.90626 15.5878L5.40652 14.6148C5.5917 14.5361 5.9998 14.4535 5.9998 14.0605C5.9998 13.8633 5.73682 13.6112 5.53103 13.6112C5.37633 13.6112 4.11749 14.1197 3.90648 14.2107C3.41479 14.4221 2.4375 14.6696 2.4375 15.004Z" fill="#7D6858"/>
<path fill-rule="evenodd" clip-rule="evenodd" d="M18 8.93952C18 9.13674 18.263 9.38875 18.4688 9.38875C18.674 9.38875 20.5325 8.60545 20.886 8.47082C21.0349 8.41407 21.1638 8.37207 21.2845 8.31366C21.3652 8.27472 21.3867 8.27194 21.4508 8.20351C21.7306 7.90671 21.4645 7.41214 21.0938 7.41214L18.5936 8.38515C18.4084 8.46387 18.0003 8.54648 18.0003 8.93952H18Z" fill="#7D6858"/>
<path fill-rule="evenodd" clip-rule="evenodd" d="M2.43779 7.86137C2.43779 8.25886 2.65084 8.29558 3.0807 8.45802C3.3547 8.56178 3.60461 8.65886 3.87484 8.77513C4.09021 8.86776 5.37807 9.38875 5.53132 9.38875C5.79662 9.38875 6.49265 8.79237 5.44483 8.39349L2.90626 7.41214C2.68393 7.41214 2.4375 7.63133 2.4375 7.86137H2.43779Z" fill="#7D6858"/>
<path fill-rule="evenodd" clip-rule="evenodd" d="M17.9998 14.0157C17.9998 14.4212 18.2657 14.4774 18.5609 14.6009L21.0933 15.5878C21.5061 15.5878 21.8018 14.9573 21.3151 14.7013C21.0478 14.5609 18.5919 13.6112 18.4683 13.6112C18.2375 13.6112 17.9995 13.9147 17.9995 14.0154L17.9998 14.0157Z" fill="#7D6858"/>
<path fill-rule="evenodd" clip-rule="evenodd" d="M7.73438 2.78523L8.92297 5.55432C9.20452 5.93012 9.79693 5.67866 9.79693 5.30064C9.79693 5.10398 8.97957 3.32292 8.83908 2.98412C8.66464 2.56354 8.63445 2.33572 8.20314 2.33572C7.9631 2.33572 7.73438 2.57188 7.73438 2.78495V2.78523Z" fill="#7D6858"/>
<path fill-rule="evenodd" clip-rule="evenodd" d="M14.2031 17.6991L15.325 20.3972C15.3656 20.4746 15.3685 20.4952 15.4399 20.5566C15.7496 20.8248 16.2657 20.5697 16.2657 20.2145L15.0771 17.4454C14.7955 17.0696 14.2031 17.3211 14.2031 17.6991Z" fill="#7D6858"/>
<path fill-rule="evenodd" clip-rule="evenodd" d="M14.5312 14.33C14.5312 15.0018 15.4688 15.0018 15.4688 14.33C15.4688 13.7873 14.5312 13.7873 14.5312 14.33Z" fill="#7D6858"/>
</g>
<defs>
<clipPath id="clip0_160_641">
<rect width="24" height="23" fill="white"/>
</clipPath>
</defs>
</svg>
