<svg width="50" height="50" viewBox="0 0 50 50" fill="none" xmlns="http://www.w3.org/2000/svg">
<rect x="0.5" y="0.5" width="49" height="49" rx="24.5" fill="#F4C28F" stroke="#F4C28F"/>
<path fill-rule="evenodd" clip-rule="evenodd" d="M25.4999 13.3334C25.7761 13.3334 25.9999 13.5572 25.9999 13.8334V17.1667C25.9999 17.4428 25.7761 17.6667 25.4999 17.6667C25.2238 17.6667 24.9999 17.4428 24.9999 17.1667V13.8334C24.9999 13.5572 25.2238 13.3334 25.4999 13.3334ZM16.8968 16.8969C17.092 16.7016 17.4086 16.7016 17.6039 16.8969L19.9609 19.2539C20.1562 19.4492 20.1562 19.7658 19.9609 19.961C19.7657 20.1563 19.4491 20.1563 19.2538 19.961L16.8968 17.604C16.7015 17.4088 16.7015 17.0922 16.8968 16.8969ZM13.8333 25C13.5571 25 13.3333 25.2239 13.3333 25.5C13.3333 25.7762 13.5571 26 13.8333 26H17.1666C17.4427 26 17.6666 25.7762 17.6666 25.5C17.6666 25.2239 17.4427 25 17.1666 25H13.8333ZM16.8968 34.1032C16.7015 33.9079 16.7015 33.5913 16.8968 33.3961L19.2538 31.039C19.4491 30.8438 19.7657 30.8438 19.9609 31.039C20.1562 31.2343 20.1562 31.5509 19.9609 31.7462L17.6039 34.1032C17.4086 34.2984 17.092 34.2984 16.8968 34.1032ZM33.8333 25C33.5571 25 33.3333 25.2239 33.3333 25.5C33.3333 25.7762 33.5571 26 33.8333 26H37.1666C37.4427 26 37.6666 25.7762 37.6666 25.5C37.6666 25.2239 37.4427 25 37.1666 25H33.8333ZM31.0389 19.961C30.8437 19.7658 30.8437 19.4492 31.0389 19.2539L33.3959 16.8969C33.5912 16.7016 33.9078 16.7016 34.1031 16.8969C34.2983 17.0922 34.2983 17.4088 34.1031 17.604L31.746 19.961C31.5508 20.1563 31.2342 20.1563 31.0389 19.961ZM25.9999 33.8334C25.9999 33.5572 25.7761 33.3334 25.4999 33.3334C25.2238 33.3334 24.9999 33.5572 24.9999 33.8334V37.1667C24.9999 37.4428 25.2238 37.6667 25.4999 37.6667C25.7761 37.6667 25.9999 37.4428 25.9999 37.1667V33.8334ZM31.0389 31.039C31.2342 30.8438 31.5508 30.8438 31.746 31.039L34.1031 33.3961C34.2983 33.5913 34.2983 33.9079 34.1031 34.1032C33.9078 34.2984 33.5912 34.2984 33.3959 34.1032L31.0389 31.7462C30.8437 31.5509 30.8437 31.2343 31.0389 31.039ZM21.8333 25.5C21.8333 23.475 23.4749 21.8334 25.4999 21.8334C27.525 21.8334 29.1666 23.475 29.1666 25.5C29.1666 27.5251 27.525 29.1667 25.4999 29.1667C23.4749 29.1667 21.8333 27.5251 21.8333 25.5ZM25.4999 20.8334C22.9226 20.8334 20.8333 22.9227 20.8333 25.5C20.8333 28.0774 22.9226 30.1667 25.4999 30.1667C28.0772 30.1667 30.1666 28.0774 30.1666 25.5C30.1666 22.9227 28.0772 20.8334 25.4999 20.8334Z" fill="white"/>
</svg>
