<svg width="50" height="50" viewBox="0 0 50 50" fill="none" xmlns="http://www.w3.org/2000/svg">
<rect x="0.5" y="0.5" width="49" height="49" rx="24.5" fill="#ADCEBD" stroke="#ADCEBD"/>
<g clip-path="url(#clip0_227_445)">
<path fill-rule="evenodd" clip-rule="evenodd" d="M32.2728 19.5034C32.2719 19.5472 32.2662 19.5988 32.2568 19.6533L31.6472 25.2373C32.3142 22.641 33.1496 19.4576 33.2813 18.9621C33.4027 18.5055 33.4365 18.4802 34.1007 18.0207L33.3895 20.7611C33.1675 21.6899 32.8918 22.6001 32.6783 23.5006L31.4336 28.2951C31.3734 28.5297 31.3292 28.812 31.2361 29.0116C31.0837 28.9064 30.9576 28.7955 30.7911 28.7049C30.7939 28.592 31.1796 27.0597 31.6472 25.2383L32.2568 19.6543C32.2173 19.883 32.1185 20.1839 32.0752 20.3737H27.8766C27.4015 20.3737 26.8182 20.2578 26.7072 20.6511C26.6376 20.8994 26.7382 21.0775 26.8784 21.1515C27.075 21.2547 31.4986 21.1914 31.8288 21.1914C31.8231 21.4679 31.6924 21.8174 31.6312 22.0598L30.269 27.3459C30.1984 27.635 30.0742 27.9592 30.0507 28.2454C29.8663 28.2298 29.6998 28.1481 29.5512 28.0974C29.3536 28.0313 29.2275 28.005 28.9867 27.966C28.1033 27.8249 27.3902 27.9037 26.5332 28.1315C26.2076 28.2182 25.7749 28.3671 25.5068 28.5005C25.4475 28.2707 25.0232 27.9135 24.963 27.6827C25.2518 27.6827 25.6357 27.7343 25.8182 27.5961C26.0345 27.4306 25.9979 27.0616 25.7946 26.9244C25.5773 26.7774 23.6177 26.8669 23.0344 26.8621C22.6854 26.8592 22.4718 26.9049 22.4436 27.2281C22.39 27.8463 23.1972 27.6827 23.9253 27.6827C23.9714 27.8609 24.6375 28.6611 24.7654 28.8587C24.2 29.1683 23.8115 29.4068 23.3044 29.8001C23.1426 29.9257 22.9902 30.0834 22.8397 30.1876L19.7775 22.6741C20.5818 22.6741 21.3994 22.8941 21.2413 21.9274C21.1849 21.5808 21.0936 21.3083 20.9346 21.0678C19.943 19.5725 18.4237 20.7446 15.4734 19.7662C15.067 19.6319 14.9861 19.6222 14.6992 19.9239C14.3106 20.3328 14.0877 20.8673 14.0087 21.5643C13.9814 21.8008 14.0331 22.3012 14.2429 22.42C14.6089 22.6264 16.8695 22.6741 17.4058 22.6741C17.4886 22.8532 17.5497 23.0537 17.6363 23.2533C17.7275 23.4655 17.784 23.6096 17.8715 23.8277L20.9638 31.3626C21.0447 31.5524 21.1237 31.7919 21.2093 31.9778C21.1152 32.1229 21.0052 32.2592 20.8913 32.4159L19.9901 33.8859C19.7229 34.3999 19.2111 35.5574 19.0851 36.1181C18.5027 36.1181 16.0323 36.0344 15.7209 36.1639C15.4377 36.2817 15.1658 36.9933 16.1197 36.9894L33.2126 36.9875C33.7752 36.9875 34.4902 37.1257 34.5184 36.5708C34.5457 36.0217 33.827 36.1191 33.2625 36.1191C32.6858 36.1191 32.1101 36.1191 31.5334 36.1191C31.9464 35.4805 32.2483 35.2186 32.5212 34.2792C32.9502 32.8043 32.842 31.274 31.9934 29.9646C31.8419 29.73 31.8984 29.769 32.0555 29.1965C32.1148 28.9804 32.1364 28.8432 32.1957 28.6261L34.8524 18.3926C35.3049 16.5693 34.9549 17.4503 36.6559 15.9657C37.6004 15.1402 36.416 13.4579 35.3247 14.1793L33.3462 15.7612C33.2023 15.8732 33.0903 15.954 32.9539 16.0708L30.6152 17.9448C30.3367 18.1697 30.0949 18.3264 30.0178 18.7606C29.919 19.3233 30.3311 19.9103 30.7826 20.0797C31.4779 20.3406 31.9511 19.6845 32.2737 19.5083L32.2728 19.5034ZM18.2939 22.6731H18.8866C19.0352 22.9944 19.15 23.3341 19.2986 23.6778C20.1359 25.6189 20.9478 27.8054 21.7841 29.7446L22.1962 30.8009L21.8124 31.2214C21.6487 30.9118 21.4878 30.4923 21.3636 30.1798L20.0399 26.9497C19.5385 25.7825 18.752 23.6612 18.2939 22.6731ZM26.0496 29.1644C26.5134 29.0525 26.7514 28.8938 27.4513 28.775C27.6461 28.7419 27.8559 28.7585 28.0619 28.7409C28.7242 28.6845 29.5201 28.9045 30.0234 29.1936C30.555 29.4983 30.967 29.8536 31.3076 30.3696C32.334 31.9243 32.0705 34.3756 30.8052 35.6693C30.6566 35.8212 30.5145 36.0724 30.2953 36.1123L19.9252 36.1162C20.0098 35.9507 20.0541 35.7832 20.1218 35.6041C21.1388 32.9338 22.8792 30.8525 25.3092 29.5217C25.4823 29.8595 25.7702 30.0873 25.9518 30.4416C25.6639 30.8865 25.1615 31.3207 25.1615 32.3332C25.1615 33.0078 25.1568 33.2463 25.4569 33.8674C25.6385 34.2422 25.7598 34.4087 26.0374 34.6978C28.045 36.7889 31.7262 34.8487 30.8814 31.6274C30.8231 31.4064 30.7346 31.2302 30.6274 31.0209C30.5183 30.8086 30.4148 30.6986 30.2774 30.5147C30.0422 30.2002 29.6499 29.95 29.3113 29.7767C27.9885 29.1002 27.0882 29.7612 26.5934 29.8799L26.0496 29.1644ZM27.1362 30.5448C27.5191 30.4523 27.6141 30.3404 28.124 30.3404C28.6988 30.3404 29.2633 30.648 29.57 30.9401C30.2247 31.5641 30.3696 32.6895 30.0018 33.5101C29.3348 35.0015 27.0289 35.2731 26.1964 33.5111C25.9179 32.9211 25.8821 32.2631 26.1644 31.6352C26.2076 31.5388 26.2528 31.4443 26.2998 31.3665C26.3911 31.2165 26.3977 31.2925 26.4447 31.1075C26.6112 31.2224 27.3883 32.301 27.5746 32.5454C28.1597 33.3144 28.4702 32.7917 28.4702 32.4363C28.4702 32.3117 27.6404 31.2633 27.4608 31.0277C27.2378 30.7347 27.2989 30.8661 27.1362 30.5458V30.5448ZM31.0874 19.2999L30.951 19.186C30.6312 18.8492 31.0649 18.6428 31.7018 18.1473L33.3171 16.8545C33.4751 16.7231 35.7264 14.8539 35.8788 14.8539C35.9973 14.8539 36.1751 15.0379 36.1751 15.1606C36.1751 15.3485 35.1544 16.1068 34.9615 16.2568C34.5137 16.6053 34.1186 16.9207 33.6764 17.278C33.254 17.6187 31.5719 19.0351 31.0865 19.3009L31.0874 19.2999ZM15.2307 20.5781C16.3832 20.8556 16.5384 20.9705 17.9006 21.0863C18.9788 21.1788 20.1434 20.8088 20.3683 21.8047C19.2036 21.8047 18.1989 21.8563 17.0586 21.8563C16.6278 21.8563 16.3465 21.8184 15.9212 21.8067C15.5534 21.797 15.2448 21.7025 14.8356 21.7025C14.8356 21.4514 14.8695 21.2391 14.9494 21.0532C15.0473 20.8235 15.1188 20.7524 15.2317 20.5781H15.2307Z" fill="white"/>
<path fill-rule="evenodd" clip-rule="evenodd" d="M31.2351 29.0105L32.2728 19.5033L31.2351 29.0105Z" fill="white"/>
</g>
<defs>
<clipPath id="clip0_227_445">
<rect width="23" height="23" fill="white" transform="translate(14 14)"/>
</clipPath>
</defs>
</svg>
