<svg width="157" height="144" viewBox="0 0 157 144" fill="none" xmlns="http://www.w3.org/2000/svg">
<path d="M21.8595 71.1332C21.6753 72.8969 20.9351 74.2071 19.6391 75.0638C18.3298 75.919 16.5082 76.2247 14.1742 75.9809C11.8403 75.7371 10.1013 75.0594 8.95725 73.9478C7.79996 72.8349 7.31345 71.3965 7.49771 69.6328C7.61963 68.4658 7.98668 67.5188 8.59886 66.7918C9.21243 66.0516 10.0261 65.5132 11.0399 65.1767L11.7141 66.6146C10.9689 66.8182 10.3544 67.183 9.87045 67.7089C9.37326 68.2334 9.07964 68.9267 8.98959 69.7887C8.92725 70.3854 8.98386 70.9343 9.15942 71.4352C9.33637 71.9229 9.61971 72.3547 10.0094 72.7305C10.3873 73.0918 10.8589 73.389 11.4244 73.6224C11.9766 73.8544 12.6108 74.0078 13.3269 74.0826L15.3956 74.2987C16.8279 74.4483 17.9831 74.2339 18.8613 73.6553C19.7395 73.0768 20.2416 72.1841 20.3677 70.9773C20.4605 70.0888 20.3126 69.3227 19.9241 68.6788C19.5223 68.0336 18.958 67.5322 18.2312 67.1748L19.2059 65.9293C20.1415 66.4694 20.8515 67.1804 21.3358 68.0622C21.8069 68.9425 21.9815 69.9662 21.8595 71.1332Z" fill="white"/>
<path d="M15.023 50.6005L14.9892 50.6946L16.7943 52.5946L21.392 57.7891L14.5418 58.8833L11.9409 59.2052L11.9072 59.2993L22.9785 63.2648L22.4255 64.8088L9.28306 60.1014L10.0384 57.9926L18.4668 56.7626L18.5005 56.6685L12.7765 50.3482L13.5048 48.3147L26.6472 53.022L26.0942 54.566L15.023 50.6005Z" fill="white"/>
<path d="M31.0842 46.5225C30.578 47.2747 29.993 47.8694 29.3292 48.3066C28.6617 48.7253 27.934 48.9829 27.1459 49.0793C26.3541 49.1572 25.5095 49.063 24.6121 48.7966C23.7035 48.5227 22.7625 48.0582 21.7891 47.4031C20.8156 46.7481 20.0365 46.055 19.4517 45.324C18.8668 44.593 18.4614 43.8461 18.2354 43.0833C18.0169 42.3095 17.9814 41.5383 18.1289 40.7697C18.2729 39.9826 18.5979 39.213 19.1041 38.4608C19.6028 37.7196 20.1897 37.1342 20.8646 36.7044C21.5284 36.2672 22.2562 36.0097 23.0479 35.9317C23.8471 35.8427 24.6954 35.9315 25.5928 36.1979C26.4903 36.4643 27.4258 36.9251 28.3992 37.5801C29.3727 38.2352 30.1574 38.932 30.7532 39.6704C31.3381 40.4015 31.7398 41.1539 31.9583 41.9278C32.1732 42.6831 32.2087 43.4543 32.0648 44.2413C31.9098 45.0209 31.5829 45.7813 31.0842 46.5225ZM29.8397 45.6851C30.1747 45.1873 30.3951 44.6686 30.501 44.1292C30.6069 43.5897 30.5944 43.059 30.4635 42.537C30.3401 42.004 30.1019 41.4982 29.7489 41.0196C29.396 40.541 28.9319 40.1082 28.3567 39.7211L26.4319 38.4259C25.8567 38.0388 25.281 37.7719 24.7047 37.6252C24.1284 37.4785 23.5702 37.4483 23.0299 37.5348C22.497 37.6101 22.0007 37.7984 21.5408 38.0997C21.081 38.4009 20.6836 38.8004 20.3486 39.2982C20.0136 39.796 19.7932 40.3146 19.6873 40.8541C19.5814 41.3936 19.5902 41.9298 19.7136 42.4629C19.8445 42.9848 20.0864 43.4851 20.4394 43.9637C20.7923 44.4423 21.2564 44.8751 21.8316 45.2622L23.7564 46.5574C24.3316 46.9445 24.9074 47.2114 25.4836 47.3581C26.0599 47.5048 26.6144 47.5405 27.1473 47.4651C27.6876 47.3787 28.1876 47.1849 28.6475 46.8836C29.1074 46.5824 29.5048 46.1828 29.8397 45.6851Z" fill="white"/>
<path d="M30.4089 27.7529L39.0391 36.7679L37.8256 37.9296L29.1953 28.9147L25.9881 31.985L24.9646 30.916L32.5927 23.6135L33.6161 24.6825L30.4089 27.7529Z" fill="white"/>
<path d="M44.2138 32.2427L36.7199 20.4647L41.4108 17.48C42.4682 16.8071 43.4715 16.5955 44.4204 16.8451C45.3735 17.0763 46.1829 17.715 46.8485 18.7612C47.5142 19.8073 47.7534 20.8167 47.5662 21.7892C47.3831 22.7433 46.7628 23.5567 45.7054 24.2295L42.4318 26.3124L45.6312 31.3408L44.2138 32.2427ZM41.6373 25.0637L44.9109 22.9809C45.4733 22.623 45.8134 22.2012 45.931 21.7154C46.0599 21.2226 45.9526 20.7061 45.609 20.1662L45.0507 19.2887C44.7071 18.7487 44.2848 18.4327 43.7837 18.3407C43.2939 18.2414 42.7678 18.3708 42.2053 18.7286L38.9318 20.8115L41.6373 25.0637Z" fill="white"/>
<path d="M53.7753 26.49L48.7732 13.457L56.7274 10.4041L57.2578 11.7858L50.8719 14.2367L52.5489 18.606L58.5613 16.2984L59.0916 17.6801L53.0792 19.9877L54.8135 24.5063L61.1993 22.0554L61.7296 23.4371L53.7753 26.49Z" fill="white"/>
<path d="M67.2199 9.57073L69.2761 21.8802L67.6191 22.157L65.5629 9.84753L61.1836 10.5791L60.9397 9.1193L71.3554 7.37942L71.5993 8.8392L67.2199 9.57073Z" fill="white"/>
<path d="M77.6764 7.12811L79.3546 7.20588L79.0954 12.7999L83.4507 13.0017C84.7027 13.0597 85.6447 13.4704 86.2767 14.2338C86.9227 14.9846 87.2148 16.0259 87.153 17.3578C87.0913 18.6897 86.7039 19.7062 85.9906 20.4072C85.2914 21.0956 84.3157 21.4108 83.0637 21.3527L77.0302 21.0731L77.6764 7.12811ZM83.1322 19.8743C83.7982 19.9052 84.3193 19.7491 84.6956 19.4062C85.0852 19.0639 85.297 18.5264 85.3309 17.7939L85.379 16.755C85.413 16.0224 85.2518 15.4677 84.8956 15.0908C84.5526 14.7146 84.0482 14.511 83.3822 14.4801L79.0269 14.2783L78.7769 19.6725L83.1322 19.8743Z" fill="white"/>
<path d="M110.709 14.9296L115.63 17.8853C116.624 18.4827 117.233 19.2296 117.457 20.1261C117.692 21.0294 117.528 21.9497 116.965 22.8869C116.697 23.3327 116.408 23.6721 116.096 23.9052C115.785 24.1383 115.471 24.2993 115.153 24.3883C114.842 24.4659 114.541 24.4875 114.251 24.453C113.967 24.4071 113.718 24.343 113.503 24.2605L113.441 24.3634C113.652 24.5053 113.857 24.7066 114.058 24.9674C114.271 25.2351 114.429 25.5553 114.531 25.9281C114.641 26.2894 114.669 26.6953 114.616 27.1457C114.582 27.5916 114.417 28.0603 114.122 28.5518C113.827 29.0432 113.472 29.4524 113.058 29.7791C112.655 30.1128 112.224 30.3515 111.764 30.4953C111.305 30.6391 110.831 30.6892 110.344 30.6455C109.864 30.5904 109.401 30.4289 108.955 30.1611L103.521 26.8964L110.709 14.9296ZM105.723 26.4928L109.272 28.6247C109.889 28.9954 110.467 29.1329 111.007 29.0372C111.554 28.93 112.009 28.5735 112.373 27.9678L112.723 27.3848C113.087 26.7791 113.184 26.2155 113.015 25.694C112.853 25.1611 112.464 24.7093 111.846 24.3386L108.298 22.2067L105.723 26.4928ZM109.039 20.9723L112.348 22.96C112.919 23.3033 113.451 23.4282 113.943 23.3347C114.434 23.2412 114.842 22.9258 115.164 22.3887L115.514 21.8057C115.837 21.2685 115.924 20.761 115.776 20.283C115.628 19.805 115.268 19.3943 114.696 19.051L111.387 17.0634L109.039 20.9723Z" fill="white"/>
<path d="M123.502 23.3262L124.687 24.4603L118.629 30.7881L116.536 32.7434L116.579 32.7849L119.333 31.9327L129.931 29.4808L131.029 30.5319L121.376 40.6159L120.191 39.4818L126.249 33.154L128.342 31.1987L128.299 31.1573L125.545 32.0094L114.947 34.4614L113.849 33.4103L123.502 23.3262Z" fill="white"/>
<path d="M123.932 41.1634L124.721 42.3923C125.763 42.4366 126.932 42.2335 128.227 41.783C129.522 41.3324 131.039 40.5493 132.779 39.4334L136.23 37.2198L140.765 44.2903L130.26 51.0284L131.318 52.6781L127.547 55.0969L126.716 53.8007L129.241 52.181L123.518 43.2587L120.993 44.8784L120.161 43.5822L123.932 41.1634ZM129.353 49.6143L138.612 43.6753L135.848 39.3656L133.541 40.845C131.757 41.9896 130.239 42.7968 128.988 43.2666C127.756 43.7404 126.714 43.9809 125.863 43.9881L125.779 44.0421L129.353 49.6143Z" fill="white"/>
<path d="M130.294 54.6025L143.419 49.8458L146.322 57.856L144.93 58.3603L142.6 51.9296L138.2 53.5242L140.394 59.5788L139.003 60.0831L136.808 54.0285L132.258 55.6777L134.589 62.1084L133.197 62.6127L130.294 54.6025Z" fill="white"/>
<path d="M134.47 70.7087C134.352 69.8098 134.397 68.9768 134.605 68.2097C134.828 67.454 135.203 66.7792 135.73 66.1853C136.272 65.6029 136.968 65.1145 137.817 64.7202C138.679 64.3242 139.692 64.0495 140.855 63.8963C142.019 63.743 143.061 63.7468 143.984 63.9077C144.906 64.0687 145.704 64.3602 146.378 64.7824C147.054 65.2178 147.591 65.7724 147.99 66.4462C148.403 67.1315 148.668 67.9235 148.787 68.8224C148.903 69.7081 148.851 70.5354 148.63 71.3042C148.421 72.0713 148.046 72.7461 147.504 73.3286C146.964 73.9242 146.27 74.4192 145.421 74.8135C144.571 75.2078 143.565 75.4816 142.402 75.6348C141.239 75.7881 140.189 75.7851 139.254 75.626C138.332 75.4651 137.532 75.1669 136.856 74.7315C136.195 74.3075 135.658 73.7529 135.245 73.0677C134.845 72.3807 134.587 71.5943 134.47 70.7087ZM135.958 70.5127C136.036 71.1076 136.214 71.6422 136.492 72.1167C136.769 72.5912 137.13 72.9807 137.574 73.2854C138.019 73.6033 138.532 73.8248 139.114 73.9499C139.695 74.0751 140.329 74.0923 141.017 74.0018L143.317 73.6987C144.004 73.6082 144.612 73.4272 145.142 73.1557C145.671 72.8843 146.109 72.5374 146.457 72.115C146.806 71.7058 147.054 71.2362 147.199 70.706C147.345 70.1758 147.378 69.6132 147.3 69.0184C147.221 68.4235 147.043 67.8889 146.766 67.4144C146.488 66.9399 146.126 66.5438 145.681 66.2259C145.237 65.9212 144.725 65.7063 144.144 65.5812C143.562 65.456 142.928 65.4388 142.241 65.5293L139.94 65.8324C139.253 65.9229 138.645 66.1039 138.116 66.3754C137.587 66.6468 137.147 66.9871 136.798 67.3963C136.45 67.8187 136.203 68.295 136.058 68.8252C135.913 69.3553 135.879 69.9179 135.958 70.5127Z" fill="white"/>
<path d="M78 47L78.7625 58.219C79.2372 65.2029 84.7971 70.7628 91.781 71.2375L103 72L91.781 72.7625C84.7971 73.2372 79.2372 78.7971 78.7625 85.781L78 97L77.2375 85.781C76.7628 78.7971 71.2029 73.2372 64.219 72.7625L53 72L64.219 71.2375C71.2029 70.7628 76.7628 65.2029 77.2375 58.219L78 47Z" fill="white"/>
</svg>
