<svg width="50" height="50" viewBox="0 0 50 50" fill="none" xmlns="http://www.w3.org/2000/svg">
<rect x="0.5" y="0.5" width="49" height="49" rx="24.5" fill="#C9B7B5" stroke="#C9B7B5"/>
<path d="M37.6311 16.0711C36.7094 16.4101 36.2969 17.1519 36.4194 18.22C36.4452 18.4822 36.4645 18.7125 36.4516 18.7188C36.4452 18.7316 35.8329 18.9107 35.0917 19.1154C34.3569 19.32 33.5512 19.5758 33.3063 19.6846C32.9325 19.8509 32.1977 20.3049 31.6821 20.6823C31.5467 20.7782 31.3856 20.7079 28.2016 19.1473C26.3583 18.2456 24.6954 17.4653 24.502 17.4142C24.3087 17.363 23.909 17.3246 23.6126 17.3246C23.1292 17.3246 23.0647 17.3374 22.9229 17.4845C22.7102 17.6892 22.7038 18.0217 22.91 18.2008C23.026 18.3095 23.1549 18.3415 23.6835 18.3607L24.3151 18.3863L27.8922 20.1578C30.0128 21.2131 31.5403 21.9294 31.6434 21.9294C31.7723 21.9294 31.9915 21.7951 32.3846 21.4881C33.0549 20.9509 33.9122 20.516 34.7823 20.273L35.4268 20.0939L35.6202 20.4201C35.7297 20.5991 35.8973 20.8805 35.994 21.0404L36.168 21.341L35.2979 21.8654C34.4085 22.4027 34.3053 22.505 34.3569 22.8568C34.3762 23.0294 34.6598 23.2725 34.8403 23.2725C35.0079 23.2725 42.2911 18.8723 42.594 18.5845C42.8905 18.3095 43.0001 18.0345 43.0001 17.5868C43.0001 17.1136 42.8518 16.781 42.5167 16.506C42.2073 16.2566 41.8979 16.1734 41.2663 16.1734C40.6669 16.1734 40.4864 16.2758 40.4864 16.6275C40.4864 17.0304 40.7378 17.1967 41.3501 17.1967C41.7626 17.1967 41.9688 17.3246 41.9688 17.5804C41.9688 17.7979 41.8721 17.8746 40.886 18.4694L40.2221 18.8723L39.9708 18.5909C39.4809 18.0345 38.6108 17.7148 37.9598 17.8427C37.412 17.9514 37.4249 17.9578 37.4442 17.7148C37.4829 17.2415 37.9018 16.9601 38.4755 17.024C38.8428 17.0624 39.0942 16.9793 39.1909 16.7746C39.294 16.538 39.2811 16.3909 39.12 16.2054C38.9846 16.0583 38.9137 16.0391 38.4239 16.0071C38.0372 15.988 37.8051 16.0071 37.6311 16.0711ZM38.8428 19.0194C38.9846 19.1026 39.1522 19.2241 39.2167 19.2881C39.3262 19.4096 39.294 19.4288 38.1919 20.1003C37.5731 20.484 37.0575 20.7846 37.0446 20.7718C37.0317 20.759 36.9092 20.548 36.761 20.2985L36.5032 19.8509L36.9415 19.6526C37.1864 19.5375 37.5087 19.3328 37.6633 19.1857C38.1274 18.7636 38.3337 18.7316 38.8428 19.0194Z" fill="white"/>
<path d="M21.0988 18.5845C20.957 18.6421 20.6477 19.3264 20.4092 20.1194C19.958 21.5904 18.4434 27.0777 18.3789 27.4615C18.3016 27.9156 18.3016 28.8301 18.3725 29.1883L18.424 29.4505L14.9049 29.6615C12.9713 29.7767 11.2633 29.8982 11.1086 29.9365C10.4318 30.1028 10 30.6848 10 31.4395C10 31.9575 10.1611 32.3285 10.5027 32.6099C10.9539 32.9808 11.0893 32.9936 14.2539 32.9936C17.3734 32.9936 17.3412 33 17.4766 32.6355C17.5475 32.45 17.4443 32.1174 17.2832 32.0343C17.2123 31.9959 16.5355 31.9703 15.7041 31.9703H14.2475L14.2668 31.3436L14.2861 30.7232L18.3338 30.4738C22.7875 30.2052 22.6264 30.1988 22.9293 30.6017C23.2387 31.0046 23.0969 31.6058 22.6328 31.8488C22.433 31.9575 22.2461 31.9703 20.725 31.9703C19.0557 31.9703 19.0428 31.9703 18.9074 32.1174C18.7141 32.3221 18.7205 32.6355 18.9268 32.8401L19.0879 33L20.9119 32.9808L22.7295 32.9616L23.0904 32.7826C23.4191 32.6227 23.6189 32.5907 25.0369 32.45L26.6225 32.2965L26.9641 32.4884C28.743 33.4669 30.8957 32.9233 31.6691 31.2988C31.8689 30.8767 31.8818 30.8127 31.8818 30.1476C31.8818 29.1563 31.6498 28.5359 31.0504 27.89C30.3027 27.0841 29.3037 26.7708 27.9824 26.9115C26.2486 27.1033 25.559 27.5254 25.2754 28.5743L25.198 28.8557L24.7469 28.8173C24.4955 28.7981 24.2828 28.7662 24.2699 28.7534C24.2506 28.7342 24.4439 23.509 24.4697 23.4835C24.4762 23.4707 25.8104 23.7713 27.441 24.1422C29.0652 24.5131 30.6057 24.8329 30.8506 24.8521C31.6434 24.9097 32.9066 24.6155 33.2611 24.2893C33.448 24.1166 33.448 23.7073 33.2547 23.5282C33.0742 23.3619 32.8938 23.3683 32.4426 23.5538C31.9334 23.7649 31.334 23.8736 30.8957 23.8288C30.1803 23.7521 24.1217 22.3259 22.7102 21.8974C21.9432 21.6671 21.2664 21.4625 21.2084 21.4433C21.1182 21.4177 21.1375 21.3026 21.376 20.5351C21.5242 20.0555 21.7047 19.5374 21.782 19.3903C21.9561 19.0514 21.9625 18.9235 21.7885 18.706C21.6854 18.5781 21.6016 18.5397 21.4211 18.5461C21.2922 18.5461 21.1439 18.5653 21.0988 18.5845ZM22.1365 22.7991C22.7811 22.9974 23.3354 23.1829 23.3676 23.2149C23.4063 23.2468 23.3869 24.3533 23.3225 26.0992C23.258 27.6597 23.2129 29.054 23.2129 29.2075V29.4825L23.0066 29.3737C22.7102 29.2202 22.1881 29.2011 20.7443 29.297L19.4682 29.3801L19.423 29.2202C19.3973 29.1307 19.3779 28.715 19.3779 28.2929L19.3844 27.5254L20.074 25.0632C20.8732 22.2235 20.8023 22.441 20.8926 22.441C20.9313 22.441 21.492 22.6009 22.1365 22.7991ZM29.3102 28.0051C29.4842 28.0754 29.4842 28.0754 29.452 28.5999C29.3939 29.4121 29.2199 29.7191 28.5689 30.1412C28.0727 30.4546 27.6537 30.8639 27.4539 31.2156C27.3766 31.35 27.2928 31.4587 27.2605 31.4587C27.1703 31.4587 26.6482 30.9087 26.5387 30.6976C26.3711 30.3842 26.2229 29.5592 26.2551 29.1179C26.2873 28.6255 26.4227 28.4144 26.8287 28.2098C27.3959 27.9284 28.801 27.8132 29.3102 28.0051ZM30.7926 29.5528C30.9795 30.2819 30.8248 30.9279 30.3543 31.3755C30.0965 31.625 29.5357 31.8808 29.1297 31.9383C28.7945 31.9895 28.3047 31.9256 28.3047 31.836C28.3047 31.7081 28.8654 31.1773 29.2522 30.9342C29.9096 30.5185 30.277 30.0005 30.4381 29.233C30.5025 28.9133 30.5154 28.8941 30.5992 29.0156C30.6508 29.0859 30.7346 29.329 30.7926 29.5528ZM25.0111 29.8598H25.2432L25.327 30.2883C25.3721 30.5249 25.4688 30.8447 25.5332 30.9982C25.6041 31.1581 25.6621 31.3052 25.6621 31.3308C25.6621 31.3627 24.1668 31.529 24.141 31.4971C24.141 31.4971 24.1475 31.1069 24.1668 30.6337L24.1926 29.7831L24.4891 29.8214C24.6438 29.8406 24.8822 29.8598 25.0111 29.8598ZM13.2227 31.3947V31.9703H12.3525C11.2182 31.9703 11.0313 31.8872 11.0313 31.3883C11.0313 31.1773 11.2117 30.9662 11.4309 30.9151C11.6178 30.8767 12.0754 30.8447 12.7264 30.8319L13.2227 30.8191V31.3947Z" fill="white"/>
</svg>
