<svg xmlns="http://www.w3.org/2000/svg" viewBox="0 0 253 90.38"><defs><style>.a{fill:#fff;}</style></defs><path class="a" d="M94.34,15q-6.6,0-9.13,4.84T82.68,33.45V48q0,8.81,2.53,13.64t9.13,4.84q6.6,0,9.13-4.84T106,48V33.45q0-8.81-2.53-13.64T94.34,15Z" transform="translate(0 4)"/><path class="a" d="M0-4V20.58A32.12,32.12,0,0,1,3.63,13.1,24.58,24.58,0,0,1,9.35,6.83,26.9,26.9,0,0,1,17.6,2.54,34.27,34.27,0,0,1,28.27,1,32.5,32.5,0,0,1,39.38,2.76,23.52,23.52,0,0,1,47.52,7.6,20,20,0,0,1,52.69,15a23.36,23.36,0,0,1,1.76,9.13,23.79,23.79,0,0,1-1.65,9,31.55,31.55,0,0,1-4.51,7.7,46.39,46.39,0,0,1-6.49,6.71Q38.07,50.72,34,54L19.69,65.24H56V79.1H1.65V64L25.3,43.79c2.13-1.83,3.92-3.48,5.39-4.95a28.79,28.79,0,0,0,3.52-4.4,15.15,15.15,0,0,0,2-4.29,14.9,14.9,0,0,0,.66-4.51V24.1A8,8,0,0,0,36,20.25a8.47,8.47,0,0,0-2.31-2.75,10,10,0,0,0-3.3-1.65,12,12,0,0,0-3.63-.55,12.33,12.33,0,0,0-4.84.88,11.64,11.64,0,0,0-3.52,2.42A13,13,0,0,0,16,22a18.14,18.14,0,0,0-1.54,4.07L0,20.58v65.8H253V-4ZM116.67,70q-7.26,10.45-22.33,10.45T72,70q-7.26-10.45-7.26-29.26T72,11.45Q79.27,1,94.34,1t22.33,10.45q7.26,10.46,7.26,29.26T116.67,70ZM187.9,79.1H133.56V64l23.65-20.24q3.19-2.74,5.39-4.95a28.79,28.79,0,0,0,3.52-4.4,14.61,14.61,0,0,0,2-4.29,14.9,14.9,0,0,0,.66-4.51V24.1a8,8,0,0,0-.88-3.85,8.23,8.23,0,0,0-2.31-2.75,10,10,0,0,0-3.3-1.65,12,12,0,0,0-3.63-.55,12.37,12.37,0,0,0-4.84.88,11.64,11.64,0,0,0-3.52,2.42A13,13,0,0,0,147.86,22a18.14,18.14,0,0,0-1.54,4.07l-14.41-5.5a32.12,32.12,0,0,1,3.63-7.48,24.58,24.58,0,0,1,5.72-6.27,26.9,26.9,0,0,1,8.25-4.29A34.32,34.32,0,0,1,160.18,1a32.46,32.46,0,0,1,11.11,1.76,23.52,23.52,0,0,1,8.14,4.84A19.92,19.92,0,0,1,184.6,15a23.18,23.18,0,0,1,1.76,9.13,23.79,23.79,0,0,1-1.65,9,31.55,31.55,0,0,1-4.51,7.7,45.87,45.87,0,0,1-6.49,6.71Q170,50.72,165.9,54L151.6,65.24h36.3Zm62.55-12a20.47,20.47,0,0,1-5.94,7.15,28.81,28.81,0,0,1-9.24,4.62,43,43,0,0,1-11.88,1.54,39.89,39.89,0,0,1-10.34-1.21A32.5,32.5,0,0,1,205.13,76a31,31,0,0,1-5.83-4.73A39.7,39.7,0,0,1,195,65.68l12.21-9.46A26.5,26.5,0,0,0,213.38,64q3.74,3,10,3,5.61,0,8.69-2.75a9.82,9.82,0,0,0,3.19-7.7v-.66a7.78,7.78,0,0,0-3.63-7q-3.52-2.41-9.79-2.42h-6.93V32.68h7.15q6.17,0,8.91-2.31a7.48,7.48,0,0,0,2.86-5.94v-.77A8.69,8.69,0,0,0,231.09,17q-2.64-2.53-7.59-2.53a16.75,16.75,0,0,0-8.69,2.42,20.22,20.22,0,0,0-6.93,6.71l-10.34-9.68a39.79,39.79,0,0,1,4.73-5.17A24.62,24.62,0,0,1,208,4.63,27,27,0,0,1,215.14,2a36.81,36.81,0,0,1,8.91-1,40.11,40.11,0,0,1,11.11,1.43,24.72,24.72,0,0,1,8.58,4.18,17.94,17.94,0,0,1,7.48,14.74A17.28,17.28,0,0,1,250,28a15,15,0,0,1-3.19,5.17,17,17,0,0,1-4.62,3.63,21.17,21.17,0,0,1-5.61,1.87v.66a21.9,21.9,0,0,1,6.27,2.2,16.93,16.93,0,0,1,8.47,9.24,19.06,19.06,0,0,1,1.21,7A20.66,20.66,0,0,1,250.45,67.11Z" transform="translate(0 4)"/></svg>