<svg width="23" height="19" viewBox="0 0 23 19" fill="none" xmlns="http://www.w3.org/2000/svg">
<g clip-path="url(#clip0_377_279)">
<path fill-rule="evenodd" clip-rule="evenodd" d="M9.74779 17.2316C10.2732 17.1133 11.1666 16.3172 11.4998 16.1014L12.3084 16.71C12.4783 16.8265 13.0517 17.1866 13.2515 17.2316C13.1296 17.6737 11.7597 18.5156 10.4205 17.841L9.87394 17.457C9.78642 17.3638 9.76107 17.2567 9.74748 17.2316H9.74779ZM17.205 17.2316C16.5341 17.2316 16.2485 17.2251 15.5912 17.0978C14.6112 16.908 13.9261 16.6227 13.0855 16.1318L12.6678 15.8407C14.2059 15.8407 16.2359 15.0192 17.5503 14.2623C17.7253 14.1616 17.878 14.0702 18.0389 13.9525C18.2852 13.7723 18.2626 13.7857 18.6151 13.8669C19.5226 14.0766 20.1676 14.3187 20.9424 14.7888C21.185 14.936 21.7388 15.2931 21.8768 15.4929C21.3848 15.8115 21.0589 16.128 20.4247 16.4352C19.5154 16.8756 18.386 17.2316 17.2047 17.2316H17.205ZM10.3318 15.8407C9.16951 16.8181 7.33328 17.2316 5.79463 17.2316C4.36313 17.2316 3.17519 16.7854 2.06361 16.1476C1.70929 15.944 1.44822 15.704 1.12286 15.4932C1.38061 15.1208 2.60024 14.4667 3.08646 14.2635C3.48033 14.0988 3.87178 13.9899 4.31212 13.8844C4.89372 13.7451 4.71987 13.8164 5.15147 14.0731C6.31918 14.7675 7.5207 15.3533 8.89094 15.6272C9.32163 15.7134 9.81056 15.841 10.3321 15.841L10.3318 15.8407ZM11.4998 14.7976L10.9466 14.2027C9.59748 12.5855 8.66971 10.3656 8.66971 8.23446C8.66971 6.56645 8.88369 5.17848 9.55312 3.82994C9.62284 3.68948 9.66026 3.56946 9.733 3.43893C10.1235 2.73633 10.6282 1.95314 11.1745 1.35654C11.2843 1.23681 11.4087 1.18688 11.4548 1.01926C11.6531 1.07036 11.9148 1.43393 12.0778 1.63337C12.4892 2.13506 13.0258 2.89811 13.3122 3.48156C14.6363 6.17689 14.7389 9.14585 13.5087 11.9168C13.3798 12.2074 13.2684 12.4533 13.1148 12.7094L12.6416 13.4683C12.5486 13.6006 12.4783 13.6894 12.379 13.8228L11.8249 14.5035C11.7207 14.618 11.6233 14.717 11.4995 14.7973L11.4998 14.7976ZM12.6229 14.9713L13.1556 14.3134C14.0486 13.169 14.7108 11.6607 15.0298 10.259L15.2707 8.71016C15.3162 8.16963 15.1183 8.11269 15.5357 7.79322C16.5929 6.98433 16.886 6.74954 18.1473 6.1474C19.0255 5.72835 20.7948 5.23543 22.101 5.23543C22.0108 5.61009 22.0162 6.33371 21.7781 7.26992C20.9943 10.3528 18.5894 13.075 15.5553 14.2448C15.0226 14.4501 14.2768 14.6916 13.7052 14.802C13.3753 14.8656 12.9494 14.8974 12.6223 14.9713H12.6229ZM7.77151 6.84357L6.36053 5.90532C6.10158 5.75463 4.98909 5.1706 4.71686 5.1484C4.71686 3.8387 4.7733 2.93549 5.13668 1.72974C5.18044 1.5849 5.24412 1.41728 5.2559 1.28003C5.71918 1.38428 6.72724 1.96715 7.11567 2.21887L8.32142 3.09522C8.50039 3.24824 8.48651 3.29321 8.71498 3.41002C8.68661 3.52741 8.61991 3.66845 8.56468 3.78614C8.49677 3.93156 8.45723 4.05421 8.40049 4.19233C8.18681 4.71213 8.04344 5.34172 7.92483 5.90532C7.85904 6.21778 7.84063 6.55623 7.77151 6.84357ZM14.2403 3.27948C14.4832 2.92877 15.2613 2.33276 15.6328 2.06235C16.1511 1.68565 16.701 1.36676 17.2949 1.06277C17.3613 1.33814 17.6831 2.09652 17.8883 2.96586C18.0419 3.61677 18.0827 4.42945 18.1485 5.19162C17.103 5.42728 15.3274 6.81787 15.2284 6.84328C15.2284 6.03556 14.7214 4.27673 14.3296 3.49704C14.288 3.41381 14.2765 3.35716 14.2403 3.27919V3.27948ZM9.11911 2.58419L8.28399 1.9143C7.64716 1.48737 5.94524 0.367474 5.25559 0.367474C4.40659 0.367474 4.23275 1.43276 4.07641 2.13857C3.90528 2.91154 3.77309 3.84396 3.77309 4.80061C3.07741 4.6438 1.16904 4.13831 0.537042 4.40814C0.15736 4.57021 -0.000488281 4.85317 -0.000488281 5.27894C-0.000488281 6.05804 0.168527 6.92826 0.366819 7.66181C0.566921 8.4012 1.30214 8.06713 1.30214 7.7132C1.30214 7.49098 1.23755 7.33183 1.18504 7.13092C1.12648 6.90577 1.10023 6.75947 1.05827 6.51476C0.987649 6.10389 0.933926 5.65476 0.898011 5.23572C2.80698 5.23572 4.84422 6.00343 6.36959 6.98287C6.62673 7.14786 6.82261 7.2962 7.07221 7.47667C7.22161 7.58442 7.27684 7.65714 7.41175 7.75672C7.85179 8.08173 7.68821 8.07618 7.75883 8.59452C7.84183 9.2063 7.8035 9.44984 7.9695 10.1726C8.12524 10.8509 8.30542 11.4145 8.54747 12.0038C9.31046 13.8617 10.138 14.5356 10.3765 14.9716L9.11488 14.7579C8.68329 14.6714 8.3356 14.5517 7.93359 14.4232C6.31556 13.9063 4.47993 12.6723 3.41996 11.4014C3.13415 11.0586 2.9274 10.7122 2.60507 10.7122C2.40798 10.7122 2.15597 10.9561 2.15597 11.1468C2.15597 11.3529 2.36905 11.5702 2.48072 11.7019L2.90748 12.2015C3.15135 12.4465 3.65025 12.86 3.81806 13.1024C3.32369 13.1129 2.13967 13.6996 1.69238 13.958C0.910687 14.4098 -0.459848 15.2295 0.50354 16.1353C2.11643 17.6518 5.06213 18.475 7.48298 17.9961C7.74073 17.945 7.96618 17.907 8.18107 17.8457C9.26126 17.5355 8.65884 17.6509 9.31136 18.1757C11.6718 20.0744 13.9527 18.1754 14.1054 17.6232C14.2358 17.6526 14.2602 17.6789 14.4021 17.7271C16.3711 18.3967 18.711 18.2008 20.5144 17.3916C20.9674 17.1883 21.4669 16.9118 21.8451 16.6361C22.554 16.119 23.4652 15.5308 22.2305 14.5862C21.5707 14.0815 19.9449 13.1193 19.1816 13.1027L19.9114 12.3747C21.7189 10.643 22.9998 7.66502 22.9998 5.14899C22.9998 4.79097 22.7194 4.51852 22.4623 4.40872C22.1734 4.28549 21.629 4.35002 21.2789 4.39675C20.0577 4.55999 20.1003 4.60729 19.0467 4.8447C19.0467 3.49441 18.7231 2.25771 18.2776 1.06832C18.2233 0.922893 18.1445 0.669713 18.0471 0.552613C17.4733 -0.135967 16.8974 0.263807 16.471 0.483697C15.8375 0.810758 14.7211 1.54986 14.1826 2.05096C14.0432 2.18091 13.9436 2.35933 13.7456 2.41044C13.3991 1.77646 12.7206 0.918805 12.1846 0.40018C11.9438 0.166857 11.8152 -0.0559536 11.4035 0.0129628C10.6822 0.133274 9.24527 2.49483 9.11881 2.58448L9.11911 2.58419Z" fill="white"/>
<path fill-rule="evenodd" clip-rule="evenodd" d="M1.12305 9.49491C1.12305 10.1055 2.06652 10.0424 2.06652 9.49491C2.06652 9.11675 1.4988 8.88926 1.23079 9.20786C1.17586 9.27298 1.12305 9.39095 1.12305 9.49491Z" fill="white"/>
</g>
<defs>
<clipPath id="clip0_377_279">
<rect width="23" height="19" fill="white"/>
</clipPath>
</defs>
</svg>
