<svg width="50" height="50" viewBox="0 0 50 50" fill="none" xmlns="http://www.w3.org/2000/svg">
<rect width="50" height="50" rx="25" fill="#E3CED5"/>
<g clip-path="url(#clip0_160_554)">
<path fill-rule="evenodd" clip-rule="evenodd" d="M23.7478 33.2316C24.2732 33.1133 25.1666 32.3173 25.4998 32.1015L26.3084 32.71C26.4783 32.8265 27.0517 33.1866 27.2515 33.2316C27.1296 33.6737 25.7597 34.5156 24.4205 33.841L23.8739 33.457C23.7864 33.3639 23.7611 33.2567 23.7475 33.2316H23.7478ZM31.205 33.2316C30.5341 33.2316 30.2485 33.2251 29.5912 33.0978C28.6112 32.908 27.9261 32.6227 27.0855 32.1318L26.6678 31.8407C28.2059 31.8407 30.2359 31.0192 31.5503 30.2623C31.7253 30.1616 31.878 30.0702 32.0389 29.9525C32.2852 29.7723 32.2626 29.7857 32.6151 29.8669C33.5226 30.0766 34.1676 30.3187 34.9424 30.7888C35.185 30.936 35.7388 31.2931 35.8768 31.4929C35.3848 31.8115 35.0589 32.128 34.4247 32.4352C33.5154 32.8756 32.386 33.2316 31.2047 33.2316H31.205ZM24.3318 31.8407C23.1695 32.8181 21.3333 33.2316 19.7946 33.2316C18.3631 33.2316 17.1752 32.7854 16.0636 32.1476C15.7093 31.9441 15.4482 31.704 15.1229 31.4932C15.3806 31.1209 16.6002 30.4667 17.0865 30.2635C17.4803 30.0988 17.8718 29.9899 18.3121 29.8845C18.8937 29.7452 18.7199 29.8164 19.1515 30.0731C20.3192 30.7675 21.5207 31.3533 22.8909 31.6272C23.3216 31.7134 23.8106 31.841 24.3321 31.841L24.3318 31.8407ZM25.4998 30.7976L24.9466 30.2028C23.5975 28.5856 22.6697 26.3656 22.6697 24.2345C22.6697 22.5665 22.8837 21.1785 23.5531 19.83C23.6228 19.6895 23.6603 19.5695 23.733 19.4389C24.1235 18.7363 24.6282 17.9532 25.1745 17.3566C25.2843 17.2368 25.4087 17.1869 25.4548 17.0193C25.6531 17.0704 25.9148 17.4339 26.0778 17.6334C26.4892 18.1351 27.0258 18.8981 27.3122 19.4816C28.6363 22.1769 28.7389 25.1459 27.5087 27.9168C27.3798 28.2074 27.2684 28.4533 27.1148 28.7094L26.6416 29.4683C26.5486 29.6006 26.4783 29.6894 26.379 29.8228L25.8249 30.5035C25.7207 30.618 25.6233 30.717 25.4995 30.7973L25.4998 30.7976ZM26.6229 30.9713L27.1556 30.3134C28.0486 29.169 28.7108 27.6607 29.0298 26.259L29.2707 24.7102C29.3162 24.1696 29.1183 24.1127 29.5357 23.7932C30.5929 22.9843 30.886 22.7496 32.1473 22.1474C33.0255 21.7284 34.7948 21.2354 36.101 21.2354C36.0108 21.6101 36.0162 22.3337 35.7781 23.2699C34.9943 26.3528 32.5894 29.075 29.5553 30.2448C29.0226 30.4501 28.2768 30.6916 27.7052 30.802C27.3753 30.8656 26.9494 30.8975 26.6223 30.9713H26.6229ZM21.7715 22.8436L20.3605 21.9053C20.1016 21.7547 18.9891 21.1706 18.7169 21.1484C18.7169 19.8387 18.7733 18.9355 19.1367 17.7298C19.1804 17.5849 19.2441 17.4173 19.2559 17.28C19.7192 17.3843 20.7272 17.9672 21.1157 18.2189L22.3214 19.0952C22.5004 19.2483 22.4865 19.2932 22.715 19.41C22.6866 19.5274 22.6199 19.6685 22.5647 19.7862C22.4968 19.9316 22.4572 20.0542 22.4005 20.1923C22.1868 20.7121 22.0434 21.3417 21.9248 21.9053C21.859 22.2178 21.8406 22.5562 21.7715 22.8436ZM28.2403 19.2795C28.4832 18.9288 29.2613 18.3328 29.6328 18.0624C30.1511 17.6857 30.701 17.3668 31.2949 17.0628C31.3613 17.3382 31.6831 18.0965 31.8883 18.9659C32.0419 19.6168 32.0827 20.4295 32.1485 21.1916C31.103 21.4273 29.3274 22.8179 29.2284 22.8433C29.2284 22.0356 28.7214 20.2767 28.3296 19.4971C28.288 19.4138 28.2765 19.3572 28.2403 19.2792V19.2795ZM23.1191 18.5842L22.284 17.9143C21.6472 17.4874 19.9452 16.3675 19.2556 16.3675C18.4066 16.3675 18.2327 17.4328 18.0764 18.1386C17.9053 18.9116 17.7731 19.844 17.7731 20.8006C17.0774 20.6438 15.169 20.1383 14.537 20.4082C14.1574 20.5702 13.9995 20.8532 13.9995 21.279C13.9995 22.0581 14.1685 22.9283 14.3668 23.6618C14.5669 24.4012 15.3021 24.0671 15.3021 23.7132C15.3021 23.491 15.2376 23.3318 15.185 23.1309C15.1265 22.9058 15.1002 22.7595 15.0583 22.5148C14.9876 22.1039 14.9339 21.6548 14.898 21.2357C16.807 21.2357 18.8442 22.0034 20.3696 22.9829C20.6267 23.1479 20.8226 23.2962 21.0722 23.4767C21.2216 23.5844 21.2768 23.6572 21.4117 23.7567C21.8518 24.0817 21.6882 24.0762 21.7588 24.5945C21.8418 25.2063 21.8035 25.4499 21.9695 26.1726C22.1252 26.851 22.3054 27.4146 22.5475 28.0039C23.3105 29.8617 24.138 30.5357 24.3765 30.9716L23.1149 30.7579C22.6833 30.6714 22.3356 30.5517 21.9336 30.4232C20.3156 29.9064 18.4799 28.6723 17.42 27.4014C17.1341 27.0586 16.9274 26.7123 16.6051 26.7123C16.408 26.7123 16.156 26.9561 16.156 27.1468C16.156 27.3529 16.369 27.5702 16.4807 27.7019L16.9075 28.2015C17.1514 28.4466 17.6502 28.8601 17.8181 29.1024C17.3237 29.1129 16.1397 29.6996 15.6924 29.958C14.9107 30.4098 13.5402 31.2295 14.5035 32.1353C16.1164 33.6518 19.0621 34.475 21.483 33.9961C21.7407 33.945 21.9662 33.907 22.1811 33.8457C23.2613 33.5356 22.6588 33.6509 23.3114 34.1757C25.6718 36.0744 27.9527 34.1754 28.1054 33.6232C28.2358 33.6527 28.2602 33.6789 28.4021 33.7271C30.3711 34.3967 32.711 34.2008 34.5144 33.3916C34.9674 33.1884 35.4669 32.9118 35.8451 32.6361C36.554 32.119 37.4652 31.5309 36.2305 30.5862C35.5707 30.0816 33.9449 29.1194 33.1816 29.1027L33.9114 28.3747C35.7189 26.643 36.9998 23.665 36.9998 21.149C36.9998 20.791 36.7194 20.5185 36.4623 20.4087C36.1734 20.2855 35.629 20.35 35.2789 20.3968C34.0577 20.56 34.1003 20.6073 33.0467 20.8447C33.0467 19.4944 32.7231 18.2577 32.2776 17.0683C32.2233 16.9229 32.1445 16.6697 32.0471 16.5526C31.4733 15.864 30.8974 16.2638 30.471 16.4837C29.8375 16.8108 28.7211 17.5499 28.1826 18.051C28.0432 18.1809 27.9436 18.3593 27.7456 18.4105C27.3991 17.7765 26.7206 16.9188 26.1846 16.4002C25.9438 16.1669 25.8152 15.9441 25.4035 16.013C24.6822 16.1333 23.2453 18.4948 23.1188 18.5845L23.1191 18.5842Z" fill="#7D6858"/>
<path fill-rule="evenodd" clip-rule="evenodd" d="M15.123 25.495C15.123 26.1056 16.0665 26.0426 16.0665 25.495C16.0665 25.1169 15.4988 24.8894 15.2308 25.208C15.1759 25.2731 15.123 25.3911 15.123 25.495Z" fill="#7D6858"/>
</g>
<defs>
<clipPath id="clip0_160_554">
<rect width="23" height="19" fill="white" transform="translate(14 16)"/>
</clipPath>
</defs>
</svg>
