<svg width="50" height="50" viewBox="0 0 50 50" fill="none" xmlns="http://www.w3.org/2000/svg">
<rect x="0.5" y="0.5" width="49" height="49" rx="24.5" fill="#EBD0B5" stroke="#EFD0B1"/>
<path fill-rule="evenodd" clip-rule="evenodd" d="M30.5628 30.6547V18.3447C30.5628 16.6582 32.6723 16.6582 32.6723 18.3447V30.6547C32.6723 31.9158 31.5046 32.2666 30.8373 31.5454C30.637 31.3296 30.5628 31.0552 30.5628 30.6547ZM18.3285 30.6547V18.3447C18.3285 17.9432 18.4036 17.6697 18.603 17.4539C19.2703 16.7328 20.4381 17.0836 20.4381 18.3447V30.6547C20.4381 32.3412 18.3285 32.3412 18.3285 30.6547ZM33.7271 29.3278V19.6706C33.7271 18.4095 34.8948 18.0587 35.5621 18.7798C35.7625 18.9956 35.8366 19.2701 35.8366 19.6706V29.3278C35.8366 31.0143 33.7271 31.0143 33.7271 29.3278ZM15.1652 29.3278V19.6706C15.1652 17.9841 17.2747 17.9841 17.2747 19.6706V29.3278C17.2747 31.0143 15.1652 31.0143 15.1652 29.3278ZM37.2603 26.0916H36.8914V22.9077C38.1712 22.9077 37.9461 23.1235 37.9461 25.4015C37.9461 25.8545 37.7105 26.0916 37.2603 26.0916ZM13.0556 25.4015V23.5978C13.0556 22.8473 13.6276 22.9077 14.1104 22.9077V26.0916C13.6276 26.0916 13.0556 26.1529 13.0556 25.4015ZM25.2899 24.3935C25.2899 24.6866 25.4126 25.0303 25.7118 25.0303H29.509V26.0916H21.4937V22.9077H29.509V23.969H25.7118C25.5574 23.969 25.2899 24.2381 25.2899 24.3935ZM17.3267 17.6022C16.7504 17.4672 17.1167 17.3367 16.0081 17.3367C15.1343 17.3367 14.1095 18.3669 14.1095 19.247V21.8473H13.4237C12.7582 21.8473 12 22.6102 12 23.2799V25.7204C12 26.39 12.7582 27.1529 13.4237 27.1529H14.1095V29.7532C14.1095 29.9495 14.2534 30.3589 14.3222 30.4939C14.7521 31.3296 15.4679 31.6635 16.377 31.6635C16.8536 31.6635 16.9975 31.4753 17.3259 31.398C17.4944 31.7506 17.5959 32.3767 18.4662 32.7977C19.2783 33.1902 20.25 32.993 20.8732 32.3669C21.183 32.0552 21.4919 31.541 21.4919 31.0801V27.1538H29.5072V31.0801C29.5072 31.541 29.817 32.0561 30.1259 32.3669C31.2292 33.4779 32.9883 33.0295 33.5515 31.7532C33.6168 31.6049 33.6132 31.5223 33.6733 31.398C34.2496 31.533 33.8833 31.6635 34.9919 31.6635C35.187 31.6635 35.5939 31.5188 35.728 31.4486C36.3203 31.1405 36.8905 30.398 36.8905 29.7532V27.1529H37.5763C38.2418 27.1529 39 26.39 39 25.7204V23.2799C39 22.6102 38.2418 21.8473 37.5763 21.8473H36.8905V19.247C36.8905 19.0507 36.7466 18.6413 36.6778 18.5063C36.2479 17.6706 35.5321 17.3367 34.623 17.3367C34.1464 17.3367 34.0025 17.5249 33.6741 17.6022C33.5815 17.4068 33.6432 17.3606 33.4226 17.0063C32.607 15.6981 30.629 15.5738 29.7199 17.1786C29.644 17.3118 29.5081 17.7141 29.5081 17.921V21.8473H21.4928V17.921C21.4928 17.7141 21.3569 17.3127 21.281 17.1786C20.2783 15.4086 18.0858 15.8029 17.4485 17.247C17.3832 17.3953 17.3868 17.4779 17.3267 17.6022Z" fill="#7D6858"/>
<path fill-rule="evenodd" clip-rule="evenodd" d="M23.1802 24.3936C23.1802 25.3722 24.2349 25.0534 24.2349 24.6058C24.2349 23.6271 23.1802 23.9459 23.1802 24.3936Z" fill="#7D6858"/>
</svg>
