<svg width="30" height="30" viewBox="0 0 30 30" fill="none" xmlns="http://www.w3.org/2000/svg">
<rect x="0.5" y="0.5" width="29" height="29" rx="14.5" fill="#F6F3EE" stroke="#F6F3EE"/>
<path fill-rule="evenodd" clip-rule="evenodd" d="M18.3377 18.3928V11.0068C18.3377 9.99487 19.6034 9.99487 19.6034 11.0068V18.3928C19.6034 19.1494 18.9028 19.3599 18.5024 18.9272C18.3822 18.7977 18.3377 18.6331 18.3377 18.3928ZM10.9971 18.3928V11.0068C10.9971 10.7659 11.0422 10.6018 11.1618 10.4723C11.5622 10.0396 12.2628 10.2501 12.2628 11.0068V18.3928C12.2628 19.4047 10.9971 19.4047 10.9971 18.3928ZM20.2363 17.5967V11.8023C20.2363 11.0457 20.9369 10.8352 21.3373 11.2679C21.4575 11.3974 21.502 11.562 21.502 11.8023V17.5967C21.502 18.6086 20.2363 18.6086 20.2363 17.5967ZM9.0991 17.5967V11.8023C9.0991 10.7904 10.3648 10.7904 10.3648 11.8023V17.5967C10.3648 18.6086 9.0991 18.6086 9.0991 17.5967ZM22.3562 15.6549H22.1348V13.7446C22.9027 13.7446 22.7677 13.8741 22.7677 15.2409C22.7677 15.5127 22.6263 15.6549 22.3562 15.6549ZM7.8334 15.2409V14.1587C7.8334 13.7084 8.17657 13.7446 8.46625 13.7446V15.6549C8.17657 15.6549 7.8334 15.6917 7.8334 15.2409ZM15.174 14.6361C15.174 14.8119 15.2476 15.0182 15.4271 15.0182H17.7054V15.6549H12.8962V13.7446H17.7054V14.3814H15.4271C15.3344 14.3814 15.174 14.5428 15.174 14.6361ZM10.3961 10.5613C10.0502 10.4803 10.27 10.402 9.60486 10.402C9.08057 10.402 8.46572 11.0201 8.46572 11.5482V13.1084H8.05423C7.65493 13.1084 7.20001 13.5661 7.20001 13.9679V15.4322C7.20001 15.834 7.65493 16.2917 8.05423 16.2917H8.46572V17.8519C8.46572 17.9697 8.55204 18.2153 8.59335 18.2963C8.85126 18.7977 9.28075 18.9981 9.82622 18.9981C10.1122 18.9981 10.1985 18.8851 10.3955 18.8388C10.4967 19.0503 10.5576 19.426 11.0798 19.6786C11.567 19.9141 12.15 19.7958 12.5239 19.4201C12.7098 19.2331 12.8952 18.9246 12.8952 18.648V16.2922H17.7043V18.648C17.7043 18.9246 17.8902 19.2336 18.0756 19.4201C18.7375 20.0867 19.793 19.8176 20.1309 19.0519C20.1701 18.9629 20.168 18.9134 20.204 18.8388C20.5498 18.9198 20.33 18.9981 20.9952 18.9981C21.1122 18.9981 21.3563 18.9112 21.4368 18.8692C21.7922 18.6842 22.1343 18.2388 22.1343 17.8519V16.2917H22.5458C22.9451 16.2917 23.4 15.834 23.4 15.4322V13.9679C23.4 13.5661 22.9451 13.1084 22.5458 13.1084H22.1343V11.5482C22.1343 11.4304 22.048 11.1848 22.0067 11.1038C21.7488 10.6023 21.3193 10.402 20.7738 10.402C20.4878 10.402 20.4015 10.5149 20.2045 10.5613C20.1489 10.4441 20.186 10.4164 20.0536 10.2038C19.5642 9.41885 18.3774 9.34425 17.832 10.3071C17.7864 10.3871 17.7049 10.6284 17.7049 10.7526V13.1084H12.8957V10.7526C12.8957 10.6284 12.8141 10.3876 12.7686 10.3071C12.167 9.24513 10.8515 9.48172 10.4691 10.3482C10.4299 10.4371 10.4321 10.4867 10.3961 10.5613Z" fill="#7D6858"/>
<path fill-rule="evenodd" clip-rule="evenodd" d="M13.9081 14.6361C13.9081 15.2233 14.5409 15.032 14.5409 14.7635C14.5409 14.1762 13.9081 14.3675 13.9081 14.6361Z" fill="#7D6858"/>
</svg>
